G04                                                      *
G04 Greetings!                                           *
G04 This Gerber was generated by PCBmodE, an open source *
G04 PCB design software. Get it here:                    *
G04                                                      *
G04   http://pcbmode.com                                 *
G04                                                      *
G04 Also visit                                           *
G04                                                      *
G04   http://boldport.com                                *
G04                                                      *
G04 and follow @boldport / @pcbmode for updates!         *
G04                                                      *

G04 leading zeros omitted (L); absolute data (A); 6 integer digits and 6 fractional digits *
%FSLAX66Y66*%

G04 mode (MO): millimeters (MM) *
%MOMM*%

G04 Aperture definitions *
%ADD10C,0.001X*%
%ADD11C,0.001X*%

%LPD*%
G36*
G01X33454271Y-27315854D02*
G01X33454271Y-27315854D01*
G01X33407474Y-27271990D01*
G01X33358588Y-27231782D01*
G01X33307794Y-27195228D01*
G01X33255274Y-27162331D01*
G01X33201210Y-27133088D01*
G01X33145783Y-27107501D01*
G01X33089175Y-27085569D01*
G01X33031568Y-27067293D01*
G01X32973144Y-27052671D01*
G01X32914083Y-27041706D01*
G01X32854568Y-27034395D01*
G01X32794781Y-27030740D01*
G01X32734902Y-27030740D01*
G01X32675115Y-27034395D01*
G01X32615600Y-27041706D01*
G01X32556539Y-27052671D01*
G01X32498115Y-27067293D01*
G01X32440508Y-27085569D01*
G01X32383900Y-27107501D01*
G01X32328473Y-27133088D01*
G01X32274409Y-27162331D01*
G01X32221889Y-27195228D01*
G01X32171095Y-27231782D01*
G01X32122209Y-27271990D01*
G01X32075412Y-27315854D01*
G01X32075412Y-27315854D01*
G01X32075412Y-27315854D01*
G01X32031549Y-27362650D01*
G01X31991340Y-27411536D01*
G01X31954787Y-27462330D01*
G01X31921889Y-27514850D01*
G01X31892647Y-27568914D01*
G01X31867060Y-27624341D01*
G01X31845128Y-27680949D01*
G01X31826851Y-27738556D01*
G01X31812230Y-27796981D01*
G01X31801264Y-27856041D01*
G01X31793954Y-27915556D01*
G01X31790298Y-27975344D01*
G01X31790298Y-28035222D01*
G01X31793954Y-28095009D01*
G01X31801264Y-28154524D01*
G01X31812230Y-28213585D01*
G01X31826851Y-28272010D01*
G01X31845128Y-28329617D01*
G01X31867060Y-28386224D01*
G01X31892647Y-28441651D01*
G01X31921889Y-28495716D01*
G01X31954787Y-28548235D01*
G01X31991340Y-28599029D01*
G01X32031549Y-28647915D01*
G01X32075412Y-28694712D01*
G01X32075412Y-28694712D01*
G01X32075412Y-28694712D01*
G01X32122209Y-28738576D01*
G01X32171095Y-28778784D01*
G01X32221889Y-28815337D01*
G01X32274409Y-28848235D01*
G01X32328473Y-28877477D01*
G01X32383900Y-28903064D01*
G01X32440508Y-28924996D01*
G01X32498115Y-28943273D01*
G01X32556539Y-28957894D01*
G01X32615600Y-28968860D01*
G01X32675115Y-28976171D01*
G01X32734902Y-28979826D01*
G01X32794781Y-28979826D01*
G01X32854568Y-28976171D01*
G01X32914083Y-28968860D01*
G01X32973144Y-28957894D01*
G01X33031568Y-28943273D01*
G01X33089175Y-28924996D01*
G01X33145783Y-28903064D01*
G01X33201210Y-28877477D01*
G01X33255274Y-28848235D01*
G01X33307794Y-28815337D01*
G01X33358588Y-28778784D01*
G01X33407474Y-28738576D01*
G01X33454271Y-28694712D01*
G01X33454271Y-28694712D01*
G01X33454271Y-28694712D01*
G01X33498134Y-28647915D01*
G01X33538343Y-28599029D01*
G01X33574896Y-28548235D01*
G01X33607794Y-28495716D01*
G01X33637036Y-28441651D01*
G01X33662623Y-28386224D01*
G01X33684555Y-28329617D01*
G01X33702832Y-28272010D01*
G01X33717453Y-28213585D01*
G01X33728419Y-28154524D01*
G01X33735729Y-28095009D01*
G01X33739385Y-28035222D01*
G01X33739385Y-27975344D01*
G01X33735729Y-27915556D01*
G01X33728419Y-27856041D01*
G01X33717453Y-27796981D01*
G01X33702832Y-27738556D01*
G01X33684555Y-27680949D01*
G01X33662623Y-27624341D01*
G01X33637036Y-27568914D01*
G01X33607794Y-27514850D01*
G01X33574896Y-27462330D01*
G01X33538343Y-27411536D01*
G01X33498134Y-27362650D01*
G01X33454271Y-27315854D01*
G01X33454271Y-27315854D01*
G37*
G36*
G01X31658219Y-26898660D02*
G01X31180922Y-27375957D01*
G01X31180922Y-27375957D01*
G01X31143737Y-27407590D01*
G01X31103058Y-27432193D01*
G01X31059758Y-27449766D01*
G01X31014711Y-27460310D01*
G01X30968790Y-27463825D01*
G01X30922870Y-27460310D01*
G01X30877823Y-27449766D01*
G01X30834523Y-27432193D01*
G01X30793844Y-27407590D01*
G01X30756658Y-27375957D01*
G01X30756658Y-27375957D01*
G01X30279361Y-26898660D01*
G01X29802064Y-26421363D01*
G01X29802064Y-26421363D01*
G01X29770432Y-26384178D01*
G01X29745829Y-26343499D01*
G01X29728255Y-26300199D01*
G01X29717711Y-26255152D01*
G01X29714196Y-26209231D01*
G01X29717711Y-26163311D01*
G01X29728255Y-26118264D01*
G01X29745829Y-26074964D01*
G01X29770432Y-26034285D01*
G01X29802064Y-25997099D01*
G01X29802064Y-25997099D01*
G01X30279361Y-25519802D01*
G01X30756658Y-25042505D01*
G01X30756658Y-25042505D01*
G01X30793844Y-25010873D01*
G01X30834523Y-24986270D01*
G01X30877823Y-24968696D01*
G01X30922870Y-24958152D01*
G01X30968790Y-24954637D01*
G01X31014711Y-24958152D01*
G01X31059758Y-24968696D01*
G01X31103058Y-24986270D01*
G01X31143737Y-25010873D01*
G01X31180922Y-25042505D01*
G01X31180922Y-25042505D01*
G01X31658219Y-25519802D01*
G01X32135516Y-25997099D01*
G01X32135516Y-25997099D01*
G01X32167149Y-26034285D01*
G01X32191752Y-26074964D01*
G01X32209325Y-26118264D01*
G01X32219869Y-26163311D01*
G01X32223384Y-26209231D01*
G01X32219869Y-26255152D01*
G01X32209325Y-26300199D01*
G01X32191752Y-26343499D01*
G01X32167149Y-26384178D01*
G01X32135516Y-26421363D01*
G01X32135516Y-26421363D01*
G01X31658219Y-26898660D01*
G37*
G36*
G01X3255144Y-36519477D02*
G01X3255144Y-36519477D01*
G01X3266312Y-36470859D01*
G01X3274388Y-36421782D01*
G01X3279356Y-36372366D01*
G01X3281200Y-36322730D01*
G01X3281200Y-36322730D01*
G01X3281200Y-36322730D01*
G01X3279420Y-36273777D01*
G01X3274599Y-36225035D01*
G01X3266755Y-36176621D01*
G01X3255904Y-36128647D01*
G01X3255904Y-36128647D01*
G01X3255904Y-36128647D01*
G01X3261424Y-36114975D01*
G01X3261424Y-36114975D01*
G01X3261424Y-36114975D01*
G01X3297928Y-36101121D01*
G01X3334408Y-36086613D01*
G01X3368718Y-36072311D01*
G01X3368718Y-36072311D01*
G01X3354199Y-36021743D01*
G01X3336572Y-35973019D01*
G01X3315973Y-35926160D01*
G01X3292537Y-35881184D01*
G01X3266398Y-35838112D01*
G01X3237693Y-35796962D01*
G01X3206557Y-35757755D01*
G01X3173125Y-35720509D01*
G01X3137531Y-35685243D01*
G01X3099913Y-35651978D01*
G01X3060404Y-35620733D01*
G01X3019141Y-35591527D01*
G01X2976258Y-35564379D01*
G01X2931890Y-35539308D01*
G01X2886174Y-35516336D01*
G01X2839245Y-35495479D01*
G01X2791237Y-35476759D01*
G01X2742286Y-35460194D01*
G01X2692527Y-35445804D01*
G01X2642096Y-35433608D01*
G01X2591128Y-35423626D01*
G01X2539758Y-35415877D01*
G01X2488122Y-35410380D01*
G01X2436354Y-35407155D01*
G01X2384591Y-35406222D01*
G01X2384591Y-35406222D01*
G01X2384591Y-35406222D01*
G01X2325491Y-35407568D01*
G01X2267269Y-35411573D01*
G01X2210018Y-35418188D01*
G01X2153826Y-35427364D01*
G01X2098786Y-35439053D01*
G01X2044987Y-35453205D01*
G01X1992519Y-35469770D01*
G01X1941474Y-35488702D01*
G01X1891942Y-35509949D01*
G01X1844014Y-35533463D01*
G01X1797779Y-35559196D01*
G01X1753329Y-35587098D01*
G01X1710753Y-35617120D01*
G01X1670144Y-35649214D01*
G01X1631590Y-35683329D01*
G01X1595182Y-35719418D01*
G01X1561012Y-35757431D01*
G01X1529169Y-35797320D01*
G01X1499744Y-35839035D01*
G01X1472827Y-35882527D01*
G01X1472827Y-35882527D01*
G01X1472827Y-35882527D01*
G01X1461795Y-35887407D01*
G01X1461795Y-35887407D01*
G01X1461795Y-35887407D01*
G01X1440867Y-35885807D01*
G01X1440867Y-35885807D01*
G01X1440867Y-35885807D01*
G01X1401285Y-35891135D01*
G01X1363007Y-35906653D01*
G01X1326684Y-35931898D01*
G01X1292967Y-35966409D01*
G01X1262504Y-36009722D01*
G01X1262504Y-36009722D01*
G01X1262504Y-36009722D01*
G01X1253600Y-36013242D01*
G01X1253600Y-36013242D01*
G01X1253600Y-36013242D01*
G01X1226568Y-36009642D01*
G01X1226568Y-36009642D01*
G01X1226568Y-36009642D01*
G01X1188175Y-36016517D01*
G01X1152556Y-36036191D01*
G01X1120542Y-36067246D01*
G01X1092961Y-36108267D01*
G01X1070643Y-36157838D01*
G01X1054418Y-36214542D01*
G01X1045115Y-36276962D01*
G01X1043166Y-36322780D01*
G01X1043166Y-36322780D01*
G01X1047191Y-36388328D01*
G01X1058712Y-36449140D01*
G01X1076900Y-36503800D01*
G01X1100926Y-36550891D01*
G01X1129959Y-36588996D01*
G01X1163171Y-36616700D01*
G01X1199731Y-36632587D01*
G01X1226568Y-36635918D01*
G01X1226568Y-36635918D01*
G01X1254488Y-36632158D01*
G01X1254488Y-36632158D01*
G01X1254488Y-36632158D01*
G01X1262328Y-36635678D01*
G01X1262328Y-36635678D01*
G01X1262328Y-36635678D01*
G01X1292813Y-36679045D01*
G01X1326558Y-36713594D01*
G01X1362912Y-36738862D01*
G01X1401222Y-36754383D01*
G01X1440838Y-36759695D01*
G01X1440838Y-36759695D01*
G01X1440838Y-36759695D01*
G01X1462598Y-36757695D01*
G01X1462598Y-36757695D01*
G01X1462598Y-36757695D01*
G01X1472478Y-36762335D01*
G01X1472478Y-36762335D01*
G01X1472478Y-36762335D01*
G01X1499379Y-36805878D01*
G01X1528793Y-36847641D01*
G01X1560629Y-36887576D01*
G01X1594797Y-36925635D01*
G01X1631205Y-36961767D01*
G01X1669763Y-36995924D01*
G01X1710381Y-37028056D01*
G01X1752968Y-37058115D01*
G01X1797432Y-37086052D01*
G01X1843684Y-37111817D01*
G01X1891632Y-37135361D01*
G01X1941187Y-37156635D01*
G01X1992256Y-37175590D01*
G01X2044751Y-37192178D01*
G01X2098579Y-37206348D01*
G01X2153651Y-37218051D01*
G01X2209876Y-37227240D01*
G01X2267162Y-37233864D01*
G01X2325420Y-37237874D01*
G01X2384558Y-37239222D01*
G01X2384558Y-37239222D01*
G01X2384558Y-37239222D01*
G01X2436322Y-37238290D01*
G01X2488089Y-37235067D01*
G01X2539725Y-37229572D01*
G01X2591095Y-37221824D01*
G01X2642063Y-37211843D01*
G01X2692494Y-37199648D01*
G01X2742253Y-37185258D01*
G01X2791204Y-37168693D01*
G01X2839212Y-37149973D01*
G01X2886141Y-37129116D01*
G01X2931858Y-37106143D01*
G01X2976225Y-37081072D01*
G01X3019108Y-37053924D01*
G01X3060371Y-37024717D01*
G01X3099880Y-36993471D01*
G01X3137499Y-36960205D01*
G01X3173092Y-36924939D01*
G01X3206524Y-36887692D01*
G01X3237661Y-36848483D01*
G01X3266366Y-36807333D01*
G01X3292504Y-36764260D01*
G01X3315940Y-36719284D01*
G01X3336539Y-36672425D01*
G01X3354166Y-36623701D01*
G01X3368685Y-36573132D01*
G01X3368685Y-36573132D01*
G01X3368685Y-36573132D01*
G01X3331763Y-36557767D01*
G01X3294814Y-36543127D01*
G01X3260014Y-36529956D01*
G01X3260014Y-36529956D01*
G01X3255134Y-36519460D01*
G01X3255134Y-36519460D01*
G37*
G36*
G01X3255144Y-32519477D02*
G01X3255144Y-32519477D01*
G01X3266312Y-32470859D01*
G01X3274388Y-32421782D01*
G01X3279356Y-32372366D01*
G01X3281200Y-32322730D01*
G01X3281200Y-32322730D01*
G01X3281200Y-32322730D01*
G01X3279420Y-32273777D01*
G01X3274599Y-32225035D01*
G01X3266755Y-32176621D01*
G01X3255904Y-32128647D01*
G01X3255904Y-32128647D01*
G01X3255904Y-32128647D01*
G01X3261424Y-32114975D01*
G01X3261424Y-32114975D01*
G01X3261424Y-32114975D01*
G01X3297928Y-32101121D01*
G01X3334408Y-32086613D01*
G01X3368718Y-32072311D01*
G01X3368718Y-32072311D01*
G01X3354199Y-32021743D01*
G01X3336572Y-31973019D01*
G01X3315973Y-31926160D01*
G01X3292537Y-31881184D01*
G01X3266398Y-31838112D01*
G01X3237693Y-31796962D01*
G01X3206557Y-31757755D01*
G01X3173125Y-31720509D01*
G01X3137531Y-31685243D01*
G01X3099913Y-31651978D01*
G01X3060404Y-31620733D01*
G01X3019141Y-31591527D01*
G01X2976258Y-31564379D01*
G01X2931890Y-31539308D01*
G01X2886174Y-31516336D01*
G01X2839245Y-31495479D01*
G01X2791237Y-31476759D01*
G01X2742286Y-31460194D01*
G01X2692527Y-31445804D01*
G01X2642096Y-31433608D01*
G01X2591128Y-31423626D01*
G01X2539758Y-31415877D01*
G01X2488122Y-31410380D01*
G01X2436354Y-31407155D01*
G01X2384591Y-31406222D01*
G01X2384591Y-31406222D01*
G01X2384591Y-31406222D01*
G01X2325491Y-31407568D01*
G01X2267269Y-31411573D01*
G01X2210018Y-31418188D01*
G01X2153826Y-31427364D01*
G01X2098786Y-31439053D01*
G01X2044987Y-31453205D01*
G01X1992519Y-31469770D01*
G01X1941474Y-31488702D01*
G01X1891942Y-31509949D01*
G01X1844014Y-31533463D01*
G01X1797779Y-31559196D01*
G01X1753329Y-31587098D01*
G01X1710753Y-31617120D01*
G01X1670144Y-31649214D01*
G01X1631590Y-31683329D01*
G01X1595182Y-31719418D01*
G01X1561012Y-31757431D01*
G01X1529169Y-31797320D01*
G01X1499744Y-31839035D01*
G01X1472827Y-31882527D01*
G01X1472827Y-31882527D01*
G01X1472827Y-31882527D01*
G01X1461795Y-31887407D01*
G01X1461795Y-31887407D01*
G01X1461795Y-31887407D01*
G01X1440867Y-31885807D01*
G01X1440867Y-31885807D01*
G01X1440867Y-31885807D01*
G01X1401285Y-31891135D01*
G01X1363007Y-31906653D01*
G01X1326684Y-31931898D01*
G01X1292967Y-31966409D01*
G01X1262504Y-32009722D01*
G01X1262504Y-32009722D01*
G01X1262504Y-32009722D01*
G01X1253600Y-32013242D01*
G01X1253600Y-32013242D01*
G01X1253600Y-32013242D01*
G01X1226568Y-32009642D01*
G01X1226568Y-32009642D01*
G01X1226568Y-32009642D01*
G01X1188175Y-32016517D01*
G01X1152556Y-32036191D01*
G01X1120542Y-32067246D01*
G01X1092961Y-32108267D01*
G01X1070643Y-32157838D01*
G01X1054418Y-32214542D01*
G01X1045115Y-32276962D01*
G01X1043166Y-32322780D01*
G01X1043166Y-32322780D01*
G01X1047191Y-32388328D01*
G01X1058712Y-32449140D01*
G01X1076900Y-32503800D01*
G01X1100926Y-32550891D01*
G01X1129959Y-32588996D01*
G01X1163171Y-32616700D01*
G01X1199731Y-32632587D01*
G01X1226568Y-32635918D01*
G01X1226568Y-32635918D01*
G01X1254488Y-32632158D01*
G01X1254488Y-32632158D01*
G01X1254488Y-32632158D01*
G01X1262328Y-32635678D01*
G01X1262328Y-32635678D01*
G01X1262328Y-32635678D01*
G01X1292813Y-32679045D01*
G01X1326558Y-32713594D01*
G01X1362912Y-32738862D01*
G01X1401222Y-32754383D01*
G01X1440838Y-32759695D01*
G01X1440838Y-32759695D01*
G01X1440838Y-32759695D01*
G01X1462598Y-32757695D01*
G01X1462598Y-32757695D01*
G01X1462598Y-32757695D01*
G01X1472478Y-32762335D01*
G01X1472478Y-32762335D01*
G01X1472478Y-32762335D01*
G01X1499379Y-32805878D01*
G01X1528793Y-32847641D01*
G01X1560629Y-32887576D01*
G01X1594797Y-32925635D01*
G01X1631205Y-32961767D01*
G01X1669763Y-32995924D01*
G01X1710381Y-33028056D01*
G01X1752968Y-33058115D01*
G01X1797432Y-33086052D01*
G01X1843684Y-33111817D01*
G01X1891632Y-33135361D01*
G01X1941187Y-33156635D01*
G01X1992256Y-33175590D01*
G01X2044751Y-33192178D01*
G01X2098579Y-33206348D01*
G01X2153651Y-33218051D01*
G01X2209876Y-33227240D01*
G01X2267162Y-33233864D01*
G01X2325420Y-33237874D01*
G01X2384558Y-33239222D01*
G01X2384558Y-33239222D01*
G01X2384558Y-33239222D01*
G01X2436322Y-33238290D01*
G01X2488089Y-33235067D01*
G01X2539725Y-33229572D01*
G01X2591095Y-33221824D01*
G01X2642063Y-33211843D01*
G01X2692494Y-33199648D01*
G01X2742253Y-33185258D01*
G01X2791204Y-33168693D01*
G01X2839212Y-33149973D01*
G01X2886141Y-33129116D01*
G01X2931858Y-33106143D01*
G01X2976225Y-33081072D01*
G01X3019108Y-33053924D01*
G01X3060371Y-33024717D01*
G01X3099880Y-32993471D01*
G01X3137499Y-32960205D01*
G01X3173092Y-32924939D01*
G01X3206524Y-32887692D01*
G01X3237661Y-32848483D01*
G01X3266366Y-32807333D01*
G01X3292504Y-32764260D01*
G01X3315940Y-32719284D01*
G01X3336539Y-32672425D01*
G01X3354166Y-32623701D01*
G01X3368685Y-32573132D01*
G01X3368685Y-32573132D01*
G01X3368685Y-32573132D01*
G01X3331763Y-32557767D01*
G01X3294814Y-32543127D01*
G01X3260014Y-32529956D01*
G01X3260014Y-32529956D01*
G01X3255134Y-32519460D01*
G01X3255134Y-32519460D01*
G37*
G36*
G01X27861065Y-17570639D02*
G01X27861065Y-17570639D01*
G01X27880810Y-17509613D01*
G01X27896358Y-17448255D01*
G01X27907786Y-17386729D01*
G01X27915172Y-17325198D01*
G01X27918594Y-17263827D01*
G01X27918127Y-17202781D01*
G01X27913851Y-17142224D01*
G01X27905841Y-17082320D01*
G01X27894177Y-17023234D01*
G01X27878935Y-16965130D01*
G01X27860192Y-16908172D01*
G01X27838026Y-16852526D01*
G01X27812514Y-16798354D01*
G01X27783735Y-16745822D01*
G01X27751764Y-16695094D01*
G01X27716680Y-16646334D01*
G01X27678560Y-16599707D01*
G01X27637481Y-16555377D01*
G01X27593521Y-16513508D01*
G01X27546758Y-16474265D01*
G01X27497268Y-16437812D01*
G01X27445129Y-16404314D01*
G01X27390418Y-16373935D01*
G01X27333214Y-16346839D01*
G01X27273592Y-16323191D01*
G01X27273592Y-16323191D01*
G01X27273592Y-16323191D01*
G01X27212567Y-16303445D01*
G01X27151209Y-16287897D01*
G01X27089683Y-16276469D01*
G01X27028152Y-16269083D01*
G01X26966781Y-16265662D01*
G01X26905735Y-16266128D01*
G01X26845178Y-16270405D01*
G01X26785274Y-16278414D01*
G01X26726188Y-16290078D01*
G01X26668084Y-16305321D01*
G01X26611126Y-16324063D01*
G01X26555479Y-16346229D01*
G01X26501308Y-16371741D01*
G01X26448776Y-16400521D01*
G01X26398048Y-16432491D01*
G01X26349288Y-16467575D01*
G01X26302661Y-16505695D01*
G01X26258330Y-16546774D01*
G01X26216462Y-16590734D01*
G01X26177219Y-16637497D01*
G01X26140766Y-16686987D01*
G01X26107268Y-16739126D01*
G01X26076889Y-16793837D01*
G01X26049793Y-16851041D01*
G01X26026144Y-16910663D01*
G01X26026144Y-16910663D01*
G01X26026144Y-16910663D01*
G01X26006399Y-16971688D01*
G01X25990851Y-17033046D01*
G01X25979423Y-17094573D01*
G01X25972037Y-17156103D01*
G01X25968615Y-17217474D01*
G01X25969082Y-17278520D01*
G01X25973358Y-17339077D01*
G01X25981368Y-17398981D01*
G01X25993032Y-17458067D01*
G01X26008274Y-17516171D01*
G01X26027017Y-17573129D01*
G01X26049183Y-17628776D01*
G01X26074695Y-17682947D01*
G01X26103475Y-17735479D01*
G01X26135445Y-17786208D01*
G01X26170529Y-17834967D01*
G01X26208649Y-17881595D01*
G01X26249728Y-17925925D01*
G01X26293688Y-17967793D01*
G01X26340451Y-18007036D01*
G01X26389941Y-18043489D01*
G01X26442080Y-18076987D01*
G01X26496791Y-18107366D01*
G01X26553995Y-18134462D01*
G01X26613617Y-18158111D01*
G01X26613617Y-18158111D01*
G01X26613617Y-18158111D01*
G01X26674642Y-18177856D01*
G01X26736000Y-18193404D01*
G01X26797527Y-18204833D01*
G01X26859057Y-18212219D01*
G01X26920428Y-18215640D01*
G01X26981474Y-18215173D01*
G01X27042031Y-18210897D01*
G01X27101935Y-18202888D01*
G01X27161021Y-18191223D01*
G01X27219125Y-18175981D01*
G01X27276083Y-18157238D01*
G01X27331730Y-18135072D01*
G01X27385901Y-18109560D01*
G01X27438433Y-18080781D01*
G01X27489161Y-18048810D01*
G01X27537921Y-18013726D01*
G01X27584548Y-17975606D01*
G01X27628879Y-17934527D01*
G01X27670747Y-17890567D01*
G01X27709990Y-17843804D01*
G01X27746443Y-17794314D01*
G01X27779941Y-17742175D01*
G01X27810320Y-17687465D01*
G01X27837416Y-17630260D01*
G01X27861065Y-17570639D01*
G01X27861065Y-17570639D01*
G37*
G36*
G01X27473277Y-15768009D02*
G01X26838113Y-15539556D01*
G01X26838113Y-15539556D01*
G01X26793652Y-15519392D01*
G01X26754062Y-15493072D01*
G01X26719715Y-15461386D01*
G01X26690983Y-15425124D01*
G01X26668239Y-15385078D01*
G01X26651854Y-15342036D01*
G01X26642200Y-15296790D01*
G01X26639651Y-15250129D01*
G01X26644577Y-15202845D01*
G01X26657352Y-15155726D01*
G01X26657352Y-15155726D01*
G01X26885805Y-14520561D01*
G01X27114258Y-13885397D01*
G01X27114258Y-13885397D01*
G01X27134423Y-13840936D01*
G01X27160743Y-13801346D01*
G01X27192429Y-13766999D01*
G01X27228690Y-13738267D01*
G01X27268737Y-13715523D01*
G01X27311778Y-13699138D01*
G01X27357025Y-13689485D01*
G01X27403685Y-13686935D01*
G01X27450970Y-13691861D01*
G01X27498089Y-13704636D01*
G01X27498089Y-13704636D01*
G01X28133253Y-13933089D01*
G01X28768418Y-14161542D01*
G01X28768418Y-14161542D01*
G01X28812879Y-14181707D01*
G01X28852469Y-14208027D01*
G01X28886816Y-14239713D01*
G01X28915547Y-14275974D01*
G01X28938292Y-14316021D01*
G01X28954677Y-14359062D01*
G01X28964330Y-14404309D01*
G01X28966880Y-14450969D01*
G01X28961953Y-14498254D01*
G01X28949179Y-14545373D01*
G01X28949179Y-14545373D01*
G01X28720725Y-15180537D01*
G01X28492272Y-15815702D01*
G01X28492272Y-15815702D01*
G01X28472108Y-15860163D01*
G01X28445788Y-15899753D01*
G01X28414102Y-15934100D01*
G01X28377840Y-15962831D01*
G01X28337794Y-15985576D01*
G01X28294752Y-16001961D01*
G01X28249506Y-16011614D01*
G01X28202845Y-16014164D01*
G01X28155561Y-16009237D01*
G01X28108442Y-15996463D01*
G01X28108442Y-15996463D01*
G01X27473277Y-15768009D01*
G37*
G36*
G01X7772213Y-27814653D02*
G01X7772213Y-27814653D01*
G01X7763124Y-27878145D01*
G01X7758227Y-27941253D01*
G01X7757418Y-28003827D01*
G01X7760594Y-28065718D01*
G01X7767650Y-28126777D01*
G01X7778482Y-28186857D01*
G01X7792985Y-28245807D01*
G01X7811056Y-28303479D01*
G01X7832590Y-28359724D01*
G01X7857483Y-28414393D01*
G01X7885631Y-28467338D01*
G01X7916929Y-28518410D01*
G01X7951274Y-28567459D01*
G01X7988561Y-28614338D01*
G01X8028686Y-28658896D01*
G01X8071544Y-28700986D01*
G01X8117033Y-28740458D01*
G01X8165046Y-28777164D01*
G01X8215480Y-28810955D01*
G01X8268232Y-28841682D01*
G01X8323196Y-28869196D01*
G01X8380268Y-28893348D01*
G01X8439345Y-28913990D01*
G01X8500321Y-28930973D01*
G01X8563094Y-28944147D01*
G01X8563094Y-28944147D01*
G01X8563094Y-28944147D01*
G01X8626587Y-28953237D01*
G01X8689694Y-28958134D01*
G01X8752268Y-28958942D01*
G01X8814159Y-28955766D01*
G01X8875219Y-28948710D01*
G01X8935298Y-28937878D01*
G01X8994248Y-28923375D01*
G01X9051920Y-28905304D01*
G01X9108165Y-28883770D01*
G01X9162835Y-28858877D01*
G01X9215779Y-28830729D01*
G01X9266851Y-28799431D01*
G01X9315900Y-28765086D01*
G01X9362779Y-28727799D01*
G01X9407337Y-28687674D01*
G01X9449427Y-28644816D01*
G01X9488900Y-28599328D01*
G01X9525606Y-28551314D01*
G01X9559396Y-28500880D01*
G01X9590123Y-28448129D01*
G01X9617637Y-28393165D01*
G01X9641790Y-28336092D01*
G01X9662431Y-28277016D01*
G01X9679414Y-28216039D01*
G01X9692588Y-28153266D01*
G01X9692588Y-28153266D01*
G01X9692588Y-28153266D01*
G01X9701678Y-28089774D01*
G01X9706575Y-28026666D01*
G01X9707383Y-27964092D01*
G01X9704207Y-27902201D01*
G01X9697151Y-27841142D01*
G01X9686320Y-27781062D01*
G01X9671816Y-27722112D01*
G01X9653745Y-27664440D01*
G01X9632211Y-27608195D01*
G01X9607318Y-27553526D01*
G01X9579170Y-27500581D01*
G01X9547872Y-27449509D01*
G01X9513527Y-27400460D01*
G01X9476240Y-27353581D01*
G01X9436116Y-27309023D01*
G01X9393257Y-27266933D01*
G01X9347769Y-27227461D01*
G01X9299756Y-27190755D01*
G01X9249321Y-27156964D01*
G01X9196570Y-27126237D01*
G01X9141606Y-27098723D01*
G01X9084533Y-27074571D01*
G01X9025457Y-27053929D01*
G01X8964480Y-27036946D01*
G01X8901708Y-27023772D01*
G01X8901708Y-27023772D01*
G01X8901708Y-27023772D01*
G01X8838215Y-27014682D01*
G01X8775107Y-27009785D01*
G01X8712533Y-27008977D01*
G01X8650642Y-27012153D01*
G01X8589583Y-27019209D01*
G01X8529504Y-27030041D01*
G01X8470554Y-27044544D01*
G01X8412882Y-27062615D01*
G01X8356636Y-27084149D01*
G01X8301967Y-27109042D01*
G01X8249022Y-27137190D01*
G01X8197950Y-27168488D01*
G01X8148901Y-27202833D01*
G01X8102023Y-27240120D01*
G01X8057464Y-27280245D01*
G01X8015374Y-27323103D01*
G01X7975902Y-27368591D01*
G01X7939196Y-27416605D01*
G01X7905405Y-27467039D01*
G01X7874678Y-27519790D01*
G01X7847164Y-27574754D01*
G01X7823012Y-27631827D01*
G01X7802370Y-27690903D01*
G01X7785388Y-27751880D01*
G01X7772213Y-27814653D01*
G01X7772213Y-27814653D01*
G37*
G36*
G01X8460642Y-29525183D02*
G01X9125387Y-29642396D01*
G01X9125387Y-29642396D01*
G01X9172627Y-29654713D01*
G01X9216114Y-29673924D01*
G01X9255345Y-29699313D01*
G01X9289820Y-29730165D01*
G01X9319038Y-29765765D01*
G01X9342498Y-29805397D01*
G01X9359698Y-29848345D01*
G01X9370139Y-29893894D01*
G01X9373318Y-29941329D01*
G01X9368735Y-29989933D01*
G01X9368735Y-29989933D01*
G01X9251522Y-30654678D01*
G01X9134310Y-31319423D01*
G01X9134310Y-31319423D01*
G01X9121993Y-31366663D01*
G01X9102782Y-31410150D01*
G01X9077393Y-31449381D01*
G01X9046540Y-31483856D01*
G01X9010940Y-31513074D01*
G01X8971309Y-31536534D01*
G01X8928360Y-31553734D01*
G01X8882811Y-31564175D01*
G01X8835377Y-31567354D01*
G01X8786773Y-31562771D01*
G01X8786773Y-31562771D01*
G01X8122028Y-31445558D01*
G01X7457283Y-31328346D01*
G01X7457283Y-31328346D01*
G01X7410042Y-31316029D01*
G01X7366556Y-31296818D01*
G01X7327325Y-31271429D01*
G01X7292850Y-31240576D01*
G01X7263632Y-31204976D01*
G01X7240172Y-31165345D01*
G01X7222971Y-31122396D01*
G01X7212531Y-31076847D01*
G01X7209352Y-31029413D01*
G01X7213935Y-30980809D01*
G01X7213935Y-30980809D01*
G01X7331147Y-30316064D01*
G01X7448360Y-29651319D01*
G01X7448360Y-29651319D01*
G01X7460677Y-29604078D01*
G01X7479888Y-29560592D01*
G01X7505277Y-29521361D01*
G01X7536129Y-29486886D01*
G01X7571729Y-29457668D01*
G01X7611361Y-29434208D01*
G01X7654309Y-29417007D01*
G01X7699858Y-29406567D01*
G01X7747293Y-29403388D01*
G01X7795897Y-29407971D01*
G01X7795897Y-29407971D01*
G01X8460642Y-29525183D01*
G37*
G36*
G01X9280272Y-44996095D02*
G01X9280272Y-44996095D01*
G01X9233475Y-44952231D01*
G01X9184589Y-44912023D01*
G01X9133795Y-44875469D01*
G01X9081275Y-44842572D01*
G01X9027211Y-44813329D01*
G01X8971784Y-44787742D01*
G01X8915176Y-44765810D01*
G01X8857569Y-44747534D01*
G01X8799145Y-44732912D01*
G01X8740084Y-44721947D01*
G01X8680569Y-44714636D01*
G01X8620782Y-44710981D01*
G01X8560903Y-44710981D01*
G01X8501116Y-44714636D01*
G01X8441601Y-44721947D01*
G01X8382540Y-44732912D01*
G01X8324116Y-44747534D01*
G01X8266509Y-44765810D01*
G01X8209901Y-44787742D01*
G01X8154474Y-44813329D01*
G01X8100410Y-44842572D01*
G01X8047890Y-44875469D01*
G01X7997096Y-44912023D01*
G01X7948210Y-44952231D01*
G01X7901413Y-44996095D01*
G01X7901413Y-44996095D01*
G01X7901413Y-44996095D01*
G01X7857550Y-45042891D01*
G01X7817341Y-45091777D01*
G01X7780788Y-45142571D01*
G01X7747890Y-45195091D01*
G01X7718648Y-45249155D01*
G01X7693061Y-45304582D01*
G01X7671129Y-45361190D01*
G01X7652852Y-45418797D01*
G01X7638231Y-45477222D01*
G01X7627265Y-45536282D01*
G01X7619955Y-45595797D01*
G01X7616299Y-45655585D01*
G01X7616299Y-45715463D01*
G01X7619955Y-45775250D01*
G01X7627265Y-45834765D01*
G01X7638231Y-45893826D01*
G01X7652852Y-45952251D01*
G01X7671129Y-46009858D01*
G01X7693061Y-46066465D01*
G01X7718648Y-46121892D01*
G01X7747890Y-46175957D01*
G01X7780788Y-46228476D01*
G01X7817341Y-46279270D01*
G01X7857550Y-46328156D01*
G01X7901413Y-46374953D01*
G01X7901413Y-46374953D01*
G01X7901413Y-46374953D01*
G01X7948210Y-46418817D01*
G01X7997096Y-46459025D01*
G01X8047890Y-46495578D01*
G01X8100410Y-46528476D01*
G01X8154474Y-46557718D01*
G01X8209901Y-46583305D01*
G01X8266509Y-46605237D01*
G01X8324116Y-46623514D01*
G01X8382540Y-46638135D01*
G01X8441601Y-46649101D01*
G01X8501116Y-46656412D01*
G01X8560903Y-46660067D01*
G01X8620782Y-46660067D01*
G01X8680569Y-46656412D01*
G01X8740084Y-46649101D01*
G01X8799145Y-46638135D01*
G01X8857569Y-46623514D01*
G01X8915176Y-46605237D01*
G01X8971784Y-46583305D01*
G01X9027211Y-46557718D01*
G01X9081275Y-46528476D01*
G01X9133795Y-46495578D01*
G01X9184589Y-46459025D01*
G01X9233475Y-46418817D01*
G01X9280272Y-46374953D01*
G01X9280272Y-46374953D01*
G01X9280272Y-46374953D01*
G01X9324135Y-46328156D01*
G01X9364344Y-46279270D01*
G01X9400897Y-46228476D01*
G01X9433795Y-46175957D01*
G01X9463037Y-46121892D01*
G01X9488624Y-46066465D01*
G01X9510556Y-46009858D01*
G01X9528833Y-45952251D01*
G01X9543454Y-45893826D01*
G01X9554420Y-45834765D01*
G01X9561730Y-45775250D01*
G01X9565386Y-45715463D01*
G01X9565386Y-45655585D01*
G01X9561730Y-45595797D01*
G01X9554420Y-45536282D01*
G01X9543454Y-45477222D01*
G01X9528833Y-45418797D01*
G01X9510556Y-45361190D01*
G01X9488624Y-45304582D01*
G01X9463037Y-45249155D01*
G01X9433795Y-45195091D01*
G01X9400897Y-45142571D01*
G01X9364344Y-45091777D01*
G01X9324135Y-45042891D01*
G01X9280272Y-44996095D01*
G01X9280272Y-44996095D01*
G37*
G36*
G01X7484220Y-44578901D02*
G01X7006923Y-45056198D01*
G01X7006923Y-45056198D01*
G01X6969738Y-45087831D01*
G01X6929059Y-45112434D01*
G01X6885759Y-45130007D01*
G01X6840712Y-45140551D01*
G01X6794791Y-45144066D01*
G01X6748871Y-45140551D01*
G01X6703824Y-45130007D01*
G01X6660524Y-45112434D01*
G01X6619845Y-45087831D01*
G01X6582659Y-45056198D01*
G01X6582659Y-45056198D01*
G01X6105362Y-44578901D01*
G01X5628065Y-44101604D01*
G01X5628065Y-44101604D01*
G01X5596433Y-44064419D01*
G01X5571830Y-44023740D01*
G01X5554256Y-43980440D01*
G01X5543712Y-43935393D01*
G01X5540197Y-43889472D01*
G01X5543712Y-43843552D01*
G01X5554256Y-43798505D01*
G01X5571830Y-43755205D01*
G01X5596433Y-43714526D01*
G01X5628065Y-43677340D01*
G01X5628065Y-43677340D01*
G01X6105362Y-43200043D01*
G01X6582659Y-42722746D01*
G01X6582659Y-42722746D01*
G01X6619845Y-42691114D01*
G01X6660524Y-42666511D01*
G01X6703824Y-42648937D01*
G01X6748871Y-42638393D01*
G01X6794791Y-42634878D01*
G01X6840712Y-42638393D01*
G01X6885759Y-42648937D01*
G01X6929059Y-42666511D01*
G01X6969738Y-42691114D01*
G01X7006923Y-42722746D01*
G01X7006923Y-42722746D01*
G01X7484220Y-43200043D01*
G01X7961517Y-43677340D01*
G01X7961517Y-43677340D01*
G01X7993150Y-43714526D01*
G01X8017753Y-43755205D01*
G01X8035326Y-43798505D01*
G01X8045870Y-43843552D01*
G01X8049385Y-43889472D01*
G01X8045870Y-43935393D01*
G01X8035326Y-43980440D01*
G01X8017753Y-44023740D01*
G01X7993150Y-44064419D01*
G01X7961517Y-44101604D01*
G01X7961517Y-44101604D01*
G01X7484220Y-44578901D01*
G37*
G36*
G01X15228222Y-19655844D02*
G01X15228222Y-19655844D01*
G01X15238552Y-19592541D01*
G01X15244682Y-19529541D01*
G01X15246715Y-19466995D01*
G01X15244751Y-19405054D01*
G01X15238891Y-19343868D01*
G01X15229236Y-19283588D01*
G01X15215889Y-19224366D01*
G01X15198950Y-19166351D01*
G01X15178521Y-19109695D01*
G01X15154702Y-19054549D01*
G01X15127595Y-19001064D01*
G01X15097302Y-18949390D01*
G01X15063924Y-18899678D01*
G01X15027561Y-18852079D01*
G01X14988316Y-18806744D01*
G01X14946289Y-18763823D01*
G01X14901582Y-18723469D01*
G01X14854296Y-18685830D01*
G01X14804532Y-18651059D01*
G01X14752392Y-18619306D01*
G01X14697977Y-18590722D01*
G01X14641388Y-18565458D01*
G01X14582727Y-18543664D01*
G01X14522094Y-18525492D01*
G01X14459591Y-18511092D01*
G01X14459591Y-18511092D01*
G01X14459591Y-18511092D01*
G01X14396289Y-18500761D01*
G01X14333289Y-18494631D01*
G01X14270743Y-18492598D01*
G01X14208801Y-18494563D01*
G01X14147615Y-18500423D01*
G01X14087336Y-18510077D01*
G01X14028113Y-18523424D01*
G01X13970099Y-18540363D01*
G01X13913443Y-18560792D01*
G01X13858297Y-18584611D01*
G01X13804812Y-18611718D01*
G01X13753137Y-18642011D01*
G01X13703425Y-18675389D01*
G01X13655826Y-18711752D01*
G01X13610491Y-18750997D01*
G01X13567571Y-18793024D01*
G01X13527216Y-18837731D01*
G01X13489578Y-18885017D01*
G01X13454807Y-18934781D01*
G01X13423054Y-18986921D01*
G01X13394470Y-19041336D01*
G01X13369205Y-19097925D01*
G01X13347411Y-19156586D01*
G01X13329239Y-19217219D01*
G01X13314839Y-19279722D01*
G01X13314839Y-19279722D01*
G01X13314839Y-19279722D01*
G01X13304509Y-19343025D01*
G01X13298378Y-19406024D01*
G01X13296346Y-19468570D01*
G01X13298310Y-19530512D01*
G01X13304170Y-19591698D01*
G01X13313824Y-19651977D01*
G01X13327172Y-19711200D01*
G01X13344111Y-19769214D01*
G01X13364540Y-19825870D01*
G01X13388359Y-19881016D01*
G01X13415465Y-19934502D01*
G01X13445759Y-19986176D01*
G01X13479137Y-20035888D01*
G01X13515500Y-20083487D01*
G01X13554745Y-20128822D01*
G01X13596772Y-20171742D01*
G01X13641479Y-20212097D01*
G01X13688765Y-20249735D01*
G01X13738529Y-20284506D01*
G01X13790669Y-20316259D01*
G01X13845084Y-20344844D01*
G01X13901673Y-20370108D01*
G01X13960334Y-20391902D01*
G01X14020967Y-20410074D01*
G01X14083470Y-20424474D01*
G01X14083470Y-20424474D01*
G01X14083470Y-20424474D01*
G01X14146772Y-20434804D01*
G01X14209772Y-20440935D01*
G01X14272318Y-20442967D01*
G01X14334259Y-20441003D01*
G01X14395445Y-20435143D01*
G01X14455725Y-20425489D01*
G01X14514948Y-20412142D01*
G01X14572962Y-20395203D01*
G01X14629618Y-20374773D01*
G01X14684764Y-20350954D01*
G01X14738249Y-20323848D01*
G01X14789923Y-20293555D01*
G01X14839635Y-20260176D01*
G01X14887234Y-20223814D01*
G01X14932569Y-20184568D01*
G01X14975490Y-20142541D01*
G01X15015845Y-20097834D01*
G01X15053483Y-20050548D01*
G01X15088254Y-20000785D01*
G01X15120007Y-19948645D01*
G01X15148591Y-19894229D01*
G01X15173856Y-19837641D01*
G01X15195649Y-19778979D01*
G01X15213822Y-19718346D01*
G01X15228222Y-19655844D01*
G01X15228222Y-19655844D01*
G37*
G36*
G01X14573392Y-17932170D02*
G01X13911068Y-17801974D01*
G01X13911068Y-17801974D01*
G01X13864077Y-17788736D01*
G01X13820975Y-17768678D01*
G01X13782248Y-17742525D01*
G01X13748383Y-17711004D01*
G01X13719868Y-17674840D01*
G01X13697188Y-17634756D01*
G01X13680831Y-17591480D01*
G01X13671283Y-17545735D01*
G01X13669033Y-17498248D01*
G01X13674566Y-17449743D01*
G01X13674566Y-17449743D01*
G01X13804762Y-16787418D01*
G01X13934958Y-16125094D01*
G01X13934958Y-16125094D01*
G01X13948197Y-16078103D01*
G01X13968255Y-16035001D01*
G01X13994407Y-15996274D01*
G01X14025928Y-15962409D01*
G01X14062093Y-15933893D01*
G01X14102176Y-15911213D01*
G01X14145452Y-15894856D01*
G01X14191197Y-15885309D01*
G01X14238684Y-15883059D01*
G01X14287189Y-15888592D01*
G01X14287189Y-15888592D01*
G01X14949514Y-16018788D01*
G01X15611839Y-16148984D01*
G01X15611839Y-16148984D01*
G01X15658829Y-16162223D01*
G01X15701931Y-16182281D01*
G01X15740658Y-16208433D01*
G01X15774523Y-16239954D01*
G01X15803039Y-16276119D01*
G01X15825719Y-16316202D01*
G01X15842076Y-16359478D01*
G01X15851623Y-16405223D01*
G01X15853874Y-16452710D01*
G01X15848340Y-16501215D01*
G01X15848340Y-16501215D01*
G01X15718144Y-17163540D01*
G01X15587948Y-17825865D01*
G01X15587948Y-17825865D01*
G01X15574710Y-17872855D01*
G01X15554652Y-17915957D01*
G01X15528500Y-17954684D01*
G01X15496978Y-17988549D01*
G01X15460814Y-18017065D01*
G01X15420731Y-18039745D01*
G01X15377454Y-18056102D01*
G01X15331709Y-18065649D01*
G01X15284222Y-18067900D01*
G01X15235717Y-18062366D01*
G01X15235717Y-18062366D01*
G01X14573392Y-17932170D01*
G37*
G36*
G01X10140651Y-54130538D02*
G01X10140651Y-54130538D01*
G01X10117955Y-54086116D01*
G01X10092595Y-54043330D01*
G01X10064637Y-54002281D01*
G01X10034144Y-53963072D01*
G01X10034144Y-53963072D01*
G01X10034144Y-53963072D01*
G01X10001314Y-53926717D01*
G01X9966290Y-53892477D01*
G01X9929161Y-53860432D01*
G01X9890012Y-53830657D01*
G01X9890012Y-53830657D01*
G01X9890012Y-53830657D01*
G01X9885453Y-53816635D01*
G01X9885453Y-53816635D01*
G01X9885453Y-53816635D01*
G01X9904511Y-53782557D01*
G01X9923131Y-53747995D01*
G01X9940220Y-53714986D01*
G01X9940220Y-53714986D01*
G01X9896594Y-53685580D01*
G01X9851772Y-53659586D01*
G01X9805871Y-53636930D01*
G01X9759008Y-53617542D01*
G01X9711299Y-53601348D01*
G01X9662859Y-53588277D01*
G01X9613805Y-53578256D01*
G01X9564253Y-53571214D01*
G01X9514319Y-53567078D01*
G01X9464119Y-53565776D01*
G01X9413770Y-53567237D01*
G01X9363386Y-53571387D01*
G01X9313086Y-53578155D01*
G01X9262984Y-53587469D01*
G01X9213196Y-53599256D01*
G01X9163840Y-53613445D01*
G01X9115031Y-53629964D01*
G01X9066884Y-53648739D01*
G01X9019517Y-53669700D01*
G01X8973046Y-53692774D01*
G01X8927585Y-53717889D01*
G01X8883253Y-53744973D01*
G01X8840164Y-53773953D01*
G01X8798435Y-53804758D01*
G01X8758182Y-53837316D01*
G01X8758182Y-53837316D01*
G01X8758182Y-53837316D01*
G01X8713773Y-53876336D01*
G01X8671747Y-53916828D01*
G01X8632142Y-53958696D01*
G01X8594996Y-54001845D01*
G01X8560345Y-54046178D01*
G01X8528229Y-54091600D01*
G01X8498686Y-54138016D01*
G01X8471752Y-54185329D01*
G01X8447465Y-54233444D01*
G01X8425865Y-54282265D01*
G01X8406988Y-54331696D01*
G01X8390872Y-54381642D01*
G01X8377555Y-54432008D01*
G01X8367075Y-54482696D01*
G01X8359470Y-54533612D01*
G01X8354778Y-54584660D01*
G01X8353036Y-54635745D01*
G01X8354283Y-54686769D01*
G01X8358556Y-54737638D01*
G01X8365893Y-54788257D01*
G01X8365893Y-54788257D01*
G01X8365893Y-54788257D01*
G01X8360579Y-54799086D01*
G01X8360579Y-54799086D01*
G01X8360579Y-54799086D01*
G01X8343518Y-54811313D01*
G01X8343518Y-54811313D01*
G01X8343518Y-54811313D01*
G01X8316622Y-54840838D01*
G01X8297274Y-54877329D01*
G01X8285676Y-54920017D01*
G01X8282030Y-54968126D01*
G01X8286535Y-55020887D01*
G01X8286535Y-55020887D01*
G01X8286535Y-55020887D01*
G01X8281977Y-55029307D01*
G01X8281977Y-55029307D01*
G01X8281977Y-55029307D01*
G01X8258955Y-55043925D01*
G01X8258955Y-55043925D01*
G01X8258955Y-55043925D01*
G01X8233964Y-55073871D01*
G01X8219325Y-55111836D01*
G01X8214762Y-55156205D01*
G01X8220002Y-55205357D01*
G01X8234769Y-55257676D01*
G01X8258788Y-55311543D01*
G01X8291785Y-55365340D01*
G01X8319743Y-55401692D01*
G01X8319743Y-55401692D01*
G01X8364959Y-55449317D01*
G01X8412874Y-55488496D01*
G01X8461942Y-55518677D01*
G01X8510616Y-55539307D01*
G01X8557350Y-55549835D01*
G01X8600600Y-55549710D01*
G01X8638819Y-55538379D01*
G01X8661518Y-55523680D01*
G01X8661518Y-55523680D01*
G01X8680489Y-55502853D01*
G01X8680489Y-55502853D01*
G01X8680489Y-55502853D01*
G01X8688757Y-55500510D01*
G01X8688757Y-55500510D01*
G01X8688757Y-55500510D01*
G01X8739985Y-55514136D01*
G01X8788044Y-55518912D01*
G01X8832134Y-55514900D01*
G01X8871459Y-55502165D01*
G01X8905221Y-55480770D01*
G01X8905221Y-55480770D01*
G01X8905221Y-55480770D01*
G01X8920604Y-55465251D01*
G01X8920604Y-55465251D01*
G01X8920604Y-55465251D01*
G01X8931155Y-55462454D01*
G01X8931155Y-55462454D01*
G01X8931155Y-55462454D01*
G01X8979751Y-55478518D01*
G01X9029129Y-55491603D01*
G01X9079187Y-55501731D01*
G01X9129824Y-55508923D01*
G01X9180940Y-55513199D01*
G01X9232433Y-55514580D01*
G01X9284202Y-55513087D01*
G01X9336147Y-55508739D01*
G01X9388166Y-55501559D01*
G01X9440158Y-55491566D01*
G01X9492022Y-55478781D01*
G01X9543658Y-55463225D01*
G01X9594964Y-55444918D01*
G01X9645839Y-55423882D01*
G01X9696183Y-55400137D01*
G01X9745893Y-55373703D01*
G01X9794870Y-55344601D01*
G01X9843011Y-55312853D01*
G01X9890217Y-55278477D01*
G01X9936386Y-55241496D01*
G01X9936386Y-55241496D01*
G01X9936386Y-55241496D01*
G01X9975441Y-55207510D01*
G01X10013025Y-55171765D01*
G01X10049048Y-55134365D01*
G01X10083420Y-55095409D01*
G01X10116048Y-55055002D01*
G01X10146841Y-55013243D01*
G01X10175709Y-54970236D01*
G01X10202560Y-54926082D01*
G01X10227303Y-54880882D01*
G01X10249847Y-54834739D01*
G01X10270101Y-54787755D01*
G01X10287973Y-54740031D01*
G01X10303372Y-54691669D01*
G01X10316208Y-54642772D01*
G01X10326389Y-54593440D01*
G01X10333823Y-54543776D01*
G01X10338421Y-54493882D01*
G01X10340089Y-54443859D01*
G01X10338739Y-54393810D01*
G01X10334277Y-54343836D01*
G01X10326614Y-54294039D01*
G01X10315657Y-54244520D01*
G01X10301316Y-54195383D01*
G01X10283500Y-54146728D01*
G01X10262117Y-54098658D01*
G01X10262117Y-54098658D01*
G01X10262117Y-54098658D01*
G01X10223957Y-54110620D01*
G01X10186242Y-54123156D01*
G01X10151117Y-54135435D01*
G01X10151117Y-54135435D01*
G01X10140632Y-54130531D01*
G01X10140632Y-54130531D01*
G37*
G36*
G01X7569500Y-51066360D02*
G01X7569500Y-51066360D01*
G01X7546804Y-51021938D01*
G01X7521445Y-50979152D01*
G01X7493487Y-50938103D01*
G01X7462994Y-50898895D01*
G01X7462994Y-50898895D01*
G01X7462994Y-50898895D01*
G01X7430163Y-50862539D01*
G01X7395140Y-50828300D01*
G01X7358010Y-50796254D01*
G01X7318862Y-50766479D01*
G01X7318862Y-50766479D01*
G01X7318862Y-50766479D01*
G01X7314302Y-50752457D01*
G01X7314302Y-50752457D01*
G01X7314302Y-50752457D01*
G01X7333361Y-50718380D01*
G01X7351980Y-50683817D01*
G01X7369070Y-50650808D01*
G01X7369070Y-50650808D01*
G01X7325443Y-50621402D01*
G01X7280621Y-50595408D01*
G01X7234721Y-50572753D01*
G01X7187858Y-50553364D01*
G01X7140148Y-50537170D01*
G01X7091709Y-50524099D01*
G01X7042655Y-50514078D01*
G01X6993103Y-50507036D01*
G01X6943169Y-50502900D01*
G01X6892969Y-50501598D01*
G01X6842619Y-50503059D01*
G01X6792236Y-50507209D01*
G01X6741935Y-50513977D01*
G01X6691833Y-50523291D01*
G01X6642046Y-50535079D01*
G01X6592690Y-50549267D01*
G01X6543880Y-50565786D01*
G01X6495734Y-50584562D01*
G01X6448367Y-50605522D01*
G01X6401895Y-50628596D01*
G01X6356435Y-50653711D01*
G01X6312102Y-50680795D01*
G01X6269013Y-50709775D01*
G01X6227284Y-50740580D01*
G01X6187031Y-50773138D01*
G01X6187031Y-50773138D01*
G01X6187031Y-50773138D01*
G01X6142623Y-50812158D01*
G01X6100597Y-50852650D01*
G01X6060992Y-50894518D01*
G01X6023845Y-50937667D01*
G01X5989195Y-50982000D01*
G01X5957079Y-51027422D01*
G01X5927535Y-51073838D01*
G01X5900601Y-51121151D01*
G01X5876315Y-51169266D01*
G01X5854714Y-51218087D01*
G01X5835837Y-51267518D01*
G01X5819721Y-51317465D01*
G01X5806404Y-51367830D01*
G01X5795925Y-51418518D01*
G01X5788320Y-51469435D01*
G01X5783628Y-51520483D01*
G01X5781886Y-51571567D01*
G01X5783133Y-51622591D01*
G01X5787405Y-51673461D01*
G01X5794742Y-51724079D01*
G01X5794742Y-51724079D01*
G01X5794742Y-51724079D01*
G01X5789428Y-51734909D01*
G01X5789428Y-51734909D01*
G01X5789428Y-51734909D01*
G01X5772368Y-51747135D01*
G01X5772368Y-51747135D01*
G01X5772368Y-51747135D01*
G01X5745471Y-51776660D01*
G01X5726124Y-51813152D01*
G01X5714526Y-51855839D01*
G01X5710880Y-51903949D01*
G01X5715385Y-51956709D01*
G01X5715385Y-51956709D01*
G01X5715385Y-51956709D01*
G01X5710827Y-51965129D01*
G01X5710827Y-51965129D01*
G01X5710827Y-51965129D01*
G01X5687805Y-51979747D01*
G01X5687805Y-51979747D01*
G01X5687805Y-51979747D01*
G01X5662814Y-52009693D01*
G01X5648174Y-52047659D01*
G01X5643612Y-52092027D01*
G01X5648852Y-52141180D01*
G01X5663618Y-52193499D01*
G01X5687638Y-52247365D01*
G01X5720634Y-52301162D01*
G01X5748592Y-52337514D01*
G01X5748592Y-52337514D01*
G01X5793809Y-52385140D01*
G01X5841724Y-52424319D01*
G01X5890791Y-52454499D01*
G01X5939465Y-52475129D01*
G01X5986200Y-52485658D01*
G01X6029450Y-52485532D01*
G01X6067668Y-52474201D01*
G01X6090367Y-52459503D01*
G01X6090367Y-52459503D01*
G01X6109339Y-52438676D01*
G01X6109339Y-52438676D01*
G01X6109339Y-52438676D01*
G01X6117607Y-52436333D01*
G01X6117607Y-52436333D01*
G01X6117607Y-52436333D01*
G01X6168835Y-52449958D01*
G01X6216893Y-52454734D01*
G01X6260984Y-52450722D01*
G01X6300309Y-52437987D01*
G01X6334070Y-52416592D01*
G01X6334070Y-52416592D01*
G01X6334070Y-52416592D01*
G01X6349454Y-52401073D01*
G01X6349454Y-52401073D01*
G01X6349454Y-52401073D01*
G01X6360005Y-52398276D01*
G01X6360005Y-52398276D01*
G01X6360005Y-52398276D01*
G01X6408601Y-52414340D01*
G01X6457978Y-52427425D01*
G01X6508036Y-52437554D01*
G01X6558674Y-52444746D01*
G01X6609789Y-52449022D01*
G01X6661282Y-52450403D01*
G01X6713052Y-52448909D01*
G01X6764996Y-52444562D01*
G01X6817015Y-52437381D01*
G01X6869007Y-52427388D01*
G01X6920872Y-52414603D01*
G01X6972508Y-52399047D01*
G01X7023814Y-52380741D01*
G01X7074689Y-52359704D01*
G01X7125032Y-52335959D01*
G01X7174743Y-52309525D01*
G01X7223719Y-52280424D01*
G01X7271861Y-52248675D01*
G01X7319067Y-52214299D01*
G01X7365236Y-52177318D01*
G01X7365236Y-52177318D01*
G01X7365236Y-52177318D01*
G01X7404290Y-52143332D01*
G01X7441874Y-52107588D01*
G01X7477898Y-52070187D01*
G01X7512269Y-52031232D01*
G01X7544897Y-51990824D01*
G01X7575691Y-51949066D01*
G01X7604558Y-51906058D01*
G01X7631409Y-51861904D01*
G01X7656153Y-51816704D01*
G01X7678696Y-51770561D01*
G01X7698950Y-51723577D01*
G01X7716822Y-51675853D01*
G01X7732222Y-51627491D01*
G01X7745057Y-51578594D01*
G01X7755238Y-51529262D01*
G01X7762673Y-51479598D01*
G01X7767270Y-51429704D01*
G01X7768939Y-51379681D01*
G01X7767588Y-51329632D01*
G01X7763127Y-51279658D01*
G01X7755463Y-51229861D01*
G01X7744507Y-51180343D01*
G01X7730166Y-51131205D01*
G01X7712349Y-51082550D01*
G01X7690966Y-51034480D01*
G01X7690966Y-51034480D01*
G01X7690966Y-51034480D01*
G01X7652806Y-51046442D01*
G01X7615092Y-51058978D01*
G01X7579967Y-51071257D01*
G01X7579967Y-51071257D01*
G01X7569482Y-51066354D01*
G01X7569482Y-51066354D01*
G37*
G36*
G01X33624124Y-45731434D02*
G01X33624124Y-45731434D01*
G01X33667988Y-45684637D01*
G01X33708196Y-45635751D01*
G01X33744750Y-45584957D01*
G01X33777647Y-45532437D01*
G01X33806890Y-45478373D01*
G01X33832477Y-45422946D01*
G01X33854409Y-45366338D01*
G01X33872685Y-45308731D01*
G01X33887307Y-45250307D01*
G01X33898272Y-45191246D01*
G01X33905583Y-45131731D01*
G01X33909238Y-45071944D01*
G01X33909238Y-45012065D01*
G01X33905583Y-44952278D01*
G01X33898272Y-44892763D01*
G01X33887307Y-44833702D01*
G01X33872685Y-44775278D01*
G01X33854409Y-44717671D01*
G01X33832477Y-44661063D01*
G01X33806890Y-44605636D01*
G01X33777647Y-44551572D01*
G01X33744750Y-44499052D01*
G01X33708196Y-44448258D01*
G01X33667988Y-44399372D01*
G01X33624124Y-44352575D01*
G01X33624124Y-44352575D01*
G01X33624124Y-44352575D01*
G01X33577328Y-44308712D01*
G01X33528442Y-44268503D01*
G01X33477648Y-44231950D01*
G01X33425128Y-44199052D01*
G01X33371064Y-44169810D01*
G01X33315637Y-44144223D01*
G01X33259029Y-44122291D01*
G01X33201422Y-44104014D01*
G01X33142997Y-44089393D01*
G01X33083937Y-44078427D01*
G01X33024422Y-44071117D01*
G01X32964634Y-44067461D01*
G01X32904756Y-44067461D01*
G01X32844969Y-44071117D01*
G01X32785454Y-44078427D01*
G01X32726393Y-44089393D01*
G01X32667968Y-44104014D01*
G01X32610361Y-44122291D01*
G01X32553754Y-44144223D01*
G01X32498327Y-44169810D01*
G01X32444262Y-44199052D01*
G01X32391743Y-44231950D01*
G01X32340949Y-44268503D01*
G01X32292063Y-44308712D01*
G01X32245266Y-44352575D01*
G01X32245266Y-44352575D01*
G01X32245266Y-44352575D01*
G01X32201402Y-44399372D01*
G01X32161194Y-44448258D01*
G01X32124641Y-44499052D01*
G01X32091743Y-44551572D01*
G01X32062501Y-44605636D01*
G01X32036914Y-44661063D01*
G01X32014982Y-44717671D01*
G01X31996705Y-44775278D01*
G01X31982084Y-44833702D01*
G01X31971118Y-44892763D01*
G01X31963807Y-44952278D01*
G01X31960152Y-45012065D01*
G01X31960152Y-45071944D01*
G01X31963807Y-45131731D01*
G01X31971118Y-45191246D01*
G01X31982084Y-45250307D01*
G01X31996705Y-45308731D01*
G01X32014982Y-45366338D01*
G01X32036914Y-45422946D01*
G01X32062501Y-45478373D01*
G01X32091743Y-45532437D01*
G01X32124641Y-45584957D01*
G01X32161194Y-45635751D01*
G01X32201402Y-45684637D01*
G01X32245266Y-45731434D01*
G01X32245266Y-45731434D01*
G01X32245266Y-45731434D01*
G01X32292063Y-45775297D01*
G01X32340949Y-45815506D01*
G01X32391743Y-45852059D01*
G01X32444262Y-45884957D01*
G01X32498327Y-45914199D01*
G01X32553754Y-45939786D01*
G01X32610361Y-45961718D01*
G01X32667968Y-45979995D01*
G01X32726393Y-45994616D01*
G01X32785454Y-46005582D01*
G01X32844969Y-46012892D01*
G01X32904756Y-46016548D01*
G01X32964634Y-46016548D01*
G01X33024422Y-46012892D01*
G01X33083937Y-46005582D01*
G01X33142997Y-45994616D01*
G01X33201422Y-45979995D01*
G01X33259029Y-45961718D01*
G01X33315637Y-45939786D01*
G01X33371064Y-45914199D01*
G01X33425128Y-45884957D01*
G01X33477648Y-45852059D01*
G01X33528442Y-45815506D01*
G01X33577328Y-45775297D01*
G01X33624124Y-45731434D01*
G01X33624124Y-45731434D01*
G37*
G36*
G01X34041318Y-43935382D02*
G01X33564021Y-43458085D01*
G01X33564021Y-43458085D01*
G01X33532388Y-43420900D01*
G01X33507785Y-43380221D01*
G01X33490212Y-43336921D01*
G01X33479668Y-43291874D01*
G01X33476153Y-43245953D01*
G01X33479668Y-43200033D01*
G01X33490212Y-43154986D01*
G01X33507785Y-43111686D01*
G01X33532388Y-43071007D01*
G01X33564021Y-43033821D01*
G01X33564021Y-43033821D01*
G01X34041318Y-42556524D01*
G01X34518615Y-42079227D01*
G01X34518615Y-42079227D01*
G01X34555800Y-42047595D01*
G01X34596479Y-42022992D01*
G01X34639779Y-42005418D01*
G01X34684826Y-41994874D01*
G01X34730747Y-41991359D01*
G01X34776667Y-41994874D01*
G01X34821714Y-42005418D01*
G01X34865014Y-42022992D01*
G01X34905693Y-42047595D01*
G01X34942879Y-42079227D01*
G01X34942879Y-42079227D01*
G01X35420176Y-42556524D01*
G01X35897473Y-43033821D01*
G01X35897473Y-43033821D01*
G01X35929105Y-43071007D01*
G01X35953708Y-43111686D01*
G01X35971282Y-43154986D01*
G01X35981826Y-43200033D01*
G01X35985341Y-43245953D01*
G01X35981826Y-43291874D01*
G01X35971282Y-43336921D01*
G01X35953708Y-43380221D01*
G01X35929105Y-43420900D01*
G01X35897473Y-43458085D01*
G01X35897473Y-43458085D01*
G01X35420176Y-43935382D01*
G01X34942879Y-44412679D01*
G01X34942879Y-44412679D01*
G01X34905693Y-44444312D01*
G01X34865014Y-44468915D01*
G01X34821714Y-44486488D01*
G01X34776667Y-44497032D01*
G01X34730747Y-44500547D01*
G01X34684826Y-44497032D01*
G01X34639779Y-44486488D01*
G01X34596479Y-44468915D01*
G01X34555800Y-44444312D01*
G01X34518615Y-44412679D01*
G01X34518615Y-44412679D01*
G01X34041318Y-43935382D01*
G37*
G36*
G01X38339406Y-32125967D02*
G01X38339406Y-32125967D01*
G01X38328238Y-32174585D01*
G01X38320162Y-32223662D01*
G01X38315194Y-32273078D01*
G01X38313350Y-32322714D01*
G01X38313350Y-32322714D01*
G01X38313350Y-32322714D01*
G01X38315130Y-32371667D01*
G01X38319951Y-32420409D01*
G01X38327795Y-32468823D01*
G01X38338646Y-32516797D01*
G01X38338646Y-32516797D01*
G01X38338646Y-32516797D01*
G01X38333126Y-32530469D01*
G01X38333126Y-32530469D01*
G01X38333126Y-32530469D01*
G01X38296622Y-32544323D01*
G01X38260142Y-32558831D01*
G01X38225832Y-32573133D01*
G01X38225832Y-32573133D01*
G01X38240351Y-32623701D01*
G01X38257978Y-32672425D01*
G01X38278577Y-32719284D01*
G01X38302013Y-32764260D01*
G01X38328152Y-32807332D01*
G01X38356857Y-32848482D01*
G01X38387993Y-32887689D01*
G01X38421425Y-32924935D01*
G01X38457019Y-32960201D01*
G01X38494637Y-32993466D01*
G01X38534146Y-33024711D01*
G01X38575409Y-33053917D01*
G01X38618292Y-33081065D01*
G01X38662660Y-33106136D01*
G01X38708376Y-33129108D01*
G01X38755305Y-33149965D01*
G01X38803313Y-33168685D01*
G01X38852264Y-33185250D01*
G01X38902023Y-33199640D01*
G01X38952454Y-33211836D01*
G01X39003422Y-33221818D01*
G01X39054792Y-33229567D01*
G01X39106428Y-33235064D01*
G01X39158196Y-33238289D01*
G01X39209959Y-33239222D01*
G01X39209959Y-33239222D01*
G01X39209959Y-33239222D01*
G01X39269059Y-33237876D01*
G01X39327281Y-33233871D01*
G01X39384532Y-33227256D01*
G01X39440724Y-33218080D01*
G01X39495764Y-33206391D01*
G01X39549563Y-33192239D01*
G01X39602031Y-33175674D01*
G01X39653076Y-33156742D01*
G01X39702608Y-33135495D01*
G01X39750536Y-33111981D01*
G01X39796771Y-33086248D01*
G01X39841221Y-33058346D01*
G01X39883797Y-33028324D01*
G01X39924406Y-32996230D01*
G01X39962960Y-32962115D01*
G01X39999368Y-32926026D01*
G01X40033538Y-32888013D01*
G01X40065381Y-32848124D01*
G01X40094806Y-32806409D01*
G01X40121723Y-32762917D01*
G01X40121723Y-32762917D01*
G01X40121723Y-32762917D01*
G01X40132755Y-32758037D01*
G01X40132755Y-32758037D01*
G01X40132755Y-32758037D01*
G01X40153683Y-32759637D01*
G01X40153683Y-32759637D01*
G01X40153683Y-32759637D01*
G01X40193265Y-32754309D01*
G01X40231543Y-32738791D01*
G01X40267866Y-32713546D01*
G01X40301583Y-32679035D01*
G01X40332046Y-32635722D01*
G01X40332046Y-32635722D01*
G01X40332046Y-32635722D01*
G01X40340950Y-32632202D01*
G01X40340950Y-32632202D01*
G01X40340950Y-32632202D01*
G01X40367982Y-32635802D01*
G01X40367982Y-32635802D01*
G01X40367982Y-32635802D01*
G01X40406375Y-32628927D01*
G01X40441994Y-32609253D01*
G01X40474008Y-32578198D01*
G01X40501589Y-32537177D01*
G01X40523907Y-32487606D01*
G01X40540132Y-32430902D01*
G01X40549435Y-32368482D01*
G01X40551384Y-32322664D01*
G01X40551384Y-32322664D01*
G01X40547359Y-32257116D01*
G01X40535838Y-32196304D01*
G01X40517650Y-32141644D01*
G01X40493624Y-32094553D01*
G01X40464591Y-32056448D01*
G01X40431379Y-32028744D01*
G01X40394819Y-32012857D01*
G01X40367982Y-32009526D01*
G01X40367982Y-32009526D01*
G01X40340062Y-32013286D01*
G01X40340062Y-32013286D01*
G01X40340062Y-32013286D01*
G01X40332222Y-32009766D01*
G01X40332222Y-32009766D01*
G01X40332222Y-32009766D01*
G01X40301737Y-31966399D01*
G01X40267992Y-31931850D01*
G01X40231638Y-31906582D01*
G01X40193328Y-31891061D01*
G01X40153712Y-31885749D01*
G01X40153712Y-31885749D01*
G01X40153712Y-31885749D01*
G01X40131952Y-31887749D01*
G01X40131952Y-31887749D01*
G01X40131952Y-31887749D01*
G01X40122072Y-31883109D01*
G01X40122072Y-31883109D01*
G01X40122072Y-31883109D01*
G01X40095171Y-31839566D01*
G01X40065757Y-31797803D01*
G01X40033921Y-31757868D01*
G01X39999753Y-31719809D01*
G01X39963345Y-31683677D01*
G01X39924787Y-31649520D01*
G01X39884169Y-31617388D01*
G01X39841582Y-31587329D01*
G01X39797118Y-31559392D01*
G01X39750866Y-31533627D01*
G01X39702918Y-31510083D01*
G01X39653363Y-31488809D01*
G01X39602294Y-31469854D01*
G01X39549799Y-31453266D01*
G01X39495971Y-31439096D01*
G01X39440899Y-31427393D01*
G01X39384674Y-31418204D01*
G01X39327388Y-31411580D01*
G01X39269130Y-31407570D01*
G01X39209992Y-31406222D01*
G01X39209992Y-31406222D01*
G01X39209992Y-31406222D01*
G01X39158228Y-31407154D01*
G01X39106461Y-31410377D01*
G01X39054825Y-31415872D01*
G01X39003455Y-31423620D01*
G01X38952487Y-31433601D01*
G01X38902056Y-31445796D01*
G01X38852297Y-31460186D01*
G01X38803346Y-31476751D01*
G01X38755338Y-31495471D01*
G01X38708409Y-31516328D01*
G01X38662692Y-31539301D01*
G01X38618325Y-31564372D01*
G01X38575442Y-31591520D01*
G01X38534179Y-31620727D01*
G01X38494670Y-31651973D01*
G01X38457051Y-31685239D01*
G01X38421458Y-31720505D01*
G01X38388026Y-31757752D01*
G01X38356889Y-31796961D01*
G01X38328184Y-31838111D01*
G01X38302046Y-31881184D01*
G01X38278610Y-31926160D01*
G01X38258011Y-31973019D01*
G01X38240384Y-32021743D01*
G01X38225865Y-32072312D01*
G01X38225865Y-32072312D01*
G01X38225865Y-32072312D01*
G01X38262787Y-32087677D01*
G01X38299736Y-32102317D01*
G01X38334536Y-32115488D01*
G01X38334536Y-32115488D01*
G01X38339416Y-32125984D01*
G01X38339416Y-32125984D01*
G37*
G36*
G01X38339406Y-36125967D02*
G01X38339406Y-36125967D01*
G01X38328238Y-36174585D01*
G01X38320162Y-36223662D01*
G01X38315194Y-36273078D01*
G01X38313350Y-36322714D01*
G01X38313350Y-36322714D01*
G01X38313350Y-36322714D01*
G01X38315130Y-36371667D01*
G01X38319951Y-36420409D01*
G01X38327795Y-36468823D01*
G01X38338646Y-36516797D01*
G01X38338646Y-36516797D01*
G01X38338646Y-36516797D01*
G01X38333126Y-36530469D01*
G01X38333126Y-36530469D01*
G01X38333126Y-36530469D01*
G01X38296622Y-36544323D01*
G01X38260142Y-36558831D01*
G01X38225832Y-36573133D01*
G01X38225832Y-36573133D01*
G01X38240351Y-36623701D01*
G01X38257978Y-36672425D01*
G01X38278577Y-36719284D01*
G01X38302013Y-36764260D01*
G01X38328152Y-36807332D01*
G01X38356857Y-36848482D01*
G01X38387993Y-36887689D01*
G01X38421425Y-36924935D01*
G01X38457019Y-36960201D01*
G01X38494637Y-36993466D01*
G01X38534146Y-37024711D01*
G01X38575409Y-37053917D01*
G01X38618292Y-37081065D01*
G01X38662660Y-37106136D01*
G01X38708376Y-37129108D01*
G01X38755305Y-37149965D01*
G01X38803313Y-37168685D01*
G01X38852264Y-37185250D01*
G01X38902023Y-37199640D01*
G01X38952454Y-37211836D01*
G01X39003422Y-37221818D01*
G01X39054792Y-37229567D01*
G01X39106428Y-37235064D01*
G01X39158196Y-37238289D01*
G01X39209959Y-37239222D01*
G01X39209959Y-37239222D01*
G01X39209959Y-37239222D01*
G01X39269059Y-37237876D01*
G01X39327281Y-37233871D01*
G01X39384532Y-37227256D01*
G01X39440724Y-37218080D01*
G01X39495764Y-37206391D01*
G01X39549563Y-37192239D01*
G01X39602031Y-37175674D01*
G01X39653076Y-37156742D01*
G01X39702608Y-37135495D01*
G01X39750536Y-37111981D01*
G01X39796771Y-37086248D01*
G01X39841221Y-37058346D01*
G01X39883797Y-37028324D01*
G01X39924406Y-36996230D01*
G01X39962960Y-36962115D01*
G01X39999368Y-36926026D01*
G01X40033538Y-36888013D01*
G01X40065381Y-36848124D01*
G01X40094806Y-36806409D01*
G01X40121723Y-36762917D01*
G01X40121723Y-36762917D01*
G01X40121723Y-36762917D01*
G01X40132755Y-36758037D01*
G01X40132755Y-36758037D01*
G01X40132755Y-36758037D01*
G01X40153683Y-36759637D01*
G01X40153683Y-36759637D01*
G01X40153683Y-36759637D01*
G01X40193265Y-36754309D01*
G01X40231543Y-36738791D01*
G01X40267866Y-36713546D01*
G01X40301583Y-36679035D01*
G01X40332046Y-36635722D01*
G01X40332046Y-36635722D01*
G01X40332046Y-36635722D01*
G01X40340950Y-36632202D01*
G01X40340950Y-36632202D01*
G01X40340950Y-36632202D01*
G01X40367982Y-36635802D01*
G01X40367982Y-36635802D01*
G01X40367982Y-36635802D01*
G01X40406375Y-36628927D01*
G01X40441994Y-36609253D01*
G01X40474008Y-36578198D01*
G01X40501589Y-36537177D01*
G01X40523907Y-36487606D01*
G01X40540132Y-36430902D01*
G01X40549435Y-36368482D01*
G01X40551384Y-36322664D01*
G01X40551384Y-36322664D01*
G01X40547359Y-36257116D01*
G01X40535838Y-36196304D01*
G01X40517650Y-36141644D01*
G01X40493624Y-36094553D01*
G01X40464591Y-36056448D01*
G01X40431379Y-36028744D01*
G01X40394819Y-36012857D01*
G01X40367982Y-36009526D01*
G01X40367982Y-36009526D01*
G01X40340062Y-36013286D01*
G01X40340062Y-36013286D01*
G01X40340062Y-36013286D01*
G01X40332222Y-36009766D01*
G01X40332222Y-36009766D01*
G01X40332222Y-36009766D01*
G01X40301737Y-35966399D01*
G01X40267992Y-35931850D01*
G01X40231638Y-35906582D01*
G01X40193328Y-35891061D01*
G01X40153712Y-35885749D01*
G01X40153712Y-35885749D01*
G01X40153712Y-35885749D01*
G01X40131952Y-35887749D01*
G01X40131952Y-35887749D01*
G01X40131952Y-35887749D01*
G01X40122072Y-35883109D01*
G01X40122072Y-35883109D01*
G01X40122072Y-35883109D01*
G01X40095171Y-35839566D01*
G01X40065757Y-35797803D01*
G01X40033921Y-35757868D01*
G01X39999753Y-35719809D01*
G01X39963345Y-35683677D01*
G01X39924787Y-35649520D01*
G01X39884169Y-35617388D01*
G01X39841582Y-35587329D01*
G01X39797118Y-35559392D01*
G01X39750866Y-35533627D01*
G01X39702918Y-35510083D01*
G01X39653363Y-35488809D01*
G01X39602294Y-35469854D01*
G01X39549799Y-35453266D01*
G01X39495971Y-35439096D01*
G01X39440899Y-35427393D01*
G01X39384674Y-35418204D01*
G01X39327388Y-35411580D01*
G01X39269130Y-35407570D01*
G01X39209992Y-35406222D01*
G01X39209992Y-35406222D01*
G01X39209992Y-35406222D01*
G01X39158228Y-35407154D01*
G01X39106461Y-35410377D01*
G01X39054825Y-35415872D01*
G01X39003455Y-35423620D01*
G01X38952487Y-35433601D01*
G01X38902056Y-35445796D01*
G01X38852297Y-35460186D01*
G01X38803346Y-35476751D01*
G01X38755338Y-35495471D01*
G01X38708409Y-35516328D01*
G01X38662692Y-35539301D01*
G01X38618325Y-35564372D01*
G01X38575442Y-35591520D01*
G01X38534179Y-35620727D01*
G01X38494670Y-35651973D01*
G01X38457051Y-35685239D01*
G01X38421458Y-35720505D01*
G01X38388026Y-35757752D01*
G01X38356889Y-35796961D01*
G01X38328184Y-35838111D01*
G01X38302046Y-35881184D01*
G01X38278610Y-35926160D01*
G01X38258011Y-35973019D01*
G01X38240384Y-36021743D01*
G01X38225865Y-36072312D01*
G01X38225865Y-36072312D01*
G01X38225865Y-36072312D01*
G01X38262787Y-36087677D01*
G01X38299736Y-36102317D01*
G01X38334536Y-36115488D01*
G01X38334536Y-36115488D01*
G01X38339416Y-36125984D01*
G01X38339416Y-36125984D01*
G37*
G36*
G01X6486244Y-21432991D02*
G01X6486244Y-21432991D01*
G01X6518929Y-21395308D01*
G01X6549100Y-21355767D01*
G01X6576686Y-21314467D01*
G01X6601617Y-21271507D01*
G01X6601617Y-21271507D01*
G01X6601617Y-21271507D01*
G01X6623027Y-21227448D01*
G01X6641653Y-21182149D01*
G01X6657457Y-21135718D01*
G01X6670398Y-21088266D01*
G01X6670398Y-21088266D01*
G01X6670398Y-21088266D01*
G01X6681691Y-21078786D01*
G01X6681691Y-21078786D01*
G01X6681691Y-21078786D01*
G01X6720426Y-21083691D01*
G01X6759447Y-21088007D01*
G01X6796455Y-21091487D01*
G01X6796455Y-21091487D01*
G01X6807376Y-21040022D01*
G01X6814687Y-20988726D01*
G01X6818498Y-20937681D01*
G01X6818920Y-20886967D01*
G01X6816062Y-20836665D01*
G01X6810036Y-20786856D01*
G01X6800951Y-20737620D01*
G01X6788918Y-20689039D01*
G01X6774047Y-20641191D01*
G01X6756449Y-20594159D01*
G01X6736233Y-20548023D01*
G01X6713511Y-20502863D01*
G01X6688393Y-20458760D01*
G01X6660989Y-20415796D01*
G01X6631409Y-20374049D01*
G01X6599764Y-20333602D01*
G01X6566164Y-20294535D01*
G01X6530720Y-20256928D01*
G01X6493541Y-20220862D01*
G01X6454739Y-20186418D01*
G01X6414423Y-20153676D01*
G01X6372704Y-20122717D01*
G01X6329693Y-20093622D01*
G01X6285499Y-20066471D01*
G01X6240233Y-20041346D01*
G01X6240233Y-20041346D01*
G01X6240233Y-20041346D01*
G01X6187418Y-20014788D01*
G01X6134132Y-19990991D01*
G01X6080476Y-19969954D01*
G01X6026554Y-19951676D01*
G01X5972468Y-19936156D01*
G01X5918323Y-19923394D01*
G01X5864220Y-19913389D01*
G01X5810262Y-19906140D01*
G01X5756553Y-19901647D01*
G01X5703195Y-19899908D01*
G01X5650292Y-19900922D01*
G01X5597945Y-19904690D01*
G01X5546259Y-19911210D01*
G01X5495335Y-19920482D01*
G01X5445278Y-19932504D01*
G01X5396189Y-19947276D01*
G01X5348172Y-19964798D01*
G01X5301330Y-19985068D01*
G01X5255766Y-20008086D01*
G01X5211582Y-20033851D01*
G01X5211582Y-20033851D01*
G01X5211582Y-20033851D01*
G01X5199550Y-20032980D01*
G01X5199550Y-20032980D01*
G01X5199550Y-20032980D01*
G01X5181823Y-20021742D01*
G01X5181823Y-20021742D01*
G01X5181823Y-20021742D01*
G01X5144372Y-20007864D01*
G01X5103290Y-20003595D01*
G01X5059367Y-20008833D01*
G01X5013394Y-20023475D01*
G01X4966163Y-20047417D01*
G01X4966163Y-20047417D01*
G01X4966163Y-20047417D01*
G01X4956648Y-20046344D01*
G01X4956648Y-20046344D01*
G01X4956648Y-20046344D01*
G01X4934471Y-20030475D01*
G01X4934471Y-20030475D01*
G01X4934471Y-20030475D01*
G01X4897344Y-20018521D01*
G01X4856658Y-20019170D01*
G01X4813812Y-20031560D01*
G01X4770201Y-20054832D01*
G01X4727224Y-20088122D01*
G01X4686277Y-20130571D01*
G01X4648758Y-20181318D01*
G01X4625526Y-20220858D01*
G01X4625526Y-20220858D01*
G01X4598307Y-20280623D01*
G01X4579930Y-20339725D01*
G01X4570328Y-20396526D01*
G01X4569434Y-20449384D01*
G01X4577179Y-20496659D01*
G01X4593497Y-20536713D01*
G01X4618320Y-20567904D01*
G01X4640452Y-20583444D01*
G01X4640452Y-20583444D01*
G01X4666869Y-20593232D01*
G01X4666869Y-20593232D01*
G01X4666869Y-20593232D01*
G01X4672139Y-20600020D01*
G01X4672139Y-20600020D01*
G01X4672139Y-20600020D01*
G01X4678695Y-20652622D01*
G01X4692271Y-20698970D01*
G01X4712507Y-20738347D01*
G01X4739046Y-20770038D01*
G01X4771531Y-20793326D01*
G01X4771531Y-20793326D01*
G01X4771531Y-20793326D01*
G01X4791682Y-20801776D01*
G01X4791682Y-20801776D01*
G01X4791682Y-20801776D01*
G01X4798228Y-20810512D01*
G01X4798228Y-20810512D01*
G01X4798228Y-20810512D01*
G01X4801538Y-20861586D01*
G01X4807903Y-20912270D01*
G01X4817264Y-20962477D01*
G01X4829565Y-21012122D01*
G01X4844748Y-21061117D01*
G01X4862758Y-21109378D01*
G01X4883536Y-21156818D01*
G01X4907025Y-21203352D01*
G01X4933170Y-21248893D01*
G01X4961912Y-21293356D01*
G01X4993194Y-21336655D01*
G01X5026961Y-21378703D01*
G01X5063154Y-21419415D01*
G01X5101716Y-21458706D01*
G01X5142592Y-21496488D01*
G01X5185723Y-21532676D01*
G01X5231052Y-21567185D01*
G01X5278523Y-21599928D01*
G01X5328079Y-21630819D01*
G01X5379663Y-21659773D01*
G01X5379663Y-21659773D01*
G01X5379663Y-21659773D01*
G01X5425804Y-21683252D01*
G01X5473025Y-21704710D01*
G01X5521197Y-21724099D01*
G01X5570191Y-21741375D01*
G01X5619879Y-21756490D01*
G01X5670133Y-21769398D01*
G01X5720822Y-21780053D01*
G01X5771820Y-21788409D01*
G01X5822997Y-21794418D01*
G01X5874225Y-21798035D01*
G01X5925376Y-21799213D01*
G01X5976320Y-21797906D01*
G01X6026929Y-21794068D01*
G01X6077074Y-21787651D01*
G01X6126627Y-21778611D01*
G01X6175460Y-21766900D01*
G01X6223443Y-21752472D01*
G01X6270449Y-21735280D01*
G01X6316348Y-21715279D01*
G01X6361011Y-21692422D01*
G01X6404312Y-21666662D01*
G01X6446120Y-21637953D01*
G01X6486307Y-21606249D01*
G01X6524745Y-21571504D01*
G01X6561305Y-21533670D01*
G01X6561305Y-21533670D01*
G01X6561305Y-21533670D01*
G01X6535919Y-21502770D01*
G01X6510167Y-21472498D01*
G01X6485624Y-21444531D01*
G01X6485624Y-21444531D01*
G01X6486243Y-21432972D01*
G01X6486243Y-21432972D01*
G37*
G36*
G01X8364130Y-17901201D02*
G01X8364130Y-17901201D01*
G01X8396815Y-17863517D01*
G01X8426986Y-17823976D01*
G01X8454573Y-17782677D01*
G01X8479503Y-17739716D01*
G01X8479503Y-17739716D01*
G01X8479503Y-17739716D01*
G01X8500913Y-17695658D01*
G01X8519539Y-17650358D01*
G01X8535343Y-17603928D01*
G01X8548284Y-17556476D01*
G01X8548284Y-17556476D01*
G01X8548284Y-17556476D01*
G01X8559577Y-17546996D01*
G01X8559577Y-17546996D01*
G01X8559577Y-17546996D01*
G01X8598313Y-17551901D01*
G01X8637334Y-17556217D01*
G01X8674341Y-17559697D01*
G01X8674341Y-17559697D01*
G01X8685262Y-17508231D01*
G01X8692573Y-17456936D01*
G01X8696385Y-17405891D01*
G01X8696806Y-17355177D01*
G01X8693948Y-17304875D01*
G01X8687922Y-17255066D01*
G01X8678837Y-17205830D01*
G01X8666804Y-17157248D01*
G01X8651933Y-17109401D01*
G01X8634335Y-17062369D01*
G01X8614120Y-17016232D01*
G01X8591398Y-16971073D01*
G01X8566279Y-16926970D01*
G01X8538875Y-16884005D01*
G01X8509295Y-16842259D01*
G01X8477650Y-16801812D01*
G01X8444051Y-16762744D01*
G01X8408606Y-16725137D01*
G01X8371428Y-16689072D01*
G01X8332625Y-16654627D01*
G01X8292309Y-16621886D01*
G01X8250591Y-16590927D01*
G01X8207579Y-16561832D01*
G01X8163385Y-16534681D01*
G01X8118119Y-16509555D01*
G01X8118119Y-16509555D01*
G01X8118119Y-16509555D01*
G01X8065304Y-16482998D01*
G01X8012018Y-16459201D01*
G01X7958362Y-16438163D01*
G01X7904440Y-16419885D01*
G01X7850355Y-16404366D01*
G01X7796209Y-16391604D01*
G01X7742106Y-16381599D01*
G01X7688148Y-16374350D01*
G01X7634439Y-16369856D01*
G01X7581081Y-16368117D01*
G01X7528178Y-16369132D01*
G01X7475831Y-16372900D01*
G01X7424145Y-16379420D01*
G01X7373222Y-16388691D01*
G01X7323164Y-16400714D01*
G01X7274075Y-16415486D01*
G01X7226059Y-16433008D01*
G01X7179216Y-16453278D01*
G01X7133652Y-16476296D01*
G01X7089468Y-16502060D01*
G01X7089468Y-16502060D01*
G01X7089468Y-16502060D01*
G01X7077436Y-16501190D01*
G01X7077436Y-16501190D01*
G01X7077436Y-16501190D01*
G01X7059709Y-16489952D01*
G01X7059709Y-16489952D01*
G01X7059709Y-16489952D01*
G01X7022258Y-16476074D01*
G01X6981176Y-16471805D01*
G01X6937253Y-16477043D01*
G01X6891280Y-16491684D01*
G01X6844049Y-16515626D01*
G01X6844049Y-16515626D01*
G01X6844049Y-16515626D01*
G01X6834535Y-16514554D01*
G01X6834535Y-16514554D01*
G01X6834535Y-16514554D01*
G01X6812357Y-16498685D01*
G01X6812357Y-16498685D01*
G01X6812357Y-16498685D01*
G01X6775230Y-16486731D01*
G01X6734545Y-16487379D01*
G01X6691698Y-16499770D01*
G01X6648087Y-16523041D01*
G01X6605110Y-16556332D01*
G01X6564163Y-16598781D01*
G01X6526644Y-16649527D01*
G01X6503413Y-16689067D01*
G01X6503413Y-16689067D01*
G01X6476193Y-16748832D01*
G01X6457817Y-16807935D01*
G01X6448215Y-16864735D01*
G01X6447320Y-16917593D01*
G01X6455066Y-16964869D01*
G01X6471383Y-17004922D01*
G01X6496206Y-17036113D01*
G01X6518338Y-17051653D01*
G01X6518338Y-17051653D01*
G01X6544755Y-17061441D01*
G01X6544755Y-17061441D01*
G01X6544755Y-17061441D01*
G01X6550025Y-17068230D01*
G01X6550025Y-17068230D01*
G01X6550025Y-17068230D01*
G01X6556582Y-17120832D01*
G01X6570157Y-17167180D01*
G01X6590393Y-17206557D01*
G01X6616932Y-17238248D01*
G01X6649417Y-17261536D01*
G01X6649417Y-17261536D01*
G01X6649417Y-17261536D01*
G01X6669569Y-17269986D01*
G01X6669569Y-17269986D01*
G01X6669569Y-17269986D01*
G01X6676114Y-17278721D01*
G01X6676114Y-17278721D01*
G01X6676114Y-17278721D01*
G01X6679425Y-17329796D01*
G01X6685789Y-17380480D01*
G01X6695150Y-17430687D01*
G01X6707451Y-17480331D01*
G01X6722635Y-17529327D01*
G01X6740644Y-17577587D01*
G01X6761422Y-17625028D01*
G01X6784912Y-17671561D01*
G01X6811056Y-17717103D01*
G01X6839798Y-17761566D01*
G01X6871081Y-17804864D01*
G01X6904847Y-17846913D01*
G01X6941040Y-17887625D01*
G01X6979603Y-17926915D01*
G01X7020478Y-17964698D01*
G01X7063609Y-18000886D01*
G01X7108938Y-18035395D01*
G01X7156410Y-18068138D01*
G01X7205965Y-18099029D01*
G01X7257549Y-18127983D01*
G01X7257549Y-18127983D01*
G01X7257549Y-18127983D01*
G01X7303690Y-18151462D01*
G01X7350911Y-18172919D01*
G01X7399083Y-18192309D01*
G01X7448078Y-18209585D01*
G01X7497766Y-18224700D01*
G01X7548019Y-18237608D01*
G01X7598709Y-18248263D01*
G01X7649707Y-18256618D01*
G01X7700884Y-18262628D01*
G01X7752112Y-18266245D01*
G01X7803262Y-18267423D01*
G01X7854206Y-18266116D01*
G01X7904815Y-18262277D01*
G01X7954960Y-18255861D01*
G01X8004514Y-18246821D01*
G01X8053346Y-18235109D01*
G01X8101329Y-18220681D01*
G01X8148335Y-18203490D01*
G01X8194234Y-18183489D01*
G01X8238898Y-18160631D01*
G01X8282198Y-18134871D01*
G01X8324006Y-18106163D01*
G01X8364193Y-18074459D01*
G01X8402631Y-18039713D01*
G01X8439191Y-18001880D01*
G01X8439191Y-18001880D01*
G01X8439191Y-18001880D01*
G01X8413805Y-17970980D01*
G01X8388054Y-17940707D01*
G01X8363511Y-17912740D01*
G01X8363511Y-17912740D01*
G01X8364129Y-17901182D01*
G01X8364129Y-17901182D01*
G37*
G36*
G01X34294159Y-50635579D02*
G01X34294159Y-50635579D01*
G01X34254353Y-50665644D01*
G01X34216620Y-50698048D01*
G01X34181050Y-50732710D01*
G01X34147732Y-50769548D01*
G01X34147732Y-50769548D01*
G01X34147732Y-50769548D01*
G01X34117630Y-50808192D01*
G01X34089992Y-50848629D01*
G01X34064881Y-50890759D01*
G01X34042356Y-50934484D01*
G01X34042356Y-50934484D01*
G01X34042356Y-50934484D01*
G01X34029340Y-50941409D01*
G01X34029340Y-50941409D01*
G01X34029340Y-50941409D01*
G01X33992470Y-50928557D01*
G01X33955199Y-50916222D01*
G01X33919724Y-50905124D01*
G01X33919724Y-50905124D01*
G01X33898341Y-50953195D01*
G01X33880525Y-51001849D01*
G01X33866184Y-51050987D01*
G01X33855228Y-51100504D01*
G01X33847565Y-51150301D01*
G01X33843103Y-51200275D01*
G01X33841753Y-51250323D01*
G01X33843423Y-51300346D01*
G01X33848020Y-51350239D01*
G01X33855456Y-51399902D01*
G01X33865637Y-51449233D01*
G01X33878473Y-51498131D01*
G01X33893873Y-51546492D01*
G01X33911745Y-51594215D01*
G01X33931999Y-51641199D01*
G01X33954543Y-51687342D01*
G01X33979286Y-51732541D01*
G01X34006137Y-51776696D01*
G01X34035005Y-51819704D01*
G01X34065798Y-51861463D01*
G01X34098425Y-51901871D01*
G01X34132796Y-51940827D01*
G01X34168818Y-51978229D01*
G01X34206402Y-52013975D01*
G01X34245454Y-52047963D01*
G01X34245454Y-52047963D01*
G01X34245454Y-52047963D01*
G01X34291593Y-52084921D01*
G01X34338768Y-52119277D01*
G01X34386877Y-52151010D01*
G01X34435821Y-52180100D01*
G01X34485497Y-52206525D01*
G01X34535806Y-52230266D01*
G01X34586647Y-52251301D01*
G01X34637918Y-52269610D01*
G01X34689520Y-52285172D01*
G01X34741350Y-52297967D01*
G01X34793308Y-52307973D01*
G01X34845294Y-52315171D01*
G01X34897207Y-52319540D01*
G01X34948945Y-52321058D01*
G01X35000408Y-52319706D01*
G01X35051496Y-52315463D01*
G01X35102106Y-52308307D01*
G01X35152139Y-52298219D01*
G01X35201494Y-52285178D01*
G01X35250069Y-52269163D01*
G01X35250069Y-52269163D01*
G01X35250069Y-52269163D01*
G01X35261657Y-52272516D01*
G01X35261657Y-52272516D01*
G01X35261657Y-52272516D01*
G01X35276660Y-52287194D01*
G01X35276660Y-52287194D01*
G01X35276660Y-52287194D01*
G01X35310407Y-52308555D01*
G01X35349704Y-52321272D01*
G01X35393756Y-52325281D01*
G01X35441769Y-52320518D01*
G01X35492945Y-52306919D01*
G01X35492945Y-52306919D01*
G01X35492945Y-52306919D01*
G01X35502029Y-52309946D01*
G01X35502029Y-52309946D01*
G01X35502029Y-52309946D01*
G01X35520423Y-52330079D01*
G01X35520423Y-52330079D01*
G01X35520423Y-52330079D01*
G01X35554253Y-52349491D01*
G01X35594184Y-52357315D01*
G01X35638671Y-52354104D01*
G01X35686167Y-52340408D01*
G01X35735126Y-52316781D01*
G01X35784004Y-52283773D01*
G01X35831253Y-52241936D01*
G01X35862198Y-52208090D01*
G01X35862198Y-52208090D01*
G01X35901249Y-52155290D01*
G01X35931512Y-52101300D01*
G01X35952713Y-52047737D01*
G01X35964578Y-51996220D01*
G01X35966831Y-51948367D01*
G01X35959197Y-51905796D01*
G01X35941402Y-51870126D01*
G01X35922985Y-51850324D01*
G01X35922985Y-51850324D01*
G01X35899180Y-51835258D01*
G01X35899180Y-51835258D01*
G01X35899180Y-51835258D01*
G01X35895437Y-51827522D01*
G01X35895437Y-51827522D01*
G01X35895437Y-51827522D01*
G01X35899960Y-51774706D01*
G01X35896318Y-51726548D01*
G01X35884711Y-51683824D01*
G01X35865340Y-51647308D01*
G01X35838408Y-51617775D01*
G01X35838408Y-51617775D01*
G01X35838408Y-51617775D01*
G01X35820453Y-51605320D01*
G01X35820453Y-51605320D01*
G01X35820453Y-51605320D01*
G01X35815867Y-51595415D01*
G01X35815867Y-51595415D01*
G01X35815867Y-51595415D01*
G01X35823248Y-51544768D01*
G01X35827560Y-51493868D01*
G01X35828842Y-51442812D01*
G01X35827132Y-51391695D01*
G01X35822467Y-51340613D01*
G01X35814885Y-51289663D01*
G01X35804424Y-51238939D01*
G01X35791123Y-51188539D01*
G01X35775018Y-51138557D01*
G01X35756149Y-51089090D01*
G01X35734552Y-51040233D01*
G01X35710266Y-50992083D01*
G01X35683328Y-50944736D01*
G01X35653777Y-50898286D01*
G01X35621651Y-50852831D01*
G01X35586986Y-50808466D01*
G01X35549822Y-50765287D01*
G01X35510196Y-50723390D01*
G01X35468146Y-50682870D01*
G01X35423709Y-50643824D01*
G01X35423709Y-50643824D01*
G01X35423709Y-50643824D01*
G01X35383458Y-50611265D01*
G01X35341730Y-50580459D01*
G01X35298642Y-50551477D01*
G01X35254310Y-50524393D01*
G01X35208850Y-50499277D01*
G01X35162379Y-50476203D01*
G01X35115012Y-50455242D01*
G01X35066866Y-50436466D01*
G01X35018056Y-50419947D01*
G01X34968700Y-50405759D01*
G01X34918912Y-50393971D01*
G01X34868810Y-50384658D01*
G01X34818509Y-50377890D01*
G01X34768125Y-50373741D01*
G01X34717775Y-50372281D01*
G01X34667575Y-50373583D01*
G01X34617640Y-50377720D01*
G01X34568088Y-50384763D01*
G01X34519033Y-50394784D01*
G01X34470593Y-50407856D01*
G01X34422883Y-50424050D01*
G01X34376020Y-50443439D01*
G01X34330119Y-50466094D01*
G01X34285297Y-50492089D01*
G01X34241670Y-50521494D01*
G01X34241670Y-50521494D01*
G01X34241670Y-50521494D01*
G01X34260077Y-50556997D01*
G01X34278972Y-50591962D01*
G01X34297164Y-50624421D01*
G01X34297164Y-50624421D01*
G01X34294155Y-50635598D01*
G01X34294155Y-50635598D01*
G37*
G36*
G01X31723008Y-53699757D02*
G01X31723008Y-53699757D01*
G01X31683203Y-53729822D01*
G01X31645470Y-53762226D01*
G01X31609900Y-53796887D01*
G01X31576582Y-53833726D01*
G01X31576582Y-53833726D01*
G01X31576582Y-53833726D01*
G01X31546479Y-53872370D01*
G01X31518842Y-53912807D01*
G01X31493730Y-53954937D01*
G01X31471206Y-53998661D01*
G01X31471206Y-53998661D01*
G01X31471206Y-53998661D01*
G01X31458189Y-54005587D01*
G01X31458189Y-54005587D01*
G01X31458189Y-54005587D01*
G01X31421320Y-53992735D01*
G01X31384049Y-53980400D01*
G01X31348574Y-53969302D01*
G01X31348574Y-53969302D01*
G01X31327191Y-54017372D01*
G01X31309374Y-54066027D01*
G01X31295034Y-54115164D01*
G01X31284077Y-54164682D01*
G01X31276414Y-54214479D01*
G01X31271953Y-54264452D01*
G01X31270603Y-54314501D01*
G01X31272272Y-54364523D01*
G01X31276870Y-54414417D01*
G01X31284305Y-54464080D01*
G01X31294486Y-54513411D01*
G01X31307323Y-54562308D01*
G01X31322722Y-54610670D01*
G01X31340595Y-54658393D01*
G01X31360849Y-54705377D01*
G01X31383393Y-54751520D01*
G01X31408136Y-54796719D01*
G01X31434987Y-54840874D01*
G01X31463854Y-54883881D01*
G01X31494648Y-54925640D01*
G01X31527275Y-54966049D01*
G01X31561645Y-55005005D01*
G01X31597668Y-55042407D01*
G01X31635251Y-55078153D01*
G01X31674304Y-55112141D01*
G01X31674304Y-55112141D01*
G01X31674304Y-55112141D01*
G01X31720443Y-55149099D01*
G01X31767617Y-55183455D01*
G01X31815727Y-55215188D01*
G01X31864670Y-55244277D01*
G01X31914347Y-55270703D01*
G01X31964656Y-55294443D01*
G01X32015497Y-55315478D01*
G01X32066768Y-55333787D01*
G01X32118369Y-55349350D01*
G01X32170200Y-55362144D01*
G01X32222158Y-55372151D01*
G01X32274144Y-55379349D01*
G01X32326056Y-55383718D01*
G01X32377795Y-55385236D01*
G01X32429258Y-55383884D01*
G01X32480345Y-55379641D01*
G01X32530956Y-55372485D01*
G01X32580989Y-55362397D01*
G01X32630343Y-55349356D01*
G01X32678919Y-55333341D01*
G01X32678919Y-55333341D01*
G01X32678919Y-55333341D01*
G01X32690506Y-55336693D01*
G01X32690506Y-55336693D01*
G01X32690506Y-55336693D01*
G01X32705510Y-55351371D01*
G01X32705510Y-55351371D01*
G01X32705510Y-55351371D01*
G01X32739256Y-55372733D01*
G01X32778553Y-55385450D01*
G01X32822606Y-55389458D01*
G01X32870618Y-55384695D01*
G01X32921795Y-55371096D01*
G01X32921795Y-55371096D01*
G01X32921795Y-55371096D01*
G01X32930878Y-55374123D01*
G01X32930878Y-55374123D01*
G01X32930878Y-55374123D01*
G01X32949272Y-55394257D01*
G01X32949272Y-55394257D01*
G01X32949272Y-55394257D01*
G01X32983102Y-55413669D01*
G01X33023034Y-55421493D01*
G01X33067520Y-55418282D01*
G01X33115016Y-55404586D01*
G01X33163976Y-55380959D01*
G01X33212853Y-55347950D01*
G01X33260103Y-55306114D01*
G01X33291048Y-55272268D01*
G01X33291048Y-55272268D01*
G01X33330098Y-55219468D01*
G01X33360362Y-55165477D01*
G01X33381563Y-55111915D01*
G01X33393428Y-55060398D01*
G01X33395681Y-55012545D01*
G01X33388047Y-54969974D01*
G01X33370252Y-54934304D01*
G01X33351835Y-54914502D01*
G01X33351835Y-54914502D01*
G01X33328030Y-54899435D01*
G01X33328030Y-54899435D01*
G01X33328030Y-54899435D01*
G01X33324287Y-54891699D01*
G01X33324287Y-54891699D01*
G01X33324287Y-54891699D01*
G01X33328810Y-54838884D01*
G01X33325167Y-54790726D01*
G01X33313560Y-54748002D01*
G01X33294190Y-54711486D01*
G01X33267257Y-54681953D01*
G01X33267257Y-54681953D01*
G01X33267257Y-54681953D01*
G01X33249302Y-54669498D01*
G01X33249302Y-54669498D01*
G01X33249302Y-54669498D01*
G01X33244717Y-54659593D01*
G01X33244717Y-54659593D01*
G01X33244717Y-54659593D01*
G01X33252097Y-54608945D01*
G01X33256410Y-54558046D01*
G01X33257692Y-54506990D01*
G01X33255981Y-54455873D01*
G01X33251316Y-54404791D01*
G01X33243734Y-54353841D01*
G01X33233274Y-54303117D01*
G01X33219972Y-54252717D01*
G01X33203868Y-54202735D01*
G01X33184998Y-54153268D01*
G01X33163402Y-54104411D01*
G01X33139116Y-54056261D01*
G01X33112178Y-54008914D01*
G01X33082627Y-53962464D01*
G01X33050500Y-53917009D01*
G01X33015836Y-53872644D01*
G01X32978672Y-53829465D01*
G01X32939045Y-53787568D01*
G01X32896995Y-53747048D01*
G01X32852559Y-53708002D01*
G01X32852559Y-53708002D01*
G01X32852559Y-53708002D01*
G01X32812307Y-53675443D01*
G01X32770579Y-53644636D01*
G01X32727491Y-53615655D01*
G01X32683159Y-53588570D01*
G01X32637700Y-53563455D01*
G01X32591228Y-53540380D01*
G01X32543862Y-53519419D01*
G01X32495715Y-53500644D01*
G01X32446906Y-53484125D01*
G01X32397549Y-53469936D01*
G01X32347762Y-53458149D01*
G01X32297660Y-53448836D01*
G01X32247358Y-53442068D01*
G01X32196975Y-53437918D01*
G01X32146625Y-53436459D01*
G01X32096424Y-53437761D01*
G01X32046490Y-53441898D01*
G01X31996937Y-53448940D01*
G01X31947883Y-53458962D01*
G01X31899443Y-53472033D01*
G01X31851733Y-53488228D01*
G01X31804870Y-53507616D01*
G01X31758969Y-53530272D01*
G01X31714147Y-53556267D01*
G01X31670520Y-53585672D01*
G01X31670520Y-53585672D01*
G01X31670520Y-53585672D01*
G01X31688927Y-53621175D01*
G01X31707821Y-53656140D01*
G01X31726013Y-53688599D01*
G01X31726013Y-53688599D01*
G01X31723005Y-53699776D01*
G01X31723005Y-53699776D01*
G37*
G36*
G01X13376421Y-9098752D02*
G01X13376421Y-9098752D01*
G01X13425039Y-9109920D01*
G01X13474116Y-9117996D01*
G01X13523532Y-9122964D01*
G01X13573168Y-9124808D01*
G01X13573168Y-9124808D01*
G01X13573168Y-9124808D01*
G01X13622121Y-9123028D01*
G01X13670863Y-9118207D01*
G01X13719278Y-9110363D01*
G01X13767251Y-9099512D01*
G01X13767251Y-9099512D01*
G01X13767251Y-9099512D01*
G01X13780923Y-9105032D01*
G01X13780923Y-9105032D01*
G01X13780923Y-9105032D01*
G01X13794777Y-9141536D01*
G01X13809286Y-9178016D01*
G01X13823587Y-9212326D01*
G01X13823587Y-9212326D01*
G01X13874156Y-9197807D01*
G01X13922879Y-9180180D01*
G01X13969739Y-9159581D01*
G01X14014714Y-9136145D01*
G01X14057786Y-9110006D01*
G01X14098936Y-9081301D01*
G01X14138143Y-9050165D01*
G01X14175390Y-9016733D01*
G01X14210655Y-8981139D01*
G01X14243920Y-8943521D01*
G01X14275165Y-8904012D01*
G01X14304372Y-8862749D01*
G01X14331520Y-8819866D01*
G01X14356590Y-8775498D01*
G01X14379563Y-8729782D01*
G01X14400419Y-8682853D01*
G01X14419139Y-8634845D01*
G01X14435704Y-8585894D01*
G01X14450094Y-8536135D01*
G01X14462290Y-8485704D01*
G01X14472272Y-8434736D01*
G01X14480021Y-8383366D01*
G01X14485518Y-8331730D01*
G01X14488743Y-8279962D01*
G01X14489676Y-8228199D01*
G01X14489676Y-8228199D01*
G01X14489676Y-8228199D01*
G01X14488331Y-8169099D01*
G01X14484326Y-8110877D01*
G01X14477710Y-8053626D01*
G01X14468534Y-7997434D01*
G01X14456845Y-7942394D01*
G01X14442694Y-7888595D01*
G01X14426128Y-7836127D01*
G01X14407197Y-7785082D01*
G01X14385949Y-7735550D01*
G01X14362435Y-7687622D01*
G01X14336702Y-7641387D01*
G01X14308800Y-7596937D01*
G01X14278778Y-7554361D01*
G01X14246685Y-7513752D01*
G01X14212569Y-7475198D01*
G01X14176480Y-7438790D01*
G01X14138467Y-7404620D01*
G01X14098578Y-7372777D01*
G01X14056864Y-7343352D01*
G01X14013372Y-7316435D01*
G01X14013372Y-7316435D01*
G01X14013372Y-7316435D01*
G01X14008492Y-7305403D01*
G01X14008492Y-7305403D01*
G01X14008492Y-7305403D01*
G01X14010092Y-7284475D01*
G01X14010092Y-7284475D01*
G01X14010092Y-7284475D01*
G01X14004763Y-7244893D01*
G01X13989245Y-7206615D01*
G01X13964000Y-7170292D01*
G01X13929490Y-7136575D01*
G01X13886176Y-7106112D01*
G01X13886176Y-7106112D01*
G01X13886176Y-7106112D01*
G01X13882656Y-7097208D01*
G01X13882656Y-7097208D01*
G01X13882656Y-7097208D01*
G01X13886257Y-7070176D01*
G01X13886257Y-7070176D01*
G01X13886257Y-7070176D01*
G01X13879381Y-7031783D01*
G01X13859708Y-6996164D01*
G01X13828652Y-6964150D01*
G01X13787631Y-6936569D01*
G01X13738060Y-6914251D01*
G01X13681357Y-6898026D01*
G01X13618936Y-6888723D01*
G01X13573118Y-6886774D01*
G01X13573118Y-6886774D01*
G01X13507570Y-6890799D01*
G01X13446758Y-6902320D01*
G01X13392098Y-6920508D01*
G01X13345008Y-6944534D01*
G01X13306902Y-6973567D01*
G01X13279198Y-7006779D01*
G01X13263311Y-7043339D01*
G01X13259980Y-7070176D01*
G01X13259980Y-7070176D01*
G01X13263741Y-7098096D01*
G01X13263741Y-7098096D01*
G01X13263741Y-7098096D01*
G01X13260220Y-7105936D01*
G01X13260220Y-7105936D01*
G01X13260221Y-7105936D01*
G01X13216854Y-7136421D01*
G01X13182304Y-7170166D01*
G01X13157037Y-7206520D01*
G01X13141515Y-7244830D01*
G01X13136203Y-7284446D01*
G01X13136203Y-7284446D01*
G01X13136203Y-7284446D01*
G01X13138203Y-7306206D01*
G01X13138203Y-7306206D01*
G01X13138203Y-7306206D01*
G01X13133563Y-7316086D01*
G01X13133563Y-7316086D01*
G01X13133563Y-7316086D01*
G01X13090021Y-7342987D01*
G01X13048257Y-7372401D01*
G01X13008322Y-7404237D01*
G01X12970264Y-7438405D01*
G01X12934132Y-7474813D01*
G01X12899975Y-7513371D01*
G01X12867842Y-7553989D01*
G01X12837783Y-7596576D01*
G01X12809846Y-7641040D01*
G01X12784082Y-7687292D01*
G01X12760537Y-7735240D01*
G01X12739263Y-7784795D01*
G01X12720308Y-7835864D01*
G01X12703721Y-7888359D01*
G01X12689551Y-7942187D01*
G01X12677847Y-7997259D01*
G01X12668659Y-8053484D01*
G01X12662035Y-8110770D01*
G01X12658024Y-8169028D01*
G01X12656676Y-8228166D01*
G01X12656676Y-8228166D01*
G01X12656676Y-8228166D01*
G01X12657608Y-8279930D01*
G01X12660831Y-8331697D01*
G01X12666326Y-8383333D01*
G01X12674074Y-8434703D01*
G01X12684055Y-8485671D01*
G01X12696251Y-8536102D01*
G01X12710640Y-8585861D01*
G01X12727205Y-8634812D01*
G01X12745925Y-8682820D01*
G01X12766782Y-8729749D01*
G01X12789755Y-8775466D01*
G01X12814826Y-8819833D01*
G01X12841974Y-8862716D01*
G01X12871182Y-8903979D01*
G01X12902428Y-8943488D01*
G01X12935694Y-8981107D01*
G01X12970960Y-9016700D01*
G01X13008207Y-9050132D01*
G01X13047415Y-9081269D01*
G01X13088565Y-9109974D01*
G01X13131638Y-9136112D01*
G01X13176614Y-9159548D01*
G01X13223473Y-9180147D01*
G01X13272197Y-9197774D01*
G01X13322766Y-9212293D01*
G01X13322766Y-9212293D01*
G01X13322766Y-9212293D01*
G01X13338131Y-9175371D01*
G01X13352771Y-9138422D01*
G01X13365942Y-9103622D01*
G01X13365942Y-9103622D01*
G01X13376438Y-9098742D01*
G01X13376438Y-9098742D01*
G37*
G36*
G01X28188304Y-9404771D02*
G01X28188304Y-9404771D01*
G01X28236922Y-9415939D01*
G01X28285999Y-9424015D01*
G01X28335415Y-9428983D01*
G01X28385051Y-9430827D01*
G01X28385051Y-9430827D01*
G01X28385051Y-9430827D01*
G01X28434004Y-9429047D01*
G01X28482746Y-9424226D01*
G01X28531160Y-9416382D01*
G01X28579134Y-9405531D01*
G01X28579134Y-9405531D01*
G01X28579134Y-9405531D01*
G01X28592806Y-9411051D01*
G01X28592806Y-9411051D01*
G01X28592806Y-9411051D01*
G01X28606660Y-9447555D01*
G01X28621168Y-9484035D01*
G01X28635470Y-9518345D01*
G01X28635470Y-9518345D01*
G01X28686038Y-9503826D01*
G01X28734762Y-9486199D01*
G01X28781621Y-9465600D01*
G01X28826597Y-9442164D01*
G01X28869669Y-9416025D01*
G01X28910819Y-9387320D01*
G01X28950026Y-9356184D01*
G01X28987272Y-9322752D01*
G01X29022538Y-9287158D01*
G01X29055803Y-9249540D01*
G01X29087048Y-9210031D01*
G01X29116254Y-9168768D01*
G01X29143402Y-9125885D01*
G01X29168473Y-9081517D01*
G01X29191445Y-9035801D01*
G01X29212302Y-8988872D01*
G01X29231022Y-8940864D01*
G01X29247587Y-8891913D01*
G01X29261977Y-8842154D01*
G01X29274173Y-8791723D01*
G01X29284155Y-8740755D01*
G01X29291904Y-8689385D01*
G01X29297401Y-8637749D01*
G01X29300626Y-8585981D01*
G01X29301559Y-8534218D01*
G01X29301559Y-8534218D01*
G01X29301559Y-8534218D01*
G01X29300213Y-8475118D01*
G01X29296208Y-8416896D01*
G01X29289593Y-8359645D01*
G01X29280417Y-8303453D01*
G01X29268728Y-8248413D01*
G01X29254576Y-8194614D01*
G01X29238011Y-8142146D01*
G01X29219079Y-8091101D01*
G01X29197832Y-8041569D01*
G01X29174318Y-7993641D01*
G01X29148585Y-7947406D01*
G01X29120683Y-7902956D01*
G01X29090661Y-7860380D01*
G01X29058567Y-7819771D01*
G01X29024452Y-7781217D01*
G01X28988363Y-7744809D01*
G01X28950350Y-7710639D01*
G01X28910461Y-7678796D01*
G01X28868746Y-7649371D01*
G01X28825254Y-7622454D01*
G01X28825254Y-7622454D01*
G01X28825254Y-7622454D01*
G01X28820374Y-7611422D01*
G01X28820374Y-7611422D01*
G01X28820374Y-7611422D01*
G01X28821974Y-7590494D01*
G01X28821974Y-7590494D01*
G01X28821974Y-7590494D01*
G01X28816646Y-7550912D01*
G01X28801128Y-7512634D01*
G01X28775883Y-7476311D01*
G01X28741372Y-7442594D01*
G01X28698059Y-7412131D01*
G01X28698059Y-7412131D01*
G01X28698059Y-7412131D01*
G01X28694539Y-7403227D01*
G01X28694539Y-7403227D01*
G01X28694539Y-7403227D01*
G01X28698139Y-7376195D01*
G01X28698139Y-7376195D01*
G01X28698139Y-7376195D01*
G01X28691264Y-7337802D01*
G01X28671590Y-7302183D01*
G01X28640535Y-7270169D01*
G01X28599514Y-7242588D01*
G01X28549943Y-7220270D01*
G01X28493239Y-7204045D01*
G01X28430819Y-7194742D01*
G01X28385001Y-7192793D01*
G01X28385001Y-7192793D01*
G01X28319453Y-7196818D01*
G01X28258641Y-7208339D01*
G01X28203981Y-7226527D01*
G01X28156890Y-7250553D01*
G01X28118785Y-7279586D01*
G01X28091081Y-7312798D01*
G01X28075194Y-7349358D01*
G01X28071863Y-7376195D01*
G01X28071863Y-7376195D01*
G01X28075623Y-7404115D01*
G01X28075623Y-7404115D01*
G01X28075623Y-7404115D01*
G01X28072103Y-7411955D01*
G01X28072103Y-7411955D01*
G01X28072103Y-7411955D01*
G01X28028736Y-7442440D01*
G01X27994187Y-7476185D01*
G01X27968919Y-7512539D01*
G01X27953398Y-7550849D01*
G01X27948086Y-7590465D01*
G01X27948086Y-7590465D01*
G01X27948086Y-7590465D01*
G01X27950086Y-7612225D01*
G01X27950086Y-7612225D01*
G01X27950086Y-7612225D01*
G01X27945446Y-7622105D01*
G01X27945446Y-7622105D01*
G01X27945446Y-7622105D01*
G01X27901903Y-7649006D01*
G01X27860140Y-7678420D01*
G01X27820205Y-7710256D01*
G01X27782146Y-7744424D01*
G01X27746014Y-7780832D01*
G01X27711857Y-7819390D01*
G01X27679725Y-7860008D01*
G01X27649666Y-7902595D01*
G01X27621729Y-7947059D01*
G01X27595964Y-7993311D01*
G01X27572420Y-8041259D01*
G01X27551146Y-8090814D01*
G01X27532191Y-8141883D01*
G01X27515603Y-8194378D01*
G01X27501433Y-8248206D01*
G01X27489730Y-8303278D01*
G01X27480541Y-8359503D01*
G01X27473917Y-8416789D01*
G01X27469907Y-8475047D01*
G01X27468559Y-8534185D01*
G01X27468559Y-8534185D01*
G01X27468559Y-8534185D01*
G01X27469491Y-8585949D01*
G01X27472714Y-8637716D01*
G01X27478209Y-8689352D01*
G01X27485957Y-8740722D01*
G01X27495938Y-8791690D01*
G01X27508133Y-8842121D01*
G01X27522523Y-8891880D01*
G01X27539088Y-8940831D01*
G01X27557808Y-8988839D01*
G01X27578665Y-9035768D01*
G01X27601638Y-9081485D01*
G01X27626709Y-9125852D01*
G01X27653857Y-9168735D01*
G01X27683064Y-9209998D01*
G01X27714310Y-9249507D01*
G01X27747576Y-9287126D01*
G01X27782842Y-9322719D01*
G01X27820089Y-9356151D01*
G01X27859298Y-9387288D01*
G01X27900448Y-9415993D01*
G01X27943521Y-9442131D01*
G01X27988497Y-9465567D01*
G01X28035356Y-9486166D01*
G01X28084080Y-9503793D01*
G01X28134649Y-9518312D01*
G01X28134649Y-9518312D01*
G01X28134649Y-9518312D01*
G01X28150014Y-9481390D01*
G01X28164654Y-9444441D01*
G01X28177825Y-9409641D01*
G01X28177825Y-9409641D01*
G01X28188321Y-9404761D01*
G01X28188321Y-9404761D01*
G37*
G36*
G01X32964845Y-17634586D02*
G01X32964845Y-17634586D01*
G01X32977809Y-17682756D01*
G01X32993718Y-17729880D01*
G01X33012531Y-17775845D01*
G01X33034206Y-17820536D01*
G01X33034206Y-17820536D01*
G01X33034206Y-17820536D01*
G01X33058760Y-17862923D01*
G01X33085899Y-17903696D01*
G01X33115555Y-17942761D01*
G01X33147657Y-17980025D01*
G01X33147657Y-17980025D01*
G01X33147657Y-17980025D01*
G01X33149202Y-17994688D01*
G01X33149202Y-17994688D01*
G01X33149202Y-17994688D01*
G01X33123475Y-18024059D01*
G01X33098076Y-18053995D01*
G01X33074497Y-18082729D01*
G01X33074497Y-18082729D01*
G01X33111057Y-18120563D01*
G01X33149495Y-18155308D01*
G01X33189682Y-18187012D01*
G01X33231490Y-18215720D01*
G01X33274790Y-18241479D01*
G01X33319453Y-18264336D01*
G01X33365352Y-18284337D01*
G01X33412357Y-18301527D01*
G01X33460340Y-18315955D01*
G01X33509172Y-18327665D01*
G01X33558725Y-18336705D01*
G01X33608870Y-18343121D01*
G01X33659479Y-18346959D01*
G01X33710422Y-18348265D01*
G01X33761572Y-18347087D01*
G01X33812800Y-18343469D01*
G01X33863977Y-18337460D01*
G01X33914975Y-18329105D01*
G01X33965665Y-18318450D01*
G01X34015919Y-18305543D01*
G01X34065607Y-18290428D01*
G01X34114602Y-18273154D01*
G01X34162775Y-18253765D01*
G01X34209997Y-18232309D01*
G01X34256139Y-18208832D01*
G01X34256139Y-18208832D01*
G01X34256139Y-18208832D01*
G01X34307690Y-18179898D01*
G01X34357216Y-18149028D01*
G01X34404661Y-18116309D01*
G01X34449967Y-18081827D01*
G01X34493077Y-18045667D01*
G01X34533935Y-18007914D01*
G01X34572484Y-17968656D01*
G01X34608666Y-17927976D01*
G01X34642425Y-17885962D01*
G01X34673704Y-17842699D01*
G01X34702446Y-17798272D01*
G01X34728595Y-17752768D01*
G01X34752092Y-17706272D01*
G01X34772881Y-17658870D01*
G01X34790906Y-17610648D01*
G01X34806109Y-17561691D01*
G01X34818434Y-17512085D01*
G01X34827823Y-17461917D01*
G01X34834220Y-17411271D01*
G01X34837567Y-17360233D01*
G01X34837567Y-17360233D01*
G01X34837567Y-17360233D01*
G01X34845017Y-17350745D01*
G01X34845017Y-17350745D01*
G01X34845017Y-17350745D01*
G01X34864247Y-17342332D01*
G01X34864247Y-17342332D01*
G01X34864247Y-17342332D01*
G01X34896694Y-17319045D01*
G01X34923206Y-17287373D01*
G01X34943425Y-17248030D01*
G01X34956995Y-17201730D01*
G01X34963557Y-17149185D01*
G01X34963557Y-17149185D01*
G01X34963557Y-17149185D01*
G01X34969766Y-17141897D01*
G01X34969766Y-17141897D01*
G01X34969766Y-17141897D01*
G01X34995324Y-17132385D01*
G01X34995324Y-17132385D01*
G01X34995324Y-17132385D01*
G01X35025996Y-17108290D01*
G01X35048209Y-17074198D01*
G01X35061896Y-17031747D01*
G01X35066990Y-16982579D01*
G01X35063424Y-16928334D01*
G01X35051129Y-16870650D01*
G01X35030039Y-16811169D01*
G01X35010250Y-16769798D01*
G01X35010250Y-16769798D01*
G01X34975923Y-16713812D01*
G01X34937201Y-16665527D01*
G01X34895480Y-16625805D01*
G01X34852159Y-16595505D01*
G01X34808635Y-16575490D01*
G01X34766304Y-16566621D01*
G01X34726565Y-16569758D01*
G01X34701306Y-16579416D01*
G01X34701306Y-16579416D01*
G01X34678419Y-16595844D01*
G01X34678419Y-16595844D01*
G01X34678419Y-16595844D01*
G01X34669844Y-16596416D01*
G01X34669844Y-16596416D01*
G01X34669844Y-16596416D01*
G01X34622568Y-16572437D01*
G01X34576553Y-16557775D01*
G01X34532592Y-16552532D01*
G01X34491479Y-16556813D01*
G01X34454007Y-16570721D01*
G01X34454007Y-16570721D01*
G01X34454007Y-16570721D01*
G01X34435733Y-16582702D01*
G01X34435733Y-16582702D01*
G01X34435733Y-16582702D01*
G01X34424831Y-16583244D01*
G01X34424831Y-16583244D01*
G01X34424831Y-16583244D01*
G01X34380637Y-16557428D01*
G01X34335059Y-16534362D01*
G01X34288200Y-16514047D01*
G01X34240165Y-16496484D01*
G01X34191055Y-16481674D01*
G01X34140975Y-16469618D01*
G01X34090026Y-16460315D01*
G01X34038313Y-16453768D01*
G01X33985938Y-16449976D01*
G01X33933004Y-16448941D01*
G01X33879615Y-16450663D01*
G01X33825873Y-16455143D01*
G01X33771882Y-16462383D01*
G01X33717745Y-16472382D01*
G01X33663565Y-16485141D01*
G01X33609445Y-16500662D01*
G01X33555488Y-16518945D01*
G01X33501797Y-16539991D01*
G01X33448476Y-16563800D01*
G01X33395627Y-16590374D01*
G01X33395627Y-16590374D01*
G01X33395627Y-16590374D01*
G01X33350360Y-16615498D01*
G01X33306165Y-16642647D01*
G01X33263153Y-16671741D01*
G01X33221433Y-16702698D01*
G01X33181117Y-16735439D01*
G01X33142315Y-16769883D01*
G01X33105136Y-16805949D01*
G01X33069691Y-16843555D01*
G01X33036091Y-16882623D01*
G01X33004447Y-16923070D01*
G01X32974867Y-16964817D01*
G01X32947463Y-17007782D01*
G01X32922345Y-17051885D01*
G01X32899623Y-17097046D01*
G01X32879408Y-17143183D01*
G01X32861811Y-17190215D01*
G01X32846940Y-17238063D01*
G01X32834907Y-17286646D01*
G01X32825823Y-17335883D01*
G01X32819797Y-17385692D01*
G01X32816939Y-17435995D01*
G01X32817361Y-17486709D01*
G01X32821172Y-17537754D01*
G01X32828484Y-17589050D01*
G01X32839405Y-17640516D01*
G01X32839405Y-17640516D01*
G01X32839405Y-17640516D01*
G01X32879218Y-17636749D01*
G01X32918715Y-17632328D01*
G01X32955625Y-17627620D01*
G01X32955625Y-17627620D01*
G01X32964861Y-17634596D01*
G01X32964861Y-17634596D01*
G37*
G36*
G01X34842731Y-21166376D02*
G01X34842731Y-21166376D01*
G01X34855695Y-21214546D01*
G01X34871605Y-21261670D01*
G01X34890418Y-21307635D01*
G01X34912092Y-21352326D01*
G01X34912092Y-21352326D01*
G01X34912092Y-21352326D01*
G01X34936646Y-21394713D01*
G01X34963786Y-21435486D01*
G01X34993441Y-21474552D01*
G01X35025544Y-21511815D01*
G01X35025544Y-21511815D01*
G01X35025544Y-21511815D01*
G01X35027088Y-21526478D01*
G01X35027088Y-21526478D01*
G01X35027088Y-21526478D01*
G01X35001361Y-21555849D01*
G01X34975962Y-21585785D01*
G01X34952383Y-21614520D01*
G01X34952383Y-21614520D01*
G01X34988943Y-21652353D01*
G01X35027381Y-21687099D01*
G01X35067568Y-21718802D01*
G01X35109376Y-21747510D01*
G01X35152676Y-21773270D01*
G01X35197339Y-21796126D01*
G01X35243238Y-21816127D01*
G01X35290243Y-21833318D01*
G01X35338226Y-21847745D01*
G01X35387058Y-21859456D01*
G01X35436611Y-21868495D01*
G01X35486756Y-21874911D01*
G01X35537365Y-21878749D01*
G01X35588308Y-21880056D01*
G01X35639459Y-21878877D01*
G01X35690686Y-21875260D01*
G01X35741864Y-21869250D01*
G01X35792861Y-21860895D01*
G01X35843551Y-21850241D01*
G01X35893805Y-21837333D01*
G01X35943493Y-21822219D01*
G01X35992488Y-21804944D01*
G01X36040661Y-21785556D01*
G01X36087883Y-21764100D01*
G01X36134025Y-21740623D01*
G01X36134025Y-21740623D01*
G01X36134025Y-21740623D01*
G01X36185576Y-21711688D01*
G01X36235103Y-21680819D01*
G01X36282547Y-21648100D01*
G01X36327853Y-21613617D01*
G01X36370963Y-21577457D01*
G01X36411821Y-21539705D01*
G01X36450370Y-21500446D01*
G01X36486552Y-21459767D01*
G01X36520312Y-21417753D01*
G01X36551591Y-21374489D01*
G01X36580333Y-21330063D01*
G01X36606481Y-21284559D01*
G01X36629978Y-21238063D01*
G01X36650768Y-21190661D01*
G01X36668792Y-21142438D01*
G01X36683996Y-21093482D01*
G01X36696320Y-21043876D01*
G01X36705709Y-20993707D01*
G01X36712106Y-20943061D01*
G01X36715454Y-20892023D01*
G01X36715454Y-20892023D01*
G01X36715454Y-20892023D01*
G01X36722903Y-20882535D01*
G01X36722903Y-20882535D01*
G01X36722903Y-20882535D01*
G01X36742133Y-20874123D01*
G01X36742133Y-20874123D01*
G01X36742133Y-20874123D01*
G01X36774580Y-20850836D01*
G01X36801092Y-20819164D01*
G01X36821312Y-20779821D01*
G01X36834881Y-20733520D01*
G01X36841444Y-20680976D01*
G01X36841444Y-20680976D01*
G01X36841444Y-20680976D01*
G01X36847653Y-20673688D01*
G01X36847653Y-20673688D01*
G01X36847653Y-20673688D01*
G01X36873211Y-20664175D01*
G01X36873211Y-20664175D01*
G01X36873211Y-20664175D01*
G01X36903882Y-20640080D01*
G01X36926095Y-20605988D01*
G01X36939782Y-20563538D01*
G01X36944877Y-20514370D01*
G01X36941310Y-20460124D01*
G01X36929015Y-20402440D01*
G01X36907925Y-20342959D01*
G01X36888136Y-20301588D01*
G01X36888136Y-20301588D01*
G01X36853809Y-20245603D01*
G01X36815087Y-20197318D01*
G01X36773366Y-20157595D01*
G01X36730045Y-20127296D01*
G01X36686521Y-20107281D01*
G01X36644191Y-20098411D01*
G01X36604451Y-20101548D01*
G01X36579192Y-20111207D01*
G01X36579192Y-20111207D01*
G01X36556305Y-20127634D01*
G01X36556305Y-20127634D01*
G01X36556305Y-20127634D01*
G01X36547730Y-20128207D01*
G01X36547730Y-20128207D01*
G01X36547730Y-20128207D01*
G01X36500455Y-20104228D01*
G01X36454439Y-20089565D01*
G01X36410478Y-20084322D01*
G01X36369365Y-20088603D01*
G01X36331893Y-20102511D01*
G01X36331893Y-20102511D01*
G01X36331893Y-20102511D01*
G01X36313619Y-20114493D01*
G01X36313619Y-20114493D01*
G01X36313619Y-20114493D01*
G01X36302717Y-20115034D01*
G01X36302717Y-20115034D01*
G01X36302717Y-20115034D01*
G01X36258523Y-20089218D01*
G01X36212945Y-20066152D01*
G01X36166087Y-20045838D01*
G01X36118051Y-20028275D01*
G01X36068942Y-20013465D01*
G01X36018861Y-20001408D01*
G01X35967912Y-19992105D01*
G01X35916199Y-19985558D01*
G01X35863824Y-19981766D01*
G01X35810890Y-19980731D01*
G01X35757501Y-19982453D01*
G01X35703759Y-19986934D01*
G01X35649768Y-19994173D01*
G01X35595631Y-20004172D01*
G01X35541451Y-20016932D01*
G01X35487331Y-20032452D01*
G01X35433374Y-20050735D01*
G01X35379683Y-20071781D01*
G01X35326362Y-20095590D01*
G01X35273513Y-20122164D01*
G01X35273513Y-20122164D01*
G01X35273513Y-20122164D01*
G01X35228246Y-20147288D01*
G01X35184051Y-20174437D01*
G01X35141039Y-20203531D01*
G01X35099320Y-20234489D01*
G01X35059003Y-20267230D01*
G01X35020201Y-20301673D01*
G01X34983022Y-20337739D01*
G01X34947578Y-20375346D01*
G01X34913978Y-20414413D01*
G01X34882333Y-20454861D01*
G01X34852753Y-20496607D01*
G01X34825349Y-20539572D01*
G01X34800231Y-20583676D01*
G01X34777510Y-20628836D01*
G01X34757295Y-20674973D01*
G01X34739697Y-20722006D01*
G01X34724826Y-20769854D01*
G01X34712794Y-20818436D01*
G01X34703709Y-20867673D01*
G01X34697683Y-20917483D01*
G01X34694826Y-20967785D01*
G01X34695247Y-21018499D01*
G01X34699059Y-21069544D01*
G01X34706370Y-21120840D01*
G01X34717291Y-21172306D01*
G01X34717291Y-21172306D01*
G01X34717291Y-21172306D01*
G01X34757104Y-21168539D01*
G01X34796601Y-21164118D01*
G01X34833511Y-21159410D01*
G01X34833511Y-21159410D01*
G01X34842748Y-21166387D01*
G01X34842748Y-21166387D01*
G37*
G36*
G01X24213180Y-5639614D02*
G01X24213180Y-5639614D01*
G01X24280023Y-5638532D01*
G01X24346324Y-5635307D01*
G01X24412051Y-5629973D01*
G01X24477169Y-5622563D01*
G01X24541645Y-5613110D01*
G01X24605447Y-5601649D01*
G01X24668540Y-5588211D01*
G01X24730892Y-5572832D01*
G01X24792468Y-5555543D01*
G01X24853236Y-5536378D01*
G01X24913163Y-5515371D01*
G01X24972214Y-5492555D01*
G01X25030357Y-5467964D01*
G01X25087558Y-5441630D01*
G01X25143784Y-5413587D01*
G01X25199001Y-5383869D01*
G01X25253177Y-5352508D01*
G01X25306277Y-5319539D01*
G01X25358269Y-5284994D01*
G01X25409118Y-5248906D01*
G01X25458793Y-5211310D01*
G01X25507259Y-5172239D01*
G01X25554483Y-5131725D01*
G01X25600431Y-5089803D01*
G01X25645071Y-5046505D01*
G01X25688369Y-5001865D01*
G01X25730291Y-4955917D01*
G01X25770805Y-4908693D01*
G01X25809876Y-4860227D01*
G01X25847472Y-4810553D01*
G01X25883559Y-4759703D01*
G01X25918104Y-4707711D01*
G01X25951074Y-4654611D01*
G01X25982435Y-4600435D01*
G01X26012153Y-4545218D01*
G01X26040196Y-4488992D01*
G01X26066530Y-4431791D01*
G01X26091121Y-4373648D01*
G01X26113937Y-4314597D01*
G01X26134944Y-4254671D01*
G01X26154108Y-4193902D01*
G01X26171397Y-4132326D01*
G01X26186777Y-4069974D01*
G01X26200214Y-4006881D01*
G01X26211676Y-3943080D01*
G01X26221128Y-3878603D01*
G01X26228538Y-3813485D01*
G01X26233872Y-3747758D01*
G01X26237097Y-3681457D01*
G01X26238180Y-3614614D01*
G01X26238180Y-3614614D01*
G01X26238180Y-3614614D01*
G01X26237097Y-3547771D01*
G01X26233872Y-3481470D01*
G01X26228538Y-3415743D01*
G01X26221128Y-3350625D01*
G01X26211676Y-3286148D01*
G01X26200214Y-3222347D01*
G01X26186777Y-3159254D01*
G01X26171397Y-3096902D01*
G01X26154108Y-3035326D01*
G01X26134944Y-2974557D01*
G01X26113937Y-2914631D01*
G01X26091121Y-2855580D01*
G01X26066530Y-2797437D01*
G01X26040196Y-2740236D01*
G01X26012153Y-2684010D01*
G01X25982435Y-2628793D01*
G01X25951074Y-2574617D01*
G01X25918104Y-2521517D01*
G01X25883559Y-2469525D01*
G01X25847472Y-2418675D01*
G01X25809876Y-2369001D01*
G01X25770805Y-2320535D01*
G01X25730291Y-2273311D01*
G01X25688369Y-2227363D01*
G01X25645071Y-2182723D01*
G01X25600431Y-2139425D01*
G01X25554483Y-2097503D01*
G01X25507259Y-2056989D01*
G01X25458793Y-2017918D01*
G01X25409118Y-1980322D01*
G01X25358269Y-1944234D01*
G01X25306277Y-1909689D01*
G01X25253177Y-1876720D01*
G01X25199001Y-1845359D01*
G01X25143784Y-1815641D01*
G01X25087558Y-1787598D01*
G01X25030357Y-1761264D01*
G01X24972214Y-1736673D01*
G01X24913163Y-1713857D01*
G01X24853236Y-1692850D01*
G01X24792468Y-1673685D01*
G01X24730892Y-1656396D01*
G01X24668540Y-1641017D01*
G01X24605447Y-1627579D01*
G01X24541645Y-1616118D01*
G01X24477169Y-1606665D01*
G01X24412051Y-1599255D01*
G01X24346324Y-1593921D01*
G01X24280023Y-1590696D01*
G01X24213180Y-1589614D01*
G01X24213180Y-1589614D01*
G01X24213180Y-1589614D01*
G01X24146337Y-1590696D01*
G01X24080035Y-1593921D01*
G01X24014309Y-1599255D01*
G01X23949191Y-1606665D01*
G01X23884714Y-1616118D01*
G01X23820913Y-1627579D01*
G01X23757819Y-1641017D01*
G01X23695468Y-1656396D01*
G01X23633891Y-1673685D01*
G01X23573123Y-1692850D01*
G01X23513197Y-1713857D01*
G01X23454145Y-1736673D01*
G01X23396003Y-1761264D01*
G01X23338802Y-1787598D01*
G01X23282576Y-1815641D01*
G01X23227358Y-1845359D01*
G01X23173183Y-1876720D01*
G01X23120083Y-1909689D01*
G01X23068091Y-1944234D01*
G01X23017241Y-1980322D01*
G01X22967567Y-2017918D01*
G01X22919101Y-2056989D01*
G01X22871877Y-2097503D01*
G01X22825928Y-2139425D01*
G01X22781289Y-2182723D01*
G01X22737991Y-2227363D01*
G01X22696068Y-2273311D01*
G01X22655555Y-2320535D01*
G01X22616483Y-2369001D01*
G01X22578887Y-2418675D01*
G01X22542800Y-2469525D01*
G01X22508255Y-2521517D01*
G01X22475286Y-2574617D01*
G01X22443925Y-2628793D01*
G01X22414207Y-2684010D01*
G01X22386164Y-2740236D01*
G01X22359830Y-2797437D01*
G01X22335238Y-2855580D01*
G01X22312423Y-2914631D01*
G01X22291416Y-2974557D01*
G01X22272251Y-3035326D01*
G01X22254962Y-3096902D01*
G01X22239583Y-3159254D01*
G01X22226145Y-3222347D01*
G01X22214684Y-3286148D01*
G01X22205231Y-3350625D01*
G01X22197821Y-3415743D01*
G01X22192487Y-3481470D01*
G01X22189262Y-3547771D01*
G01X22188180Y-3614614D01*
G01X22188180Y-3614614D01*
G01X22188180Y-3614614D01*
G01X22189262Y-3681457D01*
G01X22192487Y-3747758D01*
G01X22197821Y-3813485D01*
G01X22205231Y-3878603D01*
G01X22214684Y-3943080D01*
G01X22226145Y-4006881D01*
G01X22239583Y-4069974D01*
G01X22254962Y-4132326D01*
G01X22272251Y-4193902D01*
G01X22291416Y-4254671D01*
G01X22312423Y-4314597D01*
G01X22335238Y-4373648D01*
G01X22359830Y-4431791D01*
G01X22386164Y-4488992D01*
G01X22414207Y-4545218D01*
G01X22443925Y-4600435D01*
G01X22475286Y-4654611D01*
G01X22508255Y-4707711D01*
G01X22542800Y-4759703D01*
G01X22578887Y-4810553D01*
G01X22616483Y-4860227D01*
G01X22655555Y-4908693D01*
G01X22696068Y-4955917D01*
G01X22737991Y-5001865D01*
G01X22781289Y-5046505D01*
G01X22825928Y-5089803D01*
G01X22871877Y-5131725D01*
G01X22919101Y-5172239D01*
G01X22967567Y-5211310D01*
G01X23017241Y-5248906D01*
G01X23068091Y-5284994D01*
G01X23120083Y-5319539D01*
G01X23173183Y-5352508D01*
G01X23227358Y-5383869D01*
G01X23282576Y-5413587D01*
G01X23338802Y-5441630D01*
G01X23396003Y-5467964D01*
G01X23454145Y-5492555D01*
G01X23513197Y-5515371D01*
G01X23573123Y-5536378D01*
G01X23633891Y-5555543D01*
G01X23695468Y-5572832D01*
G01X23757819Y-5588211D01*
G01X23820913Y-5601649D01*
G01X23884714Y-5613110D01*
G01X23949191Y-5622563D01*
G01X24014309Y-5629973D01*
G01X24080035Y-5635307D01*
G01X24146337Y-5638532D01*
G01X24213180Y-5639614D01*
G01X24213180Y-5639614D01*
G37*
G36*
G01X17906102Y-5648928D02*
G01X17906102Y-5648928D01*
G01X17972945Y-5647846D01*
G01X18039246Y-5644621D01*
G01X18104973Y-5639287D01*
G01X18170091Y-5631877D01*
G01X18234567Y-5622424D01*
G01X18298369Y-5610963D01*
G01X18361462Y-5597525D01*
G01X18423814Y-5582146D01*
G01X18485390Y-5564857D01*
G01X18546159Y-5545692D01*
G01X18606085Y-5524685D01*
G01X18665136Y-5501869D01*
G01X18723279Y-5477278D01*
G01X18780480Y-5450944D01*
G01X18836706Y-5422901D01*
G01X18891923Y-5393183D01*
G01X18946099Y-5361822D01*
G01X18999199Y-5328853D01*
G01X19051191Y-5294308D01*
G01X19102041Y-5258220D01*
G01X19151715Y-5220624D01*
G01X19200181Y-5181553D01*
G01X19247405Y-5141039D01*
G01X19293353Y-5099117D01*
G01X19337993Y-5055819D01*
G01X19381291Y-5011179D01*
G01X19423213Y-4965231D01*
G01X19463727Y-4918007D01*
G01X19502798Y-4869541D01*
G01X19540394Y-4819867D01*
G01X19576482Y-4769017D01*
G01X19611027Y-4717025D01*
G01X19643996Y-4663925D01*
G01X19675357Y-4609749D01*
G01X19705075Y-4554532D01*
G01X19733118Y-4498306D01*
G01X19759452Y-4441105D01*
G01X19784043Y-4382962D01*
G01X19806859Y-4323911D01*
G01X19827866Y-4263985D01*
G01X19847031Y-4203216D01*
G01X19864319Y-4141640D01*
G01X19879699Y-4079288D01*
G01X19893137Y-4016195D01*
G01X19904598Y-3952394D01*
G01X19914051Y-3887917D01*
G01X19921460Y-3822799D01*
G01X19926795Y-3757072D01*
G01X19930020Y-3690771D01*
G01X19931102Y-3623928D01*
G01X19931102Y-3623928D01*
G01X19931102Y-3623928D01*
G01X19930020Y-3557085D01*
G01X19926795Y-3490784D01*
G01X19921460Y-3425057D01*
G01X19914051Y-3359939D01*
G01X19904598Y-3295462D01*
G01X19893137Y-3231661D01*
G01X19879699Y-3168568D01*
G01X19864319Y-3106216D01*
G01X19847031Y-3044640D01*
G01X19827866Y-2983871D01*
G01X19806859Y-2923945D01*
G01X19784043Y-2864894D01*
G01X19759452Y-2806751D01*
G01X19733118Y-2749550D01*
G01X19705075Y-2693324D01*
G01X19675357Y-2638107D01*
G01X19643996Y-2583931D01*
G01X19611027Y-2530831D01*
G01X19576482Y-2478839D01*
G01X19540394Y-2427989D01*
G01X19502798Y-2378315D01*
G01X19463727Y-2329849D01*
G01X19423213Y-2282625D01*
G01X19381291Y-2236677D01*
G01X19337993Y-2192037D01*
G01X19293353Y-2148739D01*
G01X19247405Y-2106817D01*
G01X19200181Y-2066303D01*
G01X19151715Y-2027232D01*
G01X19102041Y-1989636D01*
G01X19051191Y-1953548D01*
G01X18999199Y-1919003D01*
G01X18946099Y-1886034D01*
G01X18891923Y-1854673D01*
G01X18836706Y-1824955D01*
G01X18780480Y-1796912D01*
G01X18723279Y-1770578D01*
G01X18665136Y-1745987D01*
G01X18606085Y-1723171D01*
G01X18546159Y-1702164D01*
G01X18485390Y-1682999D01*
G01X18423814Y-1665710D01*
G01X18361462Y-1650331D01*
G01X18298369Y-1636893D01*
G01X18234567Y-1625432D01*
G01X18170091Y-1615979D01*
G01X18104973Y-1608569D01*
G01X18039246Y-1603235D01*
G01X17972945Y-1600010D01*
G01X17906102Y-1598928D01*
G01X17906102Y-1598928D01*
G01X17906102Y-1598928D01*
G01X17839259Y-1600010D01*
G01X17772958Y-1603235D01*
G01X17707231Y-1608569D01*
G01X17642113Y-1615979D01*
G01X17577636Y-1625432D01*
G01X17513835Y-1636893D01*
G01X17450742Y-1650331D01*
G01X17388390Y-1665710D01*
G01X17326813Y-1682999D01*
G01X17266045Y-1702164D01*
G01X17206119Y-1723171D01*
G01X17147068Y-1745987D01*
G01X17088925Y-1770578D01*
G01X17031724Y-1796912D01*
G01X16975498Y-1824955D01*
G01X16920280Y-1854673D01*
G01X16866105Y-1886034D01*
G01X16813005Y-1919003D01*
G01X16761013Y-1953548D01*
G01X16710163Y-1989636D01*
G01X16660489Y-2027232D01*
G01X16612023Y-2066303D01*
G01X16564799Y-2106817D01*
G01X16518850Y-2148739D01*
G01X16474211Y-2192037D01*
G01X16430913Y-2236677D01*
G01X16388991Y-2282625D01*
G01X16348477Y-2329849D01*
G01X16309405Y-2378315D01*
G01X16271809Y-2427989D01*
G01X16235722Y-2478839D01*
G01X16201177Y-2530831D01*
G01X16168208Y-2583931D01*
G01X16136847Y-2638107D01*
G01X16107129Y-2693324D01*
G01X16079086Y-2749550D01*
G01X16052752Y-2806751D01*
G01X16028161Y-2864894D01*
G01X16005345Y-2923945D01*
G01X15984338Y-2983871D01*
G01X15965173Y-3044640D01*
G01X15947884Y-3106216D01*
G01X15932505Y-3168568D01*
G01X15919067Y-3231661D01*
G01X15907606Y-3295462D01*
G01X15898153Y-3359939D01*
G01X15890743Y-3425057D01*
G01X15885409Y-3490784D01*
G01X15882184Y-3557085D01*
G01X15881102Y-3623928D01*
G01X15881102Y-3623928D01*
G01X15881102Y-3623928D01*
G01X15882184Y-3690771D01*
G01X15885409Y-3757072D01*
G01X15890743Y-3822799D01*
G01X15898153Y-3887917D01*
G01X15907606Y-3952394D01*
G01X15919067Y-4016195D01*
G01X15932505Y-4079288D01*
G01X15947884Y-4141640D01*
G01X15965173Y-4203216D01*
G01X15984338Y-4263985D01*
G01X16005345Y-4323911D01*
G01X16028161Y-4382962D01*
G01X16052752Y-4441105D01*
G01X16079086Y-4498306D01*
G01X16107129Y-4554532D01*
G01X16136847Y-4609749D01*
G01X16168208Y-4663925D01*
G01X16201177Y-4717025D01*
G01X16235722Y-4769017D01*
G01X16271809Y-4819867D01*
G01X16309405Y-4869541D01*
G01X16348477Y-4918007D01*
G01X16388991Y-4965231D01*
G01X16430913Y-5011179D01*
G01X16474211Y-5055819D01*
G01X16518850Y-5099117D01*
G01X16564799Y-5141039D01*
G01X16612023Y-5181553D01*
G01X16660489Y-5220624D01*
G01X16710163Y-5258220D01*
G01X16761013Y-5294308D01*
G01X16813005Y-5328853D01*
G01X16866105Y-5361822D01*
G01X16920280Y-5393183D01*
G01X16975498Y-5422901D01*
G01X17031724Y-5450944D01*
G01X17088925Y-5477278D01*
G01X17147068Y-5501869D01*
G01X17206119Y-5524685D01*
G01X17266045Y-5545692D01*
G01X17326813Y-5564857D01*
G01X17388390Y-5582146D01*
G01X17450742Y-5597525D01*
G01X17513835Y-5610963D01*
G01X17577636Y-5622424D01*
G01X17642113Y-5631877D01*
G01X17707231Y-5639287D01*
G01X17772958Y-5644621D01*
G01X17839259Y-5647846D01*
G01X17906102Y-5648928D01*
G01X17906102Y-5648928D01*
G37*
G36*
G01X42994550Y-1450000D02*
G01X44194550Y-1450000D01*
G01X44194550Y-2650000D01*
G01X42994550Y-2650000D01*
G01X42994550Y-1450000D01*
G37*
G36*
G01X44444550Y-1829102D02*
G01X44444550Y-1829102D01*
G01X44462421Y-1793946D01*
G01X44462421Y-1793946D01*
G01X44519428Y-1786381D01*
G01X44523652Y-1786329D01*
G01X44557636Y-1786329D01*
G01X44557636Y-1786329D01*
G01X44554145Y-1707561D01*
G01X44550817Y-1660582D01*
G01X44550019Y-1651563D01*
G01X44550019Y-1651563D01*
G01X44589863Y-1648047D01*
G01X44589863Y-1648047D01*
G01X44644134Y-1678967D01*
G01X44647285Y-1693750D01*
G01X44647285Y-1693750D01*
G01X44644660Y-1752063D01*
G01X44642597Y-1787500D01*
G01X44642597Y-1787500D01*
G01X44738361Y-1786493D01*
G01X44800507Y-1784278D01*
G01X44834089Y-1782062D01*
G01X44844160Y-1781055D01*
G01X44844160Y-1781055D01*
G01X44844160Y-1781055D01*
G01X44848847Y-1809180D01*
G01X44848847Y-1809180D01*
G01X44836250Y-1841407D01*
G01X44836250Y-1841407D01*
G01X44796113Y-1850782D01*
G01X44796113Y-1850782D01*
G01X44738168Y-1851601D01*
G01X44672666Y-1851908D01*
G01X44640288Y-1851954D01*
G01X44640254Y-1851954D01*
G01X44640254Y-1851954D01*
G01X44639155Y-1926151D01*
G01X44638468Y-1996828D01*
G01X44638096Y-2057548D01*
G01X44637942Y-2101872D01*
G01X44637910Y-2123362D01*
G01X44637910Y-2124415D01*
G01X44637910Y-2124415D01*
G01X44644835Y-2210115D01*
G01X44656864Y-2251574D01*
G01X44661347Y-2260059D01*
G01X44661347Y-2260059D01*
G01X44716415Y-2290169D01*
G01X44738691Y-2292579D01*
G01X44738691Y-2292579D01*
G01X44803328Y-2272782D01*
G01X44824824Y-2256250D01*
G01X44824824Y-2256250D01*
G01X44846504Y-2299610D01*
G01X44846504Y-2299610D01*
G01X44815771Y-2340166D01*
G01X44815449Y-2340332D01*
G01X44815449Y-2340332D01*
G01X44753741Y-2355194D01*
G01X44739863Y-2355860D01*
G01X44739863Y-2355860D01*
G01X44661591Y-2341983D01*
G01X44615799Y-2315405D01*
G01X44599144Y-2298706D01*
G01X44598945Y-2298438D01*
G01X44598945Y-2298438D01*
G01X44573055Y-2240592D01*
G01X44561155Y-2178545D01*
G01X44557806Y-2134832D01*
G01X44557636Y-2126758D01*
G01X44557636Y-2126758D01*
G01X44558735Y-2019360D01*
G01X44559422Y-1942231D01*
G01X44559794Y-1891250D01*
G01X44559948Y-1862292D01*
G01X44559980Y-1851234D01*
G01X44559980Y-1850782D01*
G01X44559980Y-1850782D01*
G01X44510953Y-1854519D01*
G01X44451105Y-1859325D01*
G01X44448066Y-1859571D01*
G01X44448066Y-1859571D01*
G01X44444550Y-1829102D01*
G37*
G36*
G01X44920332Y-2065821D02*
G01X44920332Y-2065821D01*
G01X44929261Y-1986638D01*
G01X44949912Y-1924311D01*
G01X44973073Y-1880636D01*
G01X44989538Y-1857411D01*
G01X44992402Y-1854004D01*
G01X44992402Y-1854004D01*
G01X45049760Y-1809133D01*
G01X45109143Y-1785270D01*
G01X45157186Y-1775780D01*
G01X45180524Y-1774029D01*
G01X45181074Y-1774024D01*
G01X45181074Y-1774024D01*
G01X45257566Y-1785633D01*
G01X45316024Y-1811616D01*
G01X45354309Y-1838704D01*
G01X45370282Y-1853631D01*
G01X45370625Y-1854004D01*
G01X45370625Y-1854004D01*
G01X45408340Y-1912365D01*
G01X45429797Y-1974049D01*
G01X45439581Y-2027320D01*
G01X45442278Y-2060443D01*
G01X45442402Y-2065821D01*
G01X45442402Y-2065821D01*
G01X45432758Y-2148098D01*
G01X45410811Y-2211712D01*
G01X45387041Y-2254739D01*
G01X45371929Y-2275253D01*
G01X45370625Y-2276758D01*
G01X45370625Y-2276758D01*
G01X45313261Y-2321136D01*
G01X45253584Y-2344738D01*
G01X45205179Y-2354123D01*
G01X45181629Y-2355855D01*
G01X45181074Y-2355860D01*
G01X45181074Y-2355860D01*
G01X45105196Y-2344378D01*
G01X45046993Y-2318681D01*
G01X45008748Y-2291890D01*
G01X44992746Y-2277128D01*
G01X44992402Y-2276758D01*
G01X44992402Y-2276758D01*
G01X44954533Y-2218859D01*
G01X44932988Y-2157439D01*
G01X44923164Y-2104287D01*
G01X44920456Y-2071197D01*
G01X44920332Y-2065821D01*
G37*
%LPC*%
G36*
G01X45004707Y-2048829D02*
G01X45004707Y-2048829D01*
G01X45013618Y-2126577D01*
G01X45032170Y-2183587D01*
G01X45048093Y-2215382D01*
G01X45051289Y-2220508D01*
G01X45051289Y-2220508D01*
G01X45105063Y-2268444D01*
G01X45156929Y-2286368D01*
G01X45181049Y-2289063D01*
G01X45181074Y-2289063D01*
G01X45181074Y-2289063D01*
G01X45255059Y-2273215D01*
G01X45299351Y-2244963D01*
G01X45311738Y-2232813D01*
G01X45311738Y-2232813D01*
G01X45343874Y-2171594D01*
G01X45356426Y-2113139D01*
G01X45358610Y-2083255D01*
G01X45358613Y-2082813D01*
G01X45358613Y-2082813D01*
G01X45349422Y-2004953D01*
G01X45330286Y-1947709D01*
G01X45313862Y-1915713D01*
G01X45310566Y-1910547D01*
G01X45310566Y-1910547D01*
G01X45256215Y-1862202D01*
G01X45204805Y-1844124D01*
G01X45181098Y-1841407D01*
G01X45181074Y-1841407D01*
G01X45181074Y-1841407D01*
G01X45107253Y-1857420D01*
G01X45063256Y-1885966D01*
G01X45050996Y-1898243D01*
G01X45050996Y-1898243D01*
G01X45019261Y-1959864D01*
G01X45006866Y-2018475D01*
G01X45004710Y-2048387D01*
G01X45004707Y-2048829D01*
G37*
%LPD*%
G36*
G01X45568379Y-1792188D02*
G01X45568379Y-1792188D01*
G01X45615254Y-1782813D01*
G01X45615254Y-1782813D01*
G01X45662716Y-1818930D01*
G01X45666816Y-1842579D01*
G01X45666816Y-1842579D01*
G01X45734950Y-1802945D01*
G01X45795722Y-1782593D01*
G01X45839356Y-1775095D01*
G01X45856074Y-1774024D01*
G01X45856074Y-1774024D01*
G01X45856074Y-1774024D01*
G01X45930000Y-1788698D01*
G01X45980800Y-1817431D01*
G01X46003761Y-1837285D01*
G01X46004609Y-1838184D01*
G01X46004609Y-1838184D01*
G01X46038314Y-1895784D01*
G01X46055622Y-1959949D01*
G01X46061999Y-2012084D01*
G01X46062910Y-2033594D01*
G01X46062910Y-2033594D01*
G01X46062910Y-2033594D01*
G01X46056325Y-2109919D01*
G01X46043715Y-2166070D01*
G01X46035791Y-2190872D01*
G01X46035664Y-2191211D01*
G01X46035664Y-2191211D01*
G01X46000222Y-2254637D01*
G01X45963988Y-2295678D01*
G01X45948652Y-2309278D01*
G01X45948652Y-2309278D01*
G01X45885361Y-2341850D01*
G01X45829489Y-2354029D01*
G01X45804537Y-2355860D01*
G01X45804511Y-2355860D01*
G01X45804511Y-2355860D01*
G01X45733500Y-2343913D01*
G01X45683993Y-2323164D01*
G01X45670332Y-2315430D01*
G01X45670332Y-2315430D01*
G01X45670857Y-2372430D01*
G01X45670918Y-2378418D01*
G01X45670918Y-2378418D01*
G01X45671899Y-2447617D01*
G01X45672089Y-2455762D01*
G01X45672089Y-2455762D01*
G01X45674771Y-2514140D01*
G01X45675019Y-2518750D01*
G01X45675019Y-2518750D01*
G01X45681273Y-2582415D01*
G01X45682343Y-2589063D01*
G01X45682343Y-2589063D01*
G01X45694353Y-2638275D01*
G01X45694355Y-2638282D01*
G01X45694355Y-2638282D01*
G01X45646308Y-2647657D01*
G01X45646308Y-2647657D01*
G01X45599726Y-2632129D01*
G01X45599726Y-2632129D01*
G01X45599726Y-2632129D01*
G01X45587723Y-2579970D01*
G01X45587714Y-2579102D01*
G01X45587714Y-2579102D01*
G01X45587865Y-2511405D01*
G01X45588234Y-2440867D01*
G01X45588699Y-2375525D01*
G01X45589136Y-2323417D01*
G01X45589423Y-2292580D01*
G01X45589472Y-2287598D01*
G01X45589472Y-2287598D01*
G01X45590363Y-2191724D01*
G01X45590887Y-2121644D01*
G01X45591141Y-2075323D01*
G01X45591223Y-2050728D01*
G01X45591230Y-2045313D01*
G01X45591230Y-2045313D01*
G01X45588854Y-1946313D01*
G01X45583186Y-1874454D01*
G01X45576422Y-1826782D01*
G01X45570755Y-1800344D01*
G01X45568379Y-1792188D01*
G01X45568379Y-1792188D01*
G37*
%LPC*%
G36*
G01X45670332Y-1907618D02*
G01X45670332Y-1907618D01*
G01X45671236Y-2014310D01*
G01X45671871Y-2098442D01*
G01X45672285Y-2162056D01*
G01X45672525Y-2207191D01*
G01X45672639Y-2235889D01*
G01X45672673Y-2250191D01*
G01X45672675Y-2252735D01*
G01X45672675Y-2252735D01*
G01X45735805Y-2278358D01*
G01X45793488Y-2287750D01*
G01X45816816Y-2289063D01*
G01X45816816Y-2289063D01*
G01X45882880Y-2270752D01*
G01X45908515Y-2252442D01*
G01X45908515Y-2252442D01*
G01X45908515Y-2252442D01*
G01X45948292Y-2196459D01*
G01X45961761Y-2163918D01*
G01X45961836Y-2163672D01*
G01X45961836Y-2163672D01*
G01X45974636Y-2095912D01*
G01X45977336Y-2053661D01*
G01X45977363Y-2051172D01*
G01X45977363Y-2051172D01*
G01X45967915Y-1967118D01*
G01X45949416Y-1914788D01*
G01X45936633Y-1893135D01*
G01X45936054Y-1892383D01*
G01X45936054Y-1892383D01*
G01X45878024Y-1851353D01*
G01X45834338Y-1841615D01*
G01X45829707Y-1841407D01*
G01X45829707Y-1841407D01*
G01X45761551Y-1854882D01*
G01X45706059Y-1882390D01*
G01X45674119Y-1904552D01*
G01X45670332Y-1907618D01*
G37*
%LPD*%
G36*
G01X46440254Y-2260352D02*
G01X46440254Y-2260352D01*
G01X46478231Y-2216249D01*
G01X46494160Y-2209961D01*
G01X46494160Y-2209961D01*
G01X46535061Y-2259257D01*
G01X46551289Y-2268848D01*
G01X46551289Y-2268848D01*
G01X46617441Y-2286827D01*
G01X46646504Y-2289063D01*
G01X46646504Y-2289063D01*
G01X46714012Y-2274918D01*
G01X46730000Y-2266211D01*
G01X46730000Y-2266211D01*
G01X46760316Y-2211336D01*
G01X46761933Y-2195313D01*
G01X46761933Y-2195313D01*
G01X46734635Y-2143536D01*
G01X46730000Y-2140235D01*
G01X46730000Y-2140235D01*
G01X46669883Y-2115254D01*
G01X46652656Y-2110645D01*
G01X46652656Y-2110645D01*
G01X46586078Y-2093680D01*
G01X46561543Y-2086622D01*
G01X46561543Y-2086622D01*
G01X46503182Y-2053367D01*
G01X46483906Y-2034473D01*
G01X46483906Y-2034473D01*
G01X46456726Y-1973012D01*
G01X46451979Y-1933477D01*
G01X46451972Y-1932813D01*
G01X46451972Y-1932813D01*
G01X46471967Y-1865300D01*
G01X46504816Y-1825983D01*
G01X46513789Y-1818555D01*
G01X46513789Y-1818555D01*
G01X46578733Y-1786826D01*
G01X46632676Y-1775483D01*
G01X46653535Y-1774024D01*
G01X46653535Y-1774024D01*
G01X46722151Y-1784365D01*
G01X46761733Y-1798218D01*
G01X46763984Y-1799219D01*
G01X46763984Y-1799219D01*
G01X46812908Y-1846894D01*
G01X46818183Y-1868946D01*
G01X46818183Y-1868946D01*
G01X46780206Y-1913632D01*
G01X46764277Y-1919336D01*
G01X46764277Y-1919336D01*
G01X46723360Y-1871545D01*
G01X46710078Y-1863086D01*
G01X46710078Y-1863086D01*
G01X46645682Y-1843130D01*
G01X46624824Y-1841407D01*
G01X46624824Y-1841407D01*
G01X46563014Y-1857998D01*
G01X46553925Y-1863672D01*
G01X46553925Y-1863672D01*
G01X46524849Y-1917034D01*
G01X46524043Y-1926368D01*
G01X46524043Y-1926368D01*
G01X46550987Y-1978855D01*
G01X46555976Y-1982618D01*
G01X46555976Y-1982618D01*
G01X46615292Y-2008837D01*
G01X46633320Y-2013965D01*
G01X46633320Y-2013965D01*
G01X46698921Y-2031183D01*
G01X46724433Y-2038575D01*
G01X46724433Y-2038575D01*
G01X46783567Y-2071179D01*
G01X46802070Y-2088379D01*
G01X46802070Y-2088379D01*
G01X46830012Y-2148914D01*
G01X46834004Y-2182422D01*
G01X46834004Y-2182422D01*
G01X46834004Y-2182422D01*
G01X46817582Y-2254822D01*
G01X46787570Y-2298147D01*
G01X46772773Y-2311622D01*
G01X46772773Y-2311622D01*
G01X46708458Y-2342555D01*
G01X46652203Y-2354121D01*
G01X46627193Y-2355860D01*
G01X46627168Y-2355860D01*
G01X46627168Y-2355860D01*
G01X46552997Y-2346952D01*
G01X46506352Y-2332318D01*
G01X46497089Y-2328321D01*
G01X46497089Y-2328321D01*
G01X46445786Y-2280827D01*
G01X46440254Y-2260352D01*
G37*
G36*
G01X46936543Y-2065821D02*
G01X46936543Y-2065821D01*
G01X46945472Y-1986638D01*
G01X46966123Y-1924311D01*
G01X46989284Y-1880636D01*
G01X47005749Y-1857411D01*
G01X47008613Y-1854004D01*
G01X47008613Y-1854004D01*
G01X47065971Y-1809133D01*
G01X47125354Y-1785270D01*
G01X47173397Y-1775780D01*
G01X47196735Y-1774029D01*
G01X47197285Y-1774024D01*
G01X47197285Y-1774024D01*
G01X47273777Y-1785633D01*
G01X47332235Y-1811616D01*
G01X47370519Y-1838704D01*
G01X47386493Y-1853631D01*
G01X47386836Y-1854004D01*
G01X47386836Y-1854004D01*
G01X47424551Y-1912365D01*
G01X47446008Y-1974049D01*
G01X47455792Y-2027320D01*
G01X47458489Y-2060443D01*
G01X47458613Y-2065821D01*
G01X47458613Y-2065821D01*
G01X47448968Y-2148098D01*
G01X47427022Y-2211712D01*
G01X47403252Y-2254739D01*
G01X47388140Y-2275253D01*
G01X47386836Y-2276758D01*
G01X47386836Y-2276758D01*
G01X47329472Y-2321136D01*
G01X47269795Y-2344738D01*
G01X47221390Y-2354123D01*
G01X47197840Y-2355855D01*
G01X47197285Y-2355860D01*
G01X47197285Y-2355860D01*
G01X47121407Y-2344378D01*
G01X47063204Y-2318681D01*
G01X47024959Y-2291890D01*
G01X47008957Y-2277128D01*
G01X47008613Y-2276758D01*
G01X47008613Y-2276758D01*
G01X46970744Y-2218859D01*
G01X46949199Y-2157439D01*
G01X46939375Y-2104287D01*
G01X46936667Y-2071197D01*
G01X46936543Y-2065821D01*
G37*
%LPC*%
G36*
G01X47020918Y-2048829D02*
G01X47020918Y-2048829D01*
G01X47029829Y-2126577D01*
G01X47048381Y-2183587D01*
G01X47064304Y-2215382D01*
G01X47067500Y-2220508D01*
G01X47067500Y-2220508D01*
G01X47121274Y-2268444D01*
G01X47173140Y-2286368D01*
G01X47197260Y-2289063D01*
G01X47197285Y-2289063D01*
G01X47197285Y-2289063D01*
G01X47271270Y-2273215D01*
G01X47315562Y-2244963D01*
G01X47327949Y-2232813D01*
G01X47327949Y-2232813D01*
G01X47360085Y-2171594D01*
G01X47372637Y-2113139D01*
G01X47374821Y-2083255D01*
G01X47374824Y-2082813D01*
G01X47374824Y-2082813D01*
G01X47365633Y-2004953D01*
G01X47346497Y-1947709D01*
G01X47330073Y-1915713D01*
G01X47326777Y-1910547D01*
G01X47326777Y-1910547D01*
G01X47272426Y-1862202D01*
G01X47221016Y-1844124D01*
G01X47197309Y-1841407D01*
G01X47197285Y-1841407D01*
G01X47197285Y-1841407D01*
G01X47123464Y-1857420D01*
G01X47079467Y-1885966D01*
G01X47067207Y-1898243D01*
G01X47067207Y-1898243D01*
G01X47035472Y-1959864D01*
G01X47023077Y-2018475D01*
G01X47020921Y-2048387D01*
G01X47020918Y-2048829D01*
G37*
%LPD*%
G36*
G01X47584589Y-1455860D02*
G01X47584589Y-1455860D01*
G01X47626777Y-1452344D01*
G01X47626777Y-1452344D01*
G01X47679065Y-1483907D01*
G01X47681855Y-1498047D01*
G01X47681855Y-1498047D01*
G01X47680315Y-1554789D01*
G01X47680097Y-1562207D01*
G01X47680097Y-1562207D01*
G01X47678255Y-1626627D01*
G01X47676564Y-1687843D01*
G01X47675715Y-1719071D01*
G01X47675703Y-1719532D01*
G01X47675703Y-1719532D01*
G01X47674134Y-1794038D01*
G01X47673358Y-1858111D01*
G01X47673094Y-1901555D01*
G01X47673066Y-1914649D01*
G01X47673066Y-2101563D01*
G01X47673066Y-2101563D01*
G01X47675666Y-2191160D01*
G01X47681773Y-2259312D01*
G01X47688847Y-2306279D01*
G01X47694350Y-2332322D01*
G01X47695918Y-2338282D01*
G01X47695918Y-2338282D01*
G01X47650800Y-2347657D01*
G01X47650800Y-2347657D01*
G01X47604511Y-2333301D01*
G01X47604511Y-2333301D01*
G01X47591621Y-2285547D01*
G01X47591621Y-2285547D01*
G01X47591621Y-2285547D01*
G01X47591919Y-2235454D01*
G01X47592478Y-2168080D01*
G01X47592792Y-2132949D01*
G01X47592793Y-2132911D01*
G01X47592793Y-2132911D01*
G01X47593509Y-2043698D01*
G01X47593850Y-1982444D01*
G01X47593956Y-1949047D01*
G01X47593964Y-1942188D01*
G01X47593964Y-1802735D01*
G01X47593964Y-1802735D01*
G01X47593395Y-1689649D01*
G01X47591939Y-1603003D01*
G01X47589978Y-1539653D01*
G01X47587889Y-1496454D01*
G01X47586054Y-1470261D01*
G01X47584852Y-1457931D01*
G01X47584589Y-1455860D01*
G37*
G36*
G01X47821894Y-2065821D02*
G01X47821894Y-2065821D01*
G01X47831042Y-1987181D01*
G01X47852196Y-1925036D01*
G01X47875922Y-1881333D01*
G01X47892788Y-1858018D01*
G01X47895722Y-1854590D01*
G01X47895722Y-1854590D01*
G01X47954701Y-1808013D01*
G01X48012470Y-1784095D01*
G01X48056397Y-1775283D01*
G01X48073847Y-1774024D01*
G01X48073847Y-1774024D01*
G01X48073847Y-1774024D01*
G01X48145110Y-1785580D01*
G01X48196800Y-1806180D01*
G01X48213300Y-1815040D01*
G01X48213300Y-1815040D01*
G01X48215163Y-1736439D01*
G01X48215630Y-1694792D01*
G01X48215644Y-1690235D01*
G01X48215644Y-1690235D01*
G01X48214483Y-1601904D01*
G01X48211796Y-1532917D01*
G01X48208783Y-1484921D01*
G01X48206642Y-1459562D01*
G01X48206269Y-1455860D01*
G01X48206269Y-1455860D01*
G01X48249043Y-1452344D01*
G01X48249043Y-1452344D01*
G01X48300434Y-1484543D01*
G01X48302949Y-1498047D01*
G01X48302949Y-1498047D01*
G01X48302450Y-1539368D01*
G01X48301243Y-1602903D01*
G01X48299762Y-1672160D01*
G01X48298441Y-1730644D01*
G01X48297714Y-1761862D01*
G01X48297675Y-1763477D01*
G01X48297675Y-1763477D01*
G01X48295528Y-1860156D01*
G01X48294060Y-1937669D01*
G01X48293143Y-1997009D01*
G01X48292648Y-2039170D01*
G01X48292444Y-2065146D01*
G01X48292402Y-2075929D01*
G01X48292402Y-2076368D01*
G01X48292402Y-2076368D01*
G01X48294563Y-2176081D01*
G01X48299793Y-2248900D01*
G01X48306211Y-2298005D01*
G01X48311937Y-2326581D01*
G01X48315088Y-2337811D01*
G01X48315254Y-2338282D01*
G01X48315254Y-2338282D01*
G01X48269550Y-2347657D01*
G01X48269550Y-2347657D01*
G01X48221750Y-2311539D01*
G01X48216816Y-2287891D01*
G01X48216816Y-2287891D01*
G01X48153745Y-2331533D01*
G01X48098402Y-2350824D01*
G01X48065021Y-2355710D01*
G01X48060957Y-2355860D01*
G01X48059785Y-2355860D01*
G01X48059785Y-2355860D01*
G01X47988359Y-2341149D01*
G01X47933350Y-2309933D01*
G01X47900157Y-2281587D01*
G01X47892793Y-2273829D01*
G01X47892793Y-2273829D01*
G01X47854262Y-2212320D01*
G01X47833058Y-2149268D01*
G01X47824006Y-2097078D01*
G01X47821930Y-2068153D01*
G01X47821894Y-2065821D01*
G37*
%LPC*%
G36*
G01X47906269Y-2048829D02*
G01X47906269Y-2048829D01*
G01X47915909Y-2128780D01*
G01X47935978Y-2186803D01*
G01X47953203Y-2218884D01*
G01X47956660Y-2224024D01*
G01X47956660Y-2224024D01*
G01X48013353Y-2273752D01*
G01X48061734Y-2290728D01*
G01X48078535Y-2292579D01*
G01X48078535Y-2292579D01*
G01X48144385Y-2275109D01*
G01X48193385Y-2242410D01*
G01X48213281Y-2224044D01*
G01X48213300Y-2224024D01*
G01X48213300Y-2224024D01*
G01X48212396Y-2102175D01*
G01X48211761Y-2012406D01*
G01X48211347Y-1949935D01*
G01X48211107Y-1909980D01*
G01X48210993Y-1887760D01*
G01X48210959Y-1878492D01*
G01X48210957Y-1877149D01*
G01X48210957Y-1877149D01*
G01X48141406Y-1849519D01*
G01X48095409Y-1841787D01*
G01X48087324Y-1841407D01*
G01X48087324Y-1841407D01*
G01X48014581Y-1856650D01*
G01X47969400Y-1884507D01*
G01X47954902Y-1898243D01*
G01X47954902Y-1898243D01*
G01X47921561Y-1959864D01*
G01X47908538Y-2018475D01*
G01X47906272Y-2048387D01*
G01X47906269Y-2048829D01*
G37*
%LPD*%
G36*
G01X48440644Y-2068165D02*
G01X48440644Y-2068165D01*
G01X48450554Y-1984220D01*
G01X48473471Y-1920006D01*
G01X48499175Y-1876198D01*
G01X48517446Y-1853468D01*
G01X48520625Y-1850196D01*
G01X48520625Y-1850196D01*
G01X48583709Y-1806159D01*
G01X48644514Y-1783545D01*
G01X48690322Y-1775214D01*
G01X48708418Y-1774024D01*
G01X48708418Y-1774024D01*
G01X48708418Y-1774024D01*
G01X48783889Y-1787396D01*
G01X48830829Y-1811233D01*
G01X48844355Y-1821485D01*
G01X48844355Y-1821485D01*
G01X48885239Y-1881175D01*
G01X48896086Y-1925791D01*
G01X48896504Y-1932813D01*
G01X48896504Y-1932813D01*
G01X48884971Y-1998760D01*
G01X48879804Y-2010743D01*
G01X48879804Y-2010743D01*
G01X48840295Y-2056645D01*
G01X48836152Y-2059668D01*
G01X48836152Y-2059668D01*
G01X48777034Y-2082883D01*
G01X48758222Y-2087207D01*
G01X48758222Y-2087207D01*
G01X48689008Y-2096839D01*
G01X48658027Y-2099219D01*
G01X48658027Y-2099219D01*
G01X48658027Y-2099219D01*
G01X48592875Y-2101031D01*
G01X48539005Y-2101538D01*
G01X48528535Y-2101563D01*
G01X48528535Y-2101563D01*
G01X48546607Y-2176526D01*
G01X48569817Y-2223309D01*
G01X48580390Y-2238379D01*
G01X48580390Y-2238379D01*
G01X48637195Y-2276984D01*
G01X48686898Y-2288362D01*
G01X48698457Y-2289063D01*
G01X48698457Y-2289063D01*
G01X48773848Y-2272249D01*
G01X48814661Y-2241519D01*
G01X48826191Y-2226368D01*
G01X48826191Y-2226368D01*
G01X48872355Y-2269079D01*
G01X48873652Y-2276758D01*
G01X48873652Y-2276758D01*
G01X48838341Y-2324261D01*
G01X48819160Y-2334180D01*
G01X48819160Y-2334180D01*
G01X48751166Y-2351407D01*
G01X48703366Y-2355733D01*
G01X48697285Y-2355860D01*
G01X48697285Y-2355860D01*
G01X48620692Y-2344736D01*
G01X48562446Y-2320264D01*
G01X48525404Y-2295792D01*
G01X48512421Y-2284668D01*
G01X48512421Y-2284668D01*
G01X48512421Y-2284668D01*
G01X48474706Y-2229256D01*
G01X48453249Y-2166338D01*
G01X48443465Y-2109934D01*
G01X48440768Y-2074063D01*
G01X48440644Y-2068165D01*
G37*
%LPC*%
G36*
G01X48527363Y-2041797D02*
G01X48527363Y-2041797D01*
G01X48597622Y-2041055D01*
G01X48613496Y-2040625D01*
G01X48613496Y-2040625D01*
G01X48676455Y-2034997D01*
G01X48689082Y-2033301D01*
G01X48689082Y-2033301D01*
G01X48750154Y-2018374D01*
G01X48755293Y-2016309D01*
G01X48755293Y-2016309D01*
G01X48796555Y-1985308D01*
G01X48796601Y-1985254D01*
G01X48796601Y-1985254D01*
G01X48813880Y-1935582D01*
G01X48813886Y-1935157D01*
G01X48813886Y-1935157D01*
G01X48790731Y-1877423D01*
G01X48782246Y-1868360D01*
G01X48782246Y-1868360D01*
G01X48723089Y-1842173D01*
G01X48703730Y-1840235D01*
G01X48703730Y-1840235D01*
G01X48633909Y-1855463D01*
G01X48590496Y-1881202D01*
G01X48580683Y-1889454D01*
G01X48580683Y-1889454D01*
G01X48545917Y-1946090D01*
G01X48530918Y-2005740D01*
G01X48527413Y-2040335D01*
G01X48527363Y-2041797D01*
G37*
%LPD*%
G36*
G01X49022480Y-1786329D02*
G01X49022480Y-1786329D01*
G01X49063496Y-1782813D01*
G01X49063496Y-1782813D01*
G01X49113032Y-1815830D01*
G01X49115058Y-1827930D01*
G01X49115058Y-1827930D01*
G01X49114472Y-1844336D01*
G01X49114472Y-1844336D01*
G01X49113886Y-1870118D01*
G01X49113886Y-1870118D01*
G01X49158043Y-1820230D01*
G01X49178047Y-1803614D01*
G01X49178047Y-1803614D01*
G01X49240288Y-1776063D01*
G01X49257441Y-1774024D01*
G01X49257441Y-1774024D01*
G01X49300800Y-1786622D01*
G01X49300800Y-1786622D01*
G01X49316621Y-1820899D01*
G01X49316621Y-1820899D01*
G01X49294245Y-1872581D01*
G01X49292597Y-1874805D01*
G01X49292597Y-1874805D01*
G01X49238434Y-1852165D01*
G01X49234589Y-1851954D01*
G01X49234589Y-1851954D01*
G01X49176200Y-1872290D01*
G01X49167500Y-1878321D01*
G01X49167500Y-1878321D01*
G01X49123206Y-1928005D01*
G01X49110957Y-1948047D01*
G01X49110957Y-1948047D01*
G01X49110137Y-2005096D01*
G01X49109831Y-2068922D01*
G01X49109785Y-2100358D01*
G01X49109785Y-2100391D01*
G01X49109785Y-2100391D01*
G01X49112385Y-2191043D01*
G01X49118492Y-2259580D01*
G01X49125566Y-2306523D01*
G01X49131069Y-2332393D01*
G01X49132636Y-2338282D01*
G01X49132636Y-2338282D01*
G01X49086933Y-2347657D01*
G01X49086933Y-2347657D01*
G01X49040351Y-2332129D01*
G01X49040351Y-2332129D01*
G01X49040351Y-2332129D01*
G01X49028348Y-2279970D01*
G01X49028339Y-2279102D01*
G01X49028339Y-2279102D01*
G01X49028978Y-2220743D01*
G01X49029511Y-2184473D01*
G01X49029511Y-2184473D01*
G01X49030466Y-2106431D01*
G01X49030680Y-2069448D01*
G01X49030683Y-2066993D01*
G01X49030683Y-2066993D01*
G01X49029982Y-1980650D01*
G01X49028259Y-1908114D01*
G01X49026091Y-1851006D01*
G01X49024049Y-1810946D01*
G01X49022710Y-1789552D01*
G01X49022480Y-1786329D01*
G37*
G36*
G01X49400410Y-1792188D02*
G01X49400410Y-1792188D01*
G01X49443769Y-1782813D01*
G01X49443769Y-1782813D01*
G01X49493828Y-1817163D01*
G01X49498847Y-1842579D01*
G01X49498847Y-1842579D01*
G01X49556928Y-1806763D01*
G01X49587324Y-1793360D01*
G01X49587324Y-1793360D01*
G01X49587324Y-1793360D01*
G01X49656464Y-1776441D01*
G01X49686933Y-1774024D01*
G01X49686933Y-1774024D01*
G01X49686933Y-1774024D01*
G01X49761333Y-1791848D01*
G01X49803911Y-1826747D01*
G01X49820009Y-1850861D01*
G01X49820527Y-1851954D01*
G01X49820527Y-1851954D01*
G01X49874486Y-1814126D01*
G01X49910443Y-1797119D01*
G01X49911054Y-1796875D01*
G01X49911054Y-1796875D01*
G01X49981582Y-1777826D01*
G01X50019416Y-1774047D01*
G01X50020918Y-1774024D01*
G01X50020918Y-1774024D01*
G01X50091249Y-1790497D01*
G01X50124948Y-1812565D01*
G01X50126679Y-1814161D01*
G01X50126679Y-1814161D01*
G01X50157219Y-1871817D01*
G01X50166686Y-1927723D01*
G01X50167402Y-1943360D01*
G01X50167402Y-1943360D01*
G01X50166133Y-1997575D01*
G01X50165351Y-2029786D01*
G01X50165351Y-2029786D01*
G01X50163743Y-2110968D01*
G01X50163317Y-2152045D01*
G01X50163300Y-2157227D01*
G01X50163300Y-2157227D01*
G01X50167223Y-2239830D01*
G01X50175391Y-2299799D01*
G01X50182401Y-2332966D01*
G01X50183808Y-2338282D01*
G01X50183808Y-2338282D01*
G01X50136933Y-2347657D01*
G01X50136933Y-2347657D01*
G01X50092109Y-2333887D01*
G01X50092109Y-2333887D01*
G01X50078339Y-2286719D01*
G01X50078339Y-2286719D01*
G01X50078339Y-2286719D01*
G01X50079144Y-2229729D01*
G01X50080718Y-2163285D01*
G01X50081806Y-2123208D01*
G01X50081855Y-2121485D01*
G01X50081855Y-2121485D01*
G01X50084405Y-2026311D01*
G01X50085276Y-1984066D01*
G01X50085371Y-1975586D01*
G01X50085371Y-1975586D01*
G01X50072572Y-1902306D01*
G01X50057537Y-1874574D01*
G01X50057246Y-1874219D01*
G01X50057246Y-1874219D01*
G01X50000518Y-1843353D01*
G01X49983418Y-1841407D01*
G01X49983418Y-1841407D01*
G01X49918505Y-1855880D01*
G01X49864001Y-1884219D01*
G01X49835722Y-1903801D01*
G01X49834589Y-1904688D01*
G01X49834589Y-1904688D01*
G01X49835778Y-1996298D01*
G01X49836476Y-2065515D01*
G01X49836815Y-2112893D01*
G01X49836924Y-2138987D01*
G01X49836933Y-2144922D01*
G01X49836933Y-2144922D01*
G01X49838210Y-2227928D01*
G01X49840970Y-2291793D01*
G01X49843607Y-2331636D01*
G01X49844550Y-2342969D01*
G01X49844550Y-2342969D01*
G01X49803535Y-2346485D01*
G01X49803535Y-2346485D01*
G01X49752144Y-2314286D01*
G01X49749629Y-2300782D01*
G01X49749629Y-2300782D01*
G01X49751386Y-2252442D01*
G01X49751386Y-2252442D01*
G01X49753248Y-2188507D01*
G01X49754228Y-2138568D01*
G01X49754316Y-2133204D01*
G01X49754316Y-2133204D01*
G01X49755119Y-2061560D01*
G01X49755433Y-2003352D01*
G01X49755488Y-1975974D01*
G01X49755488Y-1975586D01*
G01X49755488Y-1975586D01*
G01X49736574Y-1893605D01*
G01X49696439Y-1854467D01*
G01X49659995Y-1842327D01*
G01X49650019Y-1841407D01*
G01X49650019Y-1841407D01*
G01X49585893Y-1856550D01*
G01X49531711Y-1886201D01*
G01X49503495Y-1906690D01*
G01X49502363Y-1907618D01*
G01X49502363Y-1907618D01*
G01X49503594Y-2002664D01*
G01X49504295Y-2072687D01*
G01X49504615Y-2118697D01*
G01X49504703Y-2141706D01*
G01X49504707Y-2144922D01*
G01X49504707Y-2144922D01*
G01X49505885Y-2227928D01*
G01X49508433Y-2291793D01*
G01X49510867Y-2331636D01*
G01X49511738Y-2342969D01*
G01X49511738Y-2342969D01*
G01X49471308Y-2346485D01*
G01X49471308Y-2346485D01*
G01X49419917Y-2314286D01*
G01X49417402Y-2300782D01*
G01X49417402Y-2300782D01*
G01X49419172Y-2246009D01*
G01X49420332Y-2212598D01*
G01X49420332Y-2212598D01*
G01X49422299Y-2137635D01*
G01X49423101Y-2077789D01*
G01X49423260Y-2047671D01*
G01X49423261Y-2046485D01*
G01X49423261Y-2046485D01*
G01X49420885Y-1944438D01*
G01X49415218Y-1871922D01*
G01X49408454Y-1825000D01*
G01X49402786Y-1799735D01*
G01X49400410Y-1792188D01*
G01X49400410Y-1792188D01*
G37*
G36*
G01X50309785Y-2187110D02*
G01X50309785Y-2187110D01*
G01X50325001Y-2117540D01*
G01X50338496Y-2097168D01*
G01X50338496Y-2097168D01*
G01X50393552Y-2062388D01*
G01X50417597Y-2053516D01*
G01X50417597Y-2053516D01*
G01X50482144Y-2039877D01*
G01X50548740Y-2030345D01*
G01X50605480Y-2024434D01*
G01X50640461Y-2021657D01*
G01X50646113Y-2021290D01*
G01X50646113Y-2021290D01*
G01X50639014Y-1936357D01*
G01X50626360Y-1891541D01*
G01X50620918Y-1880372D01*
G01X50620918Y-1880372D01*
G01X50567930Y-1848623D01*
G01X50518133Y-1841514D01*
G01X50513691Y-1841407D01*
G01X50513691Y-1841407D01*
G01X50453494Y-1857902D01*
G01X50444257Y-1862793D01*
G01X50444257Y-1862793D01*
G01X50398758Y-1909390D01*
G01X50390058Y-1925196D01*
G01X50390058Y-1925196D01*
G01X50337550Y-1888722D01*
G01X50334980Y-1877149D01*
G01X50334980Y-1877149D01*
G01X50364703Y-1821304D01*
G01X50392695Y-1802149D01*
G01X50392695Y-1802149D01*
G01X50459727Y-1781056D01*
G01X50513285Y-1774518D01*
G01X50527168Y-1774024D01*
G01X50527168Y-1774024D01*
G01X50609478Y-1784361D01*
G01X50659331Y-1804158D01*
G01X50678108Y-1816597D01*
G01X50678339Y-1816797D01*
G01X50678339Y-1816797D01*
G01X50710603Y-1870714D01*
G01X50723750Y-1931749D01*
G01X50726370Y-1968169D01*
G01X50726386Y-1969727D01*
G01X50726386Y-1969727D01*
G01X50725453Y-2027642D01*
G01X50725214Y-2040332D01*
G01X50725214Y-2040332D01*
G01X50724149Y-2113495D01*
G01X50724043Y-2132032D01*
G01X50724043Y-2132032D01*
G01X50727613Y-2222596D01*
G01X50735468Y-2287012D01*
G01X50743324Y-2325501D01*
G01X50746894Y-2338282D01*
G01X50746894Y-2338282D01*
G01X50746894Y-2338282D01*
G01X50700019Y-2347657D01*
G01X50700019Y-2347657D01*
G01X50662812Y-2335059D01*
G01X50662812Y-2335059D01*
G01X50648457Y-2294922D01*
G01X50648457Y-2294922D01*
G01X50582481Y-2334958D01*
G01X50527547Y-2351960D01*
G01X50497230Y-2355799D01*
G01X50494941Y-2355860D01*
G01X50494941Y-2355860D01*
G01X50412087Y-2341426D01*
G01X50358582Y-2305996D01*
G01X50328008Y-2261381D01*
G01X50313949Y-2219391D01*
G01X50309986Y-2191835D01*
G01X50309785Y-2187110D01*
G37*
%LPC*%
G36*
G01X50394160Y-2187110D02*
G01X50394160Y-2187110D01*
G01X50412927Y-2252310D01*
G01X50425214Y-2266797D01*
G01X50425214Y-2266797D01*
G01X50485416Y-2290929D01*
G01X50504316Y-2292579D01*
G01X50504316Y-2292579D01*
G01X50577432Y-2278121D01*
G01X50625749Y-2251700D01*
G01X50642011Y-2238672D01*
G01X50642011Y-2238672D01*
G01X50640841Y-2183765D01*
G01X50640839Y-2182422D01*
G01X50640839Y-2182422D01*
G01X50643167Y-2113043D01*
G01X50644941Y-2082813D01*
G01X50644941Y-2082813D01*
G01X50592877Y-2088661D01*
G01X50592793Y-2088672D01*
G01X50592793Y-2088672D01*
G01X50545625Y-2094532D01*
G01X50545625Y-2094532D01*
G01X50501679Y-2101563D01*
G01X50501679Y-2101563D01*
G01X50466523Y-2111231D01*
G01X50466523Y-2111231D01*
G01X50435468Y-2124707D01*
G01X50435468Y-2124707D01*
G01X50413789Y-2140821D01*
G01X50413789Y-2140821D01*
G01X50398261Y-2161036D01*
G01X50398261Y-2161036D01*
G01X50394160Y-2187110D01*
G37*
%LPD*%
G36*
G01X50860566Y-2260352D02*
G01X50860566Y-2260352D01*
G01X50898544Y-2216249D01*
G01X50914472Y-2209961D01*
G01X50914472Y-2209961D01*
G01X50955373Y-2259257D01*
G01X50971601Y-2268848D01*
G01X50971601Y-2268848D01*
G01X51037753Y-2286827D01*
G01X51066816Y-2289063D01*
G01X51066816Y-2289063D01*
G01X51134324Y-2274918D01*
G01X51150312Y-2266211D01*
G01X51150312Y-2266211D01*
G01X51180628Y-2211336D01*
G01X51182246Y-2195313D01*
G01X51182246Y-2195313D01*
G01X51154947Y-2143536D01*
G01X51150312Y-2140235D01*
G01X51150312Y-2140235D01*
G01X51090196Y-2115254D01*
G01X51072968Y-2110645D01*
G01X51072968Y-2110645D01*
G01X51006390Y-2093680D01*
G01X50981855Y-2086622D01*
G01X50981855Y-2086622D01*
G01X50923495Y-2053367D01*
G01X50904218Y-2034473D01*
G01X50904218Y-2034473D01*
G01X50877039Y-1973012D01*
G01X50872292Y-1933477D01*
G01X50872285Y-1932813D01*
G01X50872285Y-1932813D01*
G01X50892280Y-1865300D01*
G01X50925128Y-1825983D01*
G01X50934101Y-1818555D01*
G01X50934101Y-1818555D01*
G01X50999046Y-1786826D01*
G01X51052989Y-1775483D01*
G01X51073847Y-1774024D01*
G01X51073847Y-1774024D01*
G01X51142464Y-1784365D01*
G01X51182045Y-1798218D01*
G01X51184297Y-1799219D01*
G01X51184297Y-1799219D01*
G01X51233220Y-1846894D01*
G01X51238496Y-1868946D01*
G01X51238496Y-1868946D01*
G01X51200518Y-1913632D01*
G01X51184589Y-1919336D01*
G01X51184589Y-1919336D01*
G01X51143672Y-1871545D01*
G01X51130390Y-1863086D01*
G01X51130390Y-1863086D01*
G01X51065994Y-1843130D01*
G01X51045136Y-1841407D01*
G01X51045136Y-1841407D01*
G01X50983327Y-1857998D01*
G01X50974238Y-1863672D01*
G01X50974238Y-1863672D01*
G01X50945162Y-1917034D01*
G01X50944355Y-1926368D01*
G01X50944355Y-1926368D01*
G01X50971299Y-1978855D01*
G01X50976289Y-1982618D01*
G01X50976289Y-1982618D01*
G01X51035604Y-2008837D01*
G01X51053632Y-2013965D01*
G01X51053632Y-2013965D01*
G01X51119234Y-2031183D01*
G01X51144746Y-2038575D01*
G01X51144746Y-2038575D01*
G01X51203879Y-2071179D01*
G01X51222382Y-2088379D01*
G01X51222382Y-2088379D01*
G01X51250324Y-2148914D01*
G01X51254316Y-2182422D01*
G01X51254316Y-2182422D01*
G01X51254316Y-2182422D01*
G01X51237895Y-2254822D01*
G01X51207883Y-2298147D01*
G01X51193086Y-2311622D01*
G01X51193086Y-2311622D01*
G01X51128770Y-2342555D01*
G01X51072515Y-2354121D01*
G01X51047505Y-2355860D01*
G01X51047480Y-2355860D01*
G01X51047480Y-2355860D01*
G01X50973310Y-2346952D01*
G01X50926664Y-2332318D01*
G01X50917402Y-2328321D01*
G01X50917402Y-2328321D01*
G01X50866098Y-2280827D01*
G01X50860566Y-2260352D01*
G37*
G36*
G01X51375019Y-1455860D02*
G01X51375019Y-1455860D01*
G01X51417207Y-1452344D01*
G01X51417207Y-1452344D01*
G01X51469495Y-1483907D01*
G01X51472285Y-1498047D01*
G01X51472285Y-1498047D01*
G01X51470567Y-1551971D01*
G01X51470527Y-1553125D01*
G01X51470527Y-1553125D01*
G01X51468335Y-1618514D01*
G01X51466539Y-1674196D01*
G01X51466132Y-1687012D01*
G01X51466132Y-1687012D01*
G01X51464400Y-1759968D01*
G01X51463664Y-1819460D01*
G01X51463498Y-1851868D01*
G01X51463496Y-1854297D01*
G01X51463496Y-1854297D01*
G01X51528086Y-1807889D01*
G01X51587348Y-1784058D01*
G01X51630680Y-1775278D01*
G01X51647480Y-1774024D01*
G01X51647480Y-1774024D01*
G01X51647480Y-1774024D01*
G01X51721472Y-1788467D01*
G01X51760257Y-1811498D01*
G01X51766132Y-1816797D01*
G01X51766132Y-1816797D01*
G01X51799704Y-1877551D01*
G01X51806785Y-1919138D01*
G01X51806855Y-1921680D01*
G01X51806855Y-1921680D01*
G01X51792987Y-1993105D01*
G01X51769546Y-2038016D01*
G01X51762031Y-2048243D01*
G01X51762031Y-2048243D01*
G01X51706734Y-2089396D01*
G01X51655023Y-2107014D01*
G01X51636347Y-2110352D01*
G01X51636347Y-2110352D01*
G01X51686505Y-2189313D01*
G01X51715811Y-2230302D01*
G01X51726454Y-2243224D01*
G01X51726582Y-2243360D01*
G01X51726582Y-2243360D01*
G01X51784709Y-2279366D01*
G01X51800996Y-2282032D01*
G01X51800996Y-2282032D01*
G01X51832050Y-2276758D01*
G01X51832050Y-2276758D01*
G01X51843183Y-2311915D01*
G01X51843183Y-2311915D01*
G01X51817988Y-2344727D01*
G01X51817988Y-2344727D01*
G01X51769941Y-2355860D01*
G01X51769941Y-2355860D01*
G01X51708061Y-2333832D01*
G01X51683222Y-2313086D01*
G01X51683222Y-2313086D01*
G01X51653047Y-2277051D01*
G01X51653047Y-2277051D01*
G01X51623237Y-2234098D01*
G01X51623164Y-2233985D01*
G01X51623164Y-2233985D01*
G01X51597968Y-2193555D01*
G01X51597968Y-2193555D01*
G01X51570683Y-2147402D01*
G01X51570429Y-2146973D01*
G01X51570429Y-2146973D01*
G01X51546699Y-2106250D01*
G01X51546699Y-2106250D01*
G01X51515058Y-2081055D01*
G01X51515058Y-2081055D01*
G01X51521504Y-2052344D01*
G01X51521504Y-2052344D01*
G01X51580311Y-2061035D01*
G01X51582441Y-2061133D01*
G01X51582441Y-2061133D01*
G01X51654086Y-2045015D01*
G01X51683998Y-2025178D01*
G01X51684687Y-2024512D01*
G01X51684687Y-2024512D01*
G01X51717215Y-1964556D01*
G01X51720722Y-1939844D01*
G01X51720722Y-1939844D01*
G01X51702384Y-1878908D01*
G01X51696113Y-1870118D01*
G01X51696113Y-1870118D01*
G01X51640574Y-1842638D01*
G01X51626972Y-1841407D01*
G01X51626972Y-1841407D01*
G01X51563750Y-1855916D01*
G01X51541718Y-1866016D01*
G01X51541718Y-1866016D01*
G01X51484752Y-1906741D01*
G01X51463496Y-1927540D01*
G01X51463496Y-2101563D01*
G01X51463496Y-2101563D01*
G01X51466096Y-2191160D01*
G01X51472203Y-2259312D01*
G01X51479277Y-2306279D01*
G01X51484779Y-2332322D01*
G01X51486347Y-2338282D01*
G01X51486347Y-2338282D01*
G01X51441230Y-2347657D01*
G01X51441230Y-2347657D01*
G01X51394941Y-2333301D01*
G01X51394941Y-2333301D01*
G01X51382050Y-2285547D01*
G01X51382050Y-2285547D01*
G01X51382050Y-2285547D01*
G01X51382349Y-2235454D01*
G01X51382908Y-2168080D01*
G01X51383222Y-2132949D01*
G01X51383222Y-2132911D01*
G01X51383222Y-2132911D01*
G01X51383938Y-2043698D01*
G01X51384280Y-1982444D01*
G01X51384386Y-1949047D01*
G01X51384394Y-1942188D01*
G01X51384394Y-1802735D01*
G01X51384394Y-1802735D01*
G01X51383825Y-1689649D01*
G01X51382369Y-1603003D01*
G01X51380407Y-1539653D01*
G01X51378319Y-1496454D01*
G01X51376484Y-1470261D01*
G01X51375282Y-1457931D01*
G01X51375019Y-1455860D01*
G37*

G04 Pad flashes *
%LPD*%
D11*

G04 end of program *
M02*
