M48
METRIC,TZ
G90
M71
T1C1
T2C2.0
T3C1.1
M95
T1
X2.355942Y-36.322722
X2.355942Y-32.322722
X9.325350Y-54.557811
X6.754200Y-51.493633
X39.238608Y-32.322722
X39.238608Y-36.322722
X5.784666Y-20.837117
X7.662552Y-17.305327
X34.856516Y-51.364299
X32.285366Y-54.428477
X33.851165Y-17.386161
X35.729051Y-20.917951
T2
X24.713180Y-3.114614
X18.406102Y-3.123928
T3
X32.764842Y-28.005283
X30.968790Y-26.209231
X26.943605Y-17.240651
X27.803265Y-14.850549
X8.732401Y-27.983960
X8.291335Y-30.485371
X8.590843Y-45.685524
X6.794791Y-43.889472
X14.271531Y-19.467783
X14.761453Y-16.975479
X32.934695Y-45.042005
X34.730747Y-43.245953
X13.573176Y-8.199550
X28.385059Y-8.505569
M30
