G04                                                      *
G04 Greetings!                                           *
G04 This Gerber was generated by PCBmodE, an open source *
G04 PCB design software. Get it here:                    *
G04                                                      *
G04   http://pcbmode.com                                 *
G04                                                      *
G04 Also visit                                           *
G04                                                      *
G04   http://boldport.com                                *
G04                                                      *
G04 and follow @boldport / @pcbmode for updates!         *
G04                                                      *

G04 leading zeros omitted (L); absolute data (A); 6 integer digits and 6 fractional digits *
%FSLAX66Y66*%

G04 mode (MO): millimeters (MM) *
%MOMM*%

G04 Aperture definitions *
%ADD10C,0.001X*%
%ADD11C,0.001X*%
%ADD20C,0.05X*%

%LPD*%
D20*
G01X16332630Y-58063944D02*
G01X16332630Y-58063944D01*
G01X16420438Y-58090375D01*
G01X16508328Y-58116289D01*
G01X16596300Y-58141686D01*
G01X16684352Y-58166565D01*
G01X16772483Y-58190927D01*
G01X16860692Y-58214771D01*
G01X16948976Y-58238098D01*
G01X17037335Y-58260906D01*
G01X17125767Y-58283196D01*
G01X17214271Y-58304967D01*
G01X17302845Y-58326219D01*
G01X17391488Y-58346952D01*
G01X17480199Y-58367166D01*
G01X17568976Y-58386860D01*
G01X17657817Y-58406035D01*
G01X17746722Y-58424690D01*
G01X17835689Y-58442824D01*
G01X17924717Y-58460438D01*
G01X18013803Y-58477531D01*
G01X18102948Y-58494104D01*
G01X18192149Y-58510155D01*
G01X18281404Y-58525686D01*
G01X18370714Y-58540694D01*
G01X18460075Y-58555181D01*
G01X18549487Y-58569146D01*
G01X18638949Y-58582589D01*
G01X18728459Y-58595509D01*
G01X18818015Y-58607907D01*
G01X18907616Y-58619781D01*
G01X18997261Y-58631133D01*
G01X19086949Y-58641961D01*
G01X19176677Y-58652266D01*
G01X19266445Y-58662047D01*
G01X19356252Y-58671305D01*
G01X19446095Y-58680037D01*
G01X19535973Y-58688246D01*
G01X19625885Y-58695930D01*
G01X19715830Y-58703089D01*
G01X19805806Y-58709723D01*
G01X19895812Y-58715832D01*
G01X19985846Y-58721415D01*
G01X20075907Y-58726472D01*
G01X20165994Y-58731003D01*
G01X20256105Y-58735009D01*
G01X20346239Y-58738487D01*
G01X20436394Y-58741439D01*
G01X20526569Y-58743865D01*
G01X20616763Y-58745763D01*
G01X20706973Y-58747134D01*
G01X20797200Y-58747977D01*
G01X20797200Y-58747977D01*
G01X20797200Y-58747977D01*
G01X20886181Y-58747186D01*
G01X20975147Y-58745882D01*
G01X21064097Y-58744065D01*
G01X21153028Y-58741735D01*
G01X21241940Y-58738892D01*
G01X21330832Y-58735537D01*
G01X21419702Y-58731669D01*
G01X21508548Y-58727290D01*
G01X21597370Y-58722399D01*
G01X21686166Y-58716996D01*
G01X21774934Y-58711082D01*
G01X21863674Y-58704656D01*
G01X21952384Y-58697720D01*
G01X22041062Y-58690273D01*
G01X22129708Y-58682316D01*
G01X22218320Y-58673848D01*
G01X22306896Y-58664871D01*
G01X22395436Y-58655383D01*
G01X22483938Y-58645386D01*
G01X22572400Y-58634880D01*
G01X22660822Y-58623864D01*
G01X22749201Y-58612340D01*
G01X22837537Y-58600307D01*
G01X22925829Y-58587765D01*
G01X23014074Y-58574715D01*
G01X23102272Y-58561157D01*
G01X23190421Y-58547092D01*
G01X23278520Y-58532519D01*
G01X23366567Y-58517438D01*
G01X23454562Y-58501850D01*
G01X23542502Y-58485755D01*
G01X23630387Y-58469154D01*
G01X23718215Y-58452046D01*
G01X23805985Y-58434432D01*
G01X23893696Y-58416312D01*
G01X23981346Y-58397685D01*
G01X24068933Y-58378554D01*
G01X24156457Y-58358917D01*
G01X24243916Y-58338775D01*
G01X24331309Y-58318127D01*
G01X24418634Y-58296976D01*
G01X24505890Y-58275319D01*
G01X24593077Y-58253159D01*
G01X24680191Y-58230494D01*
G01X24767233Y-58207325D01*
G01X24854200Y-58183653D01*
G01X24941092Y-58159478D01*
G01X25027907Y-58134799D01*
G01X25114643Y-58109617D01*
G01X25201300Y-58083933D01*
G01X25201300Y-58083933D01*
G01X25201300Y-58083933D01*
G01X25249280Y-58069112D01*
G01X25295286Y-58060214D01*
G01X25338865Y-58058598D01*
G01X25379565Y-58065620D01*
G01X25416933Y-58082637D01*
G01X25450517Y-58111007D01*
G01X25479864Y-58152088D01*
G01X25504521Y-58207236D01*
G01X25511620Y-58228979D01*
G01X25511620Y-58228979D01*
G01X25529720Y-58285361D01*
G01X25547868Y-58341741D01*
G01X25566064Y-58398119D01*
G01X25584307Y-58454495D01*
G01X25602599Y-58510869D01*
G01X25620939Y-58567241D01*
G01X25639328Y-58623611D01*
G01X25657766Y-58679979D01*
G01X25676253Y-58736344D01*
G01X25694789Y-58792708D01*
G01X25713375Y-58849069D01*
G01X25732011Y-58905429D01*
G01X25750698Y-58961786D01*
G01X25769434Y-59018141D01*
G01X25788222Y-59074494D01*
G01X25807060Y-59130845D01*
G01X25825950Y-59187194D01*
G01X25844891Y-59243540D01*
G01X25863883Y-59299885D01*
G01X25882928Y-59356227D01*
G01X25902025Y-59412567D01*
G01X25921174Y-59468905D01*
G01X25940377Y-59525241D01*
G01X25959632Y-59581574D01*
G01X25978940Y-59637906D01*
G01X25998302Y-59694235D01*
G01X26017717Y-59750562D01*
G01X26037187Y-59806886D01*
G01X26056710Y-59863208D01*
G01X26076289Y-59919529D01*
G01X26095922Y-59975846D01*
G01X26115609Y-60032162D01*
G01X26135353Y-60088475D01*
G01X26155151Y-60144786D01*
G01X26175006Y-60201095D01*
G01X26194916Y-60257401D01*
G01X26214882Y-60313705D01*
G01X26234905Y-60370007D01*
G01X26254985Y-60426307D01*
G01X26275122Y-60482604D01*
G01X26295316Y-60538898D01*
G01X26315568Y-60595191D01*
G01X26335877Y-60651481D01*
G01X26356244Y-60707768D01*
G01X26376670Y-60764054D01*
G01X26397154Y-60820337D01*
G01X26417697Y-60876617D01*
G01X26438298Y-60932895D01*
G01X26458959Y-60989171D01*
G01X26479680Y-61045444D01*
G01X26479680Y-61045444D01*
G01X26479680Y-61045444D01*
G01X26770457Y-60958008D01*
G01X27058637Y-60865306D01*
G01X27344215Y-60767394D01*
G01X27627183Y-60664328D01*
G01X27907534Y-60556163D01*
G01X28185262Y-60442955D01*
G01X28460359Y-60324759D01*
G01X28732819Y-60201631D01*
G01X29002634Y-60073626D01*
G01X29269799Y-59940799D01*
G01X29534305Y-59803207D01*
G01X29796147Y-59660904D01*
G01X30055317Y-59513946D01*
G01X30311808Y-59362389D01*
G01X30565614Y-59206288D01*
G01X30816727Y-59045699D01*
G01X31065141Y-58880677D01*
G01X31310849Y-58711277D01*
G01X31553844Y-58537556D01*
G01X31794119Y-58359568D01*
G01X32031668Y-58177369D01*
G01X32266482Y-57991015D01*
G01X32498557Y-57800561D01*
G01X32727883Y-57606063D01*
G01X32954456Y-57407575D01*
G01X33178267Y-57205154D01*
G01X33399310Y-56998856D01*
G01X33617579Y-56788735D01*
G01X33833065Y-56574847D01*
G01X34045763Y-56357247D01*
G01X34255666Y-56135992D01*
G01X34462766Y-55911136D01*
G01X34667056Y-55682735D01*
G01X34868531Y-55450845D01*
G01X35067182Y-55215520D01*
G01X35263004Y-54976818D01*
G01X35455988Y-54734792D01*
G01X35646129Y-54489499D01*
G01X35833420Y-54240994D01*
G01X36017853Y-53989333D01*
G01X36199421Y-53734570D01*
G01X36378119Y-53476762D01*
G01X36553938Y-53215964D01*
G01X36726872Y-52952232D01*
G01X36896915Y-52685620D01*
G01X37064058Y-52416186D01*
G01X37228297Y-52143983D01*
G01X37389622Y-51869067D01*
G01X37548029Y-51591495D01*
G01X37703509Y-51311321D01*
G01X37856056Y-51028601D01*
G01X38005663Y-50743391D01*
G01X38152323Y-50455746D01*
G01X38296029Y-50165721D01*
G01X38436775Y-49873372D01*
G01X38574553Y-49578754D01*
G01X38709357Y-49281924D01*
G01X38841180Y-48982936D01*
G01X38970014Y-48681846D01*
G01X39095853Y-48378709D01*
G01X39218691Y-48073582D01*
G01X39338520Y-47766519D01*
G01X39455333Y-47457575D01*
G01X39569123Y-47146808D01*
G01X39679884Y-46834271D01*
G01X39787609Y-46520020D01*
G01X39892291Y-46204112D01*
G01X39993923Y-45886601D01*
G01X40092497Y-45567543D01*
G01X40188008Y-45246993D01*
G01X40280448Y-44925008D01*
G01X40369811Y-44601641D01*
G01X40456089Y-44276950D01*
G01X40539276Y-43950989D01*
G01X40619365Y-43623814D01*
G01X40696348Y-43295480D01*
G01X40770220Y-42966044D01*
G01X40840973Y-42635559D01*
G01X40908600Y-42304083D01*
G01X40973095Y-41971670D01*
G01X41034450Y-41638376D01*
G01X41092659Y-41304256D01*
G01X41147714Y-40969366D01*
G01X41199610Y-40633762D01*
G01X41248338Y-40297498D01*
G01X41293893Y-39960631D01*
G01X41336266Y-39623215D01*
G01X41375453Y-39285307D01*
G01X41411444Y-38946962D01*
G01X41444235Y-38608235D01*
G01X41473817Y-38269182D01*
G01X41500184Y-37929859D01*
G01X41523329Y-37590320D01*
G01X41543245Y-37250621D01*
G01X41559925Y-36910819D01*
G01X41573363Y-36570968D01*
G01X41583551Y-36231123D01*
G01X41590483Y-35891341D01*
G01X41594152Y-35551677D01*
G01X41594550Y-35212186D01*
G01X41594550Y-35212186D01*
G01X41594550Y-35212186D01*
G01X41593322Y-34900175D01*
G01X41589646Y-34589012D01*
G01X41583528Y-34278715D01*
G01X41574980Y-33969303D01*
G01X41564009Y-33660795D01*
G01X41550624Y-33353211D01*
G01X41534834Y-33046569D01*
G01X41516649Y-32740888D01*
G01X41496077Y-32436187D01*
G01X41473126Y-32132486D01*
G01X41447807Y-31829803D01*
G01X41420127Y-31528157D01*
G01X41390095Y-31227568D01*
G01X41357722Y-30928054D01*
G01X41323014Y-30629634D01*
G01X41285982Y-30332328D01*
G01X41246634Y-30036153D01*
G01X41204979Y-29741131D01*
G01X41161026Y-29447278D01*
G01X41114784Y-29154615D01*
G01X41066262Y-28863160D01*
G01X41015468Y-28572933D01*
G01X40962412Y-28283952D01*
G01X40907102Y-27996237D01*
G01X40849548Y-27709805D01*
G01X40789758Y-27424678D01*
G01X40727741Y-27140872D01*
G01X40663506Y-26858408D01*
G01X40597062Y-26577305D01*
G01X40528418Y-26297581D01*
G01X40457582Y-26019255D01*
G01X40384564Y-25742347D01*
G01X40309373Y-25466875D01*
G01X40232017Y-25192859D01*
G01X40152505Y-24920317D01*
G01X40070846Y-24649269D01*
G01X39987049Y-24379733D01*
G01X39901124Y-24111729D01*
G01X39813078Y-23845275D01*
G01X39722921Y-23580391D01*
G01X39630661Y-23317096D01*
G01X39536309Y-23055407D01*
G01X39439871Y-22795346D01*
G01X39341358Y-22536930D01*
G01X39240778Y-22280178D01*
G01X39138140Y-22025110D01*
G01X39033453Y-21771745D01*
G01X38926726Y-21520101D01*
G01X38817968Y-21270198D01*
G01X38707187Y-21022054D01*
G01X38594394Y-20775689D01*
G01X38479595Y-20531122D01*
G01X38362801Y-20288371D01*
G01X38244020Y-20047456D01*
G01X38123261Y-19808396D01*
G01X38000534Y-19571209D01*
G01X37875846Y-19335915D01*
G01X37749207Y-19102532D01*
G01X37620626Y-18871080D01*
G01X37490112Y-18641578D01*
G01X37357672Y-18414045D01*
G01X37223318Y-18188499D01*
G01X37087057Y-17964960D01*
G01X36948897Y-17743446D01*
G01X36808849Y-17523978D01*
G01X36666921Y-17306573D01*
G01X36523122Y-17091251D01*
G01X36377461Y-16878030D01*
G01X36229946Y-16666930D01*
G01X36080587Y-16457970D01*
G01X35929392Y-16251169D01*
G01X35776371Y-16046546D01*
G01X35621532Y-15844119D01*
G01X35464884Y-15643908D01*
G01X35306436Y-15445932D01*
G01X35146197Y-15250210D01*
G01X34984175Y-15056761D01*
G01X34820381Y-14865603D01*
G01X34654822Y-14676756D01*
G01X34487507Y-14490239D01*
G01X34318446Y-14306071D01*
G01X34147648Y-14124271D01*
G01X33975120Y-13944857D01*
G01X33800873Y-13767850D01*
G01X33624914Y-13593267D01*
G01X33447253Y-13421128D01*
G01X33267899Y-13251453D01*
G01X33086861Y-13084259D01*
G01X32904147Y-12919566D01*
G01X32719767Y-12757392D01*
G01X32533729Y-12597758D01*
G01X32346042Y-12440682D01*
G01X32156716Y-12286183D01*
G01X31965758Y-12134279D01*
G01X31773179Y-11984991D01*
G01X31578986Y-11838336D01*
G01X31383188Y-11694335D01*
G01X31185796Y-11553005D01*
G01X30986817Y-11414367D01*
G01X30786260Y-11278438D01*
G01X30786260Y-11278438D01*
G01X30786260Y-11278438D01*
G01X30734590Y-11224158D01*
G01X30702411Y-11181864D01*
G01X30685155Y-11146307D01*
G01X30678256Y-11112237D01*
G01X30677146Y-11074404D01*
G01X30677260Y-11027558D01*
G01X30675760Y-10988728D01*
G01X30675760Y-10988728D01*
G01X30681781Y-10939400D01*
G01X30687264Y-10890045D01*
G01X30692207Y-10840665D01*
G01X30696613Y-10791262D01*
G01X30700481Y-10741838D01*
G01X30703811Y-10692396D01*
G01X30706605Y-10642936D01*
G01X30708863Y-10593461D01*
G01X30710584Y-10543974D01*
G01X30711770Y-10494476D01*
G01X30712421Y-10444968D01*
G01X30712460Y-10439467D01*
G01X30712460Y-10439467D01*
G01X30712068Y-10386968D01*
G01X30711073Y-10334513D01*
G01X30709477Y-10282106D01*
G01X30707280Y-10229748D01*
G01X30704484Y-10177441D01*
G01X30701091Y-10125188D01*
G01X30697101Y-10072991D01*
G01X30692516Y-10020851D01*
G01X30687337Y-9968772D01*
G01X30681566Y-9916754D01*
G01X30675204Y-9864801D01*
G01X30668251Y-9812914D01*
G01X30660711Y-9761095D01*
G01X30652583Y-9709347D01*
G01X30643869Y-9657672D01*
G01X30634571Y-9606071D01*
G01X30624689Y-9554548D01*
G01X30614225Y-9503104D01*
G01X30603181Y-9451741D01*
G01X30591557Y-9400461D01*
G01X30579356Y-9349267D01*
G01X30566577Y-9298161D01*
G01X30553223Y-9247145D01*
G01X30539295Y-9196220D01*
G01X30524794Y-9145390D01*
G01X30509722Y-9094656D01*
G01X30494080Y-9044020D01*
G01X30477868Y-8993485D01*
G01X30461089Y-8943052D01*
G01X30443744Y-8892724D01*
G01X30425834Y-8842503D01*
G01X30407360Y-8792391D01*
G01X30388324Y-8742390D01*
G01X30368727Y-8692503D01*
G01X30348570Y-8642730D01*
G01X30327855Y-8593076D01*
G01X30306583Y-8543541D01*
G01X30284755Y-8494128D01*
G01X30262372Y-8444839D01*
G01X30239437Y-8395676D01*
G01X30215949Y-8346642D01*
G01X30191911Y-8297737D01*
G01X30167324Y-8248966D01*
G01X30142189Y-8200329D01*
G01X30116507Y-8151828D01*
G01X30090280Y-8103467D01*
G01X30063509Y-8055247D01*
G01X30036195Y-8007170D01*
G01X30008340Y-7959238D01*
G01X29979945Y-7911453D01*
G01X29951011Y-7863819D01*
G01X29921540Y-7816336D01*
G01X29891532Y-7769007D01*
G01X29860990Y-7721833D01*
G01X29829915Y-7674818D01*
G01X29798307Y-7627964D01*
G01X29766168Y-7581271D01*
G01X29733500Y-7534744D01*
G01X29700303Y-7488383D01*
G01X29666579Y-7442190D01*
G01X29632330Y-7396169D01*
G01X29597557Y-7350321D01*
G01X29562260Y-7304648D01*
G01X29526442Y-7259152D01*
G01X29490103Y-7213836D01*
G01X29453245Y-7168701D01*
G01X29415870Y-7123750D01*
G01X29377978Y-7078985D01*
G01X29339571Y-7034408D01*
G01X29300650Y-6990021D01*
G01X29261216Y-6945827D01*
G01X29221272Y-6901827D01*
G01X29180817Y-6858023D01*
G01X29139854Y-6814418D01*
G01X29098383Y-6771014D01*
G01X29056407Y-6727813D01*
G01X29013925Y-6684817D01*
G01X28970941Y-6642029D01*
G01X28927454Y-6599449D01*
G01X28883467Y-6557082D01*
G01X28838980Y-6514927D01*
G01X28793995Y-6472989D01*
G01X28748513Y-6431269D01*
G01X28702536Y-6389768D01*
G01X28656064Y-6348490D01*
G01X28609100Y-6307436D01*
G01X28561644Y-6266608D01*
G01X28513698Y-6226009D01*
G01X28465263Y-6185641D01*
G01X28416340Y-6145506D01*
G01X28366931Y-6105606D01*
G01X28317037Y-6065942D01*
G01X28266659Y-6026518D01*
G01X28215799Y-5987336D01*
G01X28164457Y-5948397D01*
G01X28112636Y-5909703D01*
G01X28060337Y-5871258D01*
G01X28007560Y-5833062D01*
G01X27954307Y-5795118D01*
G01X27900580Y-5757429D01*
G01X27900580Y-5757429D01*
G01X27900580Y-5757429D01*
G01X27859043Y-5703588D01*
G01X27834374Y-5649392D01*
G01X27822380Y-5599586D01*
G01X27818873Y-5558914D01*
G01X27819661Y-5532118D01*
G01X27820580Y-5523783D01*
G01X27820580Y-5523783D01*
G01X27831376Y-5474457D01*
G01X27841418Y-5425064D01*
G01X27850705Y-5375608D01*
G01X27859238Y-5326093D01*
G01X27867015Y-5276523D01*
G01X27874035Y-5226902D01*
G01X27880297Y-5177233D01*
G01X27885801Y-5127522D01*
G01X27890546Y-5077771D01*
G01X27894531Y-5027986D01*
G01X27897755Y-4978169D01*
G01X27900217Y-4928325D01*
G01X27901916Y-4878458D01*
G01X27902853Y-4828571D01*
G01X27902980Y-4814315D01*
G01X27902980Y-4814315D01*
G01X27902021Y-4734700D01*
G01X27899167Y-4655398D01*
G01X27894435Y-4576417D01*
G01X27887837Y-4497769D01*
G01X27879390Y-4419462D01*
G01X27869107Y-4341507D01*
G01X27857003Y-4263913D01*
G01X27843093Y-4186691D01*
G01X27827392Y-4109850D01*
G01X27809913Y-4033400D01*
G01X27790672Y-3957352D01*
G01X27769684Y-3881715D01*
G01X27746962Y-3806499D01*
G01X27722522Y-3731714D01*
G01X27696378Y-3657369D01*
G01X27668545Y-3583476D01*
G01X27639038Y-3510043D01*
G01X27607870Y-3437081D01*
G01X27575058Y-3364599D01*
G01X27540614Y-3292608D01*
G01X27504555Y-3221117D01*
G01X27466894Y-3150136D01*
G01X27427646Y-3079676D01*
G01X27386827Y-3009745D01*
G01X27344449Y-2940355D01*
G01X27300529Y-2871514D01*
G01X27255081Y-2803234D01*
G01X27208118Y-2735523D01*
G01X27159657Y-2668391D01*
G01X27109712Y-2601849D01*
G01X27058297Y-2535907D01*
G01X27005426Y-2470574D01*
G01X26951115Y-2405860D01*
G01X26895379Y-2341775D01*
G01X26838231Y-2278329D01*
G01X26779686Y-2215533D01*
G01X26719759Y-2153395D01*
G01X26658465Y-2091926D01*
G01X26595819Y-2031136D01*
G01X26531834Y-1971035D01*
G01X26466526Y-1911632D01*
G01X26399909Y-1852937D01*
G01X26331997Y-1794961D01*
G01X26262806Y-1737713D01*
G01X26192350Y-1681204D01*
G01X26120644Y-1625442D01*
G01X26047702Y-1570439D01*
G01X25973539Y-1516203D01*
G01X25898170Y-1462746D01*
G01X25821609Y-1410076D01*
G01X25743870Y-1358203D01*
G01X25664969Y-1307139D01*
G01X25584920Y-1256891D01*
G01X25503738Y-1207472D01*
G01X25421437Y-1158889D01*
G01X25338032Y-1111154D01*
G01X25253538Y-1064276D01*
G01X25167969Y-1018265D01*
G01X25081339Y-0973130D01*
G01X24993664Y-0928883D01*
G01X24904959Y-0885533D01*
G01X24815237Y-0843089D01*
G01X24724513Y-0801562D01*
G01X24632802Y-0760961D01*
G01X24540119Y-0721297D01*
G01X24446478Y-0682579D01*
G01X24351894Y-0644817D01*
G01X24256381Y-0608021D01*
G01X24159955Y-0572202D01*
G01X24062629Y-0537368D01*
G01X23964419Y-0503531D01*
G01X23865339Y-0470699D01*
G01X23765403Y-0438883D01*
G01X23664626Y-0408092D01*
G01X23563024Y-0378337D01*
G01X23460610Y-0349628D01*
G01X23357399Y-0321973D01*
G01X23253406Y-0295385D01*
G01X23148645Y-0269871D01*
G01X23043131Y-0245442D01*
G01X22936879Y-0222108D01*
G01X22829904Y-0199880D01*
G01X22722219Y-0178766D01*
G01X22613839Y-0158777D01*
G01X22504780Y-0139922D01*
G01X22395056Y-0122212D01*
G01X22284681Y-0105656D01*
G01X22173670Y-0090265D01*
G01X22062038Y-0076048D01*
G01X21949799Y-0063016D01*
G01X21836968Y-0051177D01*
G01X21723560Y-0040543D01*
G01X21609588Y-0031122D01*
G01X21495069Y-0022925D01*
G01X21380016Y-0015962D01*
G01X21264444Y-0010243D01*
G01X21148368Y-0005777D01*
G01X21031802Y-0002575D01*
G01X20914761Y-0000646D01*
G01X20797260Y-0000000D01*
G01X20797260Y-0000000D01*
G01X20797260Y-0000000D01*
G01X20679759Y-0000646D01*
G01X20562718Y-0002574D01*
G01X20446153Y-0005777D01*
G01X20330077Y-0010243D01*
G01X20214505Y-0015962D01*
G01X20099453Y-0022925D01*
G01X19984934Y-0031122D01*
G01X19870963Y-0040542D01*
G01X19757554Y-0051177D01*
G01X19644724Y-0063015D01*
G01X19532485Y-0076048D01*
G01X19420853Y-0090265D01*
G01X19309842Y-0105656D01*
G01X19199467Y-0122212D01*
G01X19089743Y-0139922D01*
G01X18980684Y-0158776D01*
G01X18872305Y-0178765D01*
G01X18764620Y-0199879D01*
G01X18657645Y-0222108D01*
G01X18551393Y-0245442D01*
G01X18445879Y-0269870D01*
G01X18341118Y-0295384D01*
G01X18237125Y-0321973D01*
G01X18133914Y-0349627D01*
G01X18031500Y-0378337D01*
G01X17929898Y-0408092D01*
G01X17829122Y-0438882D01*
G01X17729186Y-0470698D01*
G01X17630106Y-0503530D01*
G01X17531895Y-0537368D01*
G01X17434570Y-0572201D01*
G01X17338143Y-0608021D01*
G01X17242631Y-0644816D01*
G01X17148047Y-0682578D01*
G01X17054406Y-0721296D01*
G01X16961723Y-0760960D01*
G01X16870012Y-0801561D01*
G01X16779288Y-0843088D01*
G01X16689566Y-0885532D01*
G01X16600860Y-0928883D01*
G01X16513186Y-0973130D01*
G01X16426556Y-1018264D01*
G01X16340987Y-1064275D01*
G01X16256493Y-1111153D01*
G01X16173088Y-1158889D01*
G01X16090787Y-1207471D01*
G01X16009605Y-1256891D01*
G01X15929556Y-1307138D01*
G01X15850655Y-1358203D01*
G01X15772916Y-1410075D01*
G01X15696355Y-1462745D01*
G01X15620986Y-1516203D01*
G01X15546823Y-1570438D01*
G01X15473881Y-1625442D01*
G01X15402175Y-1681203D01*
G01X15331719Y-1737713D01*
G01X15262528Y-1794961D01*
G01X15194616Y-1852937D01*
G01X15127999Y-1911631D01*
G01X15062691Y-1971034D01*
G01X14998706Y-2031136D01*
G01X14936060Y-2091926D01*
G01X14874766Y-2153395D01*
G01X14814839Y-2215533D01*
G01X14756295Y-2278329D01*
G01X14699147Y-2341775D01*
G01X14643410Y-2405859D01*
G01X14589099Y-2470573D01*
G01X14536229Y-2535906D01*
G01X14484814Y-2601849D01*
G01X14434868Y-2668391D01*
G01X14386407Y-2735522D01*
G01X14339445Y-2803233D01*
G01X14293997Y-2871514D01*
G01X14250076Y-2940355D01*
G01X14207699Y-3009745D01*
G01X14166879Y-3079676D01*
G01X14127632Y-3150136D01*
G01X14089971Y-3221117D01*
G01X14053912Y-3292608D01*
G01X14019469Y-3364599D01*
G01X13986656Y-3437081D01*
G01X13955489Y-3510043D01*
G01X13925981Y-3583476D01*
G01X13898148Y-3657369D01*
G01X13872005Y-3731714D01*
G01X13847565Y-3806499D01*
G01X13824843Y-3881715D01*
G01X13803855Y-3957352D01*
G01X13784615Y-4033400D01*
G01X13767136Y-4109850D01*
G01X13751435Y-4186691D01*
G01X13737525Y-4263913D01*
G01X13725422Y-4341507D01*
G01X13715139Y-4419462D01*
G01X13706692Y-4497769D01*
G01X13700095Y-4576417D01*
G01X13695362Y-4655398D01*
G01X13692509Y-4734700D01*
G01X13691550Y-4814315D01*
G01X13691550Y-4814315D01*
G01X13691550Y-4814315D01*
G01X13692131Y-4865857D01*
G01X13693519Y-4917382D01*
G01X13695713Y-4968883D01*
G01X13698714Y-5020359D01*
G01X13702523Y-5071803D01*
G01X13707140Y-5123211D01*
G01X13712565Y-5174579D01*
G01X13718800Y-5225903D01*
G01X13725844Y-5277179D01*
G01X13733699Y-5328401D01*
G01X13742364Y-5379565D01*
G01X13751840Y-5430668D01*
G01X13762129Y-5481704D01*
G01X13773229Y-5532669D01*
G01X13776550Y-5547217D01*
G01X13776550Y-5547217D01*
G01X13780380Y-5585853D01*
G01X13776621Y-5626690D01*
G01X13762916Y-5668845D01*
G01X13736911Y-5711437D01*
G01X13696250Y-5753585D01*
G01X13696250Y-5753585D01*
G01X13696250Y-5753585D01*
G01X13642455Y-5791297D01*
G01X13589134Y-5829264D01*
G01X13536291Y-5867484D01*
G01X13483925Y-5905954D01*
G01X13432039Y-5944672D01*
G01X13380633Y-5983636D01*
G01X13329709Y-6022845D01*
G01X13279268Y-6062295D01*
G01X13229311Y-6101985D01*
G01X13179841Y-6141912D01*
G01X13130857Y-6182075D01*
G01X13082362Y-6222472D01*
G01X13034357Y-6263099D01*
G01X12986843Y-6303956D01*
G01X12939821Y-6345039D01*
G01X12893293Y-6386347D01*
G01X12847260Y-6427878D01*
G01X12801723Y-6469629D01*
G01X12756684Y-6511598D01*
G01X12712144Y-6553784D01*
G01X12668104Y-6596184D01*
G01X12624565Y-6638795D01*
G01X12581530Y-6681617D01*
G01X12538999Y-6724645D01*
G01X12496973Y-6767880D01*
G01X12455454Y-6811318D01*
G01X12414444Y-6854957D01*
G01X12373943Y-6898795D01*
G01X12333952Y-6942829D01*
G01X12294474Y-6987059D01*
G01X12255509Y-7031481D01*
G01X12217059Y-7076094D01*
G01X12179125Y-7120895D01*
G01X12141709Y-7165883D01*
G01X12104811Y-7211054D01*
G01X12068433Y-7256407D01*
G01X12032576Y-7301940D01*
G01X11997242Y-7347651D01*
G01X11962432Y-7393537D01*
G01X11928147Y-7439597D01*
G01X11894389Y-7485828D01*
G01X11861159Y-7532228D01*
G01X11828458Y-7578795D01*
G01X11796287Y-7625526D01*
G01X11764649Y-7672420D01*
G01X11733543Y-7719475D01*
G01X11702972Y-7766689D01*
G01X11672937Y-7814058D01*
G01X11643439Y-7861582D01*
G01X11614479Y-7909257D01*
G01X11586059Y-7957082D01*
G01X11558180Y-8005055D01*
G01X11530843Y-8053174D01*
G01X11504050Y-8101436D01*
G01X11477802Y-8149839D01*
G01X11452101Y-8198381D01*
G01X11426947Y-8247060D01*
G01X11402341Y-8295874D01*
G01X11378287Y-8344821D01*
G01X11354783Y-8393899D01*
G01X11331833Y-8443104D01*
G01X11309437Y-8492436D01*
G01X11287596Y-8541892D01*
G01X11266312Y-8591471D01*
G01X11245587Y-8641168D01*
G01X11225420Y-8690984D01*
G01X11205815Y-8740915D01*
G01X11186772Y-8790960D01*
G01X11168292Y-8841116D01*
G01X11150377Y-8891381D01*
G01X11133027Y-8941753D01*
G01X11116246Y-8992230D01*
G01X11100032Y-9042810D01*
G01X11084389Y-9093490D01*
G01X11069317Y-9144269D01*
G01X11054818Y-9195144D01*
G01X11040893Y-9246113D01*
G01X11027543Y-9297174D01*
G01X11014769Y-9348325D01*
G01X11002574Y-9399564D01*
G01X10990957Y-9450888D01*
G01X10979921Y-9502296D01*
G01X10969467Y-9553785D01*
G01X10959596Y-9605353D01*
G01X10950309Y-9656999D01*
G01X10941609Y-9708719D01*
G01X10933495Y-9760512D01*
G01X10925970Y-9812375D01*
G01X10919034Y-9864308D01*
G01X10912690Y-9916306D01*
G01X10906937Y-9968368D01*
G01X10901779Y-10020493D01*
G01X10897215Y-10072678D01*
G01X10893248Y-10124920D01*
G01X10889878Y-10177218D01*
G01X10887108Y-10229569D01*
G01X10884937Y-10281972D01*
G01X10883368Y-10334424D01*
G01X10882402Y-10386923D01*
G01X10882040Y-10439467D01*
G01X10882040Y-10439467D01*
G01X10882040Y-10439467D01*
G01X10883146Y-10490978D01*
G01X10884844Y-10542477D01*
G01X10887130Y-10593961D01*
G01X10890005Y-10645429D01*
G01X10893465Y-10696879D01*
G01X10897510Y-10748307D01*
G01X10902137Y-10799711D01*
G01X10907344Y-10851090D01*
G01X10913131Y-10902442D01*
G01X10919494Y-10953763D01*
G01X10926434Y-11005051D01*
G01X10927240Y-11010748D01*
G01X10927240Y-11010748D01*
G01X10927299Y-11072986D01*
G01X10918865Y-11126654D01*
G01X10902791Y-11172629D01*
G01X10879930Y-11211791D01*
G01X10851135Y-11245017D01*
G01X10821480Y-11270107D01*
G01X10821480Y-11270107D01*
G01X10620693Y-11405948D01*
G01X10421485Y-11544504D01*
G01X10223865Y-11685756D01*
G01X10027841Y-11829683D01*
G01X9833423Y-11976269D01*
G01X9640620Y-12125492D01*
G01X9449441Y-12277335D01*
G01X9259894Y-12431778D01*
G01X9071988Y-12588802D01*
G01X8885732Y-12748389D01*
G01X8701136Y-12910518D01*
G01X8518208Y-13075172D01*
G01X8336957Y-13242331D01*
G01X8157392Y-13411976D01*
G01X7979521Y-13584088D01*
G01X7803355Y-13758647D01*
G01X7628901Y-13935636D01*
G01X7456168Y-14115035D01*
G01X7285166Y-14296824D01*
G01X7115904Y-14480985D01*
G01X6948390Y-14667499D01*
G01X6782633Y-14856346D01*
G01X6618642Y-15047509D01*
G01X6456427Y-15240966D01*
G01X6295995Y-15436701D01*
G01X6137356Y-15634693D01*
G01X5980519Y-15834923D01*
G01X5825493Y-16037373D01*
G01X5672286Y-16242023D01*
G01X5520908Y-16448855D01*
G01X5371368Y-16657849D01*
G01X5223674Y-16868986D01*
G01X5077835Y-17082248D01*
G01X4933860Y-17297614D01*
G01X4791758Y-17515067D01*
G01X4651539Y-17734587D01*
G01X4513210Y-17956155D01*
G01X4376781Y-18179752D01*
G01X4242261Y-18405360D01*
G01X4109659Y-18632958D01*
G01X3978984Y-18862528D01*
G01X3850243Y-19094051D01*
G01X3723448Y-19327507D01*
G01X3598605Y-19562879D01*
G01X3475725Y-19800146D01*
G01X3354816Y-20039290D01*
G01X3235887Y-20280292D01*
G01X3118947Y-20523132D01*
G01X3004005Y-20767792D01*
G01X2891070Y-21014253D01*
G01X2780151Y-21262495D01*
G01X2671256Y-21512499D01*
G01X2564395Y-21764247D01*
G01X2459576Y-22017720D01*
G01X2356808Y-22272897D01*
G01X2256101Y-22529761D01*
G01X2157463Y-22788293D01*
G01X2060904Y-23048472D01*
G01X1966431Y-23310281D01*
G01X1874054Y-23573699D01*
G01X1783783Y-23838709D01*
G01X1695625Y-24105291D01*
G01X1609589Y-24373426D01*
G01X1525685Y-24643095D01*
G01X1443922Y-24914279D01*
G01X1364308Y-25186959D01*
G01X1286853Y-25461116D01*
G01X1211565Y-25736730D01*
G01X1138453Y-26013784D01*
G01X1067526Y-26292257D01*
G01X0998793Y-26572131D01*
G01X0932263Y-26853386D01*
G01X0867945Y-27136004D01*
G01X0805848Y-27419966D01*
G01X0745980Y-27705252D01*
G01X0688351Y-27991843D01*
G01X0632969Y-28279722D01*
G01X0579844Y-28568867D01*
G01X0528984Y-28859261D01*
G01X0480398Y-29150884D01*
G01X0434096Y-29443718D01*
G01X0390085Y-29737743D01*
G01X0348376Y-30032939D01*
G01X0308976Y-30329290D01*
G01X0271895Y-30626774D01*
G01X0237142Y-30925373D01*
G01X0204726Y-31225069D01*
G01X0174655Y-31525841D01*
G01X0146938Y-31827672D01*
G01X0121585Y-32130541D01*
G01X0098604Y-32434430D01*
G01X0078005Y-32739320D01*
G01X0059795Y-33045192D01*
G01X0043985Y-33352027D01*
G01X0030582Y-33659805D01*
G01X0019596Y-33968508D01*
G01X0011036Y-34278117D01*
G01X0004911Y-34588612D01*
G01X0001229Y-34899975D01*
G01X-0000000Y-35212186D01*
G01X-0000000Y-35212186D01*
G01X-0000000Y-35212186D01*
G01X0000398Y-35551677D01*
G01X0004067Y-35891341D01*
G01X0010999Y-36231123D01*
G01X0021187Y-36570968D01*
G01X0034625Y-36910819D01*
G01X0051305Y-37250621D01*
G01X0071221Y-37590320D01*
G01X0094366Y-37929859D01*
G01X0120734Y-38269182D01*
G01X0150316Y-38608235D01*
G01X0183106Y-38946962D01*
G01X0219098Y-39285307D01*
G01X0258284Y-39623215D01*
G01X0300658Y-39960631D01*
G01X0346213Y-40297498D01*
G01X0394942Y-40633762D01*
G01X0446837Y-40969366D01*
G01X0501893Y-41304256D01*
G01X0560102Y-41638376D01*
G01X0621457Y-41971670D01*
G01X0685952Y-42304083D01*
G01X0753579Y-42635559D01*
G01X0824332Y-42966044D01*
G01X0898204Y-43295480D01*
G01X0975188Y-43623814D01*
G01X1055277Y-43950989D01*
G01X1138464Y-44276950D01*
G01X1224742Y-44601641D01*
G01X1314105Y-44925008D01*
G01X1406546Y-45246993D01*
G01X1502057Y-45567543D01*
G01X1600632Y-45886601D01*
G01X1702263Y-46204112D01*
G01X1806945Y-46520020D01*
G01X1914670Y-46834271D01*
G01X2025432Y-47146808D01*
G01X2139222Y-47457575D01*
G01X2256036Y-47766519D01*
G01X2375865Y-48073582D01*
G01X2498702Y-48378709D01*
G01X2624542Y-48681846D01*
G01X2753377Y-48982936D01*
G01X2885199Y-49281924D01*
G01X3020003Y-49578754D01*
G01X3157782Y-49873372D01*
G01X3298528Y-50165721D01*
G01X3442234Y-50455746D01*
G01X3588894Y-50743391D01*
G01X3738502Y-51028601D01*
G01X3891049Y-51311321D01*
G01X4046529Y-51591495D01*
G01X4204935Y-51869067D01*
G01X4366261Y-52143983D01*
G01X4530500Y-52416186D01*
G01X4697643Y-52685620D01*
G01X4867686Y-52952232D01*
G01X5040620Y-53215964D01*
G01X5216440Y-53476762D01*
G01X5395137Y-53734570D01*
G01X5576706Y-53989333D01*
G01X5761139Y-54240994D01*
G01X5948429Y-54489499D01*
G01X6138570Y-54734792D01*
G01X6331555Y-54976818D01*
G01X6527377Y-55215520D01*
G01X6726028Y-55450845D01*
G01X6927503Y-55682735D01*
G01X7131793Y-55911136D01*
G01X7338893Y-56135992D01*
G01X7548795Y-56357247D01*
G01X7761493Y-56574847D01*
G01X7976980Y-56788735D01*
G01X8195248Y-56998856D01*
G01X8416291Y-57205154D01*
G01X8640103Y-57407575D01*
G01X8866675Y-57606063D01*
G01X9096002Y-57800561D01*
G01X9328076Y-57991015D01*
G01X9562890Y-58177369D01*
G01X9800438Y-58359568D01*
G01X10040713Y-58537556D01*
G01X10283708Y-58711277D01*
G01X10529416Y-58880677D01*
G01X10777830Y-59045699D01*
G01X11028943Y-59206288D01*
G01X11282748Y-59362389D01*
G01X11539239Y-59513946D01*
G01X11798409Y-59660904D01*
G01X12060250Y-59803207D01*
G01X12324756Y-59940799D01*
G01X12591920Y-60073626D01*
G01X12861735Y-60201631D01*
G01X13134195Y-60324759D01*
G01X13409291Y-60442955D01*
G01X13687018Y-60556163D01*
G01X13967369Y-60664328D01*
G01X14250337Y-60767394D01*
G01X14535914Y-60865306D01*
G01X14824094Y-60958008D01*
G01X15114870Y-61045444D01*
G01X15114870Y-61045444D01*
G01X15114870Y-61045444D01*
G01X15135856Y-60988449D01*
G01X15156780Y-60931452D01*
G01X15177644Y-60874453D01*
G01X15198448Y-60817451D01*
G01X15219191Y-60760446D01*
G01X15239874Y-60703439D01*
G01X15260498Y-60646430D01*
G01X15281062Y-60589418D01*
G01X15301568Y-60532404D01*
G01X15322014Y-60475388D01*
G01X15342401Y-60418369D01*
G01X15362731Y-60361348D01*
G01X15383002Y-60304324D01*
G01X15403215Y-60247298D01*
G01X15423371Y-60190270D01*
G01X15443469Y-60133239D01*
G01X15463510Y-60076206D01*
G01X15483494Y-60019170D01*
G01X15503422Y-59962133D01*
G01X15523294Y-59905093D01*
G01X15543109Y-59848050D01*
G01X15562868Y-59791006D01*
G01X15582573Y-59733959D01*
G01X15602221Y-59676909D01*
G01X15621815Y-59619858D01*
G01X15641354Y-59562804D01*
G01X15660838Y-59505748D01*
G01X15680269Y-59448690D01*
G01X15699645Y-59391629D01*
G01X15718967Y-59334566D01*
G01X15738236Y-59277501D01*
G01X15757452Y-59220434D01*
G01X15776615Y-59163365D01*
G01X15795725Y-59106293D01*
G01X15814783Y-59049219D01*
G01X15833788Y-58992143D01*
G01X15852742Y-58935065D01*
G01X15871644Y-58877984D01*
G01X15890494Y-58820902D01*
G01X15909293Y-58763817D01*
G01X15928042Y-58706730D01*
G01X15946740Y-58649641D01*
G01X15965387Y-58592550D01*
G01X15983984Y-58535456D01*
G01X16002532Y-58478361D01*
G01X16021030Y-58421263D01*
G01X16039478Y-58364164D01*
G01X16057877Y-58307062D01*
G01X16076228Y-58249958D01*
G01X16094530Y-58192852D01*
G01X16094530Y-58192852D01*
G01X16094530Y-58192852D01*
G01X16107325Y-58148281D01*
G01X16123454Y-58107369D01*
G01X16145978Y-58073491D01*
G01X16177960Y-58050018D01*
G01X16222464Y-58040323D01*
G01X16282551Y-58047779D01*
G01X16332780Y-58063944D01*
G04 end of program *
M02*
