G04                                                      *
G04 Greetings!                                           *
G04 This Gerber was generated by PCBmodE, an open source *
G04 PCB design software. Get it here:                    *
G04                                                      *
G04   http://pcbmode.com                                 *
G04                                                      *
G04 Also visit                                           *
G04                                                      *
G04   http://boldport.com                                *
G04                                                      *
G04 and follow @boldport / @pcbmode for updates!         *
G04                                                      *

G04 leading zeros omitted (L); absolute data (A); 6 integer digits and 6 fractional digits *
%FSLAX66Y66*%

G04 mode (MO): millimeters (MM) *
%MOMM*%

G04 Aperture definitions *
%ADD10C,0.001X*%
%ADD11C,0.001X*%

%LPD*%
G36*
G01X33401238Y-27368887D02*
G01X33401238Y-27368887D01*
G01X33358041Y-27328397D01*
G01X33312915Y-27291282D01*
G01X33266029Y-27257540D01*
G01X33217549Y-27227173D01*
G01X33167643Y-27200180D01*
G01X33116480Y-27176561D01*
G01X33064227Y-27156316D01*
G01X33011051Y-27139446D01*
G01X32957120Y-27125949D01*
G01X32902603Y-27115827D01*
G01X32847666Y-27109079D01*
G01X32792478Y-27105704D01*
G01X32737205Y-27105704D01*
G01X32682017Y-27109079D01*
G01X32627080Y-27115827D01*
G01X32572563Y-27125949D01*
G01X32518632Y-27139446D01*
G01X32465456Y-27156316D01*
G01X32413203Y-27176561D01*
G01X32362040Y-27200180D01*
G01X32312134Y-27227173D01*
G01X32263654Y-27257540D01*
G01X32216768Y-27291282D01*
G01X32171642Y-27328397D01*
G01X32128445Y-27368887D01*
G01X32128445Y-27368887D01*
G01X32128445Y-27368887D01*
G01X32087956Y-27412083D01*
G01X32050840Y-27457209D01*
G01X32017099Y-27504096D01*
G01X31986732Y-27552575D01*
G01X31959739Y-27602481D01*
G01X31936120Y-27653644D01*
G01X31915875Y-27705898D01*
G01X31899005Y-27759073D01*
G01X31885508Y-27813004D01*
G01X31875386Y-27867521D01*
G01X31868637Y-27922458D01*
G01X31865263Y-27977647D01*
G01X31865263Y-28032919D01*
G01X31868637Y-28088107D01*
G01X31875386Y-28143044D01*
G01X31885508Y-28197562D01*
G01X31899005Y-28251492D01*
G01X31915875Y-28304668D01*
G01X31936120Y-28356921D01*
G01X31959739Y-28408085D01*
G01X31986732Y-28457990D01*
G01X32017099Y-28506470D01*
G01X32050840Y-28553356D01*
G01X32087956Y-28598482D01*
G01X32128445Y-28641679D01*
G01X32128445Y-28641679D01*
G01X32128445Y-28641679D01*
G01X32171642Y-28682168D01*
G01X32216768Y-28719284D01*
G01X32263654Y-28753025D01*
G01X32312134Y-28783392D01*
G01X32362040Y-28810385D01*
G01X32413203Y-28834004D01*
G01X32465456Y-28854249D01*
G01X32518632Y-28871120D01*
G01X32572563Y-28884616D01*
G01X32627080Y-28894739D01*
G01X32682017Y-28901487D01*
G01X32737205Y-28904861D01*
G01X32792478Y-28904861D01*
G01X32847666Y-28901487D01*
G01X32902603Y-28894739D01*
G01X32957120Y-28884616D01*
G01X33011051Y-28871120D01*
G01X33064227Y-28854249D01*
G01X33116480Y-28834004D01*
G01X33167643Y-28810385D01*
G01X33217549Y-28783392D01*
G01X33266029Y-28753025D01*
G01X33312915Y-28719284D01*
G01X33358041Y-28682168D01*
G01X33401238Y-28641679D01*
G01X33401238Y-28641679D01*
G01X33401238Y-28641679D01*
G01X33441727Y-28598482D01*
G01X33478843Y-28553356D01*
G01X33512584Y-28506470D01*
G01X33542951Y-28457990D01*
G01X33569944Y-28408085D01*
G01X33593563Y-28356921D01*
G01X33613808Y-28304668D01*
G01X33630678Y-28251492D01*
G01X33644175Y-28197562D01*
G01X33654297Y-28143044D01*
G01X33661046Y-28088107D01*
G01X33664420Y-28032919D01*
G01X33664420Y-27977647D01*
G01X33661046Y-27922458D01*
G01X33654297Y-27867521D01*
G01X33644175Y-27813004D01*
G01X33630678Y-27759073D01*
G01X33613808Y-27705898D01*
G01X33593563Y-27653644D01*
G01X33569944Y-27602481D01*
G01X33542951Y-27552575D01*
G01X33512584Y-27504096D01*
G01X33478843Y-27457209D01*
G01X33441727Y-27412083D01*
G01X33401238Y-27368887D01*
G01X33401238Y-27368887D01*
G37*
G36*
G01X31605186Y-26845627D02*
G01X31180922Y-27269891D01*
G01X31180922Y-27269891D01*
G01X31143737Y-27301524D01*
G01X31103058Y-27326127D01*
G01X31059758Y-27343700D01*
G01X31014711Y-27354244D01*
G01X30968790Y-27357759D01*
G01X30922870Y-27354244D01*
G01X30877823Y-27343700D01*
G01X30834523Y-27326127D01*
G01X30793844Y-27301524D01*
G01X30756658Y-27269891D01*
G01X30756658Y-27269891D01*
G01X30332394Y-26845627D01*
G01X29908130Y-26421363D01*
G01X29908130Y-26421363D01*
G01X29876498Y-26384178D01*
G01X29851895Y-26343499D01*
G01X29834321Y-26300199D01*
G01X29823777Y-26255152D01*
G01X29820262Y-26209231D01*
G01X29823777Y-26163311D01*
G01X29834321Y-26118264D01*
G01X29851895Y-26074964D01*
G01X29876498Y-26034285D01*
G01X29908130Y-25997099D01*
G01X29908130Y-25997099D01*
G01X30332394Y-25572835D01*
G01X30756658Y-25148571D01*
G01X30756658Y-25148571D01*
G01X30793844Y-25116939D01*
G01X30834523Y-25092336D01*
G01X30877823Y-25074762D01*
G01X30922870Y-25064218D01*
G01X30968790Y-25060703D01*
G01X31014711Y-25064218D01*
G01X31059758Y-25074762D01*
G01X31103058Y-25092336D01*
G01X31143737Y-25116939D01*
G01X31180922Y-25148571D01*
G01X31180922Y-25148571D01*
G01X31605186Y-25572835D01*
G01X32029450Y-25997099D01*
G01X32029450Y-25997099D01*
G01X32061083Y-26034285D01*
G01X32085686Y-26074964D01*
G01X32103259Y-26118264D01*
G01X32113803Y-26163311D01*
G01X32117318Y-26209231D01*
G01X32113803Y-26255152D01*
G01X32103259Y-26300199D01*
G01X32085686Y-26343499D01*
G01X32061083Y-26384178D01*
G01X32029450Y-26421363D01*
G01X32029450Y-26421363D01*
G01X31605186Y-26845627D01*
G37*
G36*
G01X3150224Y-36499802D02*
G01X3150224Y-36499802D01*
G01X3160275Y-36456046D01*
G01X3167544Y-36411877D01*
G01X3172015Y-36367402D01*
G01X3173674Y-36322730D01*
G01X3173674Y-36322730D01*
G01X3173674Y-36322730D01*
G01X3172072Y-36278672D01*
G01X3167733Y-36234805D01*
G01X3160673Y-36191231D01*
G01X3150908Y-36148055D01*
G01X3150908Y-36148055D01*
G01X3150908Y-36148055D01*
G01X3155876Y-36135751D01*
G01X3155876Y-36135751D01*
G01X3155876Y-36135751D01*
G01X3188730Y-36123282D01*
G01X3221562Y-36110224D01*
G01X3252440Y-36097353D01*
G01X3252440Y-36097353D01*
G01X3235665Y-36040722D01*
G01X3214567Y-35986692D01*
G01X3189383Y-35935298D01*
G01X3160353Y-35886574D01*
G01X3127713Y-35840553D01*
G01X3091702Y-35797270D01*
G01X3052557Y-35756758D01*
G01X3010516Y-35719053D01*
G01X2965817Y-35684188D01*
G01X2918698Y-35652197D01*
G01X2869397Y-35623115D01*
G01X2818151Y-35596975D01*
G01X2765199Y-35573811D01*
G01X2710778Y-35553658D01*
G01X2655126Y-35536550D01*
G01X2598481Y-35522520D01*
G01X2541080Y-35511604D01*
G01X2483163Y-35503834D01*
G01X2424965Y-35499246D01*
G01X2366726Y-35497872D01*
G01X2366726Y-35497872D01*
G01X2366726Y-35497872D01*
G01X2313536Y-35499084D01*
G01X2261137Y-35502688D01*
G01X2209610Y-35508642D01*
G01X2159038Y-35516901D01*
G01X2109502Y-35527420D01*
G01X2061082Y-35540157D01*
G01X2013862Y-35555066D01*
G01X1967921Y-35572104D01*
G01X1923343Y-35591227D01*
G01X1880207Y-35612390D01*
G01X1838596Y-35635549D01*
G01X1798590Y-35660661D01*
G01X1760272Y-35687681D01*
G01X1723724Y-35716565D01*
G01X1689025Y-35747269D01*
G01X1656258Y-35779749D01*
G01X1625505Y-35813961D01*
G01X1596846Y-35849861D01*
G01X1570364Y-35887404D01*
G01X1546139Y-35926547D01*
G01X1546139Y-35926547D01*
G01X1546139Y-35926547D01*
G01X1536210Y-35930939D01*
G01X1536210Y-35930939D01*
G01X1536210Y-35930939D01*
G01X1517375Y-35929499D01*
G01X1517375Y-35929499D01*
G01X1517375Y-35929499D01*
G01X1481751Y-35934294D01*
G01X1447301Y-35948260D01*
G01X1414610Y-35970981D01*
G01X1384264Y-36002041D01*
G01X1356848Y-36041022D01*
G01X1356848Y-36041022D01*
G01X1356848Y-36041022D01*
G01X1348834Y-36044190D01*
G01X1348834Y-36044190D01*
G01X1348834Y-36044190D01*
G01X1324506Y-36040950D01*
G01X1324506Y-36040950D01*
G01X1324506Y-36040950D01*
G01X1289952Y-36047138D01*
G01X1257895Y-36064844D01*
G01X1229082Y-36092794D01*
G01X1204259Y-36129713D01*
G01X1184174Y-36174327D01*
G01X1169571Y-36225360D01*
G01X1161198Y-36281538D01*
G01X1159443Y-36322775D01*
G01X1159443Y-36322775D01*
G01X1163066Y-36381768D01*
G01X1173435Y-36436499D01*
G01X1189804Y-36485693D01*
G01X1211427Y-36528074D01*
G01X1237557Y-36562369D01*
G01X1267448Y-36587303D01*
G01X1300352Y-36601601D01*
G01X1324506Y-36604599D01*
G01X1324506Y-36604599D01*
G01X1349634Y-36601215D01*
G01X1349634Y-36601215D01*
G01X1349634Y-36601215D01*
G01X1356690Y-36604383D01*
G01X1356690Y-36604383D01*
G01X1356690Y-36604383D01*
G01X1384126Y-36643413D01*
G01X1414496Y-36674507D01*
G01X1447215Y-36697248D01*
G01X1481695Y-36711218D01*
G01X1517348Y-36715999D01*
G01X1517348Y-36715999D01*
G01X1517348Y-36715999D01*
G01X1536932Y-36714199D01*
G01X1536932Y-36714199D01*
G01X1536932Y-36714199D01*
G01X1545824Y-36718375D01*
G01X1545824Y-36718375D01*
G01X1545824Y-36718375D01*
G01X1570036Y-36757563D01*
G01X1596508Y-36795150D01*
G01X1625161Y-36831091D01*
G01X1655912Y-36865344D01*
G01X1688679Y-36897863D01*
G01X1723382Y-36928604D01*
G01X1759937Y-36957523D01*
G01X1798265Y-36984576D01*
G01X1838283Y-37009719D01*
G01X1879910Y-37032908D01*
G01X1923063Y-37054097D01*
G01X1967662Y-37073244D01*
G01X2013625Y-37090304D01*
G01X2060870Y-37105232D01*
G01X2109316Y-37117986D01*
G01X2158880Y-37128519D01*
G01X2209482Y-37136789D01*
G01X2261040Y-37142750D01*
G01X2313472Y-37146359D01*
G01X2366697Y-37147572D01*
G01X2366697Y-37147572D01*
G01X2366697Y-37147572D01*
G01X2424936Y-37146201D01*
G01X2483133Y-37141615D01*
G01X2541051Y-37133847D01*
G01X2598451Y-37122931D01*
G01X2655096Y-37108902D01*
G01X2710748Y-37091794D01*
G01X2765169Y-37071641D01*
G01X2818122Y-37048477D01*
G01X2869367Y-37022337D01*
G01X2918669Y-36993254D01*
G01X2965788Y-36961262D01*
G01X3010486Y-36926396D01*
G01X3052527Y-36888690D01*
G01X3091672Y-36848178D01*
G01X3127684Y-36804894D01*
G01X3160323Y-36758873D01*
G01X3189354Y-36710147D01*
G01X3214537Y-36658753D01*
G01X3235635Y-36604723D01*
G01X3252411Y-36548092D01*
G01X3252411Y-36548092D01*
G01X3252411Y-36548092D01*
G01X3219181Y-36534263D01*
G01X3185927Y-36521087D01*
G01X3154607Y-36509233D01*
G01X3154607Y-36509233D01*
G01X3150215Y-36499787D01*
G01X3150215Y-36499787D01*
G37*
G36*
G01X3150224Y-32499802D02*
G01X3150224Y-32499802D01*
G01X3160275Y-32456046D01*
G01X3167544Y-32411877D01*
G01X3172015Y-32367402D01*
G01X3173674Y-32322730D01*
G01X3173674Y-32322730D01*
G01X3173674Y-32322730D01*
G01X3172072Y-32278672D01*
G01X3167733Y-32234805D01*
G01X3160673Y-32191231D01*
G01X3150908Y-32148055D01*
G01X3150908Y-32148055D01*
G01X3150908Y-32148055D01*
G01X3155876Y-32135751D01*
G01X3155876Y-32135751D01*
G01X3155876Y-32135751D01*
G01X3188730Y-32123282D01*
G01X3221562Y-32110224D01*
G01X3252440Y-32097353D01*
G01X3252440Y-32097353D01*
G01X3235665Y-32040722D01*
G01X3214567Y-31986692D01*
G01X3189383Y-31935298D01*
G01X3160353Y-31886574D01*
G01X3127713Y-31840553D01*
G01X3091702Y-31797270D01*
G01X3052557Y-31756758D01*
G01X3010516Y-31719053D01*
G01X2965817Y-31684188D01*
G01X2918698Y-31652197D01*
G01X2869397Y-31623115D01*
G01X2818151Y-31596975D01*
G01X2765199Y-31573811D01*
G01X2710778Y-31553658D01*
G01X2655126Y-31536550D01*
G01X2598481Y-31522520D01*
G01X2541080Y-31511604D01*
G01X2483163Y-31503834D01*
G01X2424965Y-31499246D01*
G01X2366726Y-31497872D01*
G01X2366726Y-31497872D01*
G01X2366726Y-31497872D01*
G01X2313536Y-31499084D01*
G01X2261137Y-31502688D01*
G01X2209610Y-31508642D01*
G01X2159038Y-31516901D01*
G01X2109502Y-31527420D01*
G01X2061082Y-31540157D01*
G01X2013862Y-31555066D01*
G01X1967921Y-31572104D01*
G01X1923343Y-31591227D01*
G01X1880207Y-31612390D01*
G01X1838596Y-31635549D01*
G01X1798590Y-31660661D01*
G01X1760272Y-31687681D01*
G01X1723724Y-31716565D01*
G01X1689025Y-31747269D01*
G01X1656258Y-31779749D01*
G01X1625505Y-31813961D01*
G01X1596846Y-31849861D01*
G01X1570364Y-31887404D01*
G01X1546139Y-31926547D01*
G01X1546139Y-31926547D01*
G01X1546139Y-31926547D01*
G01X1536210Y-31930939D01*
G01X1536210Y-31930939D01*
G01X1536210Y-31930939D01*
G01X1517375Y-31929499D01*
G01X1517375Y-31929499D01*
G01X1517375Y-31929499D01*
G01X1481751Y-31934294D01*
G01X1447301Y-31948260D01*
G01X1414610Y-31970981D01*
G01X1384264Y-32002041D01*
G01X1356848Y-32041022D01*
G01X1356848Y-32041022D01*
G01X1356848Y-32041022D01*
G01X1348834Y-32044190D01*
G01X1348834Y-32044190D01*
G01X1348834Y-32044190D01*
G01X1324506Y-32040950D01*
G01X1324506Y-32040950D01*
G01X1324506Y-32040950D01*
G01X1289952Y-32047138D01*
G01X1257895Y-32064844D01*
G01X1229082Y-32092794D01*
G01X1204259Y-32129713D01*
G01X1184174Y-32174327D01*
G01X1169571Y-32225360D01*
G01X1161198Y-32281538D01*
G01X1159443Y-32322775D01*
G01X1159443Y-32322775D01*
G01X1163066Y-32381768D01*
G01X1173435Y-32436499D01*
G01X1189804Y-32485693D01*
G01X1211427Y-32528074D01*
G01X1237557Y-32562369D01*
G01X1267448Y-32587303D01*
G01X1300352Y-32601601D01*
G01X1324506Y-32604599D01*
G01X1324506Y-32604599D01*
G01X1349634Y-32601215D01*
G01X1349634Y-32601215D01*
G01X1349634Y-32601215D01*
G01X1356690Y-32604383D01*
G01X1356690Y-32604383D01*
G01X1356690Y-32604383D01*
G01X1384126Y-32643413D01*
G01X1414496Y-32674507D01*
G01X1447215Y-32697248D01*
G01X1481695Y-32711218D01*
G01X1517348Y-32715999D01*
G01X1517348Y-32715999D01*
G01X1517348Y-32715999D01*
G01X1536932Y-32714199D01*
G01X1536932Y-32714199D01*
G01X1536932Y-32714199D01*
G01X1545824Y-32718375D01*
G01X1545824Y-32718375D01*
G01X1545824Y-32718375D01*
G01X1570036Y-32757563D01*
G01X1596508Y-32795150D01*
G01X1625161Y-32831091D01*
G01X1655912Y-32865344D01*
G01X1688679Y-32897863D01*
G01X1723382Y-32928604D01*
G01X1759937Y-32957523D01*
G01X1798265Y-32984576D01*
G01X1838283Y-33009719D01*
G01X1879910Y-33032908D01*
G01X1923063Y-33054097D01*
G01X1967662Y-33073244D01*
G01X2013625Y-33090304D01*
G01X2060870Y-33105232D01*
G01X2109316Y-33117986D01*
G01X2158880Y-33128519D01*
G01X2209482Y-33136789D01*
G01X2261040Y-33142750D01*
G01X2313472Y-33146359D01*
G01X2366697Y-33147572D01*
G01X2366697Y-33147572D01*
G01X2366697Y-33147572D01*
G01X2424936Y-33146201D01*
G01X2483133Y-33141615D01*
G01X2541051Y-33133847D01*
G01X2598451Y-33122931D01*
G01X2655096Y-33108902D01*
G01X2710748Y-33091794D01*
G01X2765169Y-33071641D01*
G01X2818122Y-33048477D01*
G01X2869367Y-33022337D01*
G01X2918669Y-32993254D01*
G01X2965788Y-32961262D01*
G01X3010486Y-32926396D01*
G01X3052527Y-32888690D01*
G01X3091672Y-32848178D01*
G01X3127684Y-32804894D01*
G01X3160323Y-32758873D01*
G01X3189354Y-32710147D01*
G01X3214537Y-32658753D01*
G01X3235635Y-32604723D01*
G01X3252411Y-32548092D01*
G01X3252411Y-32548092D01*
G01X3252411Y-32548092D01*
G01X3219181Y-32534263D01*
G01X3185927Y-32521087D01*
G01X3154607Y-32509233D01*
G01X3154607Y-32509233D01*
G01X3150215Y-32499787D01*
G01X3150215Y-32499787D01*
G37*
G36*
G01X27790491Y-17545255D02*
G01X27790491Y-17545255D01*
G01X27808717Y-17488924D01*
G01X27823069Y-17432285D01*
G01X27833618Y-17375492D01*
G01X27840436Y-17318694D01*
G01X27843594Y-17262044D01*
G01X27843164Y-17205694D01*
G01X27839216Y-17149795D01*
G01X27831823Y-17094499D01*
G01X27821056Y-17039958D01*
G01X27806986Y-16986324D01*
G01X27789685Y-16933747D01*
G01X27769224Y-16882381D01*
G01X27745675Y-16832376D01*
G01X27719109Y-16783885D01*
G01X27689598Y-16737059D01*
G01X27657212Y-16692050D01*
G01X27622025Y-16649010D01*
G01X27584106Y-16608090D01*
G01X27543528Y-16569442D01*
G01X27500361Y-16533217D01*
G01X27454678Y-16499569D01*
G01X27406550Y-16468647D01*
G01X27356048Y-16440605D01*
G01X27303244Y-16415593D01*
G01X27248209Y-16393764D01*
G01X27248209Y-16393764D01*
G01X27248209Y-16393764D01*
G01X27191878Y-16375538D01*
G01X27135239Y-16361186D01*
G01X27078446Y-16350636D01*
G01X27021648Y-16343818D01*
G01X26964998Y-16340660D01*
G01X26908648Y-16341091D01*
G01X26852749Y-16345039D01*
G01X26797453Y-16352432D01*
G01X26742912Y-16363199D01*
G01X26689278Y-16377269D01*
G01X26636701Y-16394570D01*
G01X26585335Y-16415031D01*
G01X26535331Y-16438580D01*
G01X26486839Y-16465146D01*
G01X26440013Y-16494657D01*
G01X26395004Y-16527042D01*
G01X26351964Y-16562230D01*
G01X26311044Y-16600149D01*
G01X26272396Y-16640727D01*
G01X26236171Y-16683893D01*
G01X26202523Y-16729577D01*
G01X26171601Y-16777705D01*
G01X26143559Y-16828207D01*
G01X26118547Y-16881011D01*
G01X26096718Y-16936046D01*
G01X26096718Y-16936046D01*
G01X26096718Y-16936046D01*
G01X26078492Y-16992377D01*
G01X26064140Y-17049015D01*
G01X26053590Y-17105809D01*
G01X26046772Y-17162607D01*
G01X26043614Y-17219257D01*
G01X26044045Y-17275607D01*
G01X26047993Y-17331506D01*
G01X26055386Y-17386802D01*
G01X26066153Y-17441343D01*
G01X26080223Y-17494977D01*
G01X26097524Y-17547553D01*
G01X26117985Y-17598920D01*
G01X26141534Y-17648924D01*
G01X26168100Y-17697415D01*
G01X26197611Y-17744241D01*
G01X26229996Y-17789250D01*
G01X26265184Y-17832291D01*
G01X26303103Y-17873211D01*
G01X26343681Y-17911859D01*
G01X26386848Y-17948083D01*
G01X26432531Y-17981732D01*
G01X26480659Y-18012653D01*
G01X26531161Y-18040696D01*
G01X26583965Y-18065707D01*
G01X26639000Y-18087537D01*
G01X26639000Y-18087537D01*
G01X26639000Y-18087537D01*
G01X26695331Y-18105763D01*
G01X26751969Y-18120115D01*
G01X26808763Y-18130664D01*
G01X26865561Y-18137482D01*
G01X26922211Y-18140640D01*
G01X26978561Y-18140210D01*
G01X27034460Y-18136262D01*
G01X27089756Y-18128869D01*
G01X27144297Y-18118102D01*
G01X27197931Y-18104032D01*
G01X27250507Y-18086731D01*
G01X27301874Y-18066270D01*
G01X27351878Y-18042721D01*
G01X27400369Y-18016155D01*
G01X27447195Y-17986644D01*
G01X27492204Y-17954258D01*
G01X27535245Y-17919071D01*
G01X27576165Y-17881152D01*
G01X27614813Y-17840574D01*
G01X27651037Y-17797407D01*
G01X27684686Y-17751724D01*
G01X27715607Y-17703596D01*
G01X27743650Y-17653094D01*
G01X27768661Y-17600290D01*
G01X27790491Y-17545255D01*
G01X27790491Y-17545255D01*
G37*
G36*
G01X27498661Y-15697435D02*
G01X26934071Y-15494366D01*
G01X26934071Y-15494366D01*
G01X26889610Y-15474202D01*
G01X26850020Y-15447882D01*
G01X26815673Y-15416196D01*
G01X26786941Y-15379934D01*
G01X26764197Y-15339888D01*
G01X26747812Y-15296846D01*
G01X26738158Y-15251600D01*
G01X26735609Y-15204939D01*
G01X26740535Y-15157654D01*
G01X26753310Y-15110536D01*
G01X26753310Y-15110536D01*
G01X26956379Y-14545945D01*
G01X27159449Y-13981354D01*
G01X27159449Y-13981354D01*
G01X27179613Y-13936893D01*
G01X27205933Y-13897303D01*
G01X27237619Y-13862957D01*
G01X27273881Y-13834225D01*
G01X27313927Y-13811480D01*
G01X27356969Y-13795095D01*
G01X27402215Y-13785442D01*
G01X27448876Y-13782892D01*
G01X27496160Y-13787819D01*
G01X27543279Y-13800594D01*
G01X27543279Y-13800594D01*
G01X28107870Y-14003663D01*
G01X28672461Y-14206732D01*
G01X28672461Y-14206732D01*
G01X28716921Y-14226897D01*
G01X28756511Y-14253217D01*
G01X28790858Y-14284903D01*
G01X28819590Y-14321164D01*
G01X28842335Y-14361211D01*
G01X28858720Y-14404252D01*
G01X28868373Y-14449499D01*
G01X28870922Y-14496159D01*
G01X28865996Y-14543444D01*
G01X28853221Y-14590563D01*
G01X28853221Y-14590563D01*
G01X28650152Y-15155153D01*
G01X28447082Y-15719744D01*
G01X28447082Y-15719744D01*
G01X28426918Y-15764205D01*
G01X28400598Y-15803795D01*
G01X28368912Y-15838142D01*
G01X28332651Y-15866874D01*
G01X28292604Y-15889618D01*
G01X28249562Y-15906003D01*
G01X28204316Y-15915657D01*
G01X28157656Y-15918206D01*
G01X28110371Y-15913280D01*
G01X28063252Y-15900505D01*
G01X28063252Y-15900505D01*
G01X27498661Y-15697435D01*
G37*
G36*
G01X7846074Y-27827677D02*
G01X7846074Y-27827677D01*
G01X7837684Y-27886285D01*
G01X7833164Y-27944538D01*
G01X7832417Y-28002299D01*
G01X7835349Y-28059429D01*
G01X7841862Y-28115792D01*
G01X7851861Y-28171250D01*
G01X7865248Y-28225665D01*
G01X7881929Y-28278901D01*
G01X7901807Y-28330819D01*
G01X7924785Y-28381283D01*
G01X7950768Y-28430156D01*
G01X7979658Y-28477299D01*
G01X8011361Y-28522575D01*
G01X8045780Y-28565847D01*
G01X8082818Y-28606978D01*
G01X8122380Y-28645830D01*
G01X8164369Y-28682266D01*
G01X8208689Y-28716149D01*
G01X8255244Y-28747340D01*
G01X8303937Y-28775704D01*
G01X8354673Y-28801101D01*
G01X8407356Y-28823396D01*
G01X8461888Y-28842450D01*
G01X8518174Y-28858126D01*
G01X8576118Y-28870287D01*
G01X8576118Y-28870287D01*
G01X8576118Y-28870287D01*
G01X8634726Y-28878677D01*
G01X8692980Y-28883197D01*
G01X8750740Y-28883944D01*
G01X8807870Y-28881012D01*
G01X8864233Y-28874499D01*
G01X8919691Y-28864500D01*
G01X8974106Y-28851113D01*
G01X9027342Y-28834432D01*
G01X9079261Y-28814554D01*
G01X9129725Y-28791576D01*
G01X9178597Y-28765594D01*
G01X9225740Y-28736703D01*
G01X9271016Y-28705000D01*
G01X9314289Y-28670581D01*
G01X9355420Y-28633543D01*
G01X9394272Y-28593981D01*
G01X9430708Y-28551992D01*
G01X9464590Y-28507672D01*
G01X9495782Y-28461117D01*
G01X9524145Y-28412424D01*
G01X9549543Y-28361688D01*
G01X9571837Y-28309006D01*
G01X9590891Y-28254473D01*
G01X9606567Y-28198187D01*
G01X9618728Y-28140243D01*
G01X9618728Y-28140243D01*
G01X9618728Y-28140243D01*
G01X9627119Y-28081635D01*
G01X9631639Y-28023381D01*
G01X9632385Y-27965621D01*
G01X9629453Y-27908491D01*
G01X9622940Y-27852128D01*
G01X9612942Y-27796670D01*
G01X9599554Y-27742255D01*
G01X9582873Y-27689019D01*
G01X9562996Y-27637101D01*
G01X9540017Y-27586636D01*
G01X9514035Y-27537764D01*
G01X9485144Y-27490621D01*
G01X9453441Y-27445345D01*
G01X9419022Y-27402073D01*
G01X9381984Y-27360942D01*
G01X9342422Y-27322089D01*
G01X9300433Y-27285653D01*
G01X9256113Y-27251771D01*
G01X9209558Y-27220579D01*
G01X9160865Y-27192216D01*
G01X9110129Y-27166819D01*
G01X9057447Y-27144524D01*
G01X9002914Y-27125470D01*
G01X8946628Y-27109794D01*
G01X8888685Y-27097633D01*
G01X8888685Y-27097633D01*
G01X8888685Y-27097633D01*
G01X8830076Y-27089243D01*
G01X8771823Y-27084722D01*
G01X8714062Y-27083976D01*
G01X8656932Y-27086908D01*
G01X8600569Y-27093421D01*
G01X8545111Y-27103419D01*
G01X8490696Y-27116807D01*
G01X8437460Y-27133488D01*
G01X8385542Y-27153366D01*
G01X8335078Y-27176344D01*
G01X8286205Y-27202326D01*
G01X8239062Y-27231217D01*
G01X8193786Y-27262920D01*
G01X8150514Y-27297339D01*
G01X8109383Y-27334377D01*
G01X8070531Y-27373939D01*
G01X8034095Y-27415928D01*
G01X8000212Y-27460248D01*
G01X7969021Y-27506803D01*
G01X7940657Y-27555496D01*
G01X7915260Y-27606232D01*
G01X7892965Y-27658914D01*
G01X7873911Y-27713447D01*
G01X7858235Y-27769733D01*
G01X7846074Y-27827677D01*
G01X7846074Y-27827677D01*
G37*
G36*
G01X8447618Y-29599044D02*
G01X9038502Y-29703233D01*
G01X9038502Y-29703233D01*
G01X9085743Y-29715550D01*
G01X9129229Y-29734761D01*
G01X9168460Y-29760150D01*
G01X9202935Y-29791003D01*
G01X9232153Y-29826603D01*
G01X9255613Y-29866234D01*
G01X9272814Y-29909183D01*
G01X9283254Y-29954732D01*
G01X9286433Y-30002166D01*
G01X9281850Y-30050770D01*
G01X9281850Y-30050770D01*
G01X9177661Y-30641655D01*
G01X9073473Y-31232539D01*
G01X9073473Y-31232539D01*
G01X9061156Y-31279780D01*
G01X9041945Y-31323266D01*
G01X9016555Y-31362497D01*
G01X8985703Y-31396972D01*
G01X8950103Y-31426190D01*
G01X8910471Y-31449650D01*
G01X8867523Y-31466851D01*
G01X8821974Y-31477291D01*
G01X8774540Y-31480470D01*
G01X8725936Y-31475887D01*
G01X8725936Y-31475887D01*
G01X8135051Y-31371698D01*
G01X7544166Y-31267509D01*
G01X7544166Y-31267509D01*
G01X7496926Y-31255192D01*
G01X7453440Y-31235982D01*
G01X7414209Y-31210592D01*
G01X7379733Y-31179740D01*
G01X7350515Y-31144140D01*
G01X7327056Y-31104508D01*
G01X7309855Y-31061560D01*
G01X7299415Y-31016011D01*
G01X7296235Y-30968577D01*
G01X7300819Y-30919973D01*
G01X7300819Y-30919973D01*
G01X7405007Y-30329088D01*
G01X7509196Y-29738203D01*
G01X7509196Y-29738203D01*
G01X7521513Y-29690963D01*
G01X7540724Y-29647477D01*
G01X7566114Y-29608245D01*
G01X7596966Y-29573770D01*
G01X7632566Y-29544552D01*
G01X7672198Y-29521092D01*
G01X7715146Y-29503892D01*
G01X7760695Y-29493451D01*
G01X7808129Y-29490272D01*
G01X7856733Y-29494855D01*
G01X7856733Y-29494855D01*
G01X8447618Y-29599044D01*
G37*
G36*
G01X9227239Y-45049128D02*
G01X9227239Y-45049128D01*
G01X9184042Y-45008638D01*
G01X9138916Y-44971523D01*
G01X9092030Y-44937781D01*
G01X9043550Y-44907414D01*
G01X8993644Y-44880421D01*
G01X8942481Y-44856802D01*
G01X8890228Y-44836557D01*
G01X8837052Y-44819687D01*
G01X8783121Y-44806190D01*
G01X8728604Y-44796068D01*
G01X8673667Y-44789320D01*
G01X8618479Y-44785945D01*
G01X8563206Y-44785945D01*
G01X8508018Y-44789320D01*
G01X8453081Y-44796068D01*
G01X8398564Y-44806190D01*
G01X8344633Y-44819687D01*
G01X8291457Y-44836557D01*
G01X8239204Y-44856802D01*
G01X8188041Y-44880421D01*
G01X8138135Y-44907414D01*
G01X8089655Y-44937781D01*
G01X8042769Y-44971523D01*
G01X7997643Y-45008638D01*
G01X7954446Y-45049128D01*
G01X7954446Y-45049128D01*
G01X7954446Y-45049128D01*
G01X7913957Y-45092324D01*
G01X7876841Y-45137450D01*
G01X7843100Y-45184337D01*
G01X7812733Y-45232816D01*
G01X7785740Y-45282722D01*
G01X7762121Y-45333885D01*
G01X7741876Y-45386139D01*
G01X7725006Y-45439314D01*
G01X7711509Y-45493245D01*
G01X7701387Y-45547762D01*
G01X7694638Y-45602699D01*
G01X7691264Y-45657888D01*
G01X7691264Y-45713160D01*
G01X7694638Y-45768348D01*
G01X7701387Y-45823285D01*
G01X7711509Y-45877803D01*
G01X7725006Y-45931733D01*
G01X7741876Y-45984909D01*
G01X7762121Y-46037162D01*
G01X7785740Y-46088326D01*
G01X7812733Y-46138231D01*
G01X7843100Y-46186711D01*
G01X7876841Y-46233597D01*
G01X7913957Y-46278723D01*
G01X7954446Y-46321920D01*
G01X7954446Y-46321920D01*
G01X7954446Y-46321920D01*
G01X7997643Y-46362409D01*
G01X8042769Y-46399525D01*
G01X8089655Y-46433266D01*
G01X8138135Y-46463633D01*
G01X8188041Y-46490626D01*
G01X8239204Y-46514245D01*
G01X8291457Y-46534490D01*
G01X8344633Y-46551361D01*
G01X8398564Y-46564857D01*
G01X8453081Y-46574980D01*
G01X8508018Y-46581728D01*
G01X8563206Y-46585102D01*
G01X8618479Y-46585102D01*
G01X8673667Y-46581728D01*
G01X8728604Y-46574980D01*
G01X8783121Y-46564857D01*
G01X8837052Y-46551361D01*
G01X8890228Y-46534490D01*
G01X8942481Y-46514245D01*
G01X8993644Y-46490626D01*
G01X9043550Y-46463633D01*
G01X9092030Y-46433266D01*
G01X9138916Y-46399525D01*
G01X9184042Y-46362409D01*
G01X9227239Y-46321920D01*
G01X9227239Y-46321920D01*
G01X9227239Y-46321920D01*
G01X9267728Y-46278723D01*
G01X9304844Y-46233597D01*
G01X9338585Y-46186711D01*
G01X9368952Y-46138231D01*
G01X9395945Y-46088326D01*
G01X9419564Y-46037162D01*
G01X9439809Y-45984909D01*
G01X9456679Y-45931733D01*
G01X9470176Y-45877803D01*
G01X9480298Y-45823285D01*
G01X9487047Y-45768348D01*
G01X9490421Y-45713160D01*
G01X9490421Y-45657888D01*
G01X9487047Y-45602699D01*
G01X9480298Y-45547762D01*
G01X9470176Y-45493245D01*
G01X9456679Y-45439314D01*
G01X9439809Y-45386139D01*
G01X9419564Y-45333885D01*
G01X9395945Y-45282722D01*
G01X9368952Y-45232816D01*
G01X9338585Y-45184337D01*
G01X9304844Y-45137450D01*
G01X9267728Y-45092324D01*
G01X9227239Y-45049128D01*
G01X9227239Y-45049128D01*
G37*
G36*
G01X7431187Y-44525868D02*
G01X7006923Y-44950132D01*
G01X7006923Y-44950132D01*
G01X6969738Y-44981765D01*
G01X6929059Y-45006368D01*
G01X6885759Y-45023941D01*
G01X6840712Y-45034485D01*
G01X6794791Y-45038000D01*
G01X6748871Y-45034485D01*
G01X6703824Y-45023941D01*
G01X6660524Y-45006368D01*
G01X6619845Y-44981765D01*
G01X6582659Y-44950132D01*
G01X6582659Y-44950132D01*
G01X6158395Y-44525868D01*
G01X5734131Y-44101604D01*
G01X5734131Y-44101604D01*
G01X5702499Y-44064419D01*
G01X5677896Y-44023740D01*
G01X5660322Y-43980440D01*
G01X5649778Y-43935393D01*
G01X5646263Y-43889472D01*
G01X5649778Y-43843552D01*
G01X5660322Y-43798505D01*
G01X5677896Y-43755205D01*
G01X5702499Y-43714526D01*
G01X5734131Y-43677340D01*
G01X5734131Y-43677340D01*
G01X6158395Y-43253076D01*
G01X6582659Y-42828812D01*
G01X6582659Y-42828812D01*
G01X6619845Y-42797180D01*
G01X6660524Y-42772577D01*
G01X6703824Y-42755003D01*
G01X6748871Y-42744459D01*
G01X6794791Y-42740944D01*
G01X6840712Y-42744459D01*
G01X6885759Y-42755003D01*
G01X6929059Y-42772577D01*
G01X6969738Y-42797180D01*
G01X7006923Y-42828812D01*
G01X7006923Y-42828812D01*
G01X7431187Y-43253076D01*
G01X7855451Y-43677340D01*
G01X7855451Y-43677340D01*
G01X7887084Y-43714526D01*
G01X7911687Y-43755205D01*
G01X7929260Y-43798505D01*
G01X7939804Y-43843552D01*
G01X7943319Y-43889472D01*
G01X7939804Y-43935393D01*
G01X7929260Y-43980440D01*
G01X7911687Y-44023740D01*
G01X7887084Y-44064419D01*
G01X7855451Y-44101604D01*
G01X7855451Y-44101604D01*
G01X7431187Y-44525868D01*
G37*
G36*
G01X15154631Y-19641378D02*
G01X15154631Y-19641378D01*
G01X15164166Y-19582944D01*
G01X15169825Y-19524791D01*
G01X15171701Y-19467056D01*
G01X15169888Y-19409879D01*
G01X15164479Y-19353400D01*
G01X15155567Y-19297757D01*
G01X15143247Y-19243090D01*
G01X15127611Y-19189538D01*
G01X15108753Y-19137241D01*
G01X15086766Y-19086337D01*
G01X15061745Y-19036966D01*
G01X15033782Y-18989266D01*
G01X15002971Y-18943378D01*
G01X14969406Y-18899441D01*
G01X14933179Y-18857593D01*
G01X14894385Y-18817974D01*
G01X14853117Y-18780724D01*
G01X14809468Y-18745981D01*
G01X14763533Y-18713884D01*
G01X14715404Y-18684574D01*
G01X14665174Y-18658188D01*
G01X14612938Y-18634867D01*
G01X14558789Y-18614750D01*
G01X14502821Y-18597976D01*
G01X14445126Y-18584683D01*
G01X14445126Y-18584683D01*
G01X14445126Y-18584683D01*
G01X14386692Y-18575148D01*
G01X14328539Y-18569489D01*
G01X14270804Y-18567613D01*
G01X14213627Y-18569426D01*
G01X14157148Y-18574835D01*
G01X14101505Y-18583747D01*
G01X14046838Y-18596067D01*
G01X13993286Y-18611703D01*
G01X13940989Y-18630561D01*
G01X13890085Y-18652548D01*
G01X13840714Y-18677569D01*
G01X13793014Y-18705532D01*
G01X13747126Y-18736343D01*
G01X13703189Y-18769908D01*
G01X13661341Y-18806135D01*
G01X13621722Y-18844929D01*
G01X13584472Y-18886197D01*
G01X13549729Y-18929846D01*
G01X13517632Y-18975781D01*
G01X13488322Y-19023911D01*
G01X13461936Y-19074140D01*
G01X13438616Y-19126376D01*
G01X13418498Y-19180525D01*
G01X13401724Y-19236494D01*
G01X13388431Y-19294188D01*
G01X13388431Y-19294188D01*
G01X13388431Y-19294188D01*
G01X13378896Y-19352622D01*
G01X13373237Y-19410775D01*
G01X13371361Y-19468510D01*
G01X13373174Y-19525687D01*
G01X13378583Y-19582166D01*
G01X13387495Y-19637809D01*
G01X13399815Y-19692476D01*
G01X13415451Y-19746028D01*
G01X13434309Y-19798325D01*
G01X13456296Y-19849229D01*
G01X13481317Y-19898600D01*
G01X13509280Y-19946300D01*
G01X13540091Y-19992188D01*
G01X13573656Y-20036125D01*
G01X13609883Y-20077973D01*
G01X13648677Y-20117592D01*
G01X13689945Y-20154842D01*
G01X13733594Y-20189585D01*
G01X13779529Y-20221682D01*
G01X13827659Y-20250992D01*
G01X13877888Y-20277378D01*
G01X13930124Y-20300699D01*
G01X13984273Y-20320816D01*
G01X14040242Y-20337590D01*
G01X14097936Y-20350883D01*
G01X14097936Y-20350883D01*
G01X14097936Y-20350883D01*
G01X14156370Y-20360418D01*
G01X14214523Y-20366077D01*
G01X14272258Y-20367953D01*
G01X14329435Y-20366140D01*
G01X14385914Y-20360731D01*
G01X14441557Y-20351819D01*
G01X14496224Y-20339499D01*
G01X14549776Y-20323863D01*
G01X14602073Y-20305005D01*
G01X14652977Y-20283018D01*
G01X14702348Y-20257997D01*
G01X14750048Y-20230034D01*
G01X14795936Y-20199223D01*
G01X14839873Y-20165658D01*
G01X14881721Y-20129431D01*
G01X14921340Y-20090637D01*
G01X14958590Y-20049369D01*
G01X14993333Y-20005720D01*
G01X15025430Y-19959785D01*
G01X15054740Y-19911655D01*
G01X15081126Y-19861426D01*
G01X15104447Y-19809190D01*
G01X15124564Y-19755041D01*
G01X15141338Y-19699072D01*
G01X15154631Y-19641378D01*
G01X15154631Y-19641378D01*
G37*
G36*
G01X14587858Y-17858579D02*
G01X13999125Y-17742850D01*
G01X13999125Y-17742850D01*
G01X13952135Y-17729611D01*
G01X13909033Y-17709553D01*
G01X13870306Y-17683401D01*
G01X13836441Y-17651880D01*
G01X13807925Y-17615715D01*
G01X13785245Y-17575632D01*
G01X13768888Y-17532355D01*
G01X13759341Y-17486611D01*
G01X13757090Y-17439123D01*
G01X13762624Y-17390618D01*
G01X13762624Y-17390618D01*
G01X13878353Y-16801885D01*
G01X13994083Y-16213152D01*
G01X13994083Y-16213152D01*
G01X14007322Y-16166162D01*
G01X14027380Y-16123060D01*
G01X14053532Y-16084333D01*
G01X14085053Y-16050468D01*
G01X14121218Y-16021952D01*
G01X14161301Y-15999272D01*
G01X14204578Y-15982915D01*
G01X14250322Y-15973368D01*
G01X14297810Y-15971117D01*
G01X14346315Y-15976650D01*
G01X14346315Y-15976650D01*
G01X14935048Y-16092380D01*
G01X15523781Y-16208110D01*
G01X15523781Y-16208110D01*
G01X15570771Y-16221349D01*
G01X15613873Y-16241407D01*
G01X15652600Y-16267559D01*
G01X15686465Y-16299080D01*
G01X15714981Y-16335245D01*
G01X15737661Y-16375328D01*
G01X15754018Y-16418604D01*
G01X15763565Y-16464349D01*
G01X15765816Y-16511836D01*
G01X15760282Y-16560341D01*
G01X15760282Y-16560341D01*
G01X15644553Y-17149074D01*
G01X15528823Y-17737807D01*
G01X15528823Y-17737807D01*
G01X15515584Y-17784798D01*
G01X15495526Y-17827900D01*
G01X15469374Y-17866627D01*
G01X15437853Y-17900492D01*
G01X15401688Y-17929008D01*
G01X15361605Y-17951688D01*
G01X15318328Y-17968045D01*
G01X15272584Y-17977592D01*
G01X15225096Y-17979842D01*
G01X15176591Y-17974309D01*
G01X15176591Y-17974309D01*
G01X14587858Y-17858579D01*
G37*
G36*
G01X10047631Y-54182907D02*
G01X10047631Y-54182907D01*
G01X10027204Y-54142927D01*
G01X10004381Y-54104420D01*
G01X9979218Y-54067476D01*
G01X9951775Y-54032188D01*
G01X9951775Y-54032188D01*
G01X9951775Y-54032188D01*
G01X9922228Y-53999468D01*
G01X9890706Y-53968653D01*
G01X9857290Y-53939811D01*
G01X9822056Y-53913014D01*
G01X9822056Y-53913014D01*
G01X9822056Y-53913014D01*
G01X9817952Y-53900394D01*
G01X9817952Y-53900394D01*
G01X9817952Y-53900394D01*
G01X9835105Y-53869724D01*
G01X9851863Y-53838618D01*
G01X9867243Y-53808910D01*
G01X9867243Y-53808910D01*
G01X9817991Y-53776311D01*
G01X9767099Y-53748483D01*
G01X9714772Y-53725301D01*
G01X9661214Y-53706636D01*
G01X9606629Y-53692362D01*
G01X9551221Y-53682353D01*
G01X9495194Y-53676482D01*
G01X9438752Y-53674621D01*
G01X9382100Y-53676645D01*
G01X9325442Y-53682426D01*
G01X9268981Y-53691838D01*
G01X9212922Y-53704753D01*
G01X9157469Y-53721046D01*
G01X9102826Y-53740589D01*
G01X9049197Y-53763256D01*
G01X8996786Y-53788919D01*
G01X8945798Y-53817453D01*
G01X8896436Y-53848730D01*
G01X8848905Y-53882624D01*
G01X8803409Y-53919007D01*
G01X8803409Y-53919007D01*
G01X8803409Y-53919007D01*
G01X8763441Y-53954125D01*
G01X8725618Y-53990568D01*
G01X8689973Y-54028249D01*
G01X8656541Y-54067083D01*
G01X8625356Y-54106983D01*
G01X8596452Y-54147863D01*
G01X8569862Y-54189637D01*
G01X8545621Y-54232219D01*
G01X8523764Y-54275522D01*
G01X8504323Y-54319461D01*
G01X8487334Y-54363949D01*
G01X8472830Y-54408901D01*
G01X8460844Y-54454230D01*
G01X8451413Y-54499849D01*
G01X8444568Y-54545674D01*
G01X8440345Y-54591617D01*
G01X8438778Y-54637593D01*
G01X8439900Y-54683515D01*
G01X8443745Y-54729297D01*
G01X8450349Y-54774854D01*
G01X8450349Y-54774854D01*
G01X8450349Y-54774854D01*
G01X8445566Y-54784601D01*
G01X8445566Y-54784601D01*
G01X8445566Y-54784601D01*
G01X8430212Y-54795604D01*
G01X8430212Y-54795604D01*
G01X8430212Y-54795604D01*
G01X8406005Y-54822177D01*
G01X8388592Y-54855019D01*
G01X8378154Y-54893438D01*
G01X8374872Y-54936737D01*
G01X8378927Y-54984221D01*
G01X8378927Y-54984221D01*
G01X8378927Y-54984221D01*
G01X8374825Y-54991799D01*
G01X8374825Y-54991799D01*
G01X8374825Y-54991799D01*
G01X8354105Y-55004955D01*
G01X8354105Y-55004955D01*
G01X8354105Y-55004955D01*
G01X8331613Y-55031906D01*
G01X8318437Y-55066076D01*
G01X8314331Y-55106007D01*
G01X8319047Y-55150245D01*
G01X8332337Y-55197331D01*
G01X8353954Y-55245812D01*
G01X8383651Y-55294229D01*
G01X8408813Y-55326945D01*
G01X8408813Y-55326945D01*
G01X8449508Y-55369808D01*
G01X8492632Y-55405070D01*
G01X8536793Y-55432232D01*
G01X8580599Y-55450799D01*
G01X8622660Y-55460275D01*
G01X8661585Y-55460162D01*
G01X8695982Y-55449964D01*
G01X8716411Y-55436735D01*
G01X8716411Y-55436735D01*
G01X8733485Y-55417991D01*
G01X8733485Y-55417991D01*
G01X8733485Y-55417991D01*
G01X8740927Y-55415882D01*
G01X8740927Y-55415882D01*
G01X8740927Y-55415882D01*
G01X8787032Y-55428145D01*
G01X8830284Y-55432443D01*
G01X8869966Y-55428833D01*
G01X8905358Y-55417371D01*
G01X8935744Y-55398116D01*
G01X8935744Y-55398116D01*
G01X8935744Y-55398116D01*
G01X8949589Y-55384148D01*
G01X8949589Y-55384148D01*
G01X8949589Y-55384148D01*
G01X8959085Y-55381632D01*
G01X8959085Y-55381632D01*
G01X8959085Y-55381632D01*
G01X9002821Y-55396089D01*
G01X9047261Y-55407866D01*
G01X9092313Y-55416981D01*
G01X9137887Y-55423454D01*
G01X9183891Y-55427302D01*
G01X9230234Y-55428545D01*
G01X9276827Y-55427201D01*
G01X9323577Y-55423288D01*
G01X9370394Y-55416826D01*
G01X9417187Y-55407832D01*
G01X9463865Y-55396326D01*
G01X9510337Y-55382325D01*
G01X9556513Y-55365849D01*
G01X9602300Y-55346917D01*
G01X9647609Y-55325546D01*
G01X9692349Y-55301755D01*
G01X9736428Y-55275564D01*
G01X9779755Y-55246990D01*
G01X9822241Y-55216052D01*
G01X9863793Y-55182769D01*
G01X9863793Y-55182769D01*
G01X9863793Y-55182769D01*
G01X9907525Y-55144284D01*
G01X9949159Y-55103362D01*
G01X9988533Y-55060182D01*
G01X10025488Y-55014924D01*
G01X10059863Y-54967767D01*
G01X10091498Y-54918889D01*
G01X10120233Y-54868470D01*
G01X10145907Y-54816688D01*
G01X10168361Y-54763723D01*
G01X10187434Y-54709754D01*
G01X10202965Y-54654959D01*
G01X10214795Y-54599519D01*
G01X10222763Y-54543611D01*
G01X10226709Y-54487415D01*
G01X10226473Y-54431110D01*
G01X10221894Y-54374875D01*
G01X10212813Y-54318889D01*
G01X10199069Y-54263331D01*
G01X10180501Y-54208380D01*
G01X10156950Y-54154215D01*
G01X10156950Y-54154215D01*
G01X10156950Y-54154215D01*
G01X10122606Y-54164981D01*
G01X10088663Y-54176263D01*
G01X10057051Y-54187314D01*
G01X10057051Y-54187314D01*
G01X10047614Y-54182901D01*
G01X10047614Y-54182901D01*
G37*
G36*
G01X7476480Y-51118729D02*
G01X7476480Y-51118729D01*
G01X7456054Y-51078750D01*
G01X7433230Y-51040242D01*
G01X7408068Y-51003298D01*
G01X7380624Y-50968010D01*
G01X7380624Y-50968010D01*
G01X7380624Y-50968010D01*
G01X7351077Y-50935290D01*
G01X7319556Y-50904475D01*
G01X7286139Y-50875633D01*
G01X7250906Y-50848836D01*
G01X7250906Y-50848836D01*
G01X7250906Y-50848836D01*
G01X7246802Y-50836217D01*
G01X7246802Y-50836217D01*
G01X7246802Y-50836217D01*
G01X7263955Y-50805547D01*
G01X7280712Y-50774440D01*
G01X7296093Y-50744732D01*
G01X7296093Y-50744732D01*
G01X7246841Y-50712133D01*
G01X7195949Y-50684306D01*
G01X7143622Y-50661123D01*
G01X7090064Y-50642458D01*
G01X7035478Y-50628185D01*
G01X6980070Y-50618176D01*
G01X6924043Y-50612304D01*
G01X6867602Y-50610444D01*
G01X6810950Y-50612467D01*
G01X6754291Y-50618248D01*
G01X6697830Y-50627660D01*
G01X6641771Y-50640576D01*
G01X6586318Y-50656868D01*
G01X6531675Y-50676411D01*
G01X6478046Y-50699078D01*
G01X6425636Y-50724742D01*
G01X6374647Y-50753275D01*
G01X6325286Y-50784552D01*
G01X6277755Y-50818446D01*
G01X6232258Y-50854829D01*
G01X6232258Y-50854829D01*
G01X6232258Y-50854829D01*
G01X6192290Y-50889947D01*
G01X6154467Y-50926390D01*
G01X6118823Y-50964071D01*
G01X6085391Y-51002905D01*
G01X6054206Y-51042805D01*
G01X6025301Y-51083685D01*
G01X5998712Y-51125459D01*
G01X5974471Y-51168041D01*
G01X5952613Y-51211344D01*
G01X5933173Y-51255283D01*
G01X5916183Y-51299772D01*
G01X5901679Y-51344723D01*
G01X5889694Y-51390052D01*
G01X5880262Y-51435672D01*
G01X5873418Y-51481496D01*
G01X5869195Y-51527439D01*
G01X5867627Y-51573415D01*
G01X5868749Y-51619337D01*
G01X5872595Y-51665120D01*
G01X5879198Y-51710676D01*
G01X5879198Y-51710676D01*
G01X5879198Y-51710676D01*
G01X5874415Y-51720423D01*
G01X5874415Y-51720423D01*
G01X5874415Y-51720423D01*
G01X5859061Y-51731427D01*
G01X5859061Y-51731427D01*
G01X5859061Y-51731427D01*
G01X5834854Y-51757999D01*
G01X5817441Y-51790842D01*
G01X5807003Y-51829260D01*
G01X5803722Y-51872559D01*
G01X5807776Y-51920044D01*
G01X5807776Y-51920044D01*
G01X5807776Y-51920044D01*
G01X5803674Y-51927621D01*
G01X5803674Y-51927621D01*
G01X5803674Y-51927621D01*
G01X5782955Y-51940778D01*
G01X5782955Y-51940778D01*
G01X5782955Y-51940778D01*
G01X5760462Y-51967728D01*
G01X5747287Y-52001898D01*
G01X5743181Y-52041829D01*
G01X5747896Y-52086067D01*
G01X5761187Y-52133154D01*
G01X5782804Y-52181634D01*
G01X5812501Y-52230051D01*
G01X5837663Y-52262768D01*
G01X5837663Y-52262768D01*
G01X5878358Y-52305631D01*
G01X5921482Y-52340892D01*
G01X5965642Y-52368054D01*
G01X6009449Y-52386621D01*
G01X6051510Y-52396097D01*
G01X6090435Y-52395984D01*
G01X6124831Y-52385786D01*
G01X6145261Y-52372557D01*
G01X6145261Y-52372557D01*
G01X6162335Y-52353813D01*
G01X6162335Y-52353813D01*
G01X6162335Y-52353813D01*
G01X6169776Y-52351704D01*
G01X6169776Y-52351704D01*
G01X6169776Y-52351704D01*
G01X6215882Y-52363968D01*
G01X6259134Y-52368265D01*
G01X6298815Y-52364655D01*
G01X6334208Y-52353193D01*
G01X6364593Y-52333938D01*
G01X6364593Y-52333938D01*
G01X6364593Y-52333938D01*
G01X6378438Y-52319971D01*
G01X6378438Y-52319971D01*
G01X6378438Y-52319971D01*
G01X6387934Y-52317454D01*
G01X6387934Y-52317454D01*
G01X6387934Y-52317454D01*
G01X6431671Y-52331911D01*
G01X6476111Y-52343688D01*
G01X6521163Y-52352803D01*
G01X6566736Y-52359276D01*
G01X6612740Y-52363124D01*
G01X6659084Y-52364367D01*
G01X6705676Y-52363023D01*
G01X6752427Y-52359110D01*
G01X6799244Y-52352648D01*
G01X6846037Y-52343654D01*
G01X6892715Y-52332148D01*
G01X6939187Y-52318147D01*
G01X6985362Y-52301672D01*
G01X7031150Y-52282739D01*
G01X7076459Y-52261368D01*
G01X7121198Y-52237578D01*
G01X7165277Y-52211386D01*
G01X7208605Y-52182812D01*
G01X7251090Y-52151875D01*
G01X7292642Y-52118592D01*
G01X7292642Y-52118592D01*
G01X7292642Y-52118592D01*
G01X7336375Y-52080106D01*
G01X7378008Y-52039184D01*
G01X7417383Y-51996005D01*
G01X7454337Y-51950747D01*
G01X7488713Y-51903589D01*
G01X7520348Y-51854711D01*
G01X7549082Y-51804292D01*
G01X7574757Y-51752510D01*
G01X7597210Y-51699545D01*
G01X7616283Y-51645576D01*
G01X7631814Y-51590782D01*
G01X7643644Y-51535341D01*
G01X7651613Y-51479433D01*
G01X7655559Y-51423237D01*
G01X7655323Y-51366932D01*
G01X7650744Y-51310697D01*
G01X7641663Y-51254711D01*
G01X7627918Y-51199153D01*
G01X7609351Y-51144202D01*
G01X7585800Y-51090037D01*
G01X7585800Y-51090037D01*
G01X7585800Y-51090037D01*
G01X7551456Y-51100803D01*
G01X7517513Y-51112085D01*
G01X7485900Y-51123136D01*
G01X7485900Y-51123136D01*
G01X7476464Y-51118723D01*
G01X7476464Y-51118723D01*
G37*
G36*
G01X33571091Y-45678401D02*
G01X33571091Y-45678401D01*
G01X33611581Y-45635204D01*
G01X33648696Y-45590078D01*
G01X33682438Y-45543192D01*
G01X33712805Y-45494712D01*
G01X33739798Y-45444806D01*
G01X33763417Y-45393643D01*
G01X33783662Y-45341390D01*
G01X33800532Y-45288214D01*
G01X33814029Y-45234283D01*
G01X33824151Y-45179766D01*
G01X33830899Y-45124829D01*
G01X33834274Y-45069641D01*
G01X33834274Y-45014368D01*
G01X33830899Y-44959180D01*
G01X33824151Y-44904243D01*
G01X33814029Y-44849726D01*
G01X33800532Y-44795795D01*
G01X33783662Y-44742619D01*
G01X33763417Y-44690366D01*
G01X33739798Y-44639203D01*
G01X33712805Y-44589297D01*
G01X33682438Y-44540817D01*
G01X33648696Y-44493931D01*
G01X33611581Y-44448805D01*
G01X33571091Y-44405608D01*
G01X33571091Y-44405608D01*
G01X33571091Y-44405608D01*
G01X33527895Y-44365119D01*
G01X33482769Y-44328003D01*
G01X33435882Y-44294262D01*
G01X33387403Y-44263895D01*
G01X33337497Y-44236902D01*
G01X33286334Y-44213283D01*
G01X33234080Y-44193038D01*
G01X33180905Y-44176168D01*
G01X33126974Y-44162671D01*
G01X33072457Y-44152549D01*
G01X33017520Y-44145800D01*
G01X32962331Y-44142426D01*
G01X32907059Y-44142426D01*
G01X32851871Y-44145800D01*
G01X32796934Y-44152549D01*
G01X32742416Y-44162671D01*
G01X32688486Y-44176168D01*
G01X32635310Y-44193038D01*
G01X32583057Y-44213283D01*
G01X32531893Y-44236902D01*
G01X32481988Y-44263895D01*
G01X32433508Y-44294262D01*
G01X32386622Y-44328003D01*
G01X32341496Y-44365119D01*
G01X32298299Y-44405608D01*
G01X32298299Y-44405608D01*
G01X32298299Y-44405608D01*
G01X32257810Y-44448805D01*
G01X32220694Y-44493931D01*
G01X32186953Y-44540817D01*
G01X32156586Y-44589297D01*
G01X32129593Y-44639203D01*
G01X32105974Y-44690366D01*
G01X32085729Y-44742619D01*
G01X32068858Y-44795795D01*
G01X32055362Y-44849726D01*
G01X32045239Y-44904243D01*
G01X32038491Y-44959180D01*
G01X32035117Y-45014368D01*
G01X32035117Y-45069641D01*
G01X32038491Y-45124829D01*
G01X32045239Y-45179766D01*
G01X32055362Y-45234283D01*
G01X32068858Y-45288214D01*
G01X32085729Y-45341390D01*
G01X32105974Y-45393643D01*
G01X32129593Y-45444806D01*
G01X32156586Y-45494712D01*
G01X32186953Y-45543192D01*
G01X32220694Y-45590078D01*
G01X32257810Y-45635204D01*
G01X32298299Y-45678401D01*
G01X32298299Y-45678401D01*
G01X32298299Y-45678401D01*
G01X32341496Y-45718890D01*
G01X32386622Y-45756006D01*
G01X32433508Y-45789747D01*
G01X32481988Y-45820114D01*
G01X32531893Y-45847107D01*
G01X32583057Y-45870726D01*
G01X32635310Y-45890971D01*
G01X32688486Y-45907841D01*
G01X32742416Y-45921338D01*
G01X32796934Y-45931460D01*
G01X32851871Y-45938209D01*
G01X32907059Y-45941583D01*
G01X32962331Y-45941583D01*
G01X33017520Y-45938209D01*
G01X33072457Y-45931460D01*
G01X33126974Y-45921338D01*
G01X33180905Y-45907841D01*
G01X33234080Y-45890971D01*
G01X33286334Y-45870726D01*
G01X33337497Y-45847107D01*
G01X33387403Y-45820114D01*
G01X33435882Y-45789747D01*
G01X33482769Y-45756006D01*
G01X33527895Y-45718890D01*
G01X33571091Y-45678401D01*
G01X33571091Y-45678401D01*
G37*
G36*
G01X34094351Y-43882349D02*
G01X33670087Y-43458085D01*
G01X33670087Y-43458085D01*
G01X33638454Y-43420900D01*
G01X33613851Y-43380221D01*
G01X33596278Y-43336921D01*
G01X33585734Y-43291874D01*
G01X33582219Y-43245953D01*
G01X33585734Y-43200033D01*
G01X33596278Y-43154986D01*
G01X33613851Y-43111686D01*
G01X33638454Y-43071007D01*
G01X33670087Y-43033821D01*
G01X33670087Y-43033821D01*
G01X34094351Y-42609557D01*
G01X34518615Y-42185293D01*
G01X34518615Y-42185293D01*
G01X34555800Y-42153661D01*
G01X34596479Y-42129058D01*
G01X34639779Y-42111484D01*
G01X34684826Y-42100940D01*
G01X34730747Y-42097425D01*
G01X34776667Y-42100940D01*
G01X34821714Y-42111484D01*
G01X34865014Y-42129058D01*
G01X34905693Y-42153661D01*
G01X34942879Y-42185293D01*
G01X34942879Y-42185293D01*
G01X35367143Y-42609557D01*
G01X35791407Y-43033821D01*
G01X35791407Y-43033821D01*
G01X35823039Y-43071007D01*
G01X35847642Y-43111686D01*
G01X35865216Y-43154986D01*
G01X35875760Y-43200033D01*
G01X35879275Y-43245953D01*
G01X35875760Y-43291874D01*
G01X35865216Y-43336921D01*
G01X35847642Y-43380221D01*
G01X35823039Y-43420900D01*
G01X35791407Y-43458085D01*
G01X35791407Y-43458085D01*
G01X35367143Y-43882349D01*
G01X34942879Y-44306613D01*
G01X34942879Y-44306613D01*
G01X34905693Y-44338246D01*
G01X34865014Y-44362849D01*
G01X34821714Y-44380422D01*
G01X34776667Y-44390966D01*
G01X34730747Y-44394481D01*
G01X34684826Y-44390966D01*
G01X34639779Y-44380422D01*
G01X34596479Y-44362849D01*
G01X34555800Y-44338246D01*
G01X34518615Y-44306613D01*
G01X34518615Y-44306613D01*
G01X34094351Y-43882349D01*
G37*
G36*
G01X38444326Y-32145642D02*
G01X38444326Y-32145642D01*
G01X38434275Y-32189398D01*
G01X38427006Y-32233567D01*
G01X38422535Y-32278042D01*
G01X38420876Y-32322714D01*
G01X38420876Y-32322714D01*
G01X38420876Y-32322714D01*
G01X38422478Y-32366772D01*
G01X38426817Y-32410639D01*
G01X38433877Y-32454213D01*
G01X38443642Y-32497389D01*
G01X38443642Y-32497389D01*
G01X38443642Y-32497389D01*
G01X38438674Y-32509693D01*
G01X38438674Y-32509693D01*
G01X38438674Y-32509693D01*
G01X38405820Y-32522162D01*
G01X38372988Y-32535220D01*
G01X38342110Y-32548091D01*
G01X38342110Y-32548091D01*
G01X38358885Y-32604722D01*
G01X38379983Y-32658752D01*
G01X38405167Y-32710146D01*
G01X38434197Y-32758870D01*
G01X38466837Y-32804891D01*
G01X38502848Y-32848174D01*
G01X38541993Y-32888686D01*
G01X38584034Y-32926391D01*
G01X38628733Y-32961256D01*
G01X38675852Y-32993247D01*
G01X38725153Y-33022329D01*
G01X38776399Y-33048469D01*
G01X38829351Y-33071633D01*
G01X38883772Y-33091786D01*
G01X38939424Y-33108894D01*
G01X38996069Y-33122924D01*
G01X39053470Y-33133840D01*
G01X39111387Y-33141610D01*
G01X39169585Y-33146198D01*
G01X39227824Y-33147572D01*
G01X39227824Y-33147572D01*
G01X39227824Y-33147572D01*
G01X39281014Y-33146360D01*
G01X39333413Y-33142756D01*
G01X39384940Y-33136802D01*
G01X39435512Y-33128543D01*
G01X39485048Y-33118024D01*
G01X39533468Y-33105287D01*
G01X39580688Y-33090378D01*
G01X39626629Y-33073340D01*
G01X39671207Y-33054217D01*
G01X39714343Y-33033054D01*
G01X39755954Y-33009895D01*
G01X39795960Y-32984783D01*
G01X39834278Y-32957763D01*
G01X39870826Y-32928879D01*
G01X39905525Y-32898175D01*
G01X39938292Y-32865695D01*
G01X39969045Y-32831483D01*
G01X39997704Y-32795583D01*
G01X40024186Y-32758040D01*
G01X40048411Y-32718897D01*
G01X40048411Y-32718897D01*
G01X40048411Y-32718897D01*
G01X40058340Y-32714505D01*
G01X40058340Y-32714505D01*
G01X40058340Y-32714505D01*
G01X40077175Y-32715945D01*
G01X40077175Y-32715945D01*
G01X40077175Y-32715945D01*
G01X40112799Y-32711150D01*
G01X40147249Y-32697184D01*
G01X40179940Y-32674463D01*
G01X40210286Y-32643403D01*
G01X40237702Y-32604422D01*
G01X40237702Y-32604422D01*
G01X40237702Y-32604422D01*
G01X40245716Y-32601254D01*
G01X40245716Y-32601254D01*
G01X40245716Y-32601254D01*
G01X40270044Y-32604494D01*
G01X40270044Y-32604494D01*
G01X40270044Y-32604494D01*
G01X40304598Y-32598306D01*
G01X40336655Y-32580600D01*
G01X40365468Y-32552650D01*
G01X40390291Y-32515731D01*
G01X40410376Y-32471117D01*
G01X40424979Y-32420084D01*
G01X40433352Y-32363906D01*
G01X40435107Y-32322669D01*
G01X40435107Y-32322669D01*
G01X40431484Y-32263676D01*
G01X40421115Y-32208945D01*
G01X40404746Y-32159751D01*
G01X40383123Y-32117370D01*
G01X40356993Y-32083075D01*
G01X40327102Y-32058141D01*
G01X40294198Y-32043843D01*
G01X40270044Y-32040845D01*
G01X40270044Y-32040845D01*
G01X40244916Y-32044229D01*
G01X40244916Y-32044229D01*
G01X40244916Y-32044229D01*
G01X40237860Y-32041061D01*
G01X40237860Y-32041061D01*
G01X40237860Y-32041061D01*
G01X40210424Y-32002031D01*
G01X40180054Y-31970937D01*
G01X40147335Y-31948196D01*
G01X40112855Y-31934226D01*
G01X40077202Y-31929445D01*
G01X40077202Y-31929445D01*
G01X40077202Y-31929445D01*
G01X40057618Y-31931245D01*
G01X40057618Y-31931245D01*
G01X40057618Y-31931245D01*
G01X40048726Y-31927069D01*
G01X40048726Y-31927069D01*
G01X40048726Y-31927069D01*
G01X40024514Y-31887881D01*
G01X39998042Y-31850294D01*
G01X39969389Y-31814353D01*
G01X39938638Y-31780100D01*
G01X39905871Y-31747581D01*
G01X39871168Y-31716840D01*
G01X39834613Y-31687921D01*
G01X39796285Y-31660868D01*
G01X39756267Y-31635725D01*
G01X39714640Y-31612536D01*
G01X39671487Y-31591347D01*
G01X39626888Y-31572200D01*
G01X39580925Y-31555140D01*
G01X39533680Y-31540212D01*
G01X39485234Y-31527458D01*
G01X39435670Y-31516925D01*
G01X39385068Y-31508655D01*
G01X39333510Y-31502694D01*
G01X39281078Y-31499085D01*
G01X39227853Y-31497872D01*
G01X39227853Y-31497872D01*
G01X39227853Y-31497872D01*
G01X39169614Y-31499243D01*
G01X39111417Y-31503829D01*
G01X39053499Y-31511597D01*
G01X38996099Y-31522513D01*
G01X38939454Y-31536542D01*
G01X38883802Y-31553650D01*
G01X38829381Y-31573803D01*
G01X38776428Y-31596967D01*
G01X38725183Y-31623107D01*
G01X38675881Y-31652190D01*
G01X38628762Y-31684182D01*
G01X38584064Y-31719048D01*
G01X38542023Y-31756754D01*
G01X38502878Y-31797266D01*
G01X38466866Y-31840550D01*
G01X38434227Y-31886571D01*
G01X38405196Y-31935297D01*
G01X38380013Y-31986691D01*
G01X38358915Y-32040721D01*
G01X38342139Y-32097352D01*
G01X38342139Y-32097352D01*
G01X38342139Y-32097352D01*
G01X38375369Y-32111181D01*
G01X38408623Y-32124357D01*
G01X38439943Y-32136211D01*
G01X38439943Y-32136211D01*
G01X38444335Y-32145657D01*
G01X38444335Y-32145657D01*
G37*
G36*
G01X38444326Y-36145642D02*
G01X38444326Y-36145642D01*
G01X38434275Y-36189398D01*
G01X38427006Y-36233567D01*
G01X38422535Y-36278042D01*
G01X38420876Y-36322714D01*
G01X38420876Y-36322714D01*
G01X38420876Y-36322714D01*
G01X38422478Y-36366772D01*
G01X38426817Y-36410639D01*
G01X38433877Y-36454213D01*
G01X38443642Y-36497389D01*
G01X38443642Y-36497389D01*
G01X38443642Y-36497389D01*
G01X38438674Y-36509693D01*
G01X38438674Y-36509693D01*
G01X38438674Y-36509693D01*
G01X38405820Y-36522162D01*
G01X38372988Y-36535220D01*
G01X38342110Y-36548091D01*
G01X38342110Y-36548091D01*
G01X38358885Y-36604722D01*
G01X38379983Y-36658752D01*
G01X38405167Y-36710146D01*
G01X38434197Y-36758870D01*
G01X38466837Y-36804891D01*
G01X38502848Y-36848174D01*
G01X38541993Y-36888686D01*
G01X38584034Y-36926391D01*
G01X38628733Y-36961256D01*
G01X38675852Y-36993247D01*
G01X38725153Y-37022329D01*
G01X38776399Y-37048469D01*
G01X38829351Y-37071633D01*
G01X38883772Y-37091786D01*
G01X38939424Y-37108894D01*
G01X38996069Y-37122924D01*
G01X39053470Y-37133840D01*
G01X39111387Y-37141610D01*
G01X39169585Y-37146198D01*
G01X39227824Y-37147572D01*
G01X39227824Y-37147572D01*
G01X39227824Y-37147572D01*
G01X39281014Y-37146360D01*
G01X39333413Y-37142756D01*
G01X39384940Y-37136802D01*
G01X39435512Y-37128543D01*
G01X39485048Y-37118024D01*
G01X39533468Y-37105287D01*
G01X39580688Y-37090378D01*
G01X39626629Y-37073340D01*
G01X39671207Y-37054217D01*
G01X39714343Y-37033054D01*
G01X39755954Y-37009895D01*
G01X39795960Y-36984783D01*
G01X39834278Y-36957763D01*
G01X39870826Y-36928879D01*
G01X39905525Y-36898175D01*
G01X39938292Y-36865695D01*
G01X39969045Y-36831483D01*
G01X39997704Y-36795583D01*
G01X40024186Y-36758040D01*
G01X40048411Y-36718897D01*
G01X40048411Y-36718897D01*
G01X40048411Y-36718897D01*
G01X40058340Y-36714505D01*
G01X40058340Y-36714505D01*
G01X40058340Y-36714505D01*
G01X40077175Y-36715945D01*
G01X40077175Y-36715945D01*
G01X40077175Y-36715945D01*
G01X40112799Y-36711150D01*
G01X40147249Y-36697184D01*
G01X40179940Y-36674463D01*
G01X40210286Y-36643403D01*
G01X40237702Y-36604422D01*
G01X40237702Y-36604422D01*
G01X40237702Y-36604422D01*
G01X40245716Y-36601254D01*
G01X40245716Y-36601254D01*
G01X40245716Y-36601254D01*
G01X40270044Y-36604494D01*
G01X40270044Y-36604494D01*
G01X40270044Y-36604494D01*
G01X40304598Y-36598306D01*
G01X40336655Y-36580600D01*
G01X40365468Y-36552650D01*
G01X40390291Y-36515731D01*
G01X40410376Y-36471117D01*
G01X40424979Y-36420084D01*
G01X40433352Y-36363906D01*
G01X40435107Y-36322669D01*
G01X40435107Y-36322669D01*
G01X40431484Y-36263676D01*
G01X40421115Y-36208945D01*
G01X40404746Y-36159751D01*
G01X40383123Y-36117370D01*
G01X40356993Y-36083075D01*
G01X40327102Y-36058141D01*
G01X40294198Y-36043843D01*
G01X40270044Y-36040845D01*
G01X40270044Y-36040845D01*
G01X40244916Y-36044229D01*
G01X40244916Y-36044229D01*
G01X40244916Y-36044229D01*
G01X40237860Y-36041061D01*
G01X40237860Y-36041061D01*
G01X40237860Y-36041061D01*
G01X40210424Y-36002031D01*
G01X40180054Y-35970937D01*
G01X40147335Y-35948196D01*
G01X40112855Y-35934226D01*
G01X40077202Y-35929445D01*
G01X40077202Y-35929445D01*
G01X40077202Y-35929445D01*
G01X40057618Y-35931245D01*
G01X40057618Y-35931245D01*
G01X40057618Y-35931245D01*
G01X40048726Y-35927069D01*
G01X40048726Y-35927069D01*
G01X40048726Y-35927069D01*
G01X40024514Y-35887881D01*
G01X39998042Y-35850294D01*
G01X39969389Y-35814353D01*
G01X39938638Y-35780100D01*
G01X39905871Y-35747581D01*
G01X39871168Y-35716840D01*
G01X39834613Y-35687921D01*
G01X39796285Y-35660868D01*
G01X39756267Y-35635725D01*
G01X39714640Y-35612536D01*
G01X39671487Y-35591347D01*
G01X39626888Y-35572200D01*
G01X39580925Y-35555140D01*
G01X39533680Y-35540212D01*
G01X39485234Y-35527458D01*
G01X39435670Y-35516925D01*
G01X39385068Y-35508655D01*
G01X39333510Y-35502694D01*
G01X39281078Y-35499085D01*
G01X39227853Y-35497872D01*
G01X39227853Y-35497872D01*
G01X39227853Y-35497872D01*
G01X39169614Y-35499243D01*
G01X39111417Y-35503829D01*
G01X39053499Y-35511597D01*
G01X38996099Y-35522513D01*
G01X38939454Y-35536542D01*
G01X38883802Y-35553650D01*
G01X38829381Y-35573803D01*
G01X38776428Y-35596967D01*
G01X38725183Y-35623107D01*
G01X38675881Y-35652190D01*
G01X38628762Y-35684182D01*
G01X38584064Y-35719048D01*
G01X38542023Y-35756754D01*
G01X38502878Y-35797266D01*
G01X38466866Y-35840550D01*
G01X38434227Y-35886571D01*
G01X38405196Y-35935297D01*
G01X38380013Y-35986691D01*
G01X38358915Y-36040721D01*
G01X38342139Y-36097352D01*
G01X38342139Y-36097352D01*
G01X38342139Y-36097352D01*
G01X38375369Y-36111181D01*
G01X38408623Y-36124357D01*
G01X38439943Y-36136211D01*
G01X38439943Y-36136211D01*
G01X38444335Y-36145657D01*
G01X38444335Y-36145657D01*
G37*
G36*
G01X6402842Y-21366362D02*
G01X6402842Y-21366362D01*
G01X6432258Y-21332447D01*
G01X6459412Y-21296860D01*
G01X6484240Y-21259690D01*
G01X6506678Y-21221026D01*
G01X6506678Y-21221026D01*
G01X6506678Y-21221026D01*
G01X6525947Y-21181373D01*
G01X6542710Y-21140604D01*
G01X6556933Y-21098816D01*
G01X6568581Y-21056110D01*
G01X6568581Y-21056110D01*
G01X6568581Y-21056110D01*
G01X6578744Y-21047578D01*
G01X6578744Y-21047578D01*
G01X6578744Y-21047578D01*
G01X6613606Y-21051992D01*
G01X6648725Y-21055877D01*
G01X6682032Y-21059009D01*
G01X6682032Y-21059009D01*
G01X6693807Y-21001131D01*
G01X6700543Y-20943520D01*
G01X6702436Y-20886319D01*
G01X6699678Y-20829669D01*
G01X6692465Y-20773712D01*
G01X6680989Y-20718589D01*
G01X6665445Y-20664442D01*
G01X6646026Y-20611413D01*
G01X6622928Y-20559644D01*
G01X6596343Y-20509277D01*
G01X6566466Y-20460453D01*
G01X6533491Y-20413315D01*
G01X6497611Y-20368003D01*
G01X6459022Y-20324659D01*
G01X6417916Y-20283427D01*
G01X6374487Y-20244446D01*
G01X6328931Y-20207860D01*
G01X6281440Y-20173809D01*
G01X6232209Y-20142435D01*
G01X6181432Y-20113881D01*
G01X6181432Y-20113881D01*
G01X6181432Y-20113881D01*
G01X6133899Y-20089979D01*
G01X6085941Y-20068562D01*
G01X6037651Y-20049629D01*
G01X5989121Y-20033178D01*
G01X5940444Y-20019211D01*
G01X5891713Y-20007725D01*
G01X5843020Y-19998720D01*
G01X5794458Y-19992196D01*
G01X5746120Y-19988152D01*
G01X5698098Y-19986587D01*
G01X5650485Y-19987500D01*
G01X5603373Y-19990891D01*
G01X5556855Y-19996759D01*
G01X5511024Y-20005104D01*
G01X5465972Y-20015924D01*
G01X5421793Y-20029219D01*
G01X5378578Y-20044988D01*
G01X5336420Y-20063231D01*
G01X5295411Y-20083947D01*
G01X5255646Y-20107136D01*
G01X5255646Y-20107136D01*
G01X5255646Y-20107136D01*
G01X5244817Y-20106352D01*
G01X5244817Y-20106352D01*
G01X5244817Y-20106352D01*
G01X5228863Y-20096238D01*
G01X5228863Y-20096238D01*
G01X5228863Y-20096238D01*
G01X5195157Y-20083748D01*
G01X5158183Y-20079906D01*
G01X5118652Y-20084620D01*
G01X5077277Y-20097797D01*
G01X5034769Y-20119345D01*
G01X5034769Y-20119345D01*
G01X5034769Y-20119345D01*
G01X5026206Y-20118380D01*
G01X5026206Y-20118380D01*
G01X5026206Y-20118380D01*
G01X5006246Y-20104098D01*
G01X5006246Y-20104098D01*
G01X5006246Y-20104098D01*
G01X4972832Y-20093339D01*
G01X4936215Y-20093923D01*
G01X4897653Y-20105075D01*
G01X4858403Y-20126019D01*
G01X4819724Y-20155980D01*
G01X4782872Y-20194184D01*
G01X4749105Y-20239856D01*
G01X4728196Y-20275442D01*
G01X4728196Y-20275442D01*
G01X4703699Y-20329231D01*
G01X4687160Y-20382423D01*
G01X4678518Y-20433543D01*
G01X4677713Y-20481115D01*
G01X4684684Y-20523663D01*
G01X4699370Y-20559711D01*
G01X4721710Y-20587783D01*
G01X4741629Y-20601770D01*
G01X4741629Y-20601770D01*
G01X4765404Y-20610579D01*
G01X4765404Y-20610579D01*
G01X4765404Y-20610579D01*
G01X4770147Y-20616688D01*
G01X4770147Y-20616688D01*
G01X4770147Y-20616688D01*
G01X4776048Y-20664030D01*
G01X4788266Y-20705743D01*
G01X4806479Y-20741183D01*
G01X4830364Y-20769704D01*
G01X4859600Y-20790664D01*
G01X4859600Y-20790664D01*
G01X4859600Y-20790664D01*
G01X4877737Y-20798269D01*
G01X4877737Y-20798269D01*
G01X4877737Y-20798269D01*
G01X4883627Y-20806131D01*
G01X4883627Y-20806131D01*
G01X4883627Y-20806131D01*
G01X4886607Y-20852098D01*
G01X4892335Y-20897713D01*
G01X4900760Y-20942900D01*
G01X4911831Y-20987580D01*
G01X4925496Y-21031675D01*
G01X4941704Y-21075110D01*
G01X4960404Y-21117806D01*
G01X4981545Y-21159687D01*
G01X5005075Y-21200674D01*
G01X5030943Y-21240690D01*
G01X5059097Y-21279659D01*
G01X5089487Y-21317503D01*
G01X5122061Y-21354144D01*
G01X5156767Y-21389505D01*
G01X5193555Y-21423509D01*
G01X5232373Y-21456079D01*
G01X5273169Y-21487137D01*
G01X5315893Y-21516605D01*
G01X5360494Y-21544408D01*
G01X5406919Y-21570466D01*
G01X5406919Y-21570466D01*
G01X5406919Y-21570466D01*
G01X5458984Y-21596597D01*
G01X5512523Y-21619869D01*
G01X5567308Y-21640201D01*
G01X5623114Y-21657511D01*
G01X5679715Y-21671718D01*
G01X5736884Y-21682739D01*
G01X5794396Y-21690494D01*
G01X5852025Y-21694902D01*
G01X5909545Y-21695879D01*
G01X5966729Y-21693346D01*
G01X6023352Y-21687220D01*
G01X6079187Y-21677420D01*
G01X6134009Y-21663864D01*
G01X6187591Y-21646472D01*
G01X6239708Y-21625161D01*
G01X6290133Y-21599850D01*
G01X6338640Y-21570457D01*
G01X6385004Y-21536901D01*
G01X6428998Y-21499100D01*
G01X6470397Y-21456973D01*
G01X6470397Y-21456973D01*
G01X6470397Y-21456973D01*
G01X6447549Y-21429163D01*
G01X6424373Y-21401918D01*
G01X6402284Y-21376748D01*
G01X6402284Y-21376748D01*
G01X6402841Y-21366345D01*
G01X6402841Y-21366345D01*
G37*
G36*
G01X8280728Y-17834572D02*
G01X8280728Y-17834572D01*
G01X8310145Y-17800657D01*
G01X8337299Y-17765070D01*
G01X8362126Y-17727900D01*
G01X8384564Y-17689236D01*
G01X8384564Y-17689236D01*
G01X8384564Y-17689236D01*
G01X8403833Y-17649583D01*
G01X8420597Y-17608813D01*
G01X8434820Y-17567026D01*
G01X8446467Y-17524319D01*
G01X8446467Y-17524319D01*
G01X8446467Y-17524319D01*
G01X8456630Y-17515787D01*
G01X8456630Y-17515787D01*
G01X8456630Y-17515787D01*
G01X8491492Y-17520202D01*
G01X8526611Y-17524086D01*
G01X8559918Y-17527218D01*
G01X8559918Y-17527218D01*
G01X8571693Y-17469340D01*
G01X8578430Y-17411730D01*
G01X8580322Y-17354529D01*
G01X8577565Y-17297879D01*
G01X8570351Y-17241921D01*
G01X8558875Y-17186798D01*
G01X8543331Y-17132652D01*
G01X8523912Y-17079623D01*
G01X8500814Y-17027854D01*
G01X8474229Y-16977487D01*
G01X8444352Y-16928663D01*
G01X8411377Y-16881524D01*
G01X8375497Y-16836212D01*
G01X8336908Y-16792869D01*
G01X8295802Y-16751636D01*
G01X8252374Y-16712656D01*
G01X8206817Y-16676069D01*
G01X8159326Y-16642018D01*
G01X8110096Y-16610645D01*
G01X8059318Y-16582091D01*
G01X8059318Y-16582091D01*
G01X8059318Y-16582091D01*
G01X8011785Y-16558189D01*
G01X7963827Y-16536772D01*
G01X7915537Y-16517838D01*
G01X7867007Y-16501388D01*
G01X7818330Y-16487420D01*
G01X7769599Y-16475935D01*
G01X7720906Y-16466930D01*
G01X7672345Y-16460406D01*
G01X7624006Y-16456362D01*
G01X7575984Y-16454797D01*
G01X7528371Y-16455710D01*
G01X7481259Y-16459101D01*
G01X7434741Y-16464969D01*
G01X7388910Y-16473313D01*
G01X7343859Y-16484133D01*
G01X7299679Y-16497429D01*
G01X7256464Y-16513198D01*
G01X7214306Y-16531441D01*
G01X7173298Y-16552157D01*
G01X7133532Y-16575345D01*
G01X7133532Y-16575345D01*
G01X7133532Y-16575345D01*
G01X7122703Y-16574562D01*
G01X7122703Y-16574562D01*
G01X7122703Y-16574562D01*
G01X7106749Y-16564448D01*
G01X7106749Y-16564448D01*
G01X7106749Y-16564448D01*
G01X7073044Y-16551958D01*
G01X7036069Y-16548116D01*
G01X6996538Y-16552830D01*
G01X6955163Y-16566007D01*
G01X6912655Y-16587555D01*
G01X6912655Y-16587555D01*
G01X6912655Y-16587555D01*
G01X6904092Y-16586590D01*
G01X6904092Y-16586590D01*
G01X6904092Y-16586590D01*
G01X6884132Y-16572307D01*
G01X6884132Y-16572307D01*
G01X6884132Y-16572307D01*
G01X6850718Y-16561549D01*
G01X6814101Y-16562133D01*
G01X6775539Y-16573284D01*
G01X6736289Y-16594228D01*
G01X6697610Y-16624190D01*
G01X6660758Y-16662394D01*
G01X6626991Y-16708066D01*
G01X6606082Y-16743652D01*
G01X6606082Y-16743652D01*
G01X6581585Y-16797440D01*
G01X6565046Y-16850633D01*
G01X6556404Y-16901753D01*
G01X6555599Y-16949325D01*
G01X6562570Y-16991873D01*
G01X6577256Y-17027921D01*
G01X6599597Y-17055993D01*
G01X6619515Y-17069979D01*
G01X6619515Y-17069979D01*
G01X6643291Y-17078788D01*
G01X6643291Y-17078788D01*
G01X6643291Y-17078788D01*
G01X6648033Y-17084898D01*
G01X6648033Y-17084898D01*
G01X6648033Y-17084898D01*
G01X6653935Y-17132240D01*
G01X6666152Y-17173953D01*
G01X6684365Y-17209392D01*
G01X6708250Y-17237914D01*
G01X6737486Y-17258874D01*
G01X6737486Y-17258874D01*
G01X6737486Y-17258874D01*
G01X6755623Y-17266478D01*
G01X6755623Y-17266478D01*
G01X6755623Y-17266478D01*
G01X6761513Y-17274340D01*
G01X6761513Y-17274340D01*
G01X6761513Y-17274340D01*
G01X6764493Y-17320308D01*
G01X6770221Y-17365923D01*
G01X6778646Y-17411109D01*
G01X6789717Y-17455789D01*
G01X6803382Y-17499885D01*
G01X6819591Y-17543320D01*
G01X6838291Y-17586016D01*
G01X6859431Y-17627896D01*
G01X6882961Y-17668883D01*
G01X6908829Y-17708900D01*
G01X6936983Y-17747869D01*
G01X6967373Y-17785712D01*
G01X6999947Y-17822354D01*
G01X7034653Y-17857715D01*
G01X7071441Y-17891719D01*
G01X7110259Y-17924289D01*
G01X7151055Y-17955346D01*
G01X7193780Y-17984815D01*
G01X7238380Y-18012617D01*
G01X7284805Y-18038676D01*
G01X7284805Y-18038676D01*
G01X7284805Y-18038676D01*
G01X7336870Y-18064807D01*
G01X7390409Y-18088079D01*
G01X7445194Y-18108411D01*
G01X7501000Y-18125721D01*
G01X7557601Y-18139927D01*
G01X7614770Y-18150949D01*
G01X7672283Y-18158704D01*
G01X7729912Y-18163111D01*
G01X7787431Y-18164089D01*
G01X7844615Y-18161555D01*
G01X7901238Y-18155430D01*
G01X7957073Y-18145630D01*
G01X8011895Y-18132074D01*
G01X8065477Y-18114682D01*
G01X8117594Y-18093370D01*
G01X8168019Y-18068059D01*
G01X8216526Y-18038666D01*
G01X8262890Y-18005110D01*
G01X8306884Y-17967310D01*
G01X8348283Y-17925183D01*
G01X8348283Y-17925183D01*
G01X8348283Y-17925183D01*
G01X8325435Y-17897373D01*
G01X8302259Y-17870128D01*
G01X8280171Y-17844957D01*
G01X8280171Y-17844957D01*
G01X8280727Y-17834555D01*
G01X8280727Y-17834555D01*
G37*
G36*
G01X34361886Y-50718093D02*
G01X34361886Y-50718093D01*
G01X34326061Y-50745152D01*
G01X34292101Y-50774315D01*
G01X34260088Y-50805511D01*
G01X34230102Y-50838665D01*
G01X34230102Y-50838665D01*
G01X34230102Y-50838665D01*
G01X34203010Y-50873445D01*
G01X34178136Y-50909838D01*
G01X34155536Y-50947755D01*
G01X34135264Y-50987107D01*
G01X34135264Y-50987107D01*
G01X34135264Y-50987107D01*
G01X34123548Y-50993340D01*
G01X34123548Y-50993340D01*
G01X34123548Y-50993340D01*
G01X34090366Y-50981773D01*
G01X34056822Y-50970672D01*
G01X34024894Y-50960684D01*
G01X34024894Y-50960684D01*
G01X34001343Y-51014849D01*
G01X33982776Y-51069799D01*
G01X33969032Y-51125357D01*
G01X33959951Y-51181343D01*
G01X33955373Y-51237577D01*
G01X33955137Y-51293882D01*
G01X33959084Y-51350077D01*
G01X33967053Y-51405984D01*
G01X33978883Y-51461424D01*
G01X33994415Y-51516218D01*
G01X34013488Y-51570187D01*
G01X34035942Y-51623151D01*
G01X34061617Y-51674933D01*
G01X34090352Y-51725352D01*
G01X34121986Y-51774230D01*
G01X34156361Y-51821388D01*
G01X34193315Y-51866647D01*
G01X34232689Y-51909828D01*
G01X34274321Y-51950751D01*
G01X34318052Y-51989238D01*
G01X34318052Y-51989238D01*
G01X34318052Y-51989238D01*
G01X34359577Y-52022501D01*
G01X34402034Y-52053421D01*
G01X34445332Y-52081981D01*
G01X34489382Y-52108162D01*
G01X34534091Y-52131944D01*
G01X34579369Y-52153311D01*
G01X34625125Y-52172242D01*
G01X34671269Y-52188721D01*
G01X34717711Y-52202727D01*
G01X34764358Y-52214242D01*
G01X34811121Y-52223248D01*
G01X34857908Y-52229726D01*
G01X34904629Y-52233658D01*
G01X34951194Y-52235025D01*
G01X34997510Y-52233808D01*
G01X35043489Y-52229989D01*
G01X35089038Y-52223549D01*
G01X35134068Y-52214469D01*
G01X35178487Y-52202732D01*
G01X35222205Y-52188318D01*
G01X35222205Y-52188318D01*
G01X35222205Y-52188318D01*
G01X35232634Y-52191336D01*
G01X35232634Y-52191336D01*
G01X35232634Y-52191336D01*
G01X35246137Y-52204546D01*
G01X35246137Y-52204546D01*
G01X35246137Y-52204546D01*
G01X35276509Y-52223771D01*
G01X35311876Y-52235217D01*
G01X35351524Y-52238824D01*
G01X35394735Y-52234538D01*
G01X35440794Y-52222299D01*
G01X35440794Y-52222299D01*
G01X35440794Y-52222299D01*
G01X35448969Y-52225023D01*
G01X35448969Y-52225023D01*
G01X35448969Y-52225023D01*
G01X35465523Y-52243143D01*
G01X35465523Y-52243143D01*
G01X35465523Y-52243143D01*
G01X35495970Y-52260614D01*
G01X35531908Y-52267656D01*
G01X35571946Y-52264765D01*
G01X35614693Y-52252440D01*
G01X35658757Y-52231175D01*
G01X35702746Y-52201467D01*
G01X35745271Y-52163814D01*
G01X35773121Y-52133353D01*
G01X35773121Y-52133353D01*
G01X35808267Y-52085833D01*
G01X35835504Y-52037242D01*
G01X35854585Y-51989035D01*
G01X35865263Y-51942670D01*
G01X35867291Y-51899602D01*
G01X35860421Y-51861289D01*
G01X35844405Y-51829185D01*
G01X35827829Y-51811363D01*
G01X35827829Y-51811363D01*
G01X35806405Y-51797804D01*
G01X35806405Y-51797804D01*
G01X35806405Y-51797804D01*
G01X35803036Y-51790841D01*
G01X35803036Y-51790841D01*
G01X35803036Y-51790841D01*
G01X35807107Y-51743307D01*
G01X35803829Y-51699966D01*
G01X35793382Y-51661514D01*
G01X35775949Y-51628649D01*
G01X35751710Y-51602069D01*
G01X35751710Y-51602069D01*
G01X35751710Y-51602069D01*
G01X35735551Y-51590860D01*
G01X35735551Y-51590860D01*
G01X35735551Y-51590860D01*
G01X35731423Y-51581945D01*
G01X35731423Y-51581945D01*
G01X35731423Y-51581945D01*
G01X35738066Y-51536363D01*
G01X35741947Y-51490553D01*
G01X35743101Y-51444603D01*
G01X35741561Y-51398597D01*
G01X35737363Y-51352624D01*
G01X35730539Y-51306769D01*
G01X35721125Y-51261117D01*
G01X35709153Y-51215757D01*
G01X35694659Y-51170773D01*
G01X35677677Y-51126253D01*
G01X35658240Y-51082282D01*
G01X35636382Y-51038947D01*
G01X35612138Y-50996334D01*
G01X35585543Y-50954530D01*
G01X35556629Y-50913620D01*
G01X35525431Y-50873691D01*
G01X35491983Y-50834830D01*
G01X35456319Y-50797123D01*
G01X35418474Y-50760655D01*
G01X35378481Y-50725514D01*
G01X35378481Y-50725514D01*
G01X35378481Y-50725514D01*
G01X35332986Y-50689129D01*
G01X35285456Y-50655234D01*
G01X35236096Y-50623956D01*
G01X35185108Y-50595421D01*
G01X35132698Y-50569757D01*
G01X35079069Y-50547090D01*
G01X35024426Y-50527547D01*
G01X34968973Y-50511255D01*
G01X34912913Y-50498339D01*
G01X34856452Y-50488928D01*
G01X34799793Y-50483148D01*
G01X34743141Y-50481125D01*
G01X34686698Y-50482986D01*
G01X34630671Y-50488858D01*
G01X34575262Y-50498868D01*
G01X34520677Y-50513142D01*
G01X34467118Y-50531807D01*
G01X34414791Y-50554990D01*
G01X34363899Y-50582818D01*
G01X34314646Y-50615417D01*
G01X34314646Y-50615417D01*
G01X34314646Y-50615417D01*
G01X34331213Y-50647370D01*
G01X34348217Y-50678838D01*
G01X34364590Y-50708051D01*
G01X34364590Y-50708051D01*
G01X34361883Y-50718110D01*
G01X34361883Y-50718110D01*
G37*
G36*
G01X31790735Y-53782271D02*
G01X31790735Y-53782271D01*
G01X31754910Y-53809329D01*
G01X31720951Y-53838493D01*
G01X31688937Y-53869688D01*
G01X31658951Y-53902843D01*
G01X31658951Y-53902843D01*
G01X31658951Y-53902843D01*
G01X31631859Y-53937623D01*
G01X31606986Y-53974016D01*
G01X31584385Y-54011933D01*
G01X31564113Y-54051285D01*
G01X31564113Y-54051285D01*
G01X31564113Y-54051285D01*
G01X31552398Y-54057518D01*
G01X31552398Y-54057518D01*
G01X31552398Y-54057518D01*
G01X31519215Y-54045951D01*
G01X31485672Y-54034850D01*
G01X31453744Y-54024862D01*
G01X31453744Y-54024862D01*
G01X31430193Y-54079026D01*
G01X31411626Y-54133977D01*
G01X31397881Y-54189535D01*
G01X31388801Y-54245521D01*
G01X31384222Y-54301755D01*
G01X31383987Y-54358059D01*
G01X31387934Y-54414255D01*
G01X31395902Y-54470162D01*
G01X31407733Y-54525602D01*
G01X31423265Y-54580396D01*
G01X31442338Y-54634364D01*
G01X31464792Y-54687329D01*
G01X31490466Y-54739111D01*
G01X31519201Y-54789530D01*
G01X31550836Y-54838408D01*
G01X31585211Y-54885566D01*
G01X31622165Y-54930825D01*
G01X31661538Y-54974005D01*
G01X31703170Y-55014929D01*
G01X31746901Y-55053416D01*
G01X31746901Y-55053416D01*
G01X31746901Y-55053416D01*
G01X31788426Y-55086679D01*
G01X31830884Y-55117599D01*
G01X31874182Y-55146159D01*
G01X31918231Y-55172339D01*
G01X31962940Y-55196122D01*
G01X32008218Y-55217489D01*
G01X32053975Y-55236420D01*
G01X32100119Y-55252898D01*
G01X32146560Y-55266904D01*
G01X32193207Y-55278420D01*
G01X32239970Y-55287426D01*
G01X32286757Y-55293904D01*
G01X32333479Y-55297836D01*
G01X32380043Y-55299202D01*
G01X32426360Y-55297985D01*
G01X32472338Y-55294166D01*
G01X32517888Y-55287726D01*
G01X32562918Y-55278647D01*
G01X32607337Y-55266910D01*
G01X32651054Y-55252496D01*
G01X32651054Y-55252496D01*
G01X32651054Y-55252496D01*
G01X32661484Y-55255514D01*
G01X32661484Y-55255514D01*
G01X32661484Y-55255514D01*
G01X32674987Y-55268724D01*
G01X32674987Y-55268724D01*
G01X32674987Y-55268724D01*
G01X32705358Y-55287949D01*
G01X32740726Y-55299394D01*
G01X32780373Y-55303002D01*
G01X32823584Y-55298715D01*
G01X32869643Y-55286477D01*
G01X32869643Y-55286477D01*
G01X32869643Y-55286477D01*
G01X32877818Y-55289201D01*
G01X32877818Y-55289201D01*
G01X32877818Y-55289201D01*
G01X32894373Y-55307321D01*
G01X32894373Y-55307321D01*
G01X32894373Y-55307321D01*
G01X32924820Y-55324792D01*
G01X32960758Y-55331833D01*
G01X33000796Y-55328943D01*
G01X33043542Y-55316617D01*
G01X33087606Y-55295352D01*
G01X33131596Y-55265645D01*
G01X33174121Y-55227992D01*
G01X33201971Y-55197531D01*
G01X33201971Y-55197531D01*
G01X33237116Y-55150011D01*
G01X33264353Y-55101419D01*
G01X33283435Y-55053213D01*
G01X33294113Y-55006848D01*
G01X33296141Y-54963780D01*
G01X33289270Y-54925466D01*
G01X33273254Y-54893363D01*
G01X33256679Y-54875541D01*
G01X33256679Y-54875541D01*
G01X33235255Y-54861982D01*
G01X33235255Y-54861982D01*
G01X33235255Y-54861982D01*
G01X33231886Y-54855019D01*
G01X33231886Y-54855019D01*
G01X33231886Y-54855019D01*
G01X33235957Y-54807485D01*
G01X33232678Y-54764143D01*
G01X33222232Y-54725692D01*
G01X33204799Y-54692827D01*
G01X33180559Y-54666247D01*
G01X33180559Y-54666247D01*
G01X33180559Y-54666247D01*
G01X33164400Y-54655038D01*
G01X33164400Y-54655038D01*
G01X33164400Y-54655038D01*
G01X33160273Y-54646123D01*
G01X33160273Y-54646123D01*
G01X33160273Y-54646123D01*
G01X33166915Y-54600541D01*
G01X33170796Y-54554731D01*
G01X33171950Y-54508780D01*
G01X33170411Y-54462775D01*
G01X33166212Y-54416802D01*
G01X33159389Y-54370946D01*
G01X33149974Y-54325295D01*
G01X33138003Y-54279935D01*
G01X33123509Y-54234951D01*
G01X33106526Y-54190431D01*
G01X33087089Y-54146460D01*
G01X33065232Y-54103125D01*
G01X33040988Y-54060512D01*
G01X33014392Y-54018708D01*
G01X32985478Y-53977798D01*
G01X32954280Y-53937869D01*
G01X32920832Y-53899008D01*
G01X32885169Y-53861300D01*
G01X32847323Y-53824833D01*
G01X32807331Y-53789692D01*
G01X32807331Y-53789692D01*
G01X32807331Y-53789692D01*
G01X32761836Y-53753306D01*
G01X32714306Y-53719411D01*
G01X32664945Y-53688133D01*
G01X32613958Y-53659599D01*
G01X32561547Y-53633935D01*
G01X32507919Y-53611268D01*
G01X32453276Y-53591725D01*
G01X32397822Y-53575432D01*
G01X32341763Y-53562517D01*
G01X32285302Y-53553106D01*
G01X32228643Y-53547325D01*
G01X32171990Y-53545302D01*
G01X32115548Y-53547164D01*
G01X32059521Y-53553036D01*
G01X32004112Y-53563046D01*
G01X31949526Y-53577320D01*
G01X31895968Y-53595985D01*
G01X31843640Y-53619168D01*
G01X31792748Y-53646996D01*
G01X31743496Y-53679595D01*
G01X31743496Y-53679595D01*
G01X31743496Y-53679595D01*
G01X31760062Y-53711547D01*
G01X31777067Y-53743016D01*
G01X31793440Y-53772229D01*
G01X31793440Y-53772229D01*
G01X31790732Y-53782288D01*
G01X31790732Y-53782288D01*
G37*
G36*
G01X13396096Y-8993832D02*
G01X13396096Y-8993832D01*
G01X13439852Y-9003883D01*
G01X13484022Y-9011152D01*
G01X13528496Y-9015623D01*
G01X13573169Y-9017282D01*
G01X13573169Y-9017282D01*
G01X13573169Y-9017282D01*
G01X13617226Y-9015680D01*
G01X13661094Y-9011341D01*
G01X13704667Y-9004281D01*
G01X13747843Y-8994516D01*
G01X13747843Y-8994516D01*
G01X13747843Y-8994516D01*
G01X13760148Y-8999484D01*
G01X13760148Y-8999484D01*
G01X13760148Y-8999484D01*
G01X13772617Y-9032338D01*
G01X13785674Y-9065170D01*
G01X13798545Y-9096048D01*
G01X13798545Y-9096048D01*
G01X13855176Y-9079273D01*
G01X13909206Y-9058175D01*
G01X13960600Y-9032991D01*
G01X14009325Y-9003961D01*
G01X14055346Y-8971321D01*
G01X14098629Y-8935310D01*
G01X14139140Y-8896165D01*
G01X14176845Y-8854124D01*
G01X14211710Y-8809425D01*
G01X14243701Y-8762306D01*
G01X14272783Y-8713005D01*
G01X14298924Y-8661759D01*
G01X14322087Y-8608807D01*
G01X14342240Y-8554386D01*
G01X14359349Y-8498734D01*
G01X14373378Y-8442089D01*
G01X14384295Y-8384688D01*
G01X14392064Y-8326771D01*
G01X14396653Y-8268573D01*
G01X14398026Y-8210334D01*
G01X14398026Y-8210334D01*
G01X14398026Y-8210334D01*
G01X14396815Y-8157144D01*
G01X14393210Y-8104745D01*
G01X14387256Y-8053218D01*
G01X14378998Y-8002646D01*
G01X14368478Y-7953110D01*
G01X14355742Y-7904690D01*
G01X14340832Y-7857470D01*
G01X14323794Y-7811529D01*
G01X14304672Y-7766951D01*
G01X14283509Y-7723815D01*
G01X14260349Y-7682204D01*
G01X14235237Y-7642198D01*
G01X14208217Y-7603880D01*
G01X14179333Y-7567332D01*
G01X14148629Y-7532633D01*
G01X14116149Y-7499866D01*
G01X14081937Y-7469113D01*
G01X14046038Y-7440454D01*
G01X14008495Y-7413972D01*
G01X13969352Y-7389747D01*
G01X13969352Y-7389747D01*
G01X13969352Y-7389747D01*
G01X13964960Y-7379818D01*
G01X13964960Y-7379818D01*
G01X13964960Y-7379818D01*
G01X13966400Y-7360983D01*
G01X13966400Y-7360983D01*
G01X13966400Y-7360983D01*
G01X13961604Y-7325359D01*
G01X13947638Y-7290909D01*
G01X13924917Y-7258218D01*
G01X13893858Y-7227872D01*
G01X13854876Y-7200456D01*
G01X13854876Y-7200456D01*
G01X13854876Y-7200456D01*
G01X13851708Y-7192442D01*
G01X13851708Y-7192442D01*
G01X13851708Y-7192442D01*
G01X13854948Y-7168114D01*
G01X13854948Y-7168114D01*
G01X13854948Y-7168114D01*
G01X13848760Y-7133560D01*
G01X13831054Y-7101503D01*
G01X13803104Y-7072690D01*
G01X13766185Y-7047867D01*
G01X13721571Y-7027782D01*
G01X13670538Y-7013179D01*
G01X13614360Y-7004806D01*
G01X13573123Y-7003051D01*
G01X13573123Y-7003051D01*
G01X13514130Y-7006674D01*
G01X13459399Y-7017043D01*
G01X13410206Y-7033412D01*
G01X13367824Y-7055035D01*
G01X13333529Y-7081165D01*
G01X13308595Y-7111056D01*
G01X13294297Y-7143960D01*
G01X13291300Y-7168114D01*
G01X13291300Y-7168114D01*
G01X13294684Y-7193242D01*
G01X13294684Y-7193242D01*
G01X13294684Y-7193242D01*
G01X13291516Y-7200298D01*
G01X13291516Y-7200298D01*
G01X13291516Y-7200298D01*
G01X13252485Y-7227734D01*
G01X13221391Y-7258104D01*
G01X13198650Y-7290823D01*
G01X13184681Y-7325303D01*
G01X13179900Y-7360956D01*
G01X13179900Y-7360956D01*
G01X13179900Y-7360956D01*
G01X13181700Y-7380540D01*
G01X13181700Y-7380540D01*
G01X13181700Y-7380540D01*
G01X13177524Y-7389432D01*
G01X13177524Y-7389432D01*
G01X13177524Y-7389432D01*
G01X13138336Y-7413644D01*
G01X13100749Y-7440116D01*
G01X13064807Y-7468769D01*
G01X13030554Y-7499520D01*
G01X12998036Y-7532287D01*
G01X12967294Y-7566990D01*
G01X12938375Y-7603545D01*
G01X12911322Y-7641873D01*
G01X12886179Y-7681891D01*
G01X12862991Y-7723518D01*
G01X12841801Y-7766671D01*
G01X12822654Y-7811270D01*
G01X12805594Y-7857233D01*
G01X12790666Y-7904478D01*
G01X12777913Y-7952924D01*
G01X12767379Y-8002488D01*
G01X12759110Y-8053090D01*
G01X12753148Y-8104648D01*
G01X12749539Y-8157080D01*
G01X12748326Y-8210305D01*
G01X12748326Y-8210305D01*
G01X12748326Y-8210305D01*
G01X12749697Y-8268544D01*
G01X12754283Y-8326741D01*
G01X12762052Y-8384659D01*
G01X12772967Y-8442059D01*
G01X12786996Y-8498704D01*
G01X12804104Y-8554356D01*
G01X12824257Y-8608777D01*
G01X12847421Y-8661730D01*
G01X12873561Y-8712975D01*
G01X12902645Y-8762277D01*
G01X12934636Y-8809396D01*
G01X12969502Y-8854094D01*
G01X13007208Y-8896135D01*
G01X13047720Y-8935280D01*
G01X13091004Y-8971292D01*
G01X13137026Y-9003931D01*
G01X13185751Y-9032962D01*
G01X13237146Y-9058145D01*
G01X13291176Y-9079243D01*
G01X13347807Y-9096019D01*
G01X13347807Y-9096019D01*
G01X13347807Y-9096019D01*
G01X13361635Y-9062789D01*
G01X13374811Y-9029535D01*
G01X13386665Y-8998215D01*
G01X13386665Y-8998215D01*
G01X13396111Y-8993823D01*
G01X13396111Y-8993823D01*
G37*
G36*
G01X28207979Y-9299851D02*
G01X28207979Y-9299851D01*
G01X28251735Y-9309902D01*
G01X28295904Y-9317171D01*
G01X28340379Y-9321642D01*
G01X28385051Y-9323301D01*
G01X28385051Y-9323301D01*
G01X28385051Y-9323301D01*
G01X28429109Y-9321699D01*
G01X28472976Y-9317360D01*
G01X28516550Y-9310300D01*
G01X28559726Y-9300535D01*
G01X28559726Y-9300535D01*
G01X28559726Y-9300535D01*
G01X28572030Y-9305503D01*
G01X28572030Y-9305503D01*
G01X28572030Y-9305503D01*
G01X28584499Y-9338357D01*
G01X28597557Y-9371189D01*
G01X28610428Y-9402067D01*
G01X28610428Y-9402067D01*
G01X28667059Y-9385292D01*
G01X28721089Y-9364194D01*
G01X28772483Y-9339010D01*
G01X28821207Y-9309980D01*
G01X28867228Y-9277340D01*
G01X28910511Y-9241329D01*
G01X28951023Y-9202184D01*
G01X28988728Y-9160143D01*
G01X29023593Y-9115444D01*
G01X29055584Y-9068325D01*
G01X29084666Y-9019024D01*
G01X29110806Y-8967778D01*
G01X29133970Y-8914826D01*
G01X29154123Y-8860405D01*
G01X29171231Y-8804753D01*
G01X29185261Y-8748108D01*
G01X29196177Y-8690707D01*
G01X29203947Y-8632790D01*
G01X29208535Y-8574592D01*
G01X29209909Y-8516353D01*
G01X29209909Y-8516353D01*
G01X29209909Y-8516353D01*
G01X29208697Y-8463163D01*
G01X29205093Y-8410764D01*
G01X29199139Y-8359237D01*
G01X29190880Y-8308665D01*
G01X29180361Y-8259129D01*
G01X29167624Y-8210709D01*
G01X29152715Y-8163489D01*
G01X29135677Y-8117548D01*
G01X29116554Y-8072970D01*
G01X29095391Y-8029834D01*
G01X29072232Y-7988223D01*
G01X29047120Y-7948217D01*
G01X29020100Y-7909899D01*
G01X28991216Y-7873351D01*
G01X28960512Y-7838652D01*
G01X28928032Y-7805885D01*
G01X28893820Y-7775132D01*
G01X28857920Y-7746473D01*
G01X28820377Y-7719991D01*
G01X28781234Y-7695766D01*
G01X28781234Y-7695766D01*
G01X28781234Y-7695766D01*
G01X28776842Y-7685837D01*
G01X28776842Y-7685837D01*
G01X28776842Y-7685837D01*
G01X28778282Y-7667002D01*
G01X28778282Y-7667002D01*
G01X28778282Y-7667002D01*
G01X28773487Y-7631378D01*
G01X28759521Y-7596928D01*
G01X28736800Y-7564237D01*
G01X28705740Y-7533891D01*
G01X28666759Y-7506475D01*
G01X28666759Y-7506475D01*
G01X28666759Y-7506475D01*
G01X28663591Y-7498461D01*
G01X28663591Y-7498461D01*
G01X28663591Y-7498461D01*
G01X28666831Y-7474133D01*
G01X28666831Y-7474133D01*
G01X28666831Y-7474133D01*
G01X28660643Y-7439579D01*
G01X28642937Y-7407522D01*
G01X28614987Y-7378709D01*
G01X28578068Y-7353886D01*
G01X28533454Y-7333801D01*
G01X28482421Y-7319198D01*
G01X28426243Y-7310825D01*
G01X28385006Y-7309070D01*
G01X28385006Y-7309070D01*
G01X28326013Y-7312693D01*
G01X28271282Y-7323062D01*
G01X28222088Y-7339431D01*
G01X28179707Y-7361054D01*
G01X28145412Y-7387184D01*
G01X28120478Y-7417075D01*
G01X28106180Y-7449979D01*
G01X28103182Y-7474133D01*
G01X28103182Y-7474133D01*
G01X28106566Y-7499261D01*
G01X28106566Y-7499261D01*
G01X28106566Y-7499261D01*
G01X28103398Y-7506317D01*
G01X28103398Y-7506317D01*
G01X28103398Y-7506317D01*
G01X28064368Y-7533753D01*
G01X28033274Y-7564123D01*
G01X28010533Y-7596842D01*
G01X27996563Y-7631322D01*
G01X27991782Y-7666975D01*
G01X27991782Y-7666975D01*
G01X27991782Y-7666975D01*
G01X27993582Y-7686559D01*
G01X27993582Y-7686559D01*
G01X27993582Y-7686559D01*
G01X27989406Y-7695451D01*
G01X27989406Y-7695451D01*
G01X27989406Y-7695451D01*
G01X27950218Y-7719663D01*
G01X27912631Y-7746135D01*
G01X27876690Y-7774788D01*
G01X27842437Y-7805539D01*
G01X27809918Y-7838306D01*
G01X27779177Y-7873009D01*
G01X27750258Y-7909564D01*
G01X27723205Y-7947892D01*
G01X27698062Y-7987910D01*
G01X27674873Y-8029537D01*
G01X27653684Y-8072690D01*
G01X27634537Y-8117289D01*
G01X27617477Y-8163252D01*
G01X27602549Y-8210497D01*
G01X27589795Y-8258943D01*
G01X27579262Y-8308507D01*
G01X27570992Y-8359109D01*
G01X27565031Y-8410667D01*
G01X27561422Y-8463099D01*
G01X27560209Y-8516324D01*
G01X27560209Y-8516324D01*
G01X27560209Y-8516324D01*
G01X27561580Y-8574563D01*
G01X27566166Y-8632760D01*
G01X27573934Y-8690678D01*
G01X27584850Y-8748078D01*
G01X27598879Y-8804723D01*
G01X27615987Y-8860375D01*
G01X27636140Y-8914796D01*
G01X27659304Y-8967749D01*
G01X27685444Y-9018994D01*
G01X27714527Y-9068296D01*
G01X27746519Y-9115415D01*
G01X27781385Y-9160113D01*
G01X27819091Y-9202154D01*
G01X27859603Y-9241299D01*
G01X27902887Y-9277311D01*
G01X27948908Y-9309950D01*
G01X27997634Y-9338981D01*
G01X28049028Y-9364164D01*
G01X28103058Y-9385262D01*
G01X28159689Y-9402038D01*
G01X28159689Y-9402038D01*
G01X28159689Y-9402038D01*
G01X28173518Y-9368808D01*
G01X28186694Y-9335554D01*
G01X28198548Y-9304234D01*
G01X28198548Y-9304234D01*
G01X28207994Y-9299842D01*
G01X28207994Y-9299842D01*
G37*
G36*
G01X33066721Y-17602702D02*
G01X33066721Y-17602702D01*
G01X33078389Y-17646055D01*
G01X33092707Y-17688467D01*
G01X33109639Y-17729835D01*
G01X33129146Y-17770057D01*
G01X33129146Y-17770057D01*
G01X33129146Y-17770057D01*
G01X33151245Y-17808205D01*
G01X33175670Y-17844901D01*
G01X33202360Y-17880060D01*
G01X33231252Y-17913597D01*
G01X33231252Y-17913597D01*
G01X33231252Y-17913597D01*
G01X33232642Y-17926794D01*
G01X33232642Y-17926794D01*
G01X33232642Y-17926794D01*
G01X33209488Y-17953227D01*
G01X33186629Y-17980170D01*
G01X33165408Y-18006031D01*
G01X33165408Y-18006031D01*
G01X33206806Y-18048158D01*
G01X33250800Y-18085958D01*
G01X33297164Y-18119514D01*
G01X33345671Y-18148906D01*
G01X33396096Y-18174216D01*
G01X33448212Y-18195527D01*
G01X33501794Y-18212919D01*
G01X33556615Y-18226473D01*
G01X33612450Y-18236273D01*
G01X33669072Y-18242398D01*
G01X33726256Y-18244931D01*
G01X33783776Y-18243953D01*
G01X33841404Y-18239545D01*
G01X33898917Y-18231790D01*
G01X33956086Y-18220769D01*
G01X34012687Y-18206563D01*
G01X34068494Y-18189254D01*
G01X34123280Y-18168923D01*
G01X34176819Y-18145653D01*
G01X34228886Y-18119524D01*
G01X34228886Y-18119524D01*
G01X34228886Y-18119524D01*
G01X34275282Y-18093483D01*
G01X34319855Y-18065700D01*
G01X34362555Y-18036253D01*
G01X34403331Y-18005219D01*
G01X34442130Y-17972675D01*
G01X34478902Y-17938697D01*
G01X34513596Y-17903365D01*
G01X34546160Y-17866753D01*
G01X34576543Y-17828941D01*
G01X34604694Y-17790004D01*
G01X34630562Y-17750020D01*
G01X34654096Y-17709066D01*
G01X34675243Y-17667220D01*
G01X34693954Y-17624558D01*
G01X34710176Y-17581158D01*
G01X34723859Y-17537097D01*
G01X34734951Y-17492452D01*
G01X34743401Y-17447300D01*
G01X34749158Y-17401718D01*
G01X34752171Y-17355784D01*
G01X34752171Y-17355784D01*
G01X34752171Y-17355784D01*
G01X34758876Y-17347245D01*
G01X34758876Y-17347245D01*
G01X34758876Y-17347245D01*
G01X34776182Y-17339674D01*
G01X34776182Y-17339674D01*
G01X34776182Y-17339674D01*
G01X34805385Y-17318715D01*
G01X34829246Y-17290211D01*
G01X34847443Y-17254802D01*
G01X34859656Y-17213132D01*
G01X34865562Y-17165841D01*
G01X34865562Y-17165841D01*
G01X34865562Y-17165841D01*
G01X34871150Y-17159282D01*
G01X34871150Y-17159282D01*
G01X34871150Y-17159282D01*
G01X34894152Y-17150721D01*
G01X34894152Y-17150721D01*
G01X34894152Y-17150721D01*
G01X34921757Y-17129036D01*
G01X34941748Y-17098352D01*
G01X34954067Y-17060147D01*
G01X34958652Y-17015896D01*
G01X34955442Y-16967075D01*
G01X34944377Y-16915160D01*
G01X34925395Y-16861626D01*
G01X34907585Y-16824393D01*
G01X34907585Y-16824393D01*
G01X34876691Y-16774006D01*
G01X34841841Y-16730549D01*
G01X34804293Y-16694799D01*
G01X34765304Y-16667529D01*
G01X34726132Y-16649516D01*
G01X34688034Y-16641533D01*
G01X34652269Y-16644357D01*
G01X34629536Y-16653049D01*
G01X34629536Y-16653049D01*
G01X34608938Y-16667834D01*
G01X34608938Y-16667834D01*
G01X34608938Y-16667834D01*
G01X34601220Y-16668349D01*
G01X34601220Y-16668349D01*
G01X34601220Y-16668349D01*
G01X34558672Y-16646768D01*
G01X34517258Y-16633572D01*
G01X34477693Y-16628853D01*
G01X34440691Y-16632706D01*
G01X34406967Y-16645223D01*
G01X34406967Y-16645223D01*
G01X34406967Y-16645223D01*
G01X34390520Y-16656007D01*
G01X34390520Y-16656007D01*
G01X34390520Y-16656007D01*
G01X34380708Y-16656494D01*
G01X34380708Y-16656494D01*
G01X34380708Y-16656494D01*
G01X34340933Y-16633259D01*
G01X34299913Y-16612500D01*
G01X34257741Y-16594217D01*
G01X34214509Y-16578411D01*
G01X34170310Y-16565081D01*
G01X34125238Y-16554230D01*
G01X34079384Y-16545858D01*
G01X34032842Y-16539965D01*
G01X33985704Y-16536553D01*
G01X33938064Y-16535621D01*
G01X33890014Y-16537171D01*
G01X33841646Y-16541204D01*
G01X33793054Y-16547719D01*
G01X33744331Y-16556718D01*
G01X33695569Y-16568202D01*
G01X33646861Y-16582170D01*
G01X33598299Y-16598625D01*
G01X33549978Y-16617566D01*
G01X33501989Y-16638995D01*
G01X33454425Y-16662911D01*
G01X33454425Y-16662911D01*
G01X33454425Y-16662911D01*
G01X33403646Y-16691463D01*
G01X33354414Y-16722835D01*
G01X33306923Y-16756884D01*
G01X33261366Y-16793470D01*
G01X33217937Y-16832450D01*
G01X33176831Y-16873683D01*
G01X33138242Y-16917026D01*
G01X33102362Y-16962338D01*
G01X33069387Y-17009477D01*
G01X33039511Y-17058301D01*
G01X33012926Y-17108669D01*
G01X32989828Y-17160439D01*
G01X32970410Y-17213468D01*
G01X32954866Y-17267616D01*
G01X32943391Y-17322740D01*
G01X32936178Y-17378698D01*
G01X32933420Y-17435348D01*
G01X32935313Y-17492550D01*
G01X32942050Y-17550161D01*
G01X32953825Y-17608039D01*
G01X32953825Y-17608039D01*
G01X32953825Y-17608039D01*
G01X32989657Y-17604648D01*
G01X33025204Y-17600670D01*
G01X33058423Y-17596433D01*
G01X33058423Y-17596433D01*
G01X33066736Y-17602711D01*
G01X33066736Y-17602711D01*
G37*
G36*
G01X34944607Y-21134492D02*
G01X34944607Y-21134492D01*
G01X34956275Y-21177845D01*
G01X34970593Y-21220257D01*
G01X34987525Y-21261625D01*
G01X35007032Y-21301847D01*
G01X35007032Y-21301847D01*
G01X35007032Y-21301847D01*
G01X35029131Y-21339996D01*
G01X35053556Y-21376691D01*
G01X35080246Y-21411850D01*
G01X35109138Y-21445387D01*
G01X35109138Y-21445387D01*
G01X35109138Y-21445387D01*
G01X35110529Y-21458584D01*
G01X35110529Y-21458584D01*
G01X35110529Y-21458584D01*
G01X35087374Y-21485018D01*
G01X35064515Y-21511960D01*
G01X35043294Y-21537821D01*
G01X35043294Y-21537821D01*
G01X35084692Y-21579948D01*
G01X35128687Y-21617749D01*
G01X35175050Y-21651304D01*
G01X35223557Y-21680696D01*
G01X35273982Y-21706007D01*
G01X35326098Y-21727317D01*
G01X35379680Y-21744709D01*
G01X35434501Y-21758264D01*
G01X35490336Y-21768063D01*
G01X35546959Y-21774188D01*
G01X35604143Y-21776721D01*
G01X35661662Y-21775743D01*
G01X35719291Y-21771336D01*
G01X35776803Y-21763580D01*
G01X35833972Y-21752559D01*
G01X35890574Y-21738353D01*
G01X35946380Y-21721044D01*
G01X36001166Y-21700714D01*
G01X36054705Y-21677443D01*
G01X36106772Y-21651314D01*
G01X36106772Y-21651314D01*
G01X36106772Y-21651314D01*
G01X36153168Y-21625273D01*
G01X36197741Y-21597490D01*
G01X36240441Y-21568043D01*
G01X36281217Y-21537009D01*
G01X36320016Y-21504465D01*
G01X36356788Y-21470488D01*
G01X36391482Y-21435155D01*
G01X36424046Y-21398544D01*
G01X36454430Y-21360731D01*
G01X36482581Y-21321794D01*
G01X36508449Y-21281810D01*
G01X36531982Y-21240857D01*
G01X36553129Y-21199010D01*
G01X36571840Y-21156348D01*
G01X36588062Y-21112948D01*
G01X36601745Y-21068887D01*
G01X36612837Y-21024242D01*
G01X36621288Y-20979090D01*
G01X36627045Y-20933508D01*
G01X36630057Y-20887575D01*
G01X36630057Y-20887575D01*
G01X36630057Y-20887575D01*
G01X36636762Y-20879035D01*
G01X36636762Y-20879035D01*
G01X36636762Y-20879035D01*
G01X36654069Y-20871464D01*
G01X36654069Y-20871464D01*
G01X36654069Y-20871464D01*
G01X36683271Y-20850506D01*
G01X36707132Y-20822001D01*
G01X36725330Y-20786592D01*
G01X36737542Y-20744922D01*
G01X36743448Y-20697632D01*
G01X36743448Y-20697632D01*
G01X36743448Y-20697632D01*
G01X36749037Y-20691072D01*
G01X36749037Y-20691072D01*
G01X36749037Y-20691072D01*
G01X36772039Y-20682512D01*
G01X36772039Y-20682512D01*
G01X36772039Y-20682512D01*
G01X36799643Y-20660826D01*
G01X36819635Y-20630143D01*
G01X36831953Y-20591938D01*
G01X36836538Y-20547686D01*
G01X36833328Y-20498865D01*
G01X36822263Y-20446950D01*
G01X36803281Y-20393417D01*
G01X36785471Y-20356183D01*
G01X36785471Y-20356183D01*
G01X36754577Y-20305796D01*
G01X36719727Y-20262340D01*
G01X36682179Y-20226589D01*
G01X36643190Y-20199320D01*
G01X36604018Y-20181306D01*
G01X36565921Y-20173324D01*
G01X36530155Y-20176147D01*
G01X36507422Y-20184840D01*
G01X36507422Y-20184840D01*
G01X36486824Y-20199624D01*
G01X36486824Y-20199624D01*
G01X36486824Y-20199624D01*
G01X36479106Y-20200140D01*
G01X36479106Y-20200140D01*
G01X36479106Y-20200140D01*
G01X36436558Y-20178559D01*
G01X36395145Y-20165362D01*
G01X36355580Y-20160644D01*
G01X36318578Y-20164496D01*
G01X36284853Y-20177013D01*
G01X36284853Y-20177013D01*
G01X36284853Y-20177013D01*
G01X36268406Y-20187797D01*
G01X36268406Y-20187797D01*
G01X36268406Y-20187797D01*
G01X36258595Y-20188284D01*
G01X36258595Y-20188284D01*
G01X36258595Y-20188284D01*
G01X36218820Y-20165050D01*
G01X36177800Y-20144291D01*
G01X36135627Y-20126008D01*
G01X36092395Y-20110201D01*
G01X36048197Y-20096872D01*
G01X36003124Y-20086021D01*
G01X35957270Y-20077649D01*
G01X35910728Y-20071756D01*
G01X35863591Y-20068343D01*
G01X35815950Y-20067412D01*
G01X35767900Y-20068962D01*
G01X35719532Y-20072994D01*
G01X35670941Y-20079509D01*
G01X35622217Y-20088508D01*
G01X35573455Y-20099992D01*
G01X35524747Y-20113961D01*
G01X35476186Y-20130415D01*
G01X35427864Y-20149357D01*
G01X35379875Y-20170785D01*
G01X35332311Y-20194702D01*
G01X35332311Y-20194702D01*
G01X35332311Y-20194702D01*
G01X35281532Y-20223253D01*
G01X35232301Y-20254625D01*
G01X35184809Y-20288675D01*
G01X35139252Y-20325260D01*
G01X35095824Y-20364240D01*
G01X35054718Y-20405473D01*
G01X35016128Y-20448816D01*
G01X34980249Y-20494128D01*
G01X34947274Y-20541267D01*
G01X34917397Y-20590092D01*
G01X34890813Y-20640460D01*
G01X34867714Y-20692229D01*
G01X34848296Y-20745259D01*
G01X34832753Y-20799406D01*
G01X34821277Y-20854530D01*
G01X34814064Y-20910488D01*
G01X34811306Y-20967139D01*
G01X34813199Y-21024340D01*
G01X34819936Y-21081951D01*
G01X34831711Y-21139829D01*
G01X34831711Y-21139829D01*
G01X34831711Y-21139829D01*
G01X34867543Y-21136439D01*
G01X34903090Y-21132460D01*
G01X34936309Y-21128223D01*
G01X34936309Y-21128223D01*
G01X34944622Y-21134502D01*
G01X34944622Y-21134502D01*
G37*
G36*
G01X24213180Y-5564614D02*
G01X24213180Y-5564614D01*
G01X24277547Y-5563572D01*
G01X24341393Y-5560466D01*
G01X24404685Y-5555330D01*
G01X24467391Y-5548194D01*
G01X24529480Y-5539092D01*
G01X24590918Y-5528055D01*
G01X24651675Y-5515115D01*
G01X24711717Y-5500305D01*
G01X24771013Y-5483656D01*
G01X24829531Y-5465202D01*
G01X24887238Y-5444973D01*
G01X24944102Y-5423002D01*
G01X25000091Y-5399321D01*
G01X25055174Y-5373963D01*
G01X25109317Y-5346959D01*
G01X25162489Y-5318341D01*
G01X25214658Y-5288142D01*
G01X25265792Y-5256393D01*
G01X25315858Y-5223128D01*
G01X25364824Y-5188377D01*
G01X25412659Y-5152174D01*
G01X25459330Y-5114549D01*
G01X25504805Y-5075536D01*
G01X25549052Y-5035166D01*
G01X25592038Y-4993472D01*
G01X25633732Y-4950486D01*
G01X25674102Y-4906239D01*
G01X25713115Y-4860764D01*
G01X25750739Y-4814093D01*
G01X25786943Y-4766259D01*
G01X25821694Y-4717292D01*
G01X25854959Y-4667226D01*
G01X25886708Y-4616093D01*
G01X25916907Y-4563924D01*
G01X25945524Y-4510751D01*
G01X25972529Y-4456608D01*
G01X25997887Y-4401525D01*
G01X26021568Y-4345536D01*
G01X26043539Y-4288672D01*
G01X26063768Y-4230965D01*
G01X26082222Y-4172447D01*
G01X26098871Y-4113151D01*
G01X26113681Y-4053109D01*
G01X26126621Y-3992353D01*
G01X26137658Y-3930914D01*
G01X26146760Y-3868826D01*
G01X26153895Y-3806119D01*
G01X26159032Y-3742827D01*
G01X26162137Y-3678981D01*
G01X26163180Y-3614614D01*
G01X26163180Y-3614614D01*
G01X26163180Y-3614614D01*
G01X26162137Y-3550247D01*
G01X26159032Y-3486401D01*
G01X26153895Y-3423109D01*
G01X26146760Y-3360402D01*
G01X26137658Y-3298314D01*
G01X26126621Y-3236875D01*
G01X26113681Y-3176119D01*
G01X26098871Y-3116077D01*
G01X26082222Y-3056781D01*
G01X26063768Y-2998263D01*
G01X26043539Y-2940556D01*
G01X26021568Y-2883692D01*
G01X25997887Y-2827703D01*
G01X25972529Y-2772620D01*
G01X25945524Y-2718477D01*
G01X25916907Y-2665304D01*
G01X25886708Y-2613135D01*
G01X25854959Y-2562002D01*
G01X25821694Y-2511936D01*
G01X25786943Y-2462969D01*
G01X25750739Y-2415135D01*
G01X25713115Y-2368464D01*
G01X25674102Y-2322989D01*
G01X25633732Y-2278742D01*
G01X25592038Y-2235756D01*
G01X25549052Y-2194062D01*
G01X25504805Y-2153692D01*
G01X25459330Y-2114679D01*
G01X25412659Y-2077054D01*
G01X25364824Y-2040851D01*
G01X25315858Y-2006100D01*
G01X25265792Y-1972835D01*
G01X25214658Y-1941086D01*
G01X25162489Y-1910887D01*
G01X25109317Y-1882269D01*
G01X25055174Y-1855265D01*
G01X25000091Y-1829907D01*
G01X24944102Y-1806226D01*
G01X24887238Y-1784255D01*
G01X24829531Y-1764026D01*
G01X24771013Y-1745572D01*
G01X24711717Y-1728923D01*
G01X24651675Y-1714113D01*
G01X24590918Y-1701173D01*
G01X24529480Y-1690136D01*
G01X24467391Y-1681034D01*
G01X24404685Y-1673898D01*
G01X24341393Y-1668762D01*
G01X24277547Y-1665656D01*
G01X24213180Y-1664614D01*
G01X24213180Y-1664614D01*
G01X24213180Y-1664614D01*
G01X24148813Y-1665656D01*
G01X24084967Y-1668762D01*
G01X24021675Y-1673898D01*
G01X23958968Y-1681034D01*
G01X23896880Y-1690136D01*
G01X23835441Y-1701173D01*
G01X23774685Y-1714113D01*
G01X23714642Y-1728923D01*
G01X23655346Y-1745572D01*
G01X23596829Y-1764026D01*
G01X23539122Y-1784255D01*
G01X23482258Y-1806226D01*
G01X23426268Y-1829907D01*
G01X23371186Y-1855265D01*
G01X23317043Y-1882269D01*
G01X23263870Y-1910887D01*
G01X23211701Y-1941086D01*
G01X23160568Y-1972835D01*
G01X23110502Y-2006100D01*
G01X23061535Y-2040851D01*
G01X23013700Y-2077054D01*
G01X22967030Y-2114679D01*
G01X22921555Y-2153692D01*
G01X22877308Y-2194062D01*
G01X22834322Y-2235756D01*
G01X22792627Y-2278742D01*
G01X22752258Y-2322989D01*
G01X22713245Y-2368464D01*
G01X22675620Y-2415135D01*
G01X22639417Y-2462969D01*
G01X22604666Y-2511936D01*
G01X22571400Y-2562002D01*
G01X22539652Y-2613135D01*
G01X22509453Y-2665304D01*
G01X22480835Y-2718477D01*
G01X22453831Y-2772620D01*
G01X22428473Y-2827703D01*
G01X22404792Y-2883692D01*
G01X22382821Y-2940556D01*
G01X22362592Y-2998263D01*
G01X22344137Y-3056781D01*
G01X22327489Y-3116077D01*
G01X22312679Y-3176119D01*
G01X22299739Y-3236875D01*
G01X22288702Y-3298314D01*
G01X22279600Y-3360402D01*
G01X22272464Y-3423109D01*
G01X22267328Y-3486401D01*
G01X22264222Y-3550247D01*
G01X22263180Y-3614614D01*
G01X22263180Y-3614614D01*
G01X22263180Y-3614614D01*
G01X22264222Y-3678981D01*
G01X22267328Y-3742827D01*
G01X22272464Y-3806119D01*
G01X22279600Y-3868826D01*
G01X22288702Y-3930914D01*
G01X22299739Y-3992353D01*
G01X22312679Y-4053109D01*
G01X22327489Y-4113151D01*
G01X22344137Y-4172447D01*
G01X22362592Y-4230965D01*
G01X22382821Y-4288672D01*
G01X22404792Y-4345536D01*
G01X22428473Y-4401525D01*
G01X22453831Y-4456608D01*
G01X22480835Y-4510751D01*
G01X22509453Y-4563924D01*
G01X22539652Y-4616093D01*
G01X22571400Y-4667226D01*
G01X22604666Y-4717292D01*
G01X22639417Y-4766259D01*
G01X22675620Y-4814093D01*
G01X22713245Y-4860764D01*
G01X22752258Y-4906239D01*
G01X22792627Y-4950486D01*
G01X22834322Y-4993472D01*
G01X22877308Y-5035166D01*
G01X22921555Y-5075536D01*
G01X22967030Y-5114549D01*
G01X23013700Y-5152174D01*
G01X23061535Y-5188377D01*
G01X23110502Y-5223128D01*
G01X23160568Y-5256393D01*
G01X23211701Y-5288142D01*
G01X23263870Y-5318341D01*
G01X23317043Y-5346959D01*
G01X23371186Y-5373963D01*
G01X23426268Y-5399321D01*
G01X23482258Y-5423002D01*
G01X23539122Y-5444973D01*
G01X23596829Y-5465202D01*
G01X23655346Y-5483656D01*
G01X23714642Y-5500305D01*
G01X23774685Y-5515115D01*
G01X23835441Y-5528055D01*
G01X23896880Y-5539092D01*
G01X23958968Y-5548194D01*
G01X24021675Y-5555330D01*
G01X24084967Y-5560466D01*
G01X24148813Y-5563572D01*
G01X24213180Y-5564614D01*
G01X24213180Y-5564614D01*
G37*
G36*
G01X17906102Y-5573928D02*
G01X17906102Y-5573928D01*
G01X17970469Y-5572886D01*
G01X18034315Y-5569780D01*
G01X18097607Y-5564644D01*
G01X18160313Y-5557508D01*
G01X18222402Y-5548406D01*
G01X18283841Y-5537369D01*
G01X18344597Y-5524429D01*
G01X18404639Y-5509619D01*
G01X18463935Y-5492970D01*
G01X18522453Y-5474516D01*
G01X18580160Y-5454287D01*
G01X18637024Y-5432316D01*
G01X18693013Y-5408635D01*
G01X18748096Y-5383277D01*
G01X18802239Y-5356273D01*
G01X18855411Y-5327655D01*
G01X18907580Y-5297456D01*
G01X18958714Y-5265707D01*
G01X19008780Y-5232442D01*
G01X19057747Y-5197691D01*
G01X19105581Y-5161488D01*
G01X19152252Y-5123863D01*
G01X19197727Y-5084850D01*
G01X19241974Y-5044480D01*
G01X19284960Y-5002786D01*
G01X19326654Y-4959800D01*
G01X19367024Y-4915553D01*
G01X19406037Y-4870078D01*
G01X19443661Y-4823407D01*
G01X19479865Y-4775573D01*
G01X19514616Y-4726606D01*
G01X19547881Y-4676540D01*
G01X19579630Y-4625407D01*
G01X19609829Y-4573238D01*
G01X19638446Y-4520065D01*
G01X19665451Y-4465922D01*
G01X19690809Y-4410839D01*
G01X19714490Y-4354850D01*
G01X19736461Y-4297986D01*
G01X19756690Y-4240279D01*
G01X19775144Y-4181761D01*
G01X19791793Y-4122465D01*
G01X19806603Y-4062423D01*
G01X19819543Y-4001667D01*
G01X19830580Y-3940228D01*
G01X19839682Y-3878140D01*
G01X19846818Y-3815433D01*
G01X19851954Y-3752141D01*
G01X19855060Y-3688295D01*
G01X19856102Y-3623928D01*
G01X19856102Y-3623928D01*
G01X19856102Y-3623928D01*
G01X19855060Y-3559561D01*
G01X19851954Y-3495715D01*
G01X19846818Y-3432423D01*
G01X19839682Y-3369716D01*
G01X19830580Y-3307628D01*
G01X19819543Y-3246189D01*
G01X19806603Y-3185433D01*
G01X19791793Y-3125391D01*
G01X19775144Y-3066095D01*
G01X19756690Y-3007577D01*
G01X19736461Y-2949870D01*
G01X19714490Y-2893006D01*
G01X19690809Y-2837017D01*
G01X19665451Y-2781934D01*
G01X19638446Y-2727791D01*
G01X19609829Y-2674618D01*
G01X19579630Y-2622449D01*
G01X19547881Y-2571316D01*
G01X19514616Y-2521250D01*
G01X19479865Y-2472283D01*
G01X19443661Y-2424449D01*
G01X19406037Y-2377778D01*
G01X19367024Y-2332303D01*
G01X19326654Y-2288056D01*
G01X19284960Y-2245070D01*
G01X19241974Y-2203376D01*
G01X19197727Y-2163006D01*
G01X19152252Y-2123993D01*
G01X19105581Y-2086368D01*
G01X19057747Y-2050165D01*
G01X19008780Y-2015414D01*
G01X18958714Y-1982149D01*
G01X18907580Y-1950400D01*
G01X18855411Y-1920201D01*
G01X18802239Y-1891583D01*
G01X18748096Y-1864579D01*
G01X18693013Y-1839221D01*
G01X18637024Y-1815540D01*
G01X18580160Y-1793569D01*
G01X18522453Y-1773340D01*
G01X18463935Y-1754886D01*
G01X18404639Y-1738237D01*
G01X18344597Y-1723427D01*
G01X18283841Y-1710487D01*
G01X18222402Y-1699450D01*
G01X18160313Y-1690348D01*
G01X18097607Y-1683212D01*
G01X18034315Y-1678076D01*
G01X17970469Y-1674970D01*
G01X17906102Y-1673928D01*
G01X17906102Y-1673928D01*
G01X17906102Y-1673928D01*
G01X17841735Y-1674970D01*
G01X17777889Y-1678076D01*
G01X17714597Y-1683212D01*
G01X17651890Y-1690348D01*
G01X17589802Y-1699450D01*
G01X17528363Y-1710487D01*
G01X17467607Y-1723427D01*
G01X17407564Y-1738237D01*
G01X17348269Y-1754886D01*
G01X17289751Y-1773340D01*
G01X17232044Y-1793569D01*
G01X17175180Y-1815540D01*
G01X17119191Y-1839221D01*
G01X17064108Y-1864579D01*
G01X17009965Y-1891583D01*
G01X16956792Y-1920201D01*
G01X16904623Y-1950400D01*
G01X16853490Y-1982149D01*
G01X16803424Y-2015414D01*
G01X16754457Y-2050165D01*
G01X16706623Y-2086368D01*
G01X16659952Y-2123993D01*
G01X16614477Y-2163006D01*
G01X16570230Y-2203376D01*
G01X16527244Y-2245070D01*
G01X16485550Y-2288056D01*
G01X16445180Y-2332303D01*
G01X16406167Y-2377778D01*
G01X16368542Y-2424449D01*
G01X16332339Y-2472283D01*
G01X16297588Y-2521250D01*
G01X16264323Y-2571316D01*
G01X16232574Y-2622449D01*
G01X16202375Y-2674618D01*
G01X16173757Y-2727791D01*
G01X16146753Y-2781934D01*
G01X16121395Y-2837017D01*
G01X16097714Y-2893006D01*
G01X16075743Y-2949870D01*
G01X16055514Y-3007577D01*
G01X16037059Y-3066095D01*
G01X16020411Y-3125391D01*
G01X16005601Y-3185433D01*
G01X15992661Y-3246189D01*
G01X15981624Y-3307628D01*
G01X15972522Y-3369716D01*
G01X15965386Y-3432423D01*
G01X15960250Y-3495715D01*
G01X15957144Y-3559561D01*
G01X15956102Y-3623928D01*
G01X15956102Y-3623928D01*
G01X15956102Y-3623928D01*
G01X15957144Y-3688295D01*
G01X15960250Y-3752141D01*
G01X15965386Y-3815433D01*
G01X15972522Y-3878140D01*
G01X15981624Y-3940228D01*
G01X15992661Y-4001667D01*
G01X16005601Y-4062423D01*
G01X16020411Y-4122465D01*
G01X16037059Y-4181761D01*
G01X16055514Y-4240279D01*
G01X16075743Y-4297986D01*
G01X16097714Y-4354850D01*
G01X16121395Y-4410839D01*
G01X16146753Y-4465922D01*
G01X16173757Y-4520065D01*
G01X16202375Y-4573238D01*
G01X16232574Y-4625407D01*
G01X16264323Y-4676540D01*
G01X16297588Y-4726606D01*
G01X16332339Y-4775573D01*
G01X16368542Y-4823407D01*
G01X16406167Y-4870078D01*
G01X16445180Y-4915553D01*
G01X16485550Y-4959800D01*
G01X16527244Y-5002786D01*
G01X16570230Y-5044480D01*
G01X16614477Y-5084850D01*
G01X16659952Y-5123863D01*
G01X16706623Y-5161488D01*
G01X16754457Y-5197691D01*
G01X16803424Y-5232442D01*
G01X16853490Y-5265707D01*
G01X16904623Y-5297456D01*
G01X16956792Y-5327655D01*
G01X17009965Y-5356273D01*
G01X17064108Y-5383277D01*
G01X17119191Y-5408635D01*
G01X17175180Y-5432316D01*
G01X17232044Y-5454287D01*
G01X17289751Y-5474516D01*
G01X17348269Y-5492970D01*
G01X17407564Y-5509619D01*
G01X17467607Y-5524429D01*
G01X17528363Y-5537369D01*
G01X17589802Y-5548406D01*
G01X17651890Y-5557508D01*
G01X17714597Y-5564644D01*
G01X17777889Y-5569780D01*
G01X17841735Y-5572886D01*
G01X17906102Y-5573928D01*
G01X17906102Y-5573928D01*
G37*
G36*
G01X42994550Y-5800000D02*
G01X44194550Y-5800000D01*
G01X44194550Y-7000000D01*
G01X42994550Y-7000000D01*
G01X42994550Y-5800000D01*
G37*
G36*
G01X44444550Y-6179102D02*
G01X44444550Y-6179102D01*
G01X44462421Y-6143946D01*
G01X44462421Y-6143946D01*
G01X44519428Y-6136381D01*
G01X44523651Y-6136329D01*
G01X44557636Y-6136329D01*
G01X44557636Y-6136329D01*
G01X44554145Y-6057561D01*
G01X44550817Y-6010582D01*
G01X44550019Y-6001563D01*
G01X44550019Y-6001563D01*
G01X44589862Y-5998047D01*
G01X44589862Y-5998047D01*
G01X44644133Y-6028967D01*
G01X44647284Y-6043750D01*
G01X44647284Y-6043750D01*
G01X44644660Y-6102063D01*
G01X44642597Y-6137500D01*
G01X44642597Y-6137500D01*
G01X44738361Y-6136493D01*
G01X44800507Y-6134278D01*
G01X44834089Y-6132062D01*
G01X44844159Y-6131055D01*
G01X44844159Y-6131055D01*
G01X44844159Y-6131055D01*
G01X44848847Y-6159180D01*
G01X44848847Y-6159180D01*
G01X44836249Y-6191407D01*
G01X44836249Y-6191407D01*
G01X44796112Y-6200782D01*
G01X44796112Y-6200782D01*
G01X44738168Y-6201601D01*
G01X44672665Y-6201908D01*
G01X44640287Y-6201954D01*
G01X44640253Y-6201954D01*
G01X44640253Y-6201954D01*
G01X44639155Y-6276151D01*
G01X44638468Y-6346828D01*
G01X44638096Y-6407548D01*
G01X44637942Y-6451872D01*
G01X44637910Y-6473362D01*
G01X44637909Y-6474415D01*
G01X44637909Y-6474415D01*
G01X44644835Y-6560115D01*
G01X44656863Y-6601574D01*
G01X44661347Y-6610059D01*
G01X44661347Y-6610059D01*
G01X44716415Y-6640169D01*
G01X44738691Y-6642579D01*
G01X44738691Y-6642579D01*
G01X44803327Y-6622782D01*
G01X44824823Y-6606250D01*
G01X44824823Y-6606250D01*
G01X44846503Y-6649610D01*
G01X44846503Y-6649610D01*
G01X44815770Y-6690166D01*
G01X44815448Y-6690332D01*
G01X44815448Y-6690332D01*
G01X44753741Y-6705194D01*
G01X44739862Y-6705860D01*
G01X44739862Y-6705860D01*
G01X44661591Y-6691983D01*
G01X44615798Y-6665405D01*
G01X44599144Y-6648706D01*
G01X44598944Y-6648438D01*
G01X44598944Y-6648438D01*
G01X44573054Y-6590592D01*
G01X44561155Y-6528545D01*
G01X44557805Y-6484832D01*
G01X44557636Y-6476758D01*
G01X44557636Y-6476758D01*
G01X44558734Y-6369360D01*
G01X44559421Y-6292231D01*
G01X44559793Y-6241250D01*
G01X44559947Y-6212292D01*
G01X44559979Y-6201234D01*
G01X44559980Y-6200782D01*
G01X44559980Y-6200782D01*
G01X44510952Y-6204519D01*
G01X44451104Y-6209325D01*
G01X44448066Y-6209571D01*
G01X44448066Y-6209571D01*
G01X44444550Y-6179102D01*
G37*
G36*
G01X44920331Y-6415821D02*
G01X44920331Y-6415821D01*
G01X44929261Y-6336638D01*
G01X44949911Y-6274311D01*
G01X44973073Y-6230636D01*
G01X44989537Y-6207411D01*
G01X44992401Y-6204004D01*
G01X44992401Y-6204004D01*
G01X45049760Y-6159133D01*
G01X45109143Y-6135270D01*
G01X45157186Y-6125780D01*
G01X45180524Y-6124029D01*
G01X45181073Y-6124024D01*
G01X45181073Y-6124024D01*
G01X45257566Y-6135633D01*
G01X45316023Y-6161616D01*
G01X45354308Y-6188704D01*
G01X45370281Y-6203631D01*
G01X45370624Y-6204004D01*
G01X45370624Y-6204004D01*
G01X45408339Y-6262365D01*
G01X45429796Y-6324049D01*
G01X45439580Y-6377320D01*
G01X45442277Y-6410443D01*
G01X45442401Y-6415821D01*
G01X45442402Y-6415821D01*
G01X45432757Y-6498098D01*
G01X45410810Y-6561712D01*
G01X45387041Y-6604739D01*
G01X45371929Y-6625253D01*
G01X45370624Y-6626758D01*
G01X45370624Y-6626758D01*
G01X45313260Y-6671136D01*
G01X45253584Y-6694738D01*
G01X45205179Y-6704123D01*
G01X45181628Y-6705855D01*
G01X45181073Y-6705860D01*
G01X45181073Y-6705860D01*
G01X45105196Y-6694378D01*
G01X45046993Y-6668681D01*
G01X45008748Y-6641890D01*
G01X44992746Y-6627128D01*
G01X44992401Y-6626758D01*
G01X44992401Y-6626758D01*
G01X44954532Y-6568859D01*
G01X44932988Y-6507439D01*
G01X44923164Y-6454287D01*
G01X44920456Y-6421197D01*
G01X44920331Y-6415821D01*
G37*
%LPC*%
G36*
G01X45004706Y-6398829D02*
G01X45004706Y-6398829D01*
G01X45013617Y-6476577D01*
G01X45032169Y-6533587D01*
G01X45048092Y-6565382D01*
G01X45051288Y-6570508D01*
G01X45051288Y-6570508D01*
G01X45105062Y-6618444D01*
G01X45156928Y-6636368D01*
G01X45181049Y-6639063D01*
G01X45181073Y-6639063D01*
G01X45181073Y-6639063D01*
G01X45255059Y-6623215D01*
G01X45299350Y-6594963D01*
G01X45311737Y-6582813D01*
G01X45311737Y-6582813D01*
G01X45343873Y-6521594D01*
G01X45356425Y-6463139D01*
G01X45358609Y-6433255D01*
G01X45358612Y-6432813D01*
G01X45358612Y-6432813D01*
G01X45349421Y-6354953D01*
G01X45330286Y-6297709D01*
G01X45313862Y-6265713D01*
G01X45310566Y-6260547D01*
G01X45310566Y-6260547D01*
G01X45256215Y-6212202D01*
G01X45204805Y-6194124D01*
G01X45181098Y-6191407D01*
G01X45181073Y-6191407D01*
G01X45181073Y-6191407D01*
G01X45107253Y-6207420D01*
G01X45063256Y-6235966D01*
G01X45050995Y-6248243D01*
G01X45050995Y-6248243D01*
G01X45019261Y-6309864D01*
G01X45006866Y-6368475D01*
G01X45004709Y-6398387D01*
G01X45004706Y-6398829D01*
G37*
%LPD*%
G36*
G01X45568378Y-6142188D02*
G01X45568378Y-6142188D01*
G01X45615253Y-6132813D01*
G01X45615253Y-6132813D01*
G01X45662716Y-6168930D01*
G01X45666816Y-6192579D01*
G01X45666816Y-6192579D01*
G01X45734949Y-6152945D01*
G01X45795722Y-6132593D01*
G01X45839356Y-6125095D01*
G01X45856073Y-6124024D01*
G01X45856073Y-6124024D01*
G01X45856073Y-6124024D01*
G01X45929999Y-6138698D01*
G01X45980799Y-6167431D01*
G01X46003761Y-6187285D01*
G01X46004609Y-6188184D01*
G01X46004609Y-6188184D01*
G01X46038314Y-6245784D01*
G01X46055622Y-6309949D01*
G01X46061998Y-6362084D01*
G01X46062909Y-6383594D01*
G01X46062909Y-6383594D01*
G01X46062909Y-6383594D01*
G01X46056325Y-6459919D01*
G01X46043714Y-6516070D01*
G01X46035791Y-6540872D01*
G01X46035663Y-6541211D01*
G01X46035663Y-6541211D01*
G01X46000222Y-6604637D01*
G01X45963988Y-6645678D01*
G01X45948651Y-6659278D01*
G01X45948651Y-6659278D01*
G01X45885360Y-6691850D01*
G01X45829489Y-6704029D01*
G01X45804536Y-6705860D01*
G01X45804511Y-6705860D01*
G01X45804511Y-6705860D01*
G01X45733499Y-6693913D01*
G01X45683993Y-6673164D01*
G01X45670331Y-6665430D01*
G01X45670331Y-6665430D01*
G01X45670856Y-6722430D01*
G01X45670917Y-6728418D01*
G01X45670917Y-6728418D01*
G01X45671899Y-6797617D01*
G01X45672089Y-6805762D01*
G01X45672089Y-6805762D01*
G01X45674770Y-6864140D01*
G01X45675019Y-6868750D01*
G01X45675019Y-6868750D01*
G01X45681272Y-6932415D01*
G01X45682343Y-6939063D01*
G01X45682343Y-6939063D01*
G01X45694353Y-6988275D01*
G01X45694355Y-6988282D01*
G01X45694355Y-6988282D01*
G01X45646308Y-6997657D01*
G01X45646308Y-6997657D01*
G01X45599726Y-6982129D01*
G01X45599726Y-6982129D01*
G01X45599726Y-6982129D01*
G01X45587723Y-6929970D01*
G01X45587714Y-6929102D01*
G01X45587714Y-6929102D01*
G01X45587864Y-6861405D01*
G01X45588233Y-6790867D01*
G01X45588698Y-6725525D01*
G01X45589136Y-6673417D01*
G01X45589423Y-6642580D01*
G01X45589472Y-6637598D01*
G01X45589472Y-6637598D01*
G01X45590363Y-6541724D01*
G01X45590887Y-6471644D01*
G01X45591141Y-6425323D01*
G01X45591222Y-6400728D01*
G01X45591230Y-6395313D01*
G01X45591230Y-6395313D01*
G01X45588853Y-6296313D01*
G01X45583186Y-6224454D01*
G01X45576422Y-6176782D01*
G01X45570755Y-6150344D01*
G01X45568378Y-6142188D01*
G01X45568378Y-6142188D01*
G37*
%LPC*%
G36*
G01X45670331Y-6257618D02*
G01X45670331Y-6257618D01*
G01X45671236Y-6364310D01*
G01X45671871Y-6448442D01*
G01X45672285Y-6512056D01*
G01X45672525Y-6557191D01*
G01X45672638Y-6585889D01*
G01X45672673Y-6600191D01*
G01X45672675Y-6602735D01*
G01X45672675Y-6602735D01*
G01X45735804Y-6628358D01*
G01X45793488Y-6637750D01*
G01X45816816Y-6639063D01*
G01X45816816Y-6639063D01*
G01X45882880Y-6620752D01*
G01X45908515Y-6602442D01*
G01X45908515Y-6602442D01*
G01X45908515Y-6602442D01*
G01X45948292Y-6546459D01*
G01X45961760Y-6513918D01*
G01X45961835Y-6513672D01*
G01X45961835Y-6513672D01*
G01X45974636Y-6445912D01*
G01X45977336Y-6403661D01*
G01X45977362Y-6401172D01*
G01X45977362Y-6401172D01*
G01X45967914Y-6317118D01*
G01X45949415Y-6264788D01*
G01X45936633Y-6243135D01*
G01X45936054Y-6242383D01*
G01X45936054Y-6242383D01*
G01X45878024Y-6201353D01*
G01X45834338Y-6191615D01*
G01X45829706Y-6191407D01*
G01X45829706Y-6191407D01*
G01X45761551Y-6204882D01*
G01X45706058Y-6232390D01*
G01X45674119Y-6254552D01*
G01X45670331Y-6257618D01*
G37*
%LPD*%
G36*
G01X46440253Y-6610352D02*
G01X46440253Y-6610352D01*
G01X46478231Y-6566249D01*
G01X46494159Y-6559961D01*
G01X46494159Y-6559961D01*
G01X46535060Y-6609257D01*
G01X46551288Y-6618848D01*
G01X46551288Y-6618848D01*
G01X46617440Y-6636827D01*
G01X46646503Y-6639063D01*
G01X46646503Y-6639063D01*
G01X46714012Y-6624918D01*
G01X46729999Y-6616211D01*
G01X46729999Y-6616211D01*
G01X46760315Y-6561336D01*
G01X46761933Y-6545313D01*
G01X46761933Y-6545313D01*
G01X46734634Y-6493536D01*
G01X46729999Y-6490235D01*
G01X46729999Y-6490235D01*
G01X46669883Y-6465254D01*
G01X46652655Y-6460645D01*
G01X46652655Y-6460645D01*
G01X46586077Y-6443680D01*
G01X46561542Y-6436622D01*
G01X46561542Y-6436622D01*
G01X46503182Y-6403367D01*
G01X46483905Y-6384473D01*
G01X46483905Y-6384473D01*
G01X46456726Y-6323012D01*
G01X46451979Y-6283477D01*
G01X46451972Y-6282813D01*
G01X46451972Y-6282813D01*
G01X46471967Y-6215300D01*
G01X46504815Y-6175983D01*
G01X46513788Y-6168555D01*
G01X46513788Y-6168555D01*
G01X46578733Y-6136826D01*
G01X46632676Y-6125483D01*
G01X46653534Y-6124024D01*
G01X46653534Y-6124024D01*
G01X46722151Y-6134365D01*
G01X46761732Y-6148218D01*
G01X46763984Y-6149219D01*
G01X46763984Y-6149219D01*
G01X46812907Y-6196894D01*
G01X46818183Y-6218946D01*
G01X46818183Y-6218946D01*
G01X46780205Y-6263632D01*
G01X46764277Y-6269336D01*
G01X46764277Y-6269336D01*
G01X46723359Y-6221545D01*
G01X46710077Y-6213086D01*
G01X46710077Y-6213086D01*
G01X46645682Y-6193130D01*
G01X46624823Y-6191407D01*
G01X46624823Y-6191407D01*
G01X46563014Y-6207998D01*
G01X46553925Y-6213672D01*
G01X46553925Y-6213672D01*
G01X46524849Y-6267034D01*
G01X46524042Y-6276368D01*
G01X46524042Y-6276368D01*
G01X46550986Y-6328855D01*
G01X46555976Y-6332618D01*
G01X46555976Y-6332618D01*
G01X46615291Y-6358837D01*
G01X46633319Y-6363965D01*
G01X46633319Y-6363965D01*
G01X46698921Y-6381183D01*
G01X46724433Y-6388575D01*
G01X46724433Y-6388575D01*
G01X46783566Y-6421179D01*
G01X46802069Y-6438379D01*
G01X46802069Y-6438379D01*
G01X46830011Y-6498914D01*
G01X46834003Y-6532422D01*
G01X46834003Y-6532422D01*
G01X46834003Y-6532422D01*
G01X46817582Y-6604822D01*
G01X46787570Y-6648147D01*
G01X46772773Y-6661622D01*
G01X46772773Y-6661622D01*
G01X46708457Y-6692555D01*
G01X46652202Y-6704121D01*
G01X46627192Y-6705860D01*
G01X46627167Y-6705860D01*
G01X46627167Y-6705860D01*
G01X46552997Y-6696952D01*
G01X46506351Y-6682318D01*
G01X46497089Y-6678321D01*
G01X46497089Y-6678321D01*
G01X46445785Y-6630827D01*
G01X46440253Y-6610352D01*
G37*
G36*
G01X46936542Y-6415821D02*
G01X46936542Y-6415821D01*
G01X46945472Y-6336638D01*
G01X46966122Y-6274311D01*
G01X46989284Y-6230636D01*
G01X47005748Y-6207411D01*
G01X47008612Y-6204004D01*
G01X47008612Y-6204004D01*
G01X47065971Y-6159133D01*
G01X47125354Y-6135270D01*
G01X47173397Y-6125780D01*
G01X47196735Y-6124029D01*
G01X47197284Y-6124024D01*
G01X47197284Y-6124024D01*
G01X47273777Y-6135633D01*
G01X47332234Y-6161616D01*
G01X47370519Y-6188704D01*
G01X47386492Y-6203631D01*
G01X47386835Y-6204004D01*
G01X47386835Y-6204004D01*
G01X47424550Y-6262365D01*
G01X47446007Y-6324049D01*
G01X47455791Y-6377320D01*
G01X47458488Y-6410443D01*
G01X47458612Y-6415821D01*
G01X47458612Y-6415821D01*
G01X47448968Y-6498098D01*
G01X47427021Y-6561712D01*
G01X47403252Y-6604739D01*
G01X47388140Y-6625253D01*
G01X47386835Y-6626758D01*
G01X47386835Y-6626758D01*
G01X47329471Y-6671136D01*
G01X47269795Y-6694738D01*
G01X47221390Y-6704123D01*
G01X47197839Y-6705855D01*
G01X47197284Y-6705860D01*
G01X47197284Y-6705860D01*
G01X47121407Y-6694378D01*
G01X47063204Y-6668681D01*
G01X47024959Y-6641890D01*
G01X47008957Y-6627128D01*
G01X47008612Y-6626758D01*
G01X47008612Y-6626758D01*
G01X46970743Y-6568859D01*
G01X46949199Y-6507439D01*
G01X46939375Y-6454287D01*
G01X46936667Y-6421197D01*
G01X46936542Y-6415821D01*
G37*
%LPC*%
G36*
G01X47020917Y-6398829D02*
G01X47020917Y-6398829D01*
G01X47029828Y-6476577D01*
G01X47048380Y-6533587D01*
G01X47064303Y-6565382D01*
G01X47067499Y-6570508D01*
G01X47067499Y-6570508D01*
G01X47121273Y-6618444D01*
G01X47173139Y-6636368D01*
G01X47197259Y-6639063D01*
G01X47197284Y-6639063D01*
G01X47197284Y-6639063D01*
G01X47271270Y-6623215D01*
G01X47315561Y-6594963D01*
G01X47327948Y-6582813D01*
G01X47327948Y-6582813D01*
G01X47360084Y-6521594D01*
G01X47372636Y-6463139D01*
G01X47374820Y-6433255D01*
G01X47374823Y-6432813D01*
G01X47374823Y-6432813D01*
G01X47365632Y-6354953D01*
G01X47346496Y-6297709D01*
G01X47330073Y-6265713D01*
G01X47326777Y-6260547D01*
G01X47326777Y-6260547D01*
G01X47272426Y-6212202D01*
G01X47221016Y-6194124D01*
G01X47197309Y-6191407D01*
G01X47197284Y-6191407D01*
G01X47197284Y-6191407D01*
G01X47123464Y-6207420D01*
G01X47079467Y-6235966D01*
G01X47067206Y-6248243D01*
G01X47067206Y-6248243D01*
G01X47035472Y-6309864D01*
G01X47023077Y-6368475D01*
G01X47020920Y-6398387D01*
G01X47020917Y-6398829D01*
G37*
%LPD*%
G36*
G01X47584589Y-5805860D02*
G01X47584589Y-5805860D01*
G01X47626776Y-5802344D01*
G01X47626776Y-5802344D01*
G01X47679065Y-5833907D01*
G01X47681855Y-5848047D01*
G01X47681855Y-5848047D01*
G01X47680315Y-5904789D01*
G01X47680097Y-5912207D01*
G01X47680097Y-5912207D01*
G01X47678255Y-5976627D01*
G01X47676563Y-6037843D01*
G01X47675715Y-6069071D01*
G01X47675702Y-6069532D01*
G01X47675702Y-6069532D01*
G01X47674134Y-6144038D01*
G01X47673357Y-6208111D01*
G01X47673094Y-6251555D01*
G01X47673066Y-6264649D01*
G01X47673066Y-6451563D01*
G01X47673066Y-6451563D01*
G01X47675666Y-6541160D01*
G01X47681773Y-6609312D01*
G01X47688847Y-6656279D01*
G01X47694349Y-6682322D01*
G01X47695917Y-6688282D01*
G01X47695917Y-6688282D01*
G01X47650800Y-6697657D01*
G01X47650800Y-6697657D01*
G01X47604511Y-6683301D01*
G01X47604511Y-6683301D01*
G01X47591620Y-6635547D01*
G01X47591620Y-6635547D01*
G01X47591620Y-6635547D01*
G01X47591919Y-6585454D01*
G01X47592478Y-6518080D01*
G01X47592792Y-6482949D01*
G01X47592792Y-6482911D01*
G01X47592792Y-6482911D01*
G01X47593508Y-6393698D01*
G01X47593850Y-6332444D01*
G01X47593956Y-6299047D01*
G01X47593964Y-6292188D01*
G01X47593964Y-6152735D01*
G01X47593964Y-6152735D01*
G01X47593394Y-6039649D01*
G01X47591939Y-5953003D01*
G01X47589977Y-5889653D01*
G01X47587889Y-5846454D01*
G01X47586054Y-5820261D01*
G01X47584851Y-5807931D01*
G01X47584589Y-5805860D01*
G37*
G36*
G01X47821894Y-6415821D02*
G01X47821894Y-6415821D01*
G01X47831041Y-6337181D01*
G01X47852195Y-6275036D01*
G01X47875922Y-6231333D01*
G01X47892788Y-6208018D01*
G01X47895722Y-6204590D01*
G01X47895722Y-6204590D01*
G01X47954700Y-6158013D01*
G01X48012470Y-6134095D01*
G01X48056397Y-6125283D01*
G01X48073847Y-6124024D01*
G01X48073847Y-6124024D01*
G01X48073847Y-6124024D01*
G01X48145110Y-6135580D01*
G01X48196799Y-6156180D01*
G01X48213300Y-6165040D01*
G01X48213300Y-6165040D01*
G01X48215162Y-6086439D01*
G01X48215630Y-6044792D01*
G01X48215644Y-6040235D01*
G01X48215644Y-6040235D01*
G01X48214482Y-5951904D01*
G01X48211796Y-5882917D01*
G01X48208783Y-5834921D01*
G01X48206641Y-5809562D01*
G01X48206269Y-5805860D01*
G01X48206269Y-5805860D01*
G01X48249042Y-5802344D01*
G01X48249042Y-5802344D01*
G01X48300433Y-5834543D01*
G01X48302948Y-5848047D01*
G01X48302948Y-5848047D01*
G01X48302450Y-5889368D01*
G01X48301243Y-5952903D01*
G01X48299762Y-6022160D01*
G01X48298440Y-6080644D01*
G01X48297713Y-6111862D01*
G01X48297675Y-6113477D01*
G01X48297675Y-6113477D01*
G01X48295527Y-6210156D01*
G01X48294060Y-6287669D01*
G01X48293143Y-6347009D01*
G01X48292648Y-6389170D01*
G01X48292444Y-6415146D01*
G01X48292402Y-6425929D01*
G01X48292401Y-6426368D01*
G01X48292401Y-6426368D01*
G01X48294563Y-6526081D01*
G01X48299793Y-6598900D01*
G01X48306211Y-6648005D01*
G01X48311936Y-6676581D01*
G01X48315087Y-6687811D01*
G01X48315253Y-6688282D01*
G01X48315253Y-6688282D01*
G01X48269550Y-6697657D01*
G01X48269550Y-6697657D01*
G01X48221749Y-6661539D01*
G01X48216816Y-6637891D01*
G01X48216816Y-6637891D01*
G01X48153744Y-6681533D01*
G01X48098401Y-6700824D01*
G01X48065020Y-6705710D01*
G01X48060956Y-6705860D01*
G01X48059784Y-6705860D01*
G01X48059784Y-6705860D01*
G01X47988358Y-6691149D01*
G01X47933350Y-6659933D01*
G01X47900157Y-6631587D01*
G01X47892792Y-6623829D01*
G01X47892792Y-6623829D01*
G01X47854261Y-6562320D01*
G01X47833058Y-6499268D01*
G01X47824006Y-6447078D01*
G01X47821930Y-6418153D01*
G01X47821894Y-6415821D01*
G37*
%LPC*%
G36*
G01X47906269Y-6398829D02*
G01X47906269Y-6398829D01*
G01X47915908Y-6478780D01*
G01X47935977Y-6536803D01*
G01X47953202Y-6568884D01*
G01X47956659Y-6574024D01*
G01X47956659Y-6574024D01*
G01X48013352Y-6623752D01*
G01X48061733Y-6640728D01*
G01X48078534Y-6642579D01*
G01X48078534Y-6642579D01*
G01X48144384Y-6625109D01*
G01X48193385Y-6592410D01*
G01X48213281Y-6574044D01*
G01X48213300Y-6574024D01*
G01X48213300Y-6574024D01*
G01X48212396Y-6452175D01*
G01X48211760Y-6362406D01*
G01X48211346Y-6299935D01*
G01X48211106Y-6259980D01*
G01X48210993Y-6237760D01*
G01X48210959Y-6228492D01*
G01X48210956Y-6227149D01*
G01X48210956Y-6227149D01*
G01X48141405Y-6199519D01*
G01X48095409Y-6191787D01*
G01X48087323Y-6191407D01*
G01X48087323Y-6191407D01*
G01X48014580Y-6206650D01*
G01X47969400Y-6234507D01*
G01X47954901Y-6248243D01*
G01X47954901Y-6248243D01*
G01X47921560Y-6309864D01*
G01X47908538Y-6368475D01*
G01X47906272Y-6398387D01*
G01X47906269Y-6398829D01*
G37*
%LPD*%
G36*
G01X48440644Y-6418165D02*
G01X48440644Y-6418165D01*
G01X48450554Y-6334220D01*
G01X48473470Y-6270006D01*
G01X48499174Y-6226198D01*
G01X48517445Y-6203468D01*
G01X48520624Y-6200196D01*
G01X48520624Y-6200196D01*
G01X48583709Y-6156159D01*
G01X48644513Y-6133545D01*
G01X48690322Y-6125214D01*
G01X48708417Y-6124024D01*
G01X48708417Y-6124024D01*
G01X48708417Y-6124024D01*
G01X48783888Y-6137396D01*
G01X48830828Y-6161233D01*
G01X48844355Y-6171485D01*
G01X48844355Y-6171485D01*
G01X48885239Y-6231175D01*
G01X48896086Y-6275791D01*
G01X48896503Y-6282813D01*
G01X48896503Y-6282813D01*
G01X48884970Y-6348760D01*
G01X48879804Y-6360743D01*
G01X48879804Y-6360743D01*
G01X48840295Y-6406645D01*
G01X48836151Y-6409668D01*
G01X48836151Y-6409668D01*
G01X48777033Y-6432883D01*
G01X48758222Y-6437207D01*
G01X48758222Y-6437207D01*
G01X48689008Y-6446839D01*
G01X48658026Y-6449219D01*
G01X48658026Y-6449219D01*
G01X48658026Y-6449219D01*
G01X48592874Y-6451031D01*
G01X48539005Y-6451538D01*
G01X48528534Y-6451563D01*
G01X48528534Y-6451563D01*
G01X48546607Y-6526526D01*
G01X48569817Y-6573309D01*
G01X48580390Y-6588379D01*
G01X48580390Y-6588379D01*
G01X48637195Y-6626984D01*
G01X48686897Y-6638362D01*
G01X48698456Y-6639063D01*
G01X48698456Y-6639063D01*
G01X48773847Y-6622249D01*
G01X48814661Y-6591519D01*
G01X48826191Y-6576368D01*
G01X48826191Y-6576368D01*
G01X48872354Y-6619079D01*
G01X48873652Y-6626758D01*
G01X48873652Y-6626758D01*
G01X48838341Y-6674261D01*
G01X48819159Y-6684180D01*
G01X48819159Y-6684180D01*
G01X48751166Y-6701407D01*
G01X48703366Y-6705733D01*
G01X48697284Y-6705860D01*
G01X48697284Y-6705860D01*
G01X48620691Y-6694736D01*
G01X48562445Y-6670264D01*
G01X48525403Y-6645792D01*
G01X48512421Y-6634668D01*
G01X48512421Y-6634668D01*
G01X48512421Y-6634668D01*
G01X48474706Y-6579256D01*
G01X48453249Y-6516338D01*
G01X48443465Y-6459934D01*
G01X48440768Y-6424063D01*
G01X48440644Y-6418165D01*
G37*
%LPC*%
G36*
G01X48527362Y-6391797D02*
G01X48527362Y-6391797D01*
G01X48597622Y-6391055D01*
G01X48613495Y-6390625D01*
G01X48613495Y-6390625D01*
G01X48676454Y-6384997D01*
G01X48689081Y-6383301D01*
G01X48689081Y-6383301D01*
G01X48750154Y-6368374D01*
G01X48755292Y-6366309D01*
G01X48755292Y-6366309D01*
G01X48796554Y-6335308D01*
G01X48796601Y-6335254D01*
G01X48796601Y-6335254D01*
G01X48813880Y-6285582D01*
G01X48813886Y-6285157D01*
G01X48813886Y-6285157D01*
G01X48790731Y-6227423D01*
G01X48782245Y-6218360D01*
G01X48782245Y-6218360D01*
G01X48723088Y-6192173D01*
G01X48703730Y-6190235D01*
G01X48703730Y-6190235D01*
G01X48633908Y-6205463D01*
G01X48590496Y-6231202D01*
G01X48580683Y-6239454D01*
G01X48580683Y-6239454D01*
G01X48545916Y-6296090D01*
G01X48530918Y-6355740D01*
G01X48527413Y-6390335D01*
G01X48527362Y-6391797D01*
G37*
%LPD*%
G36*
G01X49022480Y-6136329D02*
G01X49022480Y-6136329D01*
G01X49063495Y-6132813D01*
G01X49063495Y-6132813D01*
G01X49113031Y-6165830D01*
G01X49115058Y-6177930D01*
G01X49115058Y-6177930D01*
G01X49114472Y-6194336D01*
G01X49114472Y-6194336D01*
G01X49113886Y-6220118D01*
G01X49113886Y-6220118D01*
G01X49158042Y-6170230D01*
G01X49178046Y-6153614D01*
G01X49178046Y-6153614D01*
G01X49240288Y-6126063D01*
G01X49257441Y-6124024D01*
G01X49257441Y-6124024D01*
G01X49300800Y-6136622D01*
G01X49300800Y-6136622D01*
G01X49316620Y-6170899D01*
G01X49316620Y-6170899D01*
G01X49294245Y-6222581D01*
G01X49292597Y-6224805D01*
G01X49292597Y-6224805D01*
G01X49238433Y-6202165D01*
G01X49234589Y-6201954D01*
G01X49234589Y-6201954D01*
G01X49176200Y-6222290D01*
G01X49167499Y-6228321D01*
G01X49167499Y-6228321D01*
G01X49123205Y-6278005D01*
G01X49110956Y-6298047D01*
G01X49110956Y-6298047D01*
G01X49110137Y-6355096D01*
G01X49109830Y-6418922D01*
G01X49109784Y-6450358D01*
G01X49109784Y-6450391D01*
G01X49109784Y-6450391D01*
G01X49112384Y-6541043D01*
G01X49118491Y-6609580D01*
G01X49125566Y-6656523D01*
G01X49131068Y-6682393D01*
G01X49132636Y-6688282D01*
G01X49132636Y-6688282D01*
G01X49086933Y-6697657D01*
G01X49086933Y-6697657D01*
G01X49040351Y-6682129D01*
G01X49040351Y-6682129D01*
G01X49040351Y-6682129D01*
G01X49028348Y-6629970D01*
G01X49028339Y-6629102D01*
G01X49028339Y-6629102D01*
G01X49028978Y-6570743D01*
G01X49029511Y-6534473D01*
G01X49029511Y-6534473D01*
G01X49030466Y-6456431D01*
G01X49030680Y-6419448D01*
G01X49030683Y-6416993D01*
G01X49030683Y-6416993D01*
G01X49029981Y-6330650D01*
G01X49028259Y-6258114D01*
G01X49026090Y-6201006D01*
G01X49024049Y-6160946D01*
G01X49022709Y-6139552D01*
G01X49022480Y-6136329D01*
G37*
G36*
G01X49400409Y-6142188D02*
G01X49400409Y-6142188D01*
G01X49447284Y-6132813D01*
G01X49447284Y-6132813D01*
G01X49494747Y-6168930D01*
G01X49498847Y-6192579D01*
G01X49498847Y-6192579D01*
G01X49566980Y-6152945D01*
G01X49627753Y-6132593D01*
G01X49671387Y-6125095D01*
G01X49688105Y-6124024D01*
G01X49688105Y-6124024D01*
G01X49688105Y-6124024D01*
G01X49762031Y-6138698D01*
G01X49812831Y-6167431D01*
G01X49835792Y-6187285D01*
G01X49836640Y-6188184D01*
G01X49836640Y-6188184D01*
G01X49870345Y-6245784D01*
G01X49887653Y-6309949D01*
G01X49894030Y-6362084D01*
G01X49894941Y-6383594D01*
G01X49894941Y-6383594D01*
G01X49894941Y-6383594D01*
G01X49888356Y-6459919D01*
G01X49875745Y-6516070D01*
G01X49867822Y-6540872D01*
G01X49867694Y-6541211D01*
G01X49867694Y-6541211D01*
G01X49832253Y-6604637D01*
G01X49796019Y-6645678D01*
G01X49780683Y-6659278D01*
G01X49780683Y-6659278D01*
G01X49717391Y-6691850D01*
G01X49661520Y-6704029D01*
G01X49636567Y-6705860D01*
G01X49636542Y-6705860D01*
G01X49636542Y-6705860D01*
G01X49565530Y-6693913D01*
G01X49516024Y-6673164D01*
G01X49502362Y-6665430D01*
G01X49502362Y-6665430D01*
G01X49502887Y-6722430D01*
G01X49502948Y-6728418D01*
G01X49502948Y-6728418D01*
G01X49503930Y-6797617D01*
G01X49504120Y-6805762D01*
G01X49504120Y-6805762D01*
G01X49506802Y-6864140D01*
G01X49507050Y-6868750D01*
G01X49507050Y-6868750D01*
G01X49513303Y-6932415D01*
G01X49514374Y-6939063D01*
G01X49514374Y-6939063D01*
G01X49526384Y-6988275D01*
G01X49526386Y-6988282D01*
G01X49526386Y-6988282D01*
G01X49478339Y-6997657D01*
G01X49478339Y-6997657D01*
G01X49431757Y-6982129D01*
G01X49431757Y-6982129D01*
G01X49431757Y-6982129D01*
G01X49419754Y-6929970D01*
G01X49419745Y-6929102D01*
G01X49419745Y-6929102D01*
G01X49419896Y-6861405D01*
G01X49420265Y-6790867D01*
G01X49420729Y-6725525D01*
G01X49421167Y-6673417D01*
G01X49421454Y-6642580D01*
G01X49421503Y-6637598D01*
G01X49421503Y-6637598D01*
G01X49422394Y-6541724D01*
G01X49422918Y-6471644D01*
G01X49423172Y-6425323D01*
G01X49423254Y-6400728D01*
G01X49423261Y-6395313D01*
G01X49423261Y-6395313D01*
G01X49420884Y-6296313D01*
G01X49415217Y-6224454D01*
G01X49408453Y-6176782D01*
G01X49402786Y-6150344D01*
G01X49400409Y-6142188D01*
G01X49400409Y-6142188D01*
G37*
%LPC*%
G36*
G01X49502362Y-6257618D02*
G01X49502362Y-6257618D01*
G01X49503267Y-6364310D01*
G01X49503902Y-6448442D01*
G01X49504316Y-6512056D01*
G01X49504556Y-6557191D01*
G01X49504670Y-6585889D01*
G01X49504704Y-6600191D01*
G01X49504706Y-6602735D01*
G01X49504706Y-6602735D01*
G01X49567835Y-6628358D01*
G01X49625519Y-6637750D01*
G01X49648847Y-6639063D01*
G01X49648847Y-6639063D01*
G01X49714911Y-6620752D01*
G01X49740546Y-6602442D01*
G01X49740546Y-6602442D01*
G01X49740546Y-6602442D01*
G01X49780323Y-6546459D01*
G01X49793791Y-6513918D01*
G01X49793866Y-6513672D01*
G01X49793866Y-6513672D01*
G01X49806667Y-6445912D01*
G01X49809367Y-6403661D01*
G01X49809394Y-6401172D01*
G01X49809394Y-6401172D01*
G01X49799946Y-6317118D01*
G01X49781447Y-6264788D01*
G01X49768664Y-6243135D01*
G01X49768085Y-6242383D01*
G01X49768085Y-6242383D01*
G01X49710055Y-6201353D01*
G01X49666369Y-6191615D01*
G01X49661737Y-6191407D01*
G01X49661737Y-6191407D01*
G01X49593582Y-6204882D01*
G01X49538090Y-6232390D01*
G01X49506150Y-6254552D01*
G01X49502362Y-6257618D01*
G37*
%LPD*%
G36*
G01X50002167Y-6537110D02*
G01X50002167Y-6537110D01*
G01X50017383Y-6467540D01*
G01X50030878Y-6447168D01*
G01X50030878Y-6447168D01*
G01X50085935Y-6412388D01*
G01X50109980Y-6403516D01*
G01X50109980Y-6403516D01*
G01X50174527Y-6389877D01*
G01X50241122Y-6380345D01*
G01X50297863Y-6374434D01*
G01X50332843Y-6371657D01*
G01X50338495Y-6371290D01*
G01X50338495Y-6371290D01*
G01X50331396Y-6286357D01*
G01X50318742Y-6241541D01*
G01X50313300Y-6230372D01*
G01X50313300Y-6230372D01*
G01X50260312Y-6198623D01*
G01X50210516Y-6191514D01*
G01X50206073Y-6191407D01*
G01X50206073Y-6191407D01*
G01X50145877Y-6207902D01*
G01X50136640Y-6212793D01*
G01X50136640Y-6212793D01*
G01X50091141Y-6259390D01*
G01X50082441Y-6275196D01*
G01X50082441Y-6275196D01*
G01X50029932Y-6238722D01*
G01X50027362Y-6227149D01*
G01X50027362Y-6227149D01*
G01X50057085Y-6171304D01*
G01X50085077Y-6152149D01*
G01X50085077Y-6152149D01*
G01X50152109Y-6131056D01*
G01X50205667Y-6124518D01*
G01X50219550Y-6124024D01*
G01X50219550Y-6124024D01*
G01X50301860Y-6134361D01*
G01X50351713Y-6154158D01*
G01X50370491Y-6166597D01*
G01X50370722Y-6166797D01*
G01X50370722Y-6166797D01*
G01X50402985Y-6220714D01*
G01X50416132Y-6281749D01*
G01X50418752Y-6318169D01*
G01X50418769Y-6319727D01*
G01X50418769Y-6319727D01*
G01X50417835Y-6377642D01*
G01X50417597Y-6390332D01*
G01X50417597Y-6390332D01*
G01X50416532Y-6463495D01*
G01X50416425Y-6482032D01*
G01X50416425Y-6482032D01*
G01X50419995Y-6572596D01*
G01X50427851Y-6637012D01*
G01X50435706Y-6675501D01*
G01X50439276Y-6688282D01*
G01X50439276Y-6688282D01*
G01X50439276Y-6688282D01*
G01X50392401Y-6697657D01*
G01X50392401Y-6697657D01*
G01X50355194Y-6685059D01*
G01X50355194Y-6685059D01*
G01X50340839Y-6644922D01*
G01X50340839Y-6644922D01*
G01X50274863Y-6684958D01*
G01X50219930Y-6701960D01*
G01X50189613Y-6705799D01*
G01X50187323Y-6705860D01*
G01X50187323Y-6705860D01*
G01X50104469Y-6691426D01*
G01X50050964Y-6655996D01*
G01X50020390Y-6611381D01*
G01X50006331Y-6569391D01*
G01X50002368Y-6541835D01*
G01X50002167Y-6537110D01*
G37*
%LPC*%
G36*
G01X50086542Y-6537110D02*
G01X50086542Y-6537110D01*
G01X50105309Y-6602310D01*
G01X50117597Y-6616797D01*
G01X50117597Y-6616797D01*
G01X50177798Y-6640929D01*
G01X50196698Y-6642579D01*
G01X50196698Y-6642579D01*
G01X50269814Y-6628121D01*
G01X50318131Y-6601700D01*
G01X50334394Y-6588672D01*
G01X50334394Y-6588672D01*
G01X50333223Y-6533765D01*
G01X50333222Y-6532422D01*
G01X50333222Y-6532422D01*
G01X50335549Y-6463043D01*
G01X50337323Y-6432813D01*
G01X50337323Y-6432813D01*
G01X50285259Y-6438661D01*
G01X50285175Y-6438672D01*
G01X50285175Y-6438672D01*
G01X50238007Y-6444532D01*
G01X50238007Y-6444532D01*
G01X50194062Y-6451563D01*
G01X50194062Y-6451563D01*
G01X50158905Y-6461231D01*
G01X50158905Y-6461231D01*
G01X50127851Y-6474707D01*
G01X50127851Y-6474707D01*
G01X50106171Y-6490821D01*
G01X50106171Y-6490821D01*
G01X50090644Y-6511036D01*
G01X50090644Y-6511036D01*
G01X50086542Y-6537110D01*
G37*
%LPD*%
G36*
G01X50552948Y-6610352D02*
G01X50552948Y-6610352D01*
G01X50590926Y-6566249D01*
G01X50606855Y-6559961D01*
G01X50606855Y-6559961D01*
G01X50647755Y-6609257D01*
G01X50663984Y-6618848D01*
G01X50663984Y-6618848D01*
G01X50730136Y-6636827D01*
G01X50759198Y-6639063D01*
G01X50759198Y-6639063D01*
G01X50826707Y-6624918D01*
G01X50842694Y-6616211D01*
G01X50842694Y-6616211D01*
G01X50873011Y-6561336D01*
G01X50874628Y-6545313D01*
G01X50874628Y-6545313D01*
G01X50847330Y-6493536D01*
G01X50842694Y-6490235D01*
G01X50842694Y-6490235D01*
G01X50782578Y-6465254D01*
G01X50765351Y-6460645D01*
G01X50765351Y-6460645D01*
G01X50698773Y-6443680D01*
G01X50674237Y-6436622D01*
G01X50674237Y-6436622D01*
G01X50615877Y-6403367D01*
G01X50596601Y-6384473D01*
G01X50596601Y-6384473D01*
G01X50569421Y-6323012D01*
G01X50564674Y-6283477D01*
G01X50564667Y-6282813D01*
G01X50564667Y-6282813D01*
G01X50584662Y-6215300D01*
G01X50617511Y-6175983D01*
G01X50626484Y-6168555D01*
G01X50626484Y-6168555D01*
G01X50691428Y-6136826D01*
G01X50745371Y-6125483D01*
G01X50766230Y-6124024D01*
G01X50766230Y-6124024D01*
G01X50834846Y-6134365D01*
G01X50874428Y-6148218D01*
G01X50876679Y-6149219D01*
G01X50876679Y-6149219D01*
G01X50925603Y-6196894D01*
G01X50930878Y-6218946D01*
G01X50930878Y-6218946D01*
G01X50892900Y-6263632D01*
G01X50876972Y-6269336D01*
G01X50876972Y-6269336D01*
G01X50836055Y-6221545D01*
G01X50822773Y-6213086D01*
G01X50822773Y-6213086D01*
G01X50758377Y-6193130D01*
G01X50737519Y-6191407D01*
G01X50737519Y-6191407D01*
G01X50675709Y-6207998D01*
G01X50666620Y-6213672D01*
G01X50666620Y-6213672D01*
G01X50637544Y-6267034D01*
G01X50636737Y-6276368D01*
G01X50636737Y-6276368D01*
G01X50663681Y-6328855D01*
G01X50668671Y-6332618D01*
G01X50668671Y-6332618D01*
G01X50727987Y-6358837D01*
G01X50746015Y-6363965D01*
G01X50746015Y-6363965D01*
G01X50811616Y-6381183D01*
G01X50837128Y-6388575D01*
G01X50837128Y-6388575D01*
G01X50896261Y-6421179D01*
G01X50914765Y-6438379D01*
G01X50914765Y-6438379D01*
G01X50942707Y-6498914D01*
G01X50946698Y-6532422D01*
G01X50946698Y-6532422D01*
G01X50946698Y-6532422D01*
G01X50930277Y-6604822D01*
G01X50900265Y-6648147D01*
G01X50885468Y-6661622D01*
G01X50885468Y-6661622D01*
G01X50821152Y-6692555D01*
G01X50764898Y-6704121D01*
G01X50739888Y-6705860D01*
G01X50739862Y-6705860D01*
G01X50739862Y-6705860D01*
G01X50665692Y-6696952D01*
G01X50619047Y-6682318D01*
G01X50609784Y-6678321D01*
G01X50609784Y-6678321D01*
G01X50558481Y-6630827D01*
G01X50552948Y-6610352D01*
G37*
G36*
G01X50995331Y-6179102D02*
G01X50995331Y-6179102D01*
G01X51013202Y-6143946D01*
G01X51013202Y-6143946D01*
G01X51070209Y-6136381D01*
G01X51074433Y-6136329D01*
G01X51108417Y-6136329D01*
G01X51108417Y-6136329D01*
G01X51104926Y-6057561D01*
G01X51101598Y-6010582D01*
G01X51100800Y-6001563D01*
G01X51100800Y-6001563D01*
G01X51140644Y-5998047D01*
G01X51140644Y-5998047D01*
G01X51194915Y-6028967D01*
G01X51198066Y-6043750D01*
G01X51198066Y-6043750D01*
G01X51195441Y-6102063D01*
G01X51193378Y-6137500D01*
G01X51193378Y-6137500D01*
G01X51289142Y-6136493D01*
G01X51351288Y-6134278D01*
G01X51384870Y-6132062D01*
G01X51394941Y-6131055D01*
G01X51394941Y-6131055D01*
G01X51394941Y-6131055D01*
G01X51399628Y-6159180D01*
G01X51399628Y-6159180D01*
G01X51387030Y-6191407D01*
G01X51387030Y-6191407D01*
G01X51346894Y-6200782D01*
G01X51346894Y-6200782D01*
G01X51288949Y-6201601D01*
G01X51223447Y-6201908D01*
G01X51191069Y-6201954D01*
G01X51191034Y-6201954D01*
G01X51191034Y-6201954D01*
G01X51189936Y-6276151D01*
G01X51189249Y-6346828D01*
G01X51188877Y-6407548D01*
G01X51188723Y-6451872D01*
G01X51188691Y-6473362D01*
G01X51188691Y-6474415D01*
G01X51188691Y-6474415D01*
G01X51195616Y-6560115D01*
G01X51207645Y-6601574D01*
G01X51212128Y-6610059D01*
G01X51212128Y-6610059D01*
G01X51267196Y-6640169D01*
G01X51289472Y-6642579D01*
G01X51289472Y-6642579D01*
G01X51354108Y-6622782D01*
G01X51375605Y-6606250D01*
G01X51375605Y-6606250D01*
G01X51397284Y-6649610D01*
G01X51397284Y-6649610D01*
G01X51366552Y-6690166D01*
G01X51366230Y-6690332D01*
G01X51366230Y-6690332D01*
G01X51304522Y-6705194D01*
G01X51290644Y-6705860D01*
G01X51290644Y-6705860D01*
G01X51212372Y-6691983D01*
G01X51166579Y-6665405D01*
G01X51149925Y-6648706D01*
G01X51149726Y-6648438D01*
G01X51149726Y-6648438D01*
G01X51123835Y-6590592D01*
G01X51111936Y-6528545D01*
G01X51108586Y-6484832D01*
G01X51108417Y-6476758D01*
G01X51108417Y-6476758D01*
G01X51109515Y-6369360D01*
G01X51110202Y-6292231D01*
G01X51110575Y-6241250D01*
G01X51110728Y-6212292D01*
G01X51110761Y-6201234D01*
G01X51110761Y-6200782D01*
G01X51110761Y-6200782D01*
G01X51061734Y-6204519D01*
G01X51001885Y-6209325D01*
G01X50998847Y-6209571D01*
G01X50998847Y-6209571D01*
G01X50995331Y-6179102D01*
G37*
G36*
G01X51471112Y-6418165D02*
G01X51471112Y-6418165D01*
G01X51481022Y-6334220D01*
G01X51503939Y-6270006D01*
G01X51529643Y-6226198D01*
G01X51547914Y-6203468D01*
G01X51551093Y-6200196D01*
G01X51551093Y-6200196D01*
G01X51614177Y-6156159D01*
G01X51674982Y-6133545D01*
G01X51720790Y-6125214D01*
G01X51738886Y-6124024D01*
G01X51738886Y-6124024D01*
G01X51738886Y-6124024D01*
G01X51814357Y-6137396D01*
G01X51861297Y-6161233D01*
G01X51874823Y-6171485D01*
G01X51874823Y-6171485D01*
G01X51915708Y-6231175D01*
G01X51926555Y-6275791D01*
G01X51926972Y-6282813D01*
G01X51926972Y-6282813D01*
G01X51915439Y-6348760D01*
G01X51910273Y-6360743D01*
G01X51910273Y-6360743D01*
G01X51870763Y-6406645D01*
G01X51866620Y-6409668D01*
G01X51866620Y-6409668D01*
G01X51807502Y-6432883D01*
G01X51788691Y-6437207D01*
G01X51788691Y-6437207D01*
G01X51719477Y-6446839D01*
G01X51688495Y-6449219D01*
G01X51688495Y-6449219D01*
G01X51688495Y-6449219D01*
G01X51623343Y-6451031D01*
G01X51569473Y-6451538D01*
G01X51559003Y-6451563D01*
G01X51559003Y-6451563D01*
G01X51577076Y-6526526D01*
G01X51600285Y-6573309D01*
G01X51610859Y-6588379D01*
G01X51610859Y-6588379D01*
G01X51667663Y-6626984D01*
G01X51717366Y-6638362D01*
G01X51728925Y-6639063D01*
G01X51728925Y-6639063D01*
G01X51804316Y-6622249D01*
G01X51845130Y-6591519D01*
G01X51856659Y-6576368D01*
G01X51856659Y-6576368D01*
G01X51902823Y-6619079D01*
G01X51904120Y-6626758D01*
G01X51904120Y-6626758D01*
G01X51868809Y-6674261D01*
G01X51849628Y-6684180D01*
G01X51849628Y-6684180D01*
G01X51781634Y-6701407D01*
G01X51733835Y-6705733D01*
G01X51727753Y-6705860D01*
G01X51727753Y-6705860D01*
G01X51651160Y-6694736D01*
G01X51592914Y-6670264D01*
G01X51555872Y-6645792D01*
G01X51542890Y-6634668D01*
G01X51542890Y-6634668D01*
G01X51542890Y-6634668D01*
G01X51505175Y-6579256D01*
G01X51483718Y-6516338D01*
G01X51473934Y-6459934D01*
G01X51471236Y-6424063D01*
G01X51471112Y-6418165D01*
G37*
%LPC*%
G36*
G01X51557831Y-6391797D02*
G01X51557831Y-6391797D01*
G01X51628090Y-6391055D01*
G01X51643964Y-6390625D01*
G01X51643964Y-6390625D01*
G01X51706923Y-6384997D01*
G01X51719550Y-6383301D01*
G01X51719550Y-6383301D01*
G01X51780622Y-6368374D01*
G01X51785761Y-6366309D01*
G01X51785761Y-6366309D01*
G01X51827023Y-6335308D01*
G01X51827069Y-6335254D01*
G01X51827069Y-6335254D01*
G01X51844349Y-6285582D01*
G01X51844355Y-6285157D01*
G01X51844355Y-6285157D01*
G01X51821200Y-6227423D01*
G01X51812714Y-6218360D01*
G01X51812714Y-6218360D01*
G01X51753557Y-6192173D01*
G01X51734198Y-6190235D01*
G01X51734198Y-6190235D01*
G01X51664377Y-6205463D01*
G01X51620964Y-6231202D01*
G01X51611151Y-6239454D01*
G01X51611151Y-6239454D01*
G01X51576385Y-6296090D01*
G01X51561386Y-6355740D01*
G01X51557882Y-6390335D01*
G01X51557831Y-6391797D01*
G37*

G04 Pad flashes *
%LPD*%
D11*

G04 end of program *
M02*
