<?xml version="1.0" encoding="UTF-8" standalone="no"?>
<!-- Created with Inkscape (http://www.inkscape.org/) -->

<svg
   xmlns:pcbmode="pcbmode"
   xmlns:dc="http://purl.org/dc/elements/1.1/"
   xmlns:cc="http://creativecommons.org/ns#"
   xmlns:rdf="http://www.w3.org/1999/02/22-rdf-syntax-ns#"
   xmlns:svg="http://www.w3.org/2000/svg"
   xmlns="http://www.w3.org/2000/svg"
   xmlns:sodipodi="http://sodipodi.sourceforge.net/DTD/sodipodi-0.dtd"
   xmlns:inkscape="http://www.inkscape.org/namespaces/inkscape"
   width="210mm"
   height="297mm"
   viewBox="0 0 744.09448819 1052.3622047"
   id="svg6166"
   version="1.1"
   inkscape:version="0.91 r13725"
   sodipodi:docname="enclosure.svg">
  <defs
     id="defs6168" />
  <sodipodi:namedview
     id="base"
     pagecolor="#ffffff"
     bordercolor="#666666"
     borderopacity="1.0"
     inkscape:pageopacity="0.0"
     inkscape:pageshadow="2"
     inkscape:zoom="0.49497475"
     inkscape:cx="36.113493"
     inkscape:cy="261.06075"
     inkscape:document-units="mm"
     inkscape:current-layer="layer1"
     showgrid="false"
     inkscape:window-width="1920"
     inkscape:window-height="1056"
     inkscape:window-x="0"
     inkscape:window-y="24"
     inkscape:window-maximized="1"
     showguides="false" />
  <metadata
     id="metadata6171">
    <rdf:RDF>
      <cc:Work
         rdf:about="">
        <dc:format>image/svg+xml</dc:format>
        <dc:type
           rdf:resource="http://purl.org/dc/dcmitype/StillImage" />
        <dc:title />
      </cc:Work>
    </rdf:RDF>
  </metadata>
  <g
     inkscape:label="Layer 1"
     inkscape:groupmode="layer"
     id="layer1">
    <g
       transform="matrix(3.5433071,0,0,3.5433071,-291.97974,783.80353)"
       style="fill:none;stroke:#555555;stroke-width:0.1;stroke-miterlimit:4;stroke-dasharray:none;stroke-opacity:1"
       pcbmode:type="module-shapes"
       id="g4199">
      <path
         d="m -4.464645,27.541222 c 1.46276,0.444819 2.96067,0.674375 4.46457,0.684033 1.48314,-0.0089 2.96049,-0.231783 4.4041,-0.664044 0.1356,-0.04814 0.25359,-0.04343 0.31032,0.145046 0.30128,0.939718 0.62222,1.878598 0.96806,2.816465 9.73575,-2.826176 15.15617,-14.520399 15.11487,-25.833258 0,-10.414261 -4.09687,-19.448174 -10.80829,-23.933748 -0.13986,-0.13783 -0.10152,-0.147983 -0.1105,-0.28971 0.0233,-0.182644 0.0355,-0.365884 0.0367,-0.549261 -0.003,-1.750705 -1.01308,-3.429985 -2.81188,-4.682038 -0.10072,-0.102124 -0.08,-0.233646 -0.08,-0.233646 0.0532,-0.234719 0.0808,-0.471855 0.0824,-0.709468 -2.5e-4,-2.658907 -3.1815,-4.814293 -7.10572,-4.814315 -3.92421,2.1e-5 -7.10547,2.155408 -7.10571,4.814315 8.5e-4,0.245475 0.0291,0.490489 0.085,0.732902 0.0114,0.06207 9.9e-4,0.136982 -0.0803,0.206368 -1.80109,1.252806 -2.81223,2.933692 -2.81421,4.685882 0.003,0.190801 0.0182,0.3814 0.0452,0.571281 0.009,0.131013 -0.0359,0.207531 -0.10576,0.259359 -6.71912,4.482592 -10.82148,13.521104 -10.82148,23.942079 -0.0413,11.312859 5.37914,23.007082 15.11487,25.833258 0.35027,-0.94989 0.67503,-1.900809 0.97966,-2.852592 0.027,-0.100616 0.056,-0.199103 0.23825,-0.128908 z"
         style="fill:none;stroke-width:0.1;stroke-miterlimit:4;stroke-dasharray:none"
         pcbmode:style="stroke"
         id="path4201"
         inkscape:connector-curvature="0" />
    </g>
    <rect
       style="opacity:1;fill:none;fill-opacity:1;stroke:#000000;stroke-width:0.35433072;stroke-linejoin:round;stroke-miterlimit:4;stroke-dasharray:none;stroke-opacity:1"
       id="rect4203"
       width="318.89764"
       height="354.33072"
       x="-451.42859"
       y="606.64795"
       ry="17.716536"
       rx="17.716536" />
    <g
       transform="matrix(3.5433071,0,0,3.5433071,-291.97974,783.81328)"
       style="fill:none;stroke:#555555;stroke-opacity:1"
       id="g4213">
      <g
         id="g4215"
         pcbmode:refdef="R4"
         pcbmode:type="component"
         transform="translate(-18.441333,3.799999)"
         style="fill:#a60000;fill-opacity:0.6;stroke:none;stroke-opacity:0.6">
        <g
           id="g4217"
           style="font-style:normal;font-variant:normal;font-weight:bold;font-stretch:normal;font-size:0.1px;line-height:100%;font-family:'Sans serif';text-align:center;letter-spacing:0;word-spacing:0;writing-mode:lr-tb;text-anchor:middle;fill:#f3ff00;fill-opacity:1;stroke:none">
          <text
             id="text4219"
             y="2"
             x="-0.15000001">1</text>
          <text
             id="text4221"
             y="-2"
             x="-0.15000001">2</text>
        </g>
        <path
           inkscape:connector-curvature="0"
           id="path4223"
           transform="translate(-0.15,2)"
           pcbmode:style="fill"
           style="fill-opacity:0.6;stroke:none"
           d="M 1.049202,0.196755 C 1.066146,0.132291 1.07489,0.0662822 1.075258,7.8e-6 c -3.392e-4,-0.06536 -0.00883,-0.130464 -0.025296,-0.1940824 -0.00184,-0.006 -0.00168,-0.011176 0.00552,-0.013672 0.0358,-0.01328 0.071568,-0.027424 0.1072936,-0.042664 -0.107664,-0.42904 -0.5531592,-0.6679096 -0.9841264,-0.6660896 -0.3967344,0 -0.740884,0.1805424 -0.911764,0.4763048 -0.00528,0.00616 -0.0056,0.00448 -0.011032,0.00488 -0.00696,-0.00104 -0.013936,-0.0016 -0.020928,-0.0016 -0.066696,1.32e-4 -0.1306664,0.044648 -0.1783632,0.1239152 -0.00392,0.0044 -0.008904,0.00352 -0.008904,0.00352 -0.008944,-0.00232 -0.017976,-0.0036 -0.027032,-0.0036 -0.101292,1.04e-5 -0.1834016,0.140204 -0.1834024,0.3131384 8e-7,0.1729336 0.08211,0.3131272 0.1834024,0.3131376 0.009352,-3.68e-5 0.018688,-0.00128 0.02792,-0.00376 0.0024,-5.024e-4 0.0052,-4.32e-5 0.00784,0.00352 0.047728,0.079368 0.1117592,0.1239304 0.1785096,0.1240176 0.00728,-1.32e-4 0.014528,-8e-4 0.02176,-0.002 0.00496,-3.96e-4 0.00792,0.0016 0.00988,0.00464 0.1707656,0.2961016 0.5150904,0.4768864 0.9120808,0.4768864 0.4309672,0.00184 0.8764624,-0.2370504 0.9841264,-0.6660896 -0.036184,-0.01544 -0.072408,-0.029744 -0.1086704,-0.043176 -0.00384,-0.0012 -0.0076,-0.00248 -0.00488,-0.010496 z" />
        <path
           inkscape:connector-curvature="0"
           id="path4225"
           transform="translate(-0.15,-2)"
           pcbmode:style="fill"
           style="fill-opacity:0.6;stroke:none"
           d="M 1.049202,0.196755 C 1.066146,0.132291 1.07489,0.0662822 1.075258,7.8e-6 c -3.392e-4,-0.06536 -0.00883,-0.130464 -0.025296,-0.1940824 -0.00184,-0.006 -0.00168,-0.011176 0.00552,-0.013672 0.0358,-0.01328 0.071568,-0.027424 0.1072936,-0.042664 -0.107664,-0.42904 -0.5531592,-0.6679096 -0.9841264,-0.6660896 -0.3967344,0 -0.740884,0.1805424 -0.911764,0.4763048 -0.00528,0.00616 -0.0056,0.00448 -0.011032,0.00488 -0.00696,-0.00104 -0.013936,-0.0016 -0.020928,-0.0016 -0.066696,1.32e-4 -0.1306664,0.044648 -0.1783632,0.1239152 -0.00392,0.0044 -0.008904,0.00352 -0.008904,0.00352 -0.008944,-0.00232 -0.017976,-0.0036 -0.027032,-0.0036 -0.101292,1.04e-5 -0.1834016,0.140204 -0.1834024,0.3131384 8e-7,0.1729336 0.08211,0.3131272 0.1834024,0.3131376 0.009352,-3.68e-5 0.018688,-0.00128 0.02792,-0.00376 0.0024,-5.024e-4 0.0052,-4.32e-5 0.00784,0.00352 0.047728,0.079368 0.1117592,0.1239304 0.1785096,0.1240176 0.00728,-1.32e-4 0.014528,-8e-4 0.02176,-0.002 0.00496,-3.96e-4 0.00792,0.0016 0.00988,0.00464 0.1707656,0.2961016 0.5150904,0.4768864 0.9120808,0.4768864 0.4309672,0.00184 0.8764624,-0.2370504 0.9841264,-0.6660896 -0.036184,-0.01544 -0.072408,-0.029744 -0.1086704,-0.043176 -0.00384,-0.0012 -0.0076,-0.00248 -0.00488,-0.010496 z" />
      </g>
      <g
         id="g4227"
         pcbmode:refdef="R2"
         pcbmode:type="component"
         transform="translate(-12.7575,22.503001)"
         style="fill:#a60000;fill-opacity:0.6;stroke:none;stroke-opacity:0.6">
        <g
           id="g4229"
           style="font-style:normal;font-variant:normal;font-weight:bold;font-stretch:normal;font-size:0.1px;line-height:100%;font-family:'Sans serif';text-align:center;letter-spacing:0;word-spacing:0;writing-mode:lr-tb;text-anchor:middle;fill:#f3ff00;fill-opacity:1;stroke:none">
          <text
             id="text4231"
             y="1.628507"
             x="1.1706686">1</text>
          <text
             id="text4233"
             y="-1.4356707"
             x="-1.4004819">2</text>
        </g>
        <path
           inkscape:connector-curvature="0"
           id="path4235"
           transform="translate(1.1706685,1.628507)"
           pcbmode:style="fill"
           style="fill-opacity:0.6;stroke:none"
           d="M 0.930207,-0.523691 C 0.9017502,-0.5839647 0.8660188,-0.64015089 0.82370039,-0.69115657 c -0.0422724,-0.0498506 -0.0906263,-0.0942641 -0.14413162,-0.13241579 -0.005266,-0.003414 -0.008471,-0.007481 -0.00456,-0.0140216 0.0188882,-0.0331849 0.0371965,-0.067011 0.0547678,-0.10164952 -0.35825701,-0.25945862 -0.85306855,-0.15608452 -1.1820387,0.12233002 -0.30391619,0.25501596 -0.45149966,0.61453456 -0.39228893,0.95094125 -8.514e-5,0.008113 -0.00141,0.007031 -0.005314,0.0108295 -0.006,0.003677 -0.0117041,0.007732 -0.0170602,0.0122266 -0.0510073,0.0429725 -0.0713971,0.11819309 -0.056983,0.2095742 -1.7462e-4,0.00589 -0.004558,0.00842 -0.004558,0.00842 -0.008343,0.003972 -0.0160845,0.008797 -0.0230218,0.0146181 -0.0775875,0.0651172 -0.0503724,0.22529077 0.0607871,0.35776672 0.11116019,0.13247431 0.2641745,0.1870898 0.34177536,0.12198853 0.00714,-0.00604 0.0134931,-0.012993 0.0189711,-0.020827 0.001516,-0.001928 0.003956,-0.003376 0.008268,-0.002343 0.0875785,0.0301204 0.16527344,0.0230988 0.21646327,-0.0197408 0.005492,-0.004781 0.0106149,-0.009951 0.0153836,-0.0155191 0.003545,-0.003492 0.007096,-0.003865 0.0105511,-0.002796 0.32114448,0.11706098 0.70111881,0.0342225 1.0052311,-0.22095806 C 1.0572653,0.31165663 1.2449787,-0.15770283 1.051673,-0.55557101 c -0.037643,0.0114309 -0.0745868,0.0237577 -0.11099937,0.0367772 -0.003713,0.001549 -0.007416,0.002985 -0.010485,-0.004904 z" />
        <path
           inkscape:connector-curvature="0"
           id="path4237"
           transform="translate(-1.4004819,-1.4356707)"
           pcbmode:style="fill"
           style="fill-opacity:0.6;stroke:none"
           d="M 0.930207,-0.523691 C 0.9017502,-0.5839647 0.8660188,-0.64015089 0.82370039,-0.69115657 c -0.0422724,-0.0498506 -0.0906263,-0.0942641 -0.14413162,-0.13241579 -0.005266,-0.003414 -0.008471,-0.007481 -0.00456,-0.0140216 0.0188882,-0.0331849 0.0371965,-0.067011 0.0547678,-0.10164952 -0.35825701,-0.25945862 -0.85306855,-0.15608452 -1.1820387,0.12233002 -0.30391619,0.25501596 -0.45149966,0.61453456 -0.39228893,0.95094125 -8.514e-5,0.008113 -0.00141,0.007031 -0.005314,0.0108295 -0.006,0.003677 -0.0117041,0.007732 -0.0170602,0.0122266 -0.0510073,0.0429725 -0.0713971,0.11819309 -0.056983,0.2095742 -1.7462e-4,0.00589 -0.004558,0.00842 -0.004558,0.00842 -0.008343,0.003972 -0.0160845,0.008797 -0.0230218,0.0146181 -0.0775875,0.0651172 -0.0503724,0.22529077 0.0607871,0.35776672 0.11116019,0.13247431 0.2641745,0.1870898 0.34177536,0.12198853 0.00714,-0.00604 0.0134931,-0.012993 0.0189711,-0.020827 0.001516,-0.001928 0.003956,-0.003376 0.008268,-0.002343 0.0875785,0.0301204 0.16527344,0.0230988 0.21646327,-0.0197408 0.005492,-0.004781 0.0106149,-0.009951 0.0153836,-0.0155191 0.003545,-0.003492 0.007096,-0.003865 0.0105511,-0.002796 0.32114448,0.11706098 0.70111881,0.0342225 1.0052311,-0.22095806 C 1.0572653,0.31165663 1.2449787,-0.15770283 1.051673,-0.55557101 c -0.037643,0.0114309 -0.0745868,0.0237577 -0.11099937,0.0367772 -0.003713,0.001549 -0.007416,0.002985 -0.010485,-0.004904 z" />
      </g>
      <g
         id="g4239"
         pcbmode:refdef="R3"
         pcbmode:type="component"
         transform="translate(18.441334,3.799999)"
         style="fill:#a60000;fill-opacity:0.6;stroke:none;stroke-opacity:0.6">
        <g
           id="g4241"
           style="font-style:normal;font-variant:normal;font-weight:bold;font-stretch:normal;font-size:0.1px;line-height:100%;font-family:'Sans serif';text-align:center;letter-spacing:0;word-spacing:0;writing-mode:lr-tb;text-anchor:middle;fill:#f3ff00;fill-opacity:1;stroke:none">
          <text
             id="text4243"
             y="-2"
             x="0.15000001">1</text>
          <text
             id="text4245"
             y="2"
             x="0.15000001">2</text>
        </g>
        <path
           inkscape:connector-curvature="0"
           id="path4247"
           transform="translate(0.15,-2)"
           pcbmode:style="fill"
           style="fill-opacity:0.6;stroke:none"
           d="m -1.049202,-0.196755 c -0.016944,0.064464 -0.025688,0.1304728 -0.026056,0.1967472 3.392e-4,0.06536 0.00883,0.130464 0.025296,0.1940824 0.00184,0.006 0.00168,0.011176 -0.00552,0.013672 -0.0358,0.01328 -0.071568,0.027424 -0.1072936,0.042664 0.107664,0.42904 0.5531592,0.6679096 0.9841264,0.6660896 0.3967344,0 0.740884,-0.1805424 0.911764,-0.4763048 0.00528,-0.00616 0.0056,-0.00448 0.011032,-0.00488 0.00696,0.00104 0.013936,0.0016 0.020928,0.0016 0.066696,-1.32e-4 0.1306664,-0.044648 0.1783632,-0.1239152 0.00392,-0.0044 0.008904,-0.00352 0.008904,-0.00352 0.008944,0.00232 0.017976,0.0036 0.027032,0.0036 0.101292,-1.04e-5 0.1834016,-0.140204 0.1834024,-0.3131384 -8e-7,-0.1729336 -0.08211,-0.3131272 -0.1834024,-0.3131376 -0.009352,3.68e-5 -0.018688,0.00128 -0.02792,0.00376 -0.0024,5.024e-4 -0.0052,4.32e-5 -0.00784,-0.00352 -0.047728,-0.079368 -0.1117592,-0.1239304 -0.1785096,-0.1240176 -0.00728,1.32e-4 -0.014528,8e-4 -0.02176,0.002 -0.00496,3.96e-4 -0.00792,-0.0016 -0.00988,-0.00464 -0.1707656,-0.2961016 -0.5150904,-0.4768864 -0.9120808,-0.4768864 -0.4309672,-0.00184 -0.8764624,0.2370504 -0.9841264,0.6660896 0.036184,0.01544 0.072408,0.029744 0.1086704,0.043176 0.00384,0.0012 0.0076,0.00248 0.00488,0.010496 z" />
        <path
           inkscape:connector-curvature="0"
           id="path4249"
           transform="translate(0.15,2)"
           pcbmode:style="fill"
           style="fill-opacity:0.6;stroke:none"
           d="m -1.049202,-0.196755 c -0.016944,0.064464 -0.025688,0.1304728 -0.026056,0.1967472 3.392e-4,0.06536 0.00883,0.130464 0.025296,0.1940824 0.00184,0.006 0.00168,0.011176 -0.00552,0.013672 -0.0358,0.01328 -0.071568,0.027424 -0.1072936,0.042664 0.107664,0.42904 0.5531592,0.6679096 0.9841264,0.6660896 0.3967344,0 0.740884,-0.1805424 0.911764,-0.4763048 0.00528,-0.00616 0.0056,-0.00448 0.011032,-0.00488 0.00696,0.00104 0.013936,0.0016 0.020928,0.0016 0.066696,-1.32e-4 0.1306664,-0.044648 0.1783632,-0.1239152 0.00392,-0.0044 0.008904,-0.00352 0.008904,-0.00352 0.008944,0.00232 0.017976,0.0036 0.027032,0.0036 0.101292,-1.04e-5 0.1834016,-0.140204 0.1834024,-0.3131384 -8e-7,-0.1729336 -0.08211,-0.3131272 -0.1834024,-0.3131376 -0.009352,3.68e-5 -0.018688,0.00128 -0.02792,0.00376 -0.0024,5.024e-4 -0.0052,4.32e-5 -0.00784,-0.00352 -0.047728,-0.079368 -0.1117592,-0.1239304 -0.1785096,-0.1240176 -0.00728,1.32e-4 -0.014528,8e-4 -0.02176,0.002 -0.00496,3.96e-4 -0.00792,-0.0016 -0.00988,-0.00464 -0.1707656,-0.2961016 -0.5150904,-0.4768864 -0.9120808,-0.4768864 -0.4309672,-0.00184 -0.8764624,0.2370504 -0.9841264,0.6660896 0.036184,0.01544 0.072408,0.029744 0.1086704,0.043176 0.00384,0.0012 0.0076,0.00248 0.00488,0.010496 z" />
      </g>
      <g
         id="g4251"
         pcbmode:refdef="R6"
         pcbmode:type="component"
         transform="translate(-14.073666,-11.4515)"
         style="fill:#a60000;fill-opacity:0.6;stroke:none;stroke-opacity:0.6">
        <g
           id="g4253"
           style="font-style:normal;font-variant:normal;font-weight:bold;font-stretch:normal;font-size:0.1px;line-height:100%;font-family:'Sans serif';text-align:center;letter-spacing:0;word-spacing:0;writing-mode:lr-tb;text-anchor:middle;fill:#f3ff00;fill-opacity:1;stroke:none">
          <text
             id="text4255"
             y="1.6954745"
             x="-1.0713853">1</text>
          <text
             id="text4257"
             y="-1.8363159"
             x="0.80650097">2</text>
        </g>
        <path
           inkscape:connector-curvature="0"
           id="path4259"
           transform="translate(-1.0713853,1.6954744)"
           pcbmode:style="fill"
           style="fill-opacity:0.6;stroke:none"
           d="M 0.83402,0.666295 C 0.8792447,0.6173314 0.9179544,0.56315414 0.9493933,0.50481008 0.9797785,0.44694138 1.0028442,0.38547084 1.0181744,0.32156974 c 0.00119,-0.006162 0.00376,-0.0106565 0.011293,-0.00948 0.037844,0.005082 0.076066,0.009385 0.1147642,0.0127012 0.1063604,-0.42936503 -0.17484605,-0.84942169 -0.55622194,-1.05014157 -0.35029568,-0.18625552 -0.73892127,-0.18841449 -1.02865139,-0.007495 -0.007554,0.00296 -0.007048,0.001327 -0.0120317,-8.7042e-4 -0.005657,-0.004186 -0.0115536,-0.007955 -0.0177272,-0.0112378 -0.058951,-0.0311953 -0.13633255,-0.0219223 -0.21566002,0.0256742 -0.005527,0.002045 -0.009514,-0.001072 -0.009514,-0.001072 -0.006808,-0.006247 -0.0141818,-0.0116178 -0.0221777,-0.0158694 -0.0894404,-0.0475445 -0.22775579,0.037691 -0.30894425,0.19038259 -0.081187,0.15269168 -0.074505,0.3150234 0.014925,0.3625863 0.00827,0.004358 0.0171014,0.007643 0.0264171,0.009788 0.002355,6.8314e-4 0.004612,0.002403 0.00527,0.006789 0.00488,0.09248473 0.0404957,0.16189182 0.0993919,0.19330623 0.00649,0.0033012 0.013203,0.0061141 0.0201519,0.0084498 0.004565,0.0019789 0.006242,0.0051309 0.006545,0.0087353 0.0117658,0.34161179 0.23091323,0.66288599 0.58143494,0.8492617 0.37965763,0.20395143 0.88515879,0.20217103 1.18164217,-0.12610285 -0.0246999,-0.0306201 -0.0499685,-0.0602559 -0.0756804,-0.0891398 -0.002827,-0.002862 -0.005546,-0.005758 6.1879e-4,-0.0115584 z" />
        <path
           inkscape:connector-curvature="0"
           id="path4261"
           transform="translate(0.80650099,-1.8363159)"
           pcbmode:style="fill"
           style="fill-opacity:0.6;stroke:none"
           d="M 0.83402,0.666295 C 0.8792447,0.6173314 0.9179544,0.56315414 0.9493933,0.50481008 0.9797785,0.44694138 1.0028442,0.38547084 1.0181744,0.32156974 c 0.00119,-0.006162 0.00376,-0.0106565 0.011293,-0.00948 0.037844,0.005082 0.076066,0.009385 0.1147642,0.0127012 0.1063604,-0.42936503 -0.17484605,-0.84942169 -0.55622194,-1.05014157 -0.35029568,-0.18625552 -0.73892127,-0.18841449 -1.02865139,-0.007495 -0.007554,0.00296 -0.007048,0.001327 -0.0120317,-8.7042e-4 -0.005657,-0.004186 -0.0115536,-0.007955 -0.0177272,-0.0112378 -0.058951,-0.0311953 -0.13633255,-0.0219223 -0.21566002,0.0256742 -0.005527,0.002045 -0.009514,-0.001072 -0.009514,-0.001072 -0.006808,-0.006247 -0.0141818,-0.0116178 -0.0221777,-0.0158694 -0.0894404,-0.0475445 -0.22775579,0.037691 -0.30894425,0.19038259 -0.081187,0.15269168 -0.074505,0.3150234 0.014925,0.3625863 0.00827,0.004358 0.0171014,0.007643 0.0264171,0.009788 0.002355,6.8314e-4 0.004612,0.002403 0.00527,0.006789 0.00488,0.09248473 0.0404957,0.16189182 0.0993919,0.19330623 0.00649,0.0033012 0.013203,0.0061141 0.0201519,0.0084498 0.004565,0.0019789 0.006242,0.0051309 0.006545,0.0087353 0.0117658,0.34161179 0.23091323,0.66288599 0.58143494,0.8492617 0.37965763,0.20395143 0.88515879,0.20217103 1.18164217,-0.12610285 -0.0246999,-0.0306201 -0.0499685,-0.0602559 -0.0756804,-0.0891398 -0.002827,-0.002862 -0.005546,-0.005758 6.1879e-4,-0.0115584 z" />
      </g>
      <g
         id="g4263"
         pcbmode:refdef="R1"
         pcbmode:type="component"
         transform="translate(12.773665,22.373667)"
         style="fill:#a60000;fill-opacity:0.6;stroke:none;stroke-opacity:0.6">
        <g
           id="g4265"
           style="font-style:normal;font-variant:normal;font-weight:bold;font-stretch:normal;font-size:0.1px;line-height:100%;font-family:'Sans serif';text-align:center;letter-spacing:0;word-spacing:0;writing-mode:lr-tb;text-anchor:middle;fill:#f3ff00;fill-opacity:1;stroke:none">
          <text
             id="text4267"
             y="-1.4356707"
             x="1.4004819">1</text>
          <text
             id="text4269"
             y="1.628507"
             x="-1.1706686">2</text>
        </g>
        <path
           inkscape:connector-curvature="0"
           id="path4271"
           transform="translate(1.4004819,-1.4356707)"
           pcbmode:style="fill"
           style="fill-opacity:0.6;stroke:none"
           d="m -0.677264,-0.825138 c -0.0544165,0.0384909 -0.10354445,0.083436 -0.14642672,0.13396863 -0.0417528,0.0502867 -0.0770949,0.10561832 -0.1053759,0.16493569 -0.002447,0.005779 -0.005897,0.009641 -0.0130168,0.006925 -0.0359606,-0.0128387 -0.0724521,-0.024995 -0.10961548,-0.0362845 -0.1933062,0.39786879 -0.00558,0.86721232 0.32573035,1.14283849 0.30391618,0.25501596 0.68360048,0.33792756 1.00461457,0.22119996 0.008004,-0.001325 0.00717,1.6773e-4 0.0115878,0.003353 0.004663,0.00527 0.009647,0.0101836 0.0150033,0.0146779 0.051177,0.0427702 0.12879545,0.0497884 0.21628529,0.0197251 0.005831,-8.5087e-4 0.009083,0.003027 0.009083,0.003027 0.00536,0.007526 0.0114564,0.0143125 0.0183937,0.0201336 0.0776009,0.0651013 0.23061517,0.0104858 0.34177588,-0.12198914 0.11115901,-0.13247534 0.13837411,-0.2926489 0.0607866,-0.35776611 -0.007188,-0.005983 -0.0151386,-0.0110319 -0.0238048,-0.0150663 -0.002161,-0.001158 -0.004011,-0.003309 -0.003743,-0.007736 0.014455,-0.0914784 -0.005952,-0.16677363 -0.0570293,-0.20974676 -0.005662,-0.004578 -0.0116433,-0.008726 -0.0179547,-0.012455 -0.004054,-0.002885 -0.005039,-0.006317 -0.004586,-0.009905 0.0595164,-0.336593 -0.0880455,-0.69640991 -0.39215776,-0.95159042 -0.3289573,-0.27842994 -0.82378221,-0.38178804 -1.1820387,-0.12233002 0.0177939,0.0350864 0.0363487,0.0693282 0.0554934,0.10292672 0.00217,0.003388 0.004228,0.006785 -0.003008,0.0111772 z" />
        <path
           inkscape:connector-curvature="0"
           id="path4273"
           transform="translate(-1.1706685,1.628507)"
           pcbmode:style="fill"
           style="fill-opacity:0.6;stroke:none"
           d="m -0.677264,-0.825138 c -0.0544165,0.0384909 -0.10354445,0.083436 -0.14642672,0.13396863 -0.0417528,0.0502867 -0.0770949,0.10561832 -0.1053759,0.16493569 -0.002447,0.005779 -0.005897,0.009641 -0.0130168,0.006925 -0.0359606,-0.0128387 -0.0724521,-0.024995 -0.10961548,-0.0362845 -0.1933062,0.39786879 -0.00558,0.86721232 0.32573035,1.14283849 0.30391618,0.25501596 0.68360048,0.33792756 1.00461457,0.22119996 0.008004,-0.001325 0.00717,1.6773e-4 0.0115878,0.003353 0.004663,0.00527 0.009647,0.0101836 0.0150033,0.0146779 0.051177,0.0427702 0.12879545,0.0497884 0.21628529,0.0197251 0.005831,-8.5087e-4 0.009083,0.003027 0.009083,0.003027 0.00536,0.007526 0.0114564,0.0143125 0.0183937,0.0201336 0.0776009,0.0651013 0.23061517,0.0104858 0.34177588,-0.12198914 0.11115901,-0.13247534 0.13837411,-0.2926489 0.0607866,-0.35776611 -0.007188,-0.005983 -0.0151386,-0.0110319 -0.0238048,-0.0150663 -0.002161,-0.001158 -0.004011,-0.003309 -0.003743,-0.007736 0.014455,-0.0914784 -0.005952,-0.16677363 -0.0570293,-0.20974676 -0.005662,-0.004578 -0.0116433,-0.008726 -0.0179547,-0.012455 -0.004054,-0.002885 -0.005039,-0.006317 -0.004586,-0.009905 0.0595164,-0.336593 -0.0880455,-0.69640991 -0.39215776,-0.95159042 -0.3289573,-0.27842994 -0.82378221,-0.38178804 -1.1820387,-0.12233002 0.0177939,0.0350864 0.0363487,0.0693282 0.0554934,0.10292672 0.00217,0.003388 0.004228,0.006785 -0.003008,0.0111772 z" />
      </g>
      <g
         id="g4275"
         pcbmode:refdef="R5"
         pcbmode:type="component"
         transform="translate(13.992834,-11.370666)"
         style="fill:#a60000;fill-opacity:0.6;stroke:none;stroke-opacity:0.6">
        <g
           id="g4277"
           style="font-style:normal;font-variant:normal;font-weight:bold;font-stretch:normal;font-size:0.1px;line-height:100%;font-family:'Sans serif';text-align:center;letter-spacing:0;word-spacing:0;writing-mode:lr-tb;text-anchor:middle;fill:#f3ff00;fill-opacity:1;stroke:none">
          <text
             id="text4279"
             y="-1.8363159"
             x="-0.80650097">1</text>
          <text
             id="text4281"
             y="1.6954745"
             x="1.0713853">2</text>
        </g>
        <path
           inkscape:connector-curvature="0"
           id="path4283"
           transform="translate(-0.80650099,-1.8363159)"
           pcbmode:style="fill"
           style="fill-opacity:0.6;stroke:none"
           d="m -1.018762,0.318846 c 0.015303,0.0648731 0.0385721,0.12726043 0.0693611,0.18595002 0.0309842,0.0575502 0.0690473,0.1110465 0.11345121,0.15948883 0.004441,0.004434 0.00673,0.009079 0.001545,0.0146631 -0.0253749,0.0285326 -0.050316,0.0578131 -0.0747051,0.0880414 C -0.61262625,1.095264 -0.10713486,1.097026 0.27253216,0.89309222 0.62282784,0.7068367 0.84193438,0.38585877 0.85396043,0.04449277 c 0.00177,-0.0079178 0.002841,-0.0065847 0.00745,-0.009488 0.006634,-0.0023492 0.0130559,-0.0051298 0.0192295,-0.0084124 0.0588271,-0.03142842 0.0944106,-0.100766 0.0993107,-0.19314708 0.001395,-0.005725 0.006209,-0.007288 0.006209,-0.007288 0.008986,-0.002151 0.017562,-0.005261 0.0255579,-0.009512 0.089431,-0.0475629 0.096112,-0.20989462 0.014925,-0.36258701 -0.0811882,-0.15269093 -0.21949982,-0.23792641 -0.30894023,-0.19038188 -0.00824,0.004423 -0.0158996,0.009904 -0.0228867,0.0164275 -0.001883,0.00157 -0.004571,0.002479 -0.008575,5.7268e-4 -0.0794023,-0.0476708 -0.15685932,-0.0569563 -0.21583736,-0.0256959 -0.006366,0.003534 -0.0124519,0.007527 -0.018274,0.0119816 -0.004193,0.002678 -0.007744,0.002305 -0.0109019,5.415e-4 -0.28978835,-0.1812726 -0.67868243,-0.1792454 -1.02920415,0.00713 -0.38138528,0.20070222 -0.66258566,0.62077725 -0.55622566,1.05014157 0.039197,-0.003355 0.077897,-0.007731 0.1162202,-0.0128955 0.00395,-7.4323e-4 0.00787,-0.001378 0.00924,0.006976 z" />
        <path
           inkscape:connector-curvature="0"
           id="path4285"
           transform="translate(1.0713853,1.6954744)"
           pcbmode:style="fill"
           style="fill-opacity:0.6;stroke:none"
           d="m -1.018762,0.318846 c 0.015303,0.0648731 0.0385721,0.12726043 0.0693611,0.18595002 0.0309842,0.0575502 0.0690473,0.1110465 0.11345121,0.15948883 0.004441,0.004434 0.00673,0.009079 0.001545,0.0146631 -0.0253749,0.0285326 -0.050316,0.0578131 -0.0747051,0.0880414 C -0.61262625,1.095264 -0.10713486,1.097026 0.27253216,0.89309222 0.62282784,0.7068367 0.84193438,0.38585877 0.85396043,0.04449277 c 0.00177,-0.0079178 0.002841,-0.0065847 0.00745,-0.009488 0.006634,-0.0023492 0.0130559,-0.0051298 0.0192295,-0.0084124 0.0588271,-0.03142842 0.0944106,-0.100766 0.0993107,-0.19314708 0.001395,-0.005725 0.006209,-0.007288 0.006209,-0.007288 0.008986,-0.002151 0.017562,-0.005261 0.0255579,-0.009512 0.089431,-0.0475629 0.096112,-0.20989462 0.014925,-0.36258701 -0.0811882,-0.15269093 -0.21949982,-0.23792641 -0.30894023,-0.19038188 -0.00824,0.004423 -0.0158996,0.009904 -0.0228867,0.0164275 -0.001883,0.00157 -0.004571,0.002479 -0.008575,5.7268e-4 -0.0794023,-0.0476708 -0.15685932,-0.0569563 -0.21583736,-0.0256959 -0.006366,0.003534 -0.0124519,0.007527 -0.018274,0.0119816 -0.004193,0.002678 -0.007744,0.002305 -0.0109019,5.415e-4 -0.28978835,-0.1812726 -0.67868243,-0.1792454 -1.02920415,0.00713 -0.38138528,0.20070222 -0.66258566,0.62077725 -0.55622566,1.05014157 0.039197,-0.003355 0.077897,-0.007731 0.1162202,-0.0128955 0.00395,-7.4323e-4 0.00787,-0.001378 0.00924,0.006976 z" />
      </g>
      <g
         id="g4287"
         pcbmode:type="module-shapes">
        <path
           inkscape:connector-curvature="0"
           id="path4289"
           pcbmode:style="stroke"
           style="fill:none;stroke-width:0.05"
           d="m -4.464645,27.541222 c 1.46276,0.444819 2.96067,0.674375 4.46457,0.684033 1.48314,-0.0089 2.96049,-0.231783 4.4041,-0.664044 0.1356,-0.04814 0.25359,-0.04343 0.31032,0.145046 0.30128,0.939718 0.62222,1.878598 0.96806,2.816465 9.73575,-2.826176 15.15617,-14.520399 15.11487,-25.833258 0,-10.414261 -4.09687,-19.448174 -10.80829,-23.933748 -0.13986,-0.13783 -0.10152,-0.147983 -0.1105,-0.28971 0.0233,-0.182644 0.0355,-0.365884 0.0367,-0.549261 -0.003,-1.750705 -1.01308,-3.429985 -2.81188,-4.682038 -0.10072,-0.102124 -0.08,-0.233646 -0.08,-0.233646 0.0532,-0.234719 0.0808,-0.471855 0.0824,-0.709468 -2.5e-4,-2.658907 -3.1815,-4.814293 -7.10572,-4.814315 -3.92421,2.1e-5 -7.10547,2.155408 -7.10571,4.814315 8.5e-4,0.245475 0.0291,0.490489 0.085,0.732902 0.0114,0.06207 9.9e-4,0.136982 -0.0803,0.206368 -1.80109,1.252806 -2.81223,2.933692 -2.81421,4.685882 0.003,0.190801 0.0182,0.3814 0.0452,0.571281 0.009,0.131013 -0.0359,0.207531 -0.10576,0.259359 -6.71912,4.482592 -10.82148,13.521104 -10.82148,23.942079 -0.0413,11.312859 5.37914,23.007082 15.11487,25.833258 0.35027,-0.94989 0.67503,-1.900809 0.97966,-2.852592 0.027,-0.100616 0.056,-0.199103 0.23825,-0.128908 z" />
      </g>
    </g>
    <rect
       style="fill:none;fill-opacity:1;stroke:#000000;stroke-width:0.34290072;stroke-miterlimit:4;stroke-dasharray:none;stroke-opacity:1"
       id="rect4291"
       width="10.287021"
       height="10.287021"
       x="-530.74329"
       y="550.40771" />
    <rect
       y="529.14783"
       x="-530.74329"
       height="10.287021"
       width="10.287021"
       id="rect4295"
       style="fill:none;fill-opacity:1;stroke:#000000;stroke-width:0.34290072;stroke-miterlimit:4;stroke-dasharray:none;stroke-opacity:1" />
    <g
       id="g4371"
       transform="translate(519.2913,305.18406)">
      <g
         transform="matrix(0.76604444,-0.64278761,0.64278761,0.76604444,-502.57153,-401.16657)"
         id="g4305">
        <rect
           style="fill:none;fill-opacity:1;stroke:#000000;stroke-width:0.34290072;stroke-miterlimit:4;stroke-dasharray:none;stroke-opacity:1"
           id="rect4307"
           width="10.287021"
           height="10.287021"
           x="-1010.7433"
           y="510.40768" />
        <rect
           y="489.14783"
           x="-1010.7433"
           height="10.287021"
           width="10.287021"
           id="rect4309"
           style="fill:none;fill-opacity:1;stroke:#000000;stroke-width:0.34290072;stroke-miterlimit:4;stroke-dasharray:none;stroke-opacity:1" />
      </g>
      <g
         id="g4311"
         transform="matrix(0.76604444,0.64278761,-0.64278761,0.76604444,420.69763,891.60758)">
        <rect
           y="510.40768"
           x="-1010.7433"
           height="10.287021"
           width="10.287021"
           id="rect4313"
           style="fill:none;fill-opacity:1;stroke:#000000;stroke-width:0.34290072;stroke-miterlimit:4;stroke-dasharray:none;stroke-opacity:1" />
        <rect
           style="fill:none;fill-opacity:1;stroke:#000000;stroke-width:0.34290072;stroke-miterlimit:4;stroke-dasharray:none;stroke-opacity:1"
           id="rect4315"
           width="10.287021"
           height="10.287021"
           x="-1010.7433"
           y="489.14783" />
      </g>
      <g
         id="g4327"
         transform="matrix(0.8660254,0.5,0.5,-0.8660254,-331.67954,1330.1556)">
        <rect
           y="510.40768"
           x="-1010.7433"
           height="10.287021"
           width="10.287021"
           id="rect4329"
           style="fill:none;fill-opacity:1;stroke:#000000;stroke-width:0.34290072;stroke-miterlimit:4;stroke-dasharray:none;stroke-opacity:1" />
        <rect
           style="fill:none;fill-opacity:1;stroke:#000000;stroke-width:0.34290072;stroke-miterlimit:4;stroke-dasharray:none;stroke-opacity:1"
           id="rect4331"
           width="10.287021"
           height="10.287021"
           x="-1010.7433"
           y="489.14783" />
      </g>
      <g
         transform="matrix(-0.8660254,0.5,-0.5,-0.8660254,-1290.8626,1330.1556)"
         id="g4345">
        <rect
           style="fill:none;fill-opacity:1;stroke:#000000;stroke-width:0.34290072;stroke-miterlimit:4;stroke-dasharray:none;stroke-opacity:1"
           id="rect4347"
           width="10.287021"
           height="10.287021"
           x="-1010.7433"
           y="510.40768" />
        <rect
           y="489.14783"
           x="-1010.7433"
           height="10.287021"
           width="10.287021"
           id="rect4349"
           style="fill:none;fill-opacity:1;stroke:#000000;stroke-width:0.34290072;stroke-miterlimit:4;stroke-dasharray:none;stroke-opacity:1" />
      </g>
    </g>
    <g
       id="g4465"
       pcbmode:type="module-shapes"
       style="fill:none;stroke:#555555;stroke-width:0.1;stroke-miterlimit:4;stroke-dasharray:none;stroke-opacity:1"
       transform="matrix(3.5433071,0,0,3.5433071,-291.97974,303.80353)">
      <path
         inkscape:connector-curvature="0"
         id="path4467"
         pcbmode:style="stroke"
         style="fill:none;stroke-width:0.1;stroke-miterlimit:4;stroke-dasharray:none"
         d="m -4.464645,27.541222 c 1.46276,0.444819 2.96067,0.674375 4.46457,0.684033 1.48314,-0.0089 2.96049,-0.231783 4.4041,-0.664044 0.1356,-0.04814 0.25359,-0.04343 0.31032,0.145046 0.30128,0.939718 0.62222,1.878598 0.96806,2.816465 9.73575,-2.826176 15.15617,-14.520399 15.11487,-25.833258 0,-10.414261 -4.09687,-19.448174 -10.80829,-23.933748 -0.13986,-0.13783 -0.10152,-0.147983 -0.1105,-0.28971 0.0233,-0.182644 0.0355,-0.365884 0.0367,-0.549261 -0.003,-1.750705 -1.01308,-3.429985 -2.81188,-4.682038 -0.10072,-0.102124 -0.08,-0.233646 -0.08,-0.233646 0.0532,-0.234719 0.0808,-0.471855 0.0824,-0.709468 -2.5e-4,-2.658907 -3.1815,-4.814293 -7.10572,-4.814315 -3.92421,2.1e-5 -7.10547,2.155408 -7.10571,4.814315 8.5e-4,0.245475 0.0291,0.490489 0.085,0.732902 0.0114,0.06207 9.9e-4,0.136982 -0.0803,0.206368 -1.80109,1.252806 -2.81223,2.933692 -2.81421,4.685882 0.003,0.190801 0.0182,0.3814 0.0452,0.571281 0.009,0.131013 -0.0359,0.207531 -0.10576,0.259359 -6.71912,4.482592 -10.82148,13.521104 -10.82148,23.942079 -0.0413,11.312859 5.37914,23.007082 15.11487,25.833258 0.35027,-0.94989 0.67503,-1.900809 0.97966,-2.852592 0.027,-0.100616 0.056,-0.199103 0.23825,-0.128908 z" />
    </g>
    <rect
       rx="17.716536"
       ry="17.716536"
       y="126.64792"
       x="-451.42859"
       height="354.33072"
       width="318.89764"
       id="rect4469"
       style="opacity:1;fill:none;fill-opacity:1;stroke:#000000;stroke-width:0.35433072;stroke-linejoin:round;stroke-miterlimit:4;stroke-dasharray:none;stroke-opacity:1" />
    <g
       transform="translate(519.2913,-174.81594)"
       id="g4557">
      <g
         id="g4559"
         transform="matrix(0.76604444,-0.64278761,0.64278761,0.76604444,-502.57153,-401.16657)">
        <rect
           y="510.40768"
           x="-1010.7433"
           height="10.287021"
           width="10.287021"
           id="rect4561"
           style="fill:none;fill-opacity:1;stroke:#000000;stroke-width:0.34290072;stroke-miterlimit:4;stroke-dasharray:none;stroke-opacity:1" />
        <rect
           style="fill:none;fill-opacity:1;stroke:#000000;stroke-width:0.34290072;stroke-miterlimit:4;stroke-dasharray:none;stroke-opacity:1"
           id="rect4563"
           width="10.287021"
           height="10.287021"
           x="-1010.7433"
           y="489.14783" />
      </g>
      <g
         transform="matrix(0.76604444,0.64278761,-0.64278761,0.76604444,420.69763,891.60758)"
         id="g4565">
        <rect
           style="fill:none;fill-opacity:1;stroke:#000000;stroke-width:0.34290072;stroke-miterlimit:4;stroke-dasharray:none;stroke-opacity:1"
           id="rect4567"
           width="10.287021"
           height="10.287021"
           x="-1010.7433"
           y="510.40768" />
        <rect
           y="489.14783"
           x="-1010.7433"
           height="10.287021"
           width="10.287021"
           id="rect4569"
           style="fill:none;fill-opacity:1;stroke:#000000;stroke-width:0.34290072;stroke-miterlimit:4;stroke-dasharray:none;stroke-opacity:1" />
      </g>
      <g
         transform="matrix(0.8660254,0.5,0.5,-0.8660254,-331.67954,1330.1556)"
         id="g4571">
        <rect
           style="fill:none;fill-opacity:1;stroke:#000000;stroke-width:0.34290072;stroke-miterlimit:4;stroke-dasharray:none;stroke-opacity:1"
           id="rect4573"
           width="10.287021"
           height="10.287021"
           x="-1010.7433"
           y="510.40768" />
        <rect
           y="489.14783"
           x="-1010.7433"
           height="10.287021"
           width="10.287021"
           id="rect4575"
           style="fill:none;fill-opacity:1;stroke:#000000;stroke-width:0.34290072;stroke-miterlimit:4;stroke-dasharray:none;stroke-opacity:1" />
      </g>
      <g
         id="g4577"
         transform="matrix(-0.8660254,0.5,-0.5,-0.8660254,-1290.8626,1330.1556)">
        <rect
           y="510.40768"
           x="-1010.7433"
           height="10.287021"
           width="10.287021"
           id="rect4579"
           style="fill:none;fill-opacity:1;stroke:#000000;stroke-width:0.34290072;stroke-miterlimit:4;stroke-dasharray:none;stroke-opacity:1" />
        <rect
           style="fill:none;fill-opacity:1;stroke:#000000;stroke-width:0.34290072;stroke-miterlimit:4;stroke-dasharray:none;stroke-opacity:1"
           id="rect4581"
           width="10.287021"
           height="10.287021"
           x="-1010.7433"
           y="489.14783" />
      </g>
    </g>
    <path
       style="fill:none;fill-opacity:1;stroke:#000000;stroke-width:0.35433075;stroke-miterlimit:4;stroke-dasharray:none;stroke-opacity:1"
       d="m -470.68715,283.57752 0,12.0274 c 0,0.9815 0.79,1.7714 1.7715,1.7714 l 6.7324,0 c 0.9815,0 1.7715,-0.7899 1.7715,-1.7714 0.011,-58.809 0.01,-110.055 0.01,-161.9766 0,-0.9815 -0.79,-1.7715 -1.7715,-1.7715 l -6.7441,0 c -0.9815,0 -1.7715,0.79 -1.7715,1.7715 l 0,8.5605 -10.97265,0 0,-8.5605 0,0 c 0,-0.9815 -0.7899,-1.7715 -1.7714,-1.7715 l -6.7442,0 c -0.9815,0 -1.7715,1.7715 -1.7715,1.7715 0,0 0.01,113.7385 0.01,161.9766 0,0.9815 0.79,1.7714 1.7715,1.7714 l 6.7324,0 c 0.9815,0 1.7715,-0.7899 1.7715,-1.7714 l 0,-12.0274 z"
       id="path4601"
       inkscape:connector-curvature="0"
       sodipodi:nodetypes="csssccsssccccssccssscc" />
    <path
       sodipodi:nodetypes="csssccsssccccssccssscc"
       inkscape:connector-curvature="0"
       id="path4603"
       d="m -470.68715,463.57752 0,12.0274 c 0,0.9815 0.79,1.7714 1.7715,1.7714 l 6.7324,0 c 0.9815,0 1.7715,-0.7899 1.7715,-1.7714 0.011,-58.809 0.01,-110.055 0.01,-161.9766 0,-0.9815 -0.79,-1.7715 -1.7715,-1.7715 l -6.7441,0 c -0.9815,0 -1.7715,0.79 -1.7715,1.7715 l 0,8.5605 -10.97265,0 0,-8.5605 0,0 c 0,-0.9815 -0.7899,-1.7715 -1.7714,-1.7715 l -6.7442,0 c -0.9815,0 -1.7715,1.7715 -1.7715,1.7715 0,0 0.01,113.7385 0.01,161.9766 0,0.9815 0.79,1.7714 1.7715,1.7714 l 6.7324,0 c 0.9815,0 1.7715,-0.7899 1.7715,-1.7714 l 0,-12.0274 z"
       style="fill:none;fill-opacity:1;stroke:#000000;stroke-width:0.35433075;stroke-miterlimit:4;stroke-dasharray:none;stroke-opacity:1" />
    <path
       sodipodi:nodetypes="csssccsssccccssccssscc"
       inkscape:connector-curvature="0"
       id="path4605"
       d="m -510.6871,283.57752 0,12.0274 c 0,0.9815 0.79,1.7714 1.7714,1.7714 l 6.7324,0 c 0.9815,0 1.7715,-0.7899 1.7715,-1.7714 0.011,-58.809 0.01,-110.055 0.01,-161.9766 0,-0.9815 -0.79,-1.7715 -1.7715,-1.7715 l -6.7441,0 c -0.9815,0 -1.7714,0.79 -1.7714,1.7715 l 0,8.5605 -10.9727,0 0,-8.5605 0,0 c 0,-0.9815 -0.7899,-1.7715 -1.7714,-1.7715 l -6.7442,0 c -0.9815,0 -1.7715,1.7715 -1.7715,1.7715 0,0 0.01,113.7385 0.01,161.9766 0,0.9815 0.79,1.7714 1.7715,1.7714 l 6.7324,0 c 0.9815,0 1.7715,-0.7899 1.7715,-1.7714 l 0,-12.0274 z"
       style="fill:none;fill-opacity:1;stroke:#000000;stroke-width:0.35433075;stroke-miterlimit:4;stroke-dasharray:none;stroke-opacity:1" />
    <path
       style="fill:none;fill-opacity:1;stroke:#000000;stroke-width:0.35433075;stroke-miterlimit:4;stroke-dasharray:none;stroke-opacity:1"
       d="m -510.6871,463.57752 0,12.0274 c 0,0.9815 0.79,1.7714 1.7714,1.7714 l 6.7324,0 c 0.9815,0 1.7715,-0.7899 1.7715,-1.7714 0.011,-58.809 0.01,-110.055 0.01,-161.9766 0,-0.9815 -0.79,-1.7715 -1.7715,-1.7715 l -6.7441,0 c -0.9815,0 -1.7714,0.79 -1.7714,1.7715 l 0,8.5605 -10.9727,0 0,-8.5605 0,0 c 0,-0.9815 -0.7899,-1.7715 -1.7714,-1.7715 l -6.7442,0 c -0.9815,0 -1.7715,1.7715 -1.7715,1.7715 0,0 0.01,113.7385 0.01,161.9766 0,0.9815 0.79,1.7714 1.7715,1.7714 l 6.7324,0 c 0.9815,0 1.7715,-0.7899 1.7715,-1.7714 l 0,-12.0274 z"
       id="path4607"
       inkscape:connector-curvature="0"
       sodipodi:nodetypes="csssccsssccccssccssscc" />
    <path
       style="fill:none;fill-opacity:1;stroke:#000000;stroke-width:0.35433075;stroke-miterlimit:4;stroke-dasharray:none;stroke-opacity:1"
       d="m -550.6871,283.57752 0,12.0274 c 0,0.9815 0.79,1.7714 1.7714,1.7714 l 6.7324,0 c 0.9815,0 1.7715,-0.7899 1.7715,-1.7714 0.011,-58.809 0.01,-110.055 0.01,-161.9766 0,-0.9815 -0.79,-1.7715 -1.7715,-1.7715 l -6.7441,0 c -0.9815,0 -1.7714,0.79 -1.7714,1.7715 l 0,8.5605 -10.9727,0 0,-8.5605 0,0 c 0,-0.9815 -0.7899,-1.7715 -1.7714,-1.7715 l -6.7442,0 c -0.9815,0 -1.7715,1.7715 -1.7715,1.7715 0,0 0.01,113.7385 0.01,161.9766 0,0.9815 0.79,1.7714 1.7715,1.7714 l 6.7324,0 c 0.9815,0 1.7715,-0.7899 1.7715,-1.7714 l 0,-12.0274 z"
       id="path4609"
       inkscape:connector-curvature="0"
       sodipodi:nodetypes="csssccsssccccssccssscc" />
    <path
       sodipodi:nodetypes="csssccsssccccssccssscc"
       inkscape:connector-curvature="0"
       id="path4611"
       d="m -550.6871,463.57752 0,12.0274 c 0,0.9815 0.79,1.7714 1.7714,1.7714 l 6.7324,0 c 0.9815,0 1.7715,-0.7899 1.7715,-1.7714 0.011,-58.809 0.01,-110.055 0.01,-161.9766 0,-0.9815 -0.79,-1.7715 -1.7715,-1.7715 l -6.7441,0 c -0.9815,0 -1.7714,0.79 -1.7714,1.7715 l 0,8.5605 -10.9727,0 0,-8.5605 0,0 c 0,-0.9815 -0.7899,-1.7715 -1.7714,-1.7715 l -6.7442,0 c -0.9815,0 -1.7715,1.7715 -1.7715,1.7715 0,0 0.01,113.7385 0.01,161.9766 0,0.9815 0.79,1.7714 1.7715,1.7714 l 6.7324,0 c 0.9815,0 1.7715,-0.7899 1.7715,-1.7714 l 0,-12.0274 z"
       style="fill:none;fill-opacity:1;stroke:#000000;stroke-width:0.35433075;stroke-miterlimit:4;stroke-dasharray:none;stroke-opacity:1" />
    <rect
       style="opacity:1;fill:none;fill-opacity:1;stroke:#000000;stroke-width:0.35433072;stroke-linejoin:round;stroke-miterlimit:4;stroke-dasharray:none;stroke-opacity:1"
       id="rect4613"
       width="318.89764"
       height="354.33072"
       x="-901.42859"
       y="126.64792"
       ry="17.716536"
       rx="17.716536" />
    <g
       id="g4615"
       transform="translate(69.2913,-174.81594)">
      <g
         transform="matrix(0.76604444,-0.64278761,0.64278761,0.76604444,-502.57153,-401.16657)"
         id="g4617">
        <rect
           style="fill:none;fill-opacity:1;stroke:#000000;stroke-width:0.34290072;stroke-miterlimit:4;stroke-dasharray:none;stroke-opacity:1"
           id="rect4619"
           width="10.287021"
           height="10.287021"
           x="-1010.7433"
           y="510.40768" />
        <rect
           y="489.14783"
           x="-1010.7433"
           height="10.287021"
           width="10.287021"
           id="rect4621"
           style="fill:none;fill-opacity:1;stroke:#000000;stroke-width:0.34290072;stroke-miterlimit:4;stroke-dasharray:none;stroke-opacity:1" />
      </g>
      <g
         id="g4623"
         transform="matrix(0.76604444,0.64278761,-0.64278761,0.76604444,420.69763,891.60758)">
        <rect
           y="510.40768"
           x="-1010.7433"
           height="10.287021"
           width="10.287021"
           id="rect4625"
           style="fill:none;fill-opacity:1;stroke:#000000;stroke-width:0.34290072;stroke-miterlimit:4;stroke-dasharray:none;stroke-opacity:1" />
        <rect
           style="fill:none;fill-opacity:1;stroke:#000000;stroke-width:0.34290072;stroke-miterlimit:4;stroke-dasharray:none;stroke-opacity:1"
           id="rect4627"
           width="10.287021"
           height="10.287021"
           x="-1010.7433"
           y="489.14783" />
      </g>
      <g
         id="g4629"
         transform="matrix(0.8660254,0.5,0.5,-0.8660254,-331.67954,1330.1556)">
        <rect
           y="510.40768"
           x="-1010.7433"
           height="10.287021"
           width="10.287021"
           id="rect4631"
           style="fill:none;fill-opacity:1;stroke:#000000;stroke-width:0.34290072;stroke-miterlimit:4;stroke-dasharray:none;stroke-opacity:1" />
        <rect
           style="fill:none;fill-opacity:1;stroke:#000000;stroke-width:0.34290072;stroke-miterlimit:4;stroke-dasharray:none;stroke-opacity:1"
           id="rect4633"
           width="10.287021"
           height="10.287021"
           x="-1010.7433"
           y="489.14783" />
      </g>
      <g
         transform="matrix(-0.8660254,0.5,-0.5,-0.8660254,-1290.8626,1330.1556)"
         id="g4635">
        <rect
           style="fill:none;fill-opacity:1;stroke:#000000;stroke-width:0.34290072;stroke-miterlimit:4;stroke-dasharray:none;stroke-opacity:1"
           id="rect4637"
           width="10.287021"
           height="10.287021"
           x="-1010.7433"
           y="510.40768" />
        <rect
           y="489.14783"
           x="-1010.7433"
           height="10.287021"
           width="10.287021"
           id="rect4639"
           style="fill:none;fill-opacity:1;stroke:#000000;stroke-width:0.34290072;stroke-miterlimit:4;stroke-dasharray:none;stroke-opacity:1" />
      </g>
    </g>
    <g
       transform="matrix(0,3.5433071,-3.5433071,0,912.41358,750.52186)"
       style="fill:none;stroke:#555555;stroke-width:0.1;stroke-miterlimit:4;stroke-dasharray:none;stroke-opacity:1"
       pcbmode:type="module-shapes"
       id="g4641">
      <path
         d="m -4.464645,27.541222 c 1.46276,0.444819 2.96067,0.674375 4.46457,0.684033 1.48314,-0.0089 2.96049,-0.231783 4.4041,-0.664044 0.1356,-0.04814 0.25359,-0.04343 0.31032,0.145046 0.30128,0.939718 0.62222,1.878598 0.96806,2.816465 9.73575,-2.826176 15.15617,-14.520399 15.11487,-25.833258 0,-10.414261 -4.09687,-19.448174 -10.80829,-23.933748 -0.13986,-0.13783 -0.10152,-0.147983 -0.1105,-0.28971 0.0233,-0.182644 0.0355,-0.365884 0.0367,-0.549261 -0.003,-1.750705 -1.01308,-3.429985 -2.81188,-4.682038 -0.10072,-0.102124 -0.08,-0.233646 -0.08,-0.233646 0.0532,-0.234719 0.0808,-0.471855 0.0824,-0.709468 -2.5e-4,-2.658907 -3.1815,-4.814293 -7.10572,-4.814315 -3.92421,2.1e-5 -7.10547,2.155408 -7.10571,4.814315 8.5e-4,0.245475 0.0291,0.490489 0.085,0.732902 0.0114,0.06207 9.9e-4,0.136982 -0.0803,0.206368 -1.80109,1.252806 -2.81223,2.933692 -2.81421,4.685882 0.003,0.190801 0.0182,0.3814 0.0452,0.571281 0.009,0.131013 -0.0359,0.207531 -0.10576,0.259359 -6.71912,4.482592 -10.82148,13.521104 -10.82148,23.942079 -0.0413,11.312859 5.37914,23.007082 15.11487,25.833258 0.35027,-0.94989 0.67503,-1.900809 0.97966,-2.852592 0.027,-0.100616 0.056,-0.199103 0.23825,-0.128908 z"
         style="fill:none;stroke-width:0.1;stroke-miterlimit:4;stroke-dasharray:none"
         pcbmode:style="stroke"
         id="path4643"
         inkscape:connector-curvature="0" />
    </g>
    <rect
       style="opacity:1;fill:none;fill-opacity:1;stroke:#000000;stroke-width:0.35433072;stroke-linejoin:round;stroke-miterlimit:4;stroke-dasharray:none;stroke-opacity:1"
       id="rect4645"
       width="318.89764"
       height="354.33072"
       x="545.073"
       y="-549.56921"
       ry="17.716536"
       rx="17.716536"
       transform="matrix(0,1,-1,0,0,0)" />
    <rect
       style="fill:none;fill-opacity:1;stroke:#000000;stroke-width:0.35433072;stroke-miterlimit:4;stroke-dasharray:none;stroke-opacity:1"
       id="rect4651"
       width="10.287021"
       height="10.287021"
       x="570.32776"
       y="202.45331"
       transform="matrix(0.64278761,0.76604444,-0.76604444,0.64278761,0,0)" />
    <rect
       y="181.19345"
       x="570.32776"
       height="10.287021"
       width="10.287021"
       id="rect4653"
       style="fill:none;fill-opacity:1;stroke:#000000;stroke-width:0.35433072;stroke-miterlimit:4;stroke-dasharray:none;stroke-opacity:1"
       transform="matrix(0.64278761,0.76604444,-0.76604444,0.64278761,0,0)" />
    <rect
       y="-703.26245"
       x="498.77539"
       height="10.287021"
       width="10.287021"
       id="rect4657"
       style="fill:none;fill-opacity:1;stroke:#000000;stroke-width:0.35433072;stroke-miterlimit:4;stroke-dasharray:none;stroke-opacity:1"
       transform="matrix(-0.64278761,0.76604444,-0.76604444,-0.64278761,0,0)" />
    <rect
       style="fill:none;fill-opacity:1;stroke:#000000;stroke-width:0.35433072;stroke-miterlimit:4;stroke-dasharray:none;stroke-opacity:1"
       id="rect4659"
       width="10.287021"
       height="10.287021"
       x="498.77539"
       y="-724.52234"
       transform="matrix(-0.64278761,0.76604444,-0.76604444,-0.64278761,0,0)" />
    <rect
       y="687.5321"
       x="254.29028"
       height="10.287021"
       width="10.287021"
       id="rect4663"
       style="fill:none;fill-opacity:1;stroke:#000000;stroke-width:0.35433072;stroke-miterlimit:4;stroke-dasharray:none;stroke-opacity:1"
       transform="matrix(-0.5,0.8660254,0.8660254,0.5,0,0)" />
    <rect
       style="fill:none;fill-opacity:1;stroke:#000000;stroke-width:0.35433072;stroke-miterlimit:4;stroke-dasharray:none;stroke-opacity:1"
       id="rect4665"
       width="10.287021"
       height="10.287021"
       x="254.29028"
       y="666.27222"
       transform="matrix(-0.5,0.8660254,0.8660254,0.5,0,0)" />
    <rect
       style="fill:none;fill-opacity:1;stroke:#000000;stroke-width:0.35433072;stroke-miterlimit:4;stroke-dasharray:none;stroke-opacity:1"
       id="rect4669"
       width="10.287021"
       height="10.287021"
       x="-965.97736"
       y="-16.989769"
       transform="matrix(-0.5,-0.8660254,0.8660254,-0.5,0,0)" />
    <rect
       y="-38.249626"
       x="-965.97736"
       height="10.287021"
       width="10.287021"
       id="rect4671"
       style="fill:none;fill-opacity:1;stroke:#000000;stroke-width:0.35433072;stroke-miterlimit:4;stroke-dasharray:none;stroke-opacity:1"
       transform="matrix(-0.5,-0.8660254,0.8660254,-0.5,0,0)" />
    <path
       style="fill:none;fill-opacity:1;stroke:#000000;stroke-width:0.35433075;stroke-miterlimit:4;stroke-dasharray:none;stroke-opacity:1"
       d="m 212.63959,491.8145 -10.96531,0 c -0.9815,0 -1.7714,0.79 -1.7714,1.7714 l 0,6.7324 c 0,0.9815 0.7899,1.7715 1.7714,1.7715 58.809,0.011 107.93136,0.01 159.85296,0.01 0.9815,0 1.7715,-0.79 1.7715,-1.7715 l 0,-6.7441 c 0,-0.9815 -0.79,-1.7714 -1.7715,-1.7714 l -7.49895,0 0,-10.9727 7.49895,0 0,0 c 0.9815,0 1.7715,-0.7899 1.7715,-1.7714 l 0,-6.7442 c 0,-1.02992 -0.56083,-1.74612 -1.7715,-1.7715 0,0 -111.61486,0.01 -159.85296,0.01 -0.9815,0 -1.7714,0.79 -1.7714,1.7715 l 0,6.7324 c 0,0.9815 0.7899,1.7715 1.7714,1.7715 l 10.96531,0 z"
       id="path4683"
       inkscape:connector-curvature="0"
       sodipodi:nodetypes="csssccsssccccscccssscc" />
    <rect
       rx="17.716536"
       ry="17.716536"
       y="-549.56921"
       x="145.07301"
       height="354.33072"
       width="318.89764"
       id="rect4685"
       style="opacity:1;fill:none;fill-opacity:1;stroke:#000000;stroke-width:0.35433072;stroke-linejoin:round;stroke-miterlimit:4;stroke-dasharray:none;stroke-opacity:1"
       transform="matrix(0,1,-1,0,0,0)" />
    <rect
       y="-54.661758"
       x="263.90991"
       height="10.287021"
       width="10.287021"
       id="rect4691"
       style="fill:none;fill-opacity:1;stroke:#000000;stroke-width:0.35433072;stroke-miterlimit:4;stroke-dasharray:none;stroke-opacity:1"
       transform="matrix(0.64278761,0.76604444,-0.76604444,0.64278761,0,0)" />
    <rect
       style="fill:none;fill-opacity:1;stroke:#000000;stroke-width:0.35433072;stroke-miterlimit:4;stroke-dasharray:none;stroke-opacity:1"
       id="rect4693"
       width="10.287021"
       height="10.287021"
       x="263.90991"
       y="-75.921616"
       transform="matrix(0.64278761,0.76604444,-0.76604444,0.64278761,0,0)" />
    <rect
       style="fill:none;fill-opacity:1;stroke:#000000;stroke-width:0.35433072;stroke-miterlimit:4;stroke-dasharray:none;stroke-opacity:1"
       id="rect4697"
       width="10.287021"
       height="10.287021"
       x="192.35753"
       y="-446.14749"
       transform="matrix(-0.64278761,0.76604444,-0.76604444,-0.64278761,0,0)" />
    <rect
       y="-467.40735"
       x="192.35753"
       height="10.287021"
       width="10.287021"
       id="rect4699"
       style="fill:none;fill-opacity:1;stroke:#000000;stroke-width:0.35433072;stroke-miterlimit:4;stroke-dasharray:none;stroke-opacity:1"
       transform="matrix(-0.64278761,0.76604444,-0.76604444,-0.64278761,0,0)" />
    <rect
       style="fill:none;fill-opacity:1;stroke:#000000;stroke-width:0.35433072;stroke-miterlimit:4;stroke-dasharray:none;stroke-opacity:1"
       id="rect4703"
       width="10.287021"
       height="10.287021"
       x="-92.119926"
       y="487.53207"
       transform="matrix(-0.5,0.8660254,0.8660254,0.5,0,0)" />
    <rect
       y="466.27222"
       x="-92.119926"
       height="10.287021"
       width="10.287021"
       id="rect4705"
       style="fill:none;fill-opacity:1;stroke:#000000;stroke-width:0.35433072;stroke-miterlimit:4;stroke-dasharray:none;stroke-opacity:1"
       transform="matrix(-0.5,0.8660254,0.8660254,0.5,0,0)" />
    <rect
       y="183.01024"
       x="-619.5672"
       height="10.287021"
       width="10.287021"
       id="rect4709"
       style="fill:none;fill-opacity:1;stroke:#000000;stroke-width:0.35433072;stroke-miterlimit:4;stroke-dasharray:none;stroke-opacity:1"
       transform="matrix(-0.5,-0.8660254,0.8660254,-0.5,0,0)" />
    <rect
       style="fill:none;fill-opacity:1;stroke:#000000;stroke-width:0.35433072;stroke-miterlimit:4;stroke-dasharray:none;stroke-opacity:1"
       id="rect4711"
       width="10.287021"
       height="10.287021"
       x="-619.5672"
       y="161.75038"
       transform="matrix(-0.5,-0.8660254,0.8660254,-0.5,0,0)" />
    <g
       id="g4341"
       pcbmode:type="module-shapes"
       style="fill:none;fill-opacity:1;stroke:#555555;stroke-width:0.1;stroke-miterlimit:4;stroke-dasharray:none;stroke-opacity:1"
       transform="matrix(0,3.5433071,-3.5433071,0,372.41358,704.52186)">
      <path
         style="color:#000000;font-style:normal;font-variant:normal;font-weight:normal;font-stretch:normal;font-size:medium;line-height:normal;font-family:sans-serif;text-indent:0;text-align:start;text-decoration:none;text-decoration-line:none;text-decoration-style:solid;text-decoration-color:#000000;letter-spacing:normal;word-spacing:normal;text-transform:none;direction:ltr;block-progression:tb;writing-mode:lr-tb;baseline-shift:baseline;text-anchor:start;white-space:normal;clip-rule:nonzero;display:inline;overflow:visible;visibility:visible;opacity:1;isolation:auto;mix-blend-mode:normal;color-interpolation:sRGB;color-interpolation-filters:linearRGB;solid-color:#000000;solid-opacity:1;fill:none;fill-opacity:1;fill-rule:nonzero;stroke:#555555;stroke-width:0.1;stroke-linecap:butt;stroke-linejoin:miter;stroke-miterlimit:4;stroke-dasharray:none;stroke-dashoffset:0;stroke-opacity:1;color-rendering:auto;image-rendering:auto;shape-rendering:auto;text-rendering:auto;enable-background:accumulate"
         d="m 0,-30.972656 c -2.0444924,1.1e-5 -3.9034816,0.557452 -5.2773438,1.488281 -1.3738621,0.930829 -2.2791606,2.26648 -2.2792968,3.775391 l 0,0.002 c 8.028e-4,0.231848 0.038127,0.462023 0.082031,0.691406 -1.8002994,1.306032 -2.8885074,3.057909 -2.8906244,4.931641 l 0,0.0039 0,0.0039 c 0.0028,0.18057 0.02063,0.359781 0.04297,0.539063 -6.815517,4.614293 -10.925257,13.7420032 -10.925781,24.224609 -0.02091,5.728865 1.337764,11.547643 3.947266,16.316406 2.609501,4.768763 6.486211,8.497992 11.492187,9.951172 l 0.4042969,0.117188 0.1445313,-0.394532 c 0.3275684,-0.888326 0.62875,-1.777072 0.9160156,-2.666015 1.4246977,0.409148 2.8770241,0.654668 4.33984375,0.664062 l 0.00390625,0 0.00195313,0 C 1.4652652,28.667 2.9204893,28.428395 4.3457031,28.019531 c 0.2865862,0.88655 0.5873678,1.772255 0.9140625,2.658203 l 0.1445313,0.394532 0.4042969,-0.117188 c 5.0059862,-1.45318 8.8826882,-5.182409 11.4921872,-9.951172 2.609204,-4.768223 3.967866,-10.586217 3.947266,-16.3144529 0,-10.4812877 -4.106463,-19.6109991 -10.919922,-24.2265621 0.02082,-0.180577 0.03592,-0.361794 0.03711,-0.542969 l 0,-0.002 0,-0.002 c -0.0032,-1.87328 -1.0885148,-3.626155 -2.8886715,-4.931641 0.044527,-0.228588 0.078518,-0.45775 0.080078,-0.689453 l 0,-0.002 0,-0.002 C 7.5564988,-27.217894 6.6512059,-28.553546 5.2773438,-29.484375 3.9034816,-30.415204 2.0444971,-30.972645 0,-30.972656 Z m -7.3574219,5.833984 c -0.016785,0.01168 -0.0224,0.02926 -0.039063,0.04102 0.00181,-0.0023 0.00229,-0.01229 0.00391,-0.01367 l 0.035156,-0.02734 z m 14.71875,0.0039 0.0625,0.05273 c 0.0066,0.0067 0.00101,0.01008 0.00586,0.01758 -0.028693,-0.02046 -0.039297,-0.05008 -0.06836,-0.07031 z m 0.1054688,0.199219 c -3.29e-5,2.79e-4 0.00195,0.0059 0.00195,0.0059 l -0.00586,0.0293 c 0.00263,-0.0116 0.00139,-0.02354 0.00391,-0.03516 z m -14.9277344,0.03711 c 0.00173,0.0077 1.754e-4,0.01573 0.00195,0.02344 l -0.00391,-0.01953 c -1.708e-4,-9.3e-4 0.00208,-0.0029 0.00195,-0.0039 z m -2.7636715,5.271485 c -0.0095,0.0063 -0.01594,0.01711 -0.02539,0.02344 0.0022,-0.0026 0.0039,-0.0083 0.0059,-0.0098 l 0.01953,-0.01367 z m 20.46289,0.0078 0.06641,0.05469 c -0.0056,-0.0055 0.0053,0.01125 0.002,0.0078 -0.02526,-0.01706 -0.04303,-0.04557 -0.06836,-0.0625 z"
         id="path4343"
         inkscape:connector-curvature="0"
         sodipodi:nodetypes="csccccccccscccccccccccscccccccccscccccccccccccccccccccccccccccc" />
    </g>
    <path
       sodipodi:nodetypes="csssccsssccccscccssscc"
       inkscape:connector-curvature="0"
       id="path4347"
       d="m 382.63959,491.8145 -10.96531,0 c -0.9815,0 -1.7714,0.79 -1.7714,1.7714 l 0,6.7324 c 0,0.9815 0.7899,1.7715 1.7714,1.7715 58.809,0.011 107.93136,0.01 159.85296,0.01 0.9815,0 1.7715,-0.79 1.7715,-1.7715 l 0,-6.7441 c 0,-0.9815 -0.79,-1.7714 -1.7715,-1.7714 l -7.49895,0 0,-10.9727 7.49895,0 0,0 c 0.9815,0 1.7715,-0.7899 1.7715,-1.7714 l 0,-6.7442 c 0,-1.02992 -0.56083,-1.74612 -1.7715,-1.7715 0,0 -111.61486,0.01 -159.85296,0.01 -0.9815,0 -1.7714,0.79 -1.7714,1.7715 l 0,6.7324 c 0,0.9815 0.7899,1.7715 1.7714,1.7715 l 10.96531,0 z"
       style="fill:none;fill-opacity:1;stroke:#000000;stroke-width:0.35433075;stroke-miterlimit:4;stroke-dasharray:none;stroke-opacity:1" />
    <path
       sodipodi:nodetypes="csssccsssccccscccssscc"
       inkscape:connector-curvature="0"
       id="path4349"
       d="m 212.63959,527.8145 -10.96531,0 c -0.9815,0 -1.7714,0.79 -1.7714,1.7714 l 0,6.7324 c 0,0.9815 0.7899,1.7715 1.7714,1.7715 58.809,0.011 107.93136,0.01 159.85296,0.01 0.9815,0 1.7715,-0.79 1.7715,-1.7715 l 0,-6.7441 c 0,-0.9815 -0.79,-1.7714 -1.7715,-1.7714 l -7.49895,0 0,-10.9727 7.49895,0 0,0 c 0.9815,0 1.7715,-0.7899 1.7715,-1.7714 l 0,-6.7442 c 0,-1.02992 -0.56083,-1.74612 -1.7715,-1.7715 0,0 -111.61486,0.01 -159.85296,0.01 -0.9815,0 -1.7714,0.79 -1.7714,1.7715 l 0,6.7324 c 0,0.9815 0.7899,1.7715 1.7714,1.7715 l 10.96531,0 z"
       style="fill:none;fill-opacity:1;stroke:#000000;stroke-width:0.35433075;stroke-miterlimit:4;stroke-dasharray:none;stroke-opacity:1" />
    <path
       style="fill:none;fill-opacity:1;stroke:#000000;stroke-width:0.35433075;stroke-miterlimit:4;stroke-dasharray:none;stroke-opacity:1"
       d="m 382.63959,527.8145 -10.96531,0 c -0.9815,0 -1.7714,0.79 -1.7714,1.7714 l 0,6.7324 c 0,0.9815 0.7899,1.7715 1.7714,1.7715 58.809,0.011 107.93136,0.01 159.85296,0.01 0.9815,0 1.7715,-0.79 1.7715,-1.7715 l 0,-6.7441 c 0,-0.9815 -0.79,-1.7714 -1.7715,-1.7714 l -7.49895,0 0,-10.9727 7.49895,0 0,0 c 0.9815,0 1.7715,-0.7899 1.7715,-1.7714 l 0,-6.7442 c 0,-1.02992 -0.56083,-1.74612 -1.7715,-1.7715 0,0 -111.61486,0.01 -159.85296,0.01 -0.9815,0 -1.7714,0.79 -1.7714,1.7715 l 0,6.7324 c 0,0.9815 0.7899,1.7715 1.7714,1.7715 l 10.96531,0 z"
       id="path4351"
       inkscape:connector-curvature="0"
       sodipodi:nodetypes="csssccsssccccscccssscc" />
  </g>
</svg>
