<?xml version="1.0" encoding="UTF-8" standalone="no"?>
<!-- Created with Inkscape (http://www.inkscape.org/) -->

<svg
   xmlns:pcbmode="pcbmode"
   xmlns:dc="http://purl.org/dc/elements/1.1/"
   xmlns:cc="http://creativecommons.org/ns#"
   xmlns:rdf="http://www.w3.org/1999/02/22-rdf-syntax-ns#"
   xmlns:svg="http://www.w3.org/2000/svg"
   xmlns="http://www.w3.org/2000/svg"
   xmlns:sodipodi="http://sodipodi.sourceforge.net/DTD/sodipodi-0.dtd"
   xmlns:inkscape="http://www.inkscape.org/namespaces/inkscape"
   width="210mm"
   height="297mm"
   viewBox="0 0 744.09448819 1052.3622047"
   id="svg6166"
   version="1.1"
   inkscape:version="0.91 r13725"
   sodipodi:docname="enclosure.svg">
  <defs
     id="defs6168" />
  <sodipodi:namedview
     id="base"
     pagecolor="#ffffff"
     bordercolor="#666666"
     borderopacity="1.0"
     inkscape:pageopacity="0.0"
     inkscape:pageshadow="2"
     inkscape:zoom="0.35"
     inkscape:cx="-164.9473"
     inkscape:cy="463.2419"
     inkscape:document-units="mm"
     inkscape:current-layer="layer1"
     showgrid="false"
     inkscape:window-width="1881"
     inkscape:window-height="1056"
     inkscape:window-x="39"
     inkscape:window-y="24"
     inkscape:window-maximized="1"
     showguides="false" />
  <metadata
     id="metadata6171">
    <rdf:RDF>
      <cc:Work
         rdf:about="">
        <dc:format>image/svg+xml</dc:format>
        <dc:type
           rdf:resource="http://purl.org/dc/dcmitype/StillImage" />
        <dc:title></dc:title>
      </cc:Work>
    </rdf:RDF>
  </metadata>
  <g
     inkscape:label="Layer 1"
     inkscape:groupmode="layer"
     id="layer1">
    <path
       inkscape:connector-curvature="0"
       id="path1548"
       pcbmode:style="stroke"
       style="fill:none;stroke:#555555;stroke-width:0.35433072;stroke-miterlimit:4;stroke-dasharray:none;stroke-opacity:1"
       d="m 356.22788,623.75836 c 5.18301,1.57613 10.49056,2.38952 15.81934,2.42374 5.25522,-0.0315 10.48993,-0.82128 15.60508,-2.35292 0.48048,-0.17057 0.89855,-0.15388 1.09956,0.51395 1.06753,3.32971 2.20472,6.65645 3.43014,9.9796 34.49675,-10.01401 53.70296,-51.45024 53.55662,-91.53517 0,-36.90092 -14.51647,-68.91085 -38.29709,-84.80462 -0.49557,-0.48837 -0.35972,-0.52435 -0.39153,-1.02653 0.0826,-0.64716 0.12578,-1.29644 0.13004,-1.9462 -0.0106,-6.20329 -3.58966,-12.15349 -9.96336,-16.5899 -0.35688,-0.36186 -0.28346,-0.82788 -0.28346,-0.82788 0.1885,-0.83168 0.2863,-1.67193 0.29196,-2.51386 -8.8e-4,-9.42133 -11.27303,-17.05852 -25.17774,-17.0586 -13.90468,8e-5 -25.17687,7.63727 -25.17772,17.0586 0.003,0.86979 0.10311,1.73795 0.30119,2.5969 0.0404,0.21993 0.003,0.48537 -0.28453,0.73122 -6.38182,4.43908 -9.9646,10.39497 -9.97161,16.60352 0.0106,0.67607 0.0645,1.35142 0.16015,2.02422 0.0319,0.46422 -0.1272,0.73535 -0.37474,0.91899 -23.8079,15.8832 -38.34382,47.90943 -38.34382,84.83414 -0.14634,40.08493 19.05994,81.52116 53.55662,91.53517 1.24112,-3.36575 2.39184,-6.73515 3.47124,-10.10761 0.0957,-0.35652 0.19843,-0.70548 0.84419,-0.45676 z" />
    <path
       style="opacity:1;fill:none;fill-opacity:1;stroke:#000000;stroke-width:0.35433072;stroke-linejoin:round;stroke-miterlimit:4;stroke-dasharray:none;stroke-opacity:1"
       d="m 212.59867,382.40617 0,-15.6739 c 0,-9.81496 7.90158,-17.71653 17.71654,-17.71653 l 0,0 283.46457,0 c 9.81496,0 17.71654,7.90157 17.71654,17.71653 l -2e-5,15.67388"
       id="path7252"
       inkscape:connector-curvature="0" />
    <path
       style="opacity:1;fill:none;fill-opacity:1;stroke:#000000;stroke-width:0.35433072;stroke-linejoin:round;stroke-miterlimit:4;stroke-dasharray:none;stroke-opacity:1"
       d="m 212.59867,649.15323 0,-179.9401"
       id="path7248"
       inkscape:connector-curvature="0" />
    <path
       style="opacity:1;fill:none;fill-opacity:1;stroke:#000000;stroke-width:0.35433072;stroke-linejoin:round;stroke-miterlimit:4;stroke-dasharray:none;stroke-opacity:1"
       d="m 479.10403,703.34645 -214.13456,10e-6"
       id="path7244"
       inkscape:connector-curvature="0" />
    <path
       style="opacity:1;fill:none;fill-opacity:1;stroke:#000000;stroke-width:0.35433072;stroke-linejoin:round;stroke-miterlimit:4;stroke-dasharray:none;stroke-opacity:1"
       d="m 531.49632,469.21312 0,179.95962"
       id="path7240"
       inkscape:connector-curvature="0" />
    <g
       id="g6791"
       transform="translate(200,-40)">
      <rect
         style="opacity:1;fill:none;fill-opacity:1;stroke:#000000;stroke-width:0.35433072;stroke-linejoin:round;stroke-miterlimit:4;stroke-dasharray:none;stroke-opacity:1"
         id="rect6753"
         width="88.58268"
         height="25.175198"
         x="579.47913"
         y="404.08282"
         ry="7.0866141"
         rx="7.0866141" />
      <rect
         rx="7.0866141"
         ry="7.0866141"
         y="454.08282"
         x="579.47913"
         height="25.176445"
         width="88.58268"
         id="rect6755"
         style="opacity:1;fill:none;fill-opacity:1;stroke:#000000;stroke-width:0.35433072;stroke-linejoin:round;stroke-miterlimit:4;stroke-dasharray:none;stroke-opacity:1" />
      <rect
         transform="matrix(0,1,-1,0,0,0)"
         style="opacity:1;fill:none;fill-opacity:1;stroke:#000000;stroke-width:0.35433072;stroke-linejoin:round;stroke-miterlimit:4;stroke-dasharray:none;stroke-opacity:1"
         id="rect6757"
         width="47.214355"
         height="16.160583"
         x="418.06387"
         y="-613.57141"
         ry="3.5433071"
         rx="3.5433071" />
    </g>
    <g
       id="g6796"
       transform="translate(200,140)">
      <rect
         rx="7.0866141"
         ry="7.0866141"
         y="404.08282"
         x="579.47913"
         height="25.175198"
         width="88.58268"
         id="rect6798"
         style="opacity:1;fill:none;fill-opacity:1;stroke:#000000;stroke-width:0.35433072;stroke-linejoin:round;stroke-miterlimit:4;stroke-dasharray:none;stroke-opacity:1" />
      <rect
         style="opacity:1;fill:none;fill-opacity:1;stroke:#000000;stroke-width:0.35433072;stroke-linejoin:round;stroke-miterlimit:4;stroke-dasharray:none;stroke-opacity:1"
         id="rect6800"
         width="88.58268"
         height="25.176445"
         x="579.47913"
         y="454.08282"
         ry="7.0866141"
         rx="7.0866141" />
      <rect
         rx="3.5433071"
         ry="3.5433071"
         y="-613.57141"
         x="418.06387"
         height="16.160583"
         width="47.214355"
         id="rect6802"
         style="opacity:1;fill:none;fill-opacity:1;stroke:#000000;stroke-width:0.35433072;stroke-linejoin:round;stroke-miterlimit:4;stroke-dasharray:none;stroke-opacity:1"
         transform="matrix(0,1,-1,0,0,0)" />
    </g>
    <path
       id="path6820"
       style="opacity:1;fill:none;fill-opacity:1;stroke:#000000;stroke-width:0.35433072;stroke-linejoin:round;stroke-miterlimit:4;stroke-dasharray:none;stroke-opacity:1"
       d="m 860.97461,464.08203 -74.4082,0 c -3.92599,0 -7.08789,3.16191 -7.08789,7.08789 l 0,11.00196 c 0,3.92598 3.1619,7.08594 7.08789,7.08593 l 10.8441,-4e-5 3.2e-4,-7.65059 c 0,-1.96299 1.58031,-3.54331 3.5433,-3.54331 l 9.07397,0 c 1.963,0 3.54331,1.58032 3.54331,3.54331 l 0,0 0,40.12774 c 0,1.96299 -1.58031,3.54331 -3.54331,3.54331 l -9.07397,0 c -1.96299,0 -3.54321,-1.58032 -3.5433,-3.54331 l -3.3e-4,-7.65269 -10.84409,-2e-4 0,0 c -3.92599,0 -7.08789,3.16191 -7.08789,7.08789 l 0,11.00196 c 0,3.92598 3.1619,7.08789 7.08789,7.08789 l 74.4082,0"
       inkscape:connector-curvature="0"
       sodipodi:nodetypes="csssscsssccsssscccsssc" />
    <g
       id="g7085"
       pcbmode:type="module-shapes"
       style="fill:none;stroke:#555555;stroke-width:0.1;stroke-miterlimit:4;stroke-dasharray:none;stroke-opacity:1"
       transform="matrix(3.5433071,0,0,3.5433071,-311.97974,483.80353)">
      <path
         inkscape:connector-curvature="0"
         id="path7087"
         pcbmode:style="stroke"
         style="fill:none;stroke-width:0.1;stroke-miterlimit:4;stroke-dasharray:none"
         d="m -4.464645,27.541222 c 1.46276,0.444819 2.96067,0.674375 4.46457,0.684033 1.48314,-0.0089 2.96049,-0.231783 4.4041,-0.664044 0.1356,-0.04814 0.25359,-0.04343 0.31032,0.145046 0.30128,0.939718 0.62222,1.878598 0.96806,2.816465 9.73575,-2.826176 15.15617,-14.520399 15.11487,-25.833258 0,-10.414261 -4.09687,-19.448174 -10.80829,-23.933748 -0.13986,-0.13783 -0.10152,-0.147983 -0.1105,-0.28971 0.0233,-0.182644 0.0355,-0.365884 0.0367,-0.549261 -0.003,-1.750705 -1.01308,-3.429985 -2.81188,-4.682038 -0.10072,-0.102124 -0.08,-0.233646 -0.08,-0.233646 0.0532,-0.234719 0.0808,-0.471855 0.0824,-0.709468 -2.5e-4,-2.658907 -3.1815,-4.814293 -7.10572,-4.814315 -3.92421,2.1e-5 -7.10547,2.155408 -7.10571,4.814315 8.5e-4,0.245475 0.0291,0.490489 0.085,0.732902 0.0114,0.06207 9.9e-4,0.136982 -0.0803,0.206368 -1.80109,1.252806 -2.81223,2.933692 -2.81421,4.685882 0.003,0.190801 0.0182,0.3814 0.0452,0.571281 0.009,0.131013 -0.0359,0.207531 -0.10576,0.259359 -6.71912,4.482592 -10.82148,13.521104 -10.82148,23.942079 -0.0413,11.312859 5.37914,23.007082 15.11487,25.833258 0.35027,-0.94989 0.67503,-1.900809 0.97966,-2.852592 0.027,-0.100616 0.056,-0.199103 0.23825,-0.128908 z" />
    </g>
    <rect
       rx="17.716536"
       ry="17.716536"
       y="306.64792"
       x="-471.42859"
       height="354.33072"
       width="318.89764"
       id="rect7089"
       style="opacity:1;fill:none;fill-opacity:1;stroke:#000000;stroke-width:0.35433072;stroke-linejoin:round;stroke-miterlimit:4;stroke-dasharray:none;stroke-opacity:1" />
    <path
       id="path7091"
       style="opacity:1;fill:none;fill-opacity:1;stroke:#000000;stroke-width:0.35433072;stroke-linejoin:round;stroke-miterlimit:4;stroke-dasharray:none;stroke-opacity:1"
       d="m -140.79553,333.26275 -64.43939,37.2041 c -3.4,1.96299 -4.55733,6.28224 -2.59434,9.68224 l 5.50098,9.52797 c 1.96299,3.4 6.28125,4.55566 9.68125,2.59265 l 9.39125,-5.42208 -3.82502,-6.62577 c -0.98149,-1.69999 -0.40307,-3.85875 1.29693,-4.84024 l 7.85829,-4.53699 c 1.70001,-0.9815 3.85876,-0.40305 4.84025,1.29694 l 0,0 20.06387,34.75165 c 0.9815,1.7 0.40307,3.85875 -1.29694,4.84025 l -7.85829,4.53698 c -1.7,0.9815 -3.85867,0.40301 -4.84024,-1.29694 l -3.82663,-6.62726 -9.39136,5.42187 0,0 c -3.4,1.963 -4.55733,6.28224 -2.59434,9.68224 l 5.50098,9.52797 c 1.96299,3.4 6.28223,4.55735 9.68223,2.59435 l 64.43939,-37.2041"
       inkscape:connector-curvature="0"
       sodipodi:nodetypes="csssscsssccsssscccsssc" />
    <path
       sodipodi:nodetypes="csssscsssccsssscccsssc"
       inkscape:connector-curvature="0"
       d="m -105.8056,646.01141 -56.99999,-47.82867 c -3.00749,-2.52356 -7.46208,-2.13382 -9.98564,0.87366 l -7.07192,8.42797 c -2.52359,3.00749 -2.13263,7.46059 0.87489,9.98416 l 8.30707,6.97041 4.91795,-5.86046 c 1.26178,-1.50373 3.4882,-1.69855 4.99192,-0.43676 l 6.95106,5.83263 c 1.50375,1.26182 1.69854,3.4882 0.43676,4.99193 l 0,0 -25.79364,30.73963 c -1.26177,1.50375 -3.48819,1.69853 -4.99192,0.43673 l -6.95105,-5.83262 c -1.50376,-1.26178 -1.69848,-3.48813 -0.43675,-4.99193 l 4.91879,-5.86252 -8.30692,-6.9706 0,0 c -3.00748,-2.52354 -7.46206,-2.13383 -9.98562,0.87365 l -7.07192,8.42797 c -2.52358,3.0075 -2.13387,7.46209 0.8736,9.98566 l 57.00001,47.82867"
       style="opacity:1;fill:none;fill-opacity:1;stroke:#000000;stroke-width:0.35433072;stroke-linejoin:round;stroke-miterlimit:4;stroke-dasharray:none;stroke-opacity:1"
       id="path7093" />
    <path
       sodipodi:nodetypes="csssscsssccsssscccsssc"
       inkscape:connector-curvature="0"
       d="m -483.16394,333.26275 64.43939,37.2041 c 3.4,1.96299 4.55733,6.28224 2.59434,9.68224 l -5.50098,9.52797 c -1.96299,3.4 -6.28125,4.55566 -9.68125,2.59265 l -9.39125,-5.42208 3.82502,-6.62577 c 0.98149,-1.69999 0.40307,-3.85875 -1.29693,-4.84024 l -7.85829,-4.53699 c -1.70001,-0.9815 -3.85876,-0.40305 -4.84025,1.29694 l 0,0 -20.06387,34.75165 c -0.9815,1.7 -0.40307,3.85875 1.29694,4.84025 l 7.85829,4.53698 c 1.7,0.9815 3.85867,0.40301 4.84024,-1.29694 l 3.82663,-6.62726 9.39136,5.42187 0,0 c 3.4,1.963 4.55733,6.28224 2.59434,9.68224 l -5.50098,9.52797 c -1.96299,3.4 -6.28223,4.55735 -9.68223,2.59435 l -64.43939,-37.2041"
       style="opacity:1;fill:none;fill-opacity:1;stroke:#000000;stroke-width:0.35433072;stroke-linejoin:round;stroke-miterlimit:4;stroke-dasharray:none;stroke-opacity:1"
       id="path7095" />
    <path
       id="path7097"
       style="opacity:1;fill:none;fill-opacity:1;stroke:#000000;stroke-width:0.35433072;stroke-linejoin:round;stroke-miterlimit:4;stroke-dasharray:none;stroke-opacity:1"
       d="m -518.17619,646.01141 56.99999,-47.82867 c 3.00749,-2.52356 7.46208,-2.13382 9.98564,0.87366 l 7.07192,8.42797 c 2.52359,3.00749 2.13263,7.46059 -0.87489,9.98416 l -8.30707,6.97041 -4.91795,-5.86046 c -1.26178,-1.50373 -3.4882,-1.69855 -4.99192,-0.43676 l -6.95106,5.83263 c -1.50375,1.26182 -1.69854,3.4882 -0.43676,4.99193 l 0,0 25.79364,30.73963 c 1.26177,1.50375 3.48819,1.69853 4.99192,0.43673 l 6.95105,-5.83262 c 1.50376,-1.26178 1.69848,-3.48813 0.43675,-4.99193 l -4.91879,-5.86252 8.30692,-6.9706 0,0 c 3.00748,-2.52354 7.46206,-2.13383 9.98562,0.87365 l 7.07192,8.42797 c 2.52358,3.0075 2.13387,7.46209 -0.8736,9.98566 l -57.00001,47.82867"
       inkscape:connector-curvature="0"
       sodipodi:nodetypes="csssscsssccsssscccsssc" />
    <g
       id="g7099"
       style="fill:none;stroke:#555555;stroke-opacity:1"
       transform="matrix(3.5433071,0,0,3.5433071,-311.97974,483.81328)">
      <g
         style="fill:#a60000;fill-opacity:0.6;stroke:none;stroke-opacity:0.6"
         transform="translate(-18.441333,3.799999)"
         pcbmode:type="component"
         pcbmode:refdef="R4"
         id="g7101">
        <g
           style="font-style:normal;font-variant:normal;font-weight:bold;font-stretch:normal;font-size:0.1px;line-height:100%;font-family:'Sans serif';text-align:center;letter-spacing:0;word-spacing:0;writing-mode:lr-tb;text-anchor:middle;fill:#f3ff00;fill-opacity:1;stroke:none"
           id="g7103">
          <text
             x="-0.15000001"
             y="2"
             id="text7105">1</text>
          <text
             x="-0.15000001"
             y="-2"
             id="text7107">2</text>
        </g>
        <path
           d="M 1.049202,0.196755 C 1.066146,0.132291 1.07489,0.0662822 1.075258,7.8e-6 c -3.392e-4,-0.06536 -0.00883,-0.130464 -0.025296,-0.1940824 -0.00184,-0.006 -0.00168,-0.011176 0.00552,-0.013672 0.0358,-0.01328 0.071568,-0.027424 0.1072936,-0.042664 -0.107664,-0.42904 -0.5531592,-0.6679096 -0.9841264,-0.6660896 -0.3967344,0 -0.740884,0.1805424 -0.911764,0.4763048 -0.00528,0.00616 -0.0056,0.00448 -0.011032,0.00488 -0.00696,-0.00104 -0.013936,-0.0016 -0.020928,-0.0016 -0.066696,1.32e-4 -0.1306664,0.044648 -0.1783632,0.1239152 -0.00392,0.0044 -0.008904,0.00352 -0.008904,0.00352 -0.008944,-0.00232 -0.017976,-0.0036 -0.027032,-0.0036 -0.101292,1.04e-5 -0.1834016,0.140204 -0.1834024,0.3131384 8e-7,0.1729336 0.08211,0.3131272 0.1834024,0.3131376 0.009352,-3.68e-5 0.018688,-0.00128 0.02792,-0.00376 0.0024,-5.024e-4 0.0052,-4.32e-5 0.00784,0.00352 0.047728,0.079368 0.1117592,0.1239304 0.1785096,0.1240176 0.00728,-1.32e-4 0.014528,-8e-4 0.02176,-0.002 0.00496,-3.96e-4 0.00792,0.0016 0.00988,0.00464 0.1707656,0.2961016 0.5150904,0.4768864 0.9120808,0.4768864 0.4309672,0.00184 0.8764624,-0.2370504 0.9841264,-0.6660896 -0.036184,-0.01544 -0.072408,-0.029744 -0.1086704,-0.043176 -0.00384,-0.0012 -0.0076,-0.00248 -0.00488,-0.010496 z"
           style="fill-opacity:0.6;stroke:none"
           pcbmode:style="fill"
           transform="translate(-0.15,2)"
           id="path7109"
           inkscape:connector-curvature="0" />
        <path
           d="M 1.049202,0.196755 C 1.066146,0.132291 1.07489,0.0662822 1.075258,7.8e-6 c -3.392e-4,-0.06536 -0.00883,-0.130464 -0.025296,-0.1940824 -0.00184,-0.006 -0.00168,-0.011176 0.00552,-0.013672 0.0358,-0.01328 0.071568,-0.027424 0.1072936,-0.042664 -0.107664,-0.42904 -0.5531592,-0.6679096 -0.9841264,-0.6660896 -0.3967344,0 -0.740884,0.1805424 -0.911764,0.4763048 -0.00528,0.00616 -0.0056,0.00448 -0.011032,0.00488 -0.00696,-0.00104 -0.013936,-0.0016 -0.020928,-0.0016 -0.066696,1.32e-4 -0.1306664,0.044648 -0.1783632,0.1239152 -0.00392,0.0044 -0.008904,0.00352 -0.008904,0.00352 -0.008944,-0.00232 -0.017976,-0.0036 -0.027032,-0.0036 -0.101292,1.04e-5 -0.1834016,0.140204 -0.1834024,0.3131384 8e-7,0.1729336 0.08211,0.3131272 0.1834024,0.3131376 0.009352,-3.68e-5 0.018688,-0.00128 0.02792,-0.00376 0.0024,-5.024e-4 0.0052,-4.32e-5 0.00784,0.00352 0.047728,0.079368 0.1117592,0.1239304 0.1785096,0.1240176 0.00728,-1.32e-4 0.014528,-8e-4 0.02176,-0.002 0.00496,-3.96e-4 0.00792,0.0016 0.00988,0.00464 0.1707656,0.2961016 0.5150904,0.4768864 0.9120808,0.4768864 0.4309672,0.00184 0.8764624,-0.2370504 0.9841264,-0.6660896 -0.036184,-0.01544 -0.072408,-0.029744 -0.1086704,-0.043176 -0.00384,-0.0012 -0.0076,-0.00248 -0.00488,-0.010496 z"
           style="fill-opacity:0.6;stroke:none"
           pcbmode:style="fill"
           transform="translate(-0.15,-2)"
           id="path7111"
           inkscape:connector-curvature="0" />
      </g>
      <g
         style="fill:#a60000;fill-opacity:0.6;stroke:none;stroke-opacity:0.6"
         transform="translate(-12.7575,22.503001)"
         pcbmode:type="component"
         pcbmode:refdef="R2"
         id="g7113">
        <g
           style="font-style:normal;font-variant:normal;font-weight:bold;font-stretch:normal;font-size:0.1px;line-height:100%;font-family:'Sans serif';text-align:center;letter-spacing:0;word-spacing:0;writing-mode:lr-tb;text-anchor:middle;fill:#f3ff00;fill-opacity:1;stroke:none"
           id="g7115">
          <text
             x="1.1706686"
             y="1.628507"
             id="text7117">1</text>
          <text
             x="-1.4004819"
             y="-1.4356707"
             id="text7119">2</text>
        </g>
        <path
           d="M 0.930207,-0.523691 C 0.9017502,-0.5839647 0.8660188,-0.64015089 0.82370039,-0.69115657 c -0.0422724,-0.0498506 -0.0906263,-0.0942641 -0.14413162,-0.13241579 -0.005266,-0.003414 -0.008471,-0.007481 -0.00456,-0.0140216 0.0188882,-0.0331849 0.0371965,-0.067011 0.0547678,-0.10164952 -0.35825701,-0.25945862 -0.85306855,-0.15608452 -1.1820387,0.12233002 -0.30391619,0.25501596 -0.45149966,0.61453456 -0.39228893,0.95094125 -8.514e-5,0.008113 -0.00141,0.007031 -0.005314,0.0108295 -0.006,0.003677 -0.0117041,0.007732 -0.0170602,0.0122266 -0.0510073,0.0429725 -0.0713971,0.11819309 -0.056983,0.2095742 -1.7462e-4,0.00589 -0.004558,0.00842 -0.004558,0.00842 -0.008343,0.003972 -0.0160845,0.008797 -0.0230218,0.0146181 -0.0775875,0.0651172 -0.0503724,0.22529077 0.0607871,0.35776672 0.11116019,0.13247431 0.2641745,0.1870898 0.34177536,0.12198853 0.00714,-0.00604 0.0134931,-0.012993 0.0189711,-0.020827 0.001516,-0.001928 0.003956,-0.003376 0.008268,-0.002343 0.0875785,0.0301204 0.16527344,0.0230988 0.21646327,-0.0197408 0.005492,-0.004781 0.0106149,-0.009951 0.0153836,-0.0155191 0.003545,-0.003492 0.007096,-0.003865 0.0105511,-0.002796 0.32114448,0.11706098 0.70111881,0.0342225 1.0052311,-0.22095806 C 1.0572653,0.31165663 1.2449787,-0.15770283 1.051673,-0.55557101 c -0.037643,0.0114309 -0.0745868,0.0237577 -0.11099937,0.0367772 -0.003713,0.001549 -0.007416,0.002985 -0.010485,-0.004904 z"
           style="fill-opacity:0.6;stroke:none"
           pcbmode:style="fill"
           transform="translate(1.1706685,1.628507)"
           id="path7121"
           inkscape:connector-curvature="0" />
        <path
           d="M 0.930207,-0.523691 C 0.9017502,-0.5839647 0.8660188,-0.64015089 0.82370039,-0.69115657 c -0.0422724,-0.0498506 -0.0906263,-0.0942641 -0.14413162,-0.13241579 -0.005266,-0.003414 -0.008471,-0.007481 -0.00456,-0.0140216 0.0188882,-0.0331849 0.0371965,-0.067011 0.0547678,-0.10164952 -0.35825701,-0.25945862 -0.85306855,-0.15608452 -1.1820387,0.12233002 -0.30391619,0.25501596 -0.45149966,0.61453456 -0.39228893,0.95094125 -8.514e-5,0.008113 -0.00141,0.007031 -0.005314,0.0108295 -0.006,0.003677 -0.0117041,0.007732 -0.0170602,0.0122266 -0.0510073,0.0429725 -0.0713971,0.11819309 -0.056983,0.2095742 -1.7462e-4,0.00589 -0.004558,0.00842 -0.004558,0.00842 -0.008343,0.003972 -0.0160845,0.008797 -0.0230218,0.0146181 -0.0775875,0.0651172 -0.0503724,0.22529077 0.0607871,0.35776672 0.11116019,0.13247431 0.2641745,0.1870898 0.34177536,0.12198853 0.00714,-0.00604 0.0134931,-0.012993 0.0189711,-0.020827 0.001516,-0.001928 0.003956,-0.003376 0.008268,-0.002343 0.0875785,0.0301204 0.16527344,0.0230988 0.21646327,-0.0197408 0.005492,-0.004781 0.0106149,-0.009951 0.0153836,-0.0155191 0.003545,-0.003492 0.007096,-0.003865 0.0105511,-0.002796 0.32114448,0.11706098 0.70111881,0.0342225 1.0052311,-0.22095806 C 1.0572653,0.31165663 1.2449787,-0.15770283 1.051673,-0.55557101 c -0.037643,0.0114309 -0.0745868,0.0237577 -0.11099937,0.0367772 -0.003713,0.001549 -0.007416,0.002985 -0.010485,-0.004904 z"
           style="fill-opacity:0.6;stroke:none"
           pcbmode:style="fill"
           transform="translate(-1.4004819,-1.4356707)"
           id="path7123"
           inkscape:connector-curvature="0" />
      </g>
      <g
         style="fill:#a60000;fill-opacity:0.6;stroke:none;stroke-opacity:0.6"
         transform="translate(18.441334,3.799999)"
         pcbmode:type="component"
         pcbmode:refdef="R3"
         id="g7125">
        <g
           style="font-style:normal;font-variant:normal;font-weight:bold;font-stretch:normal;font-size:0.1px;line-height:100%;font-family:'Sans serif';text-align:center;letter-spacing:0;word-spacing:0;writing-mode:lr-tb;text-anchor:middle;fill:#f3ff00;fill-opacity:1;stroke:none"
           id="g7127">
          <text
             x="0.15000001"
             y="-2"
             id="text7129">1</text>
          <text
             x="0.15000001"
             y="2"
             id="text7131">2</text>
        </g>
        <path
           d="m -1.049202,-0.196755 c -0.016944,0.064464 -0.025688,0.1304728 -0.026056,0.1967472 3.392e-4,0.06536 0.00883,0.130464 0.025296,0.1940824 0.00184,0.006 0.00168,0.011176 -0.00552,0.013672 -0.0358,0.01328 -0.071568,0.027424 -0.1072936,0.042664 0.107664,0.42904 0.5531592,0.6679096 0.9841264,0.6660896 0.3967344,0 0.740884,-0.1805424 0.911764,-0.4763048 0.00528,-0.00616 0.0056,-0.00448 0.011032,-0.00488 0.00696,0.00104 0.013936,0.0016 0.020928,0.0016 0.066696,-1.32e-4 0.1306664,-0.044648 0.1783632,-0.1239152 0.00392,-0.0044 0.008904,-0.00352 0.008904,-0.00352 0.008944,0.00232 0.017976,0.0036 0.027032,0.0036 0.101292,-1.04e-5 0.1834016,-0.140204 0.1834024,-0.3131384 -8e-7,-0.1729336 -0.08211,-0.3131272 -0.1834024,-0.3131376 -0.009352,3.68e-5 -0.018688,0.00128 -0.02792,0.00376 -0.0024,5.024e-4 -0.0052,4.32e-5 -0.00784,-0.00352 -0.047728,-0.079368 -0.1117592,-0.1239304 -0.1785096,-0.1240176 -0.00728,1.32e-4 -0.014528,8e-4 -0.02176,0.002 -0.00496,3.96e-4 -0.00792,-0.0016 -0.00988,-0.00464 -0.1707656,-0.2961016 -0.5150904,-0.4768864 -0.9120808,-0.4768864 -0.4309672,-0.00184 -0.8764624,0.2370504 -0.9841264,0.6660896 0.036184,0.01544 0.072408,0.029744 0.1086704,0.043176 0.00384,0.0012 0.0076,0.00248 0.00488,0.010496 z"
           style="fill-opacity:0.6;stroke:none"
           pcbmode:style="fill"
           transform="translate(0.15,-2)"
           id="path7133"
           inkscape:connector-curvature="0" />
        <path
           d="m -1.049202,-0.196755 c -0.016944,0.064464 -0.025688,0.1304728 -0.026056,0.1967472 3.392e-4,0.06536 0.00883,0.130464 0.025296,0.1940824 0.00184,0.006 0.00168,0.011176 -0.00552,0.013672 -0.0358,0.01328 -0.071568,0.027424 -0.1072936,0.042664 0.107664,0.42904 0.5531592,0.6679096 0.9841264,0.6660896 0.3967344,0 0.740884,-0.1805424 0.911764,-0.4763048 0.00528,-0.00616 0.0056,-0.00448 0.011032,-0.00488 0.00696,0.00104 0.013936,0.0016 0.020928,0.0016 0.066696,-1.32e-4 0.1306664,-0.044648 0.1783632,-0.1239152 0.00392,-0.0044 0.008904,-0.00352 0.008904,-0.00352 0.008944,0.00232 0.017976,0.0036 0.027032,0.0036 0.101292,-1.04e-5 0.1834016,-0.140204 0.1834024,-0.3131384 -8e-7,-0.1729336 -0.08211,-0.3131272 -0.1834024,-0.3131376 -0.009352,3.68e-5 -0.018688,0.00128 -0.02792,0.00376 -0.0024,5.024e-4 -0.0052,4.32e-5 -0.00784,-0.00352 -0.047728,-0.079368 -0.1117592,-0.1239304 -0.1785096,-0.1240176 -0.00728,1.32e-4 -0.014528,8e-4 -0.02176,0.002 -0.00496,3.96e-4 -0.00792,-0.0016 -0.00988,-0.00464 -0.1707656,-0.2961016 -0.5150904,-0.4768864 -0.9120808,-0.4768864 -0.4309672,-0.00184 -0.8764624,0.2370504 -0.9841264,0.6660896 0.036184,0.01544 0.072408,0.029744 0.1086704,0.043176 0.00384,0.0012 0.0076,0.00248 0.00488,0.010496 z"
           style="fill-opacity:0.6;stroke:none"
           pcbmode:style="fill"
           transform="translate(0.15,2)"
           id="path7135"
           inkscape:connector-curvature="0" />
      </g>
      <g
         style="fill:#a60000;fill-opacity:0.6;stroke:none;stroke-opacity:0.6"
         transform="translate(-14.073666,-11.4515)"
         pcbmode:type="component"
         pcbmode:refdef="R6"
         id="g7137">
        <g
           style="font-style:normal;font-variant:normal;font-weight:bold;font-stretch:normal;font-size:0.1px;line-height:100%;font-family:'Sans serif';text-align:center;letter-spacing:0;word-spacing:0;writing-mode:lr-tb;text-anchor:middle;fill:#f3ff00;fill-opacity:1;stroke:none"
           id="g7139">
          <text
             x="-1.0713853"
             y="1.6954745"
             id="text7141">1</text>
          <text
             x="0.80650097"
             y="-1.8363159"
             id="text7143">2</text>
        </g>
        <path
           d="M 0.83402,0.666295 C 0.8792447,0.6173314 0.9179544,0.56315414 0.9493933,0.50481008 0.9797785,0.44694138 1.0028442,0.38547084 1.0181744,0.32156974 c 0.00119,-0.006162 0.00376,-0.0106565 0.011293,-0.00948 0.037844,0.005082 0.076066,0.009385 0.1147642,0.0127012 0.1063604,-0.42936503 -0.17484605,-0.84942169 -0.55622194,-1.05014157 -0.35029568,-0.18625552 -0.73892127,-0.18841449 -1.02865139,-0.007495 -0.007554,0.00296 -0.007048,0.001327 -0.0120317,-8.7042e-4 -0.005657,-0.004186 -0.0115536,-0.007955 -0.0177272,-0.0112378 -0.058951,-0.0311953 -0.13633255,-0.0219223 -0.21566002,0.0256742 -0.005527,0.002045 -0.009514,-0.001072 -0.009514,-0.001072 -0.006808,-0.006247 -0.0141818,-0.0116178 -0.0221777,-0.0158694 -0.0894404,-0.0475445 -0.22775579,0.037691 -0.30894425,0.19038259 -0.081187,0.15269168 -0.074505,0.3150234 0.014925,0.3625863 0.00827,0.004358 0.0171014,0.007643 0.0264171,0.009788 0.002355,6.8314e-4 0.004612,0.002403 0.00527,0.006789 0.00488,0.09248473 0.0404957,0.16189182 0.0993919,0.19330623 0.00649,0.0033012 0.013203,0.0061141 0.0201519,0.0084498 0.004565,0.0019789 0.006242,0.0051309 0.006545,0.0087353 0.0117658,0.34161179 0.23091323,0.66288599 0.58143494,0.8492617 0.37965763,0.20395143 0.88515879,0.20217103 1.18164217,-0.12610285 -0.0246999,-0.0306201 -0.0499685,-0.0602559 -0.0756804,-0.0891398 -0.002827,-0.002862 -0.005546,-0.005758 6.1879e-4,-0.0115584 z"
           style="fill-opacity:0.6;stroke:none"
           pcbmode:style="fill"
           transform="translate(-1.0713853,1.6954744)"
           id="path7145"
           inkscape:connector-curvature="0" />
        <path
           d="M 0.83402,0.666295 C 0.8792447,0.6173314 0.9179544,0.56315414 0.9493933,0.50481008 0.9797785,0.44694138 1.0028442,0.38547084 1.0181744,0.32156974 c 0.00119,-0.006162 0.00376,-0.0106565 0.011293,-0.00948 0.037844,0.005082 0.076066,0.009385 0.1147642,0.0127012 0.1063604,-0.42936503 -0.17484605,-0.84942169 -0.55622194,-1.05014157 -0.35029568,-0.18625552 -0.73892127,-0.18841449 -1.02865139,-0.007495 -0.007554,0.00296 -0.007048,0.001327 -0.0120317,-8.7042e-4 -0.005657,-0.004186 -0.0115536,-0.007955 -0.0177272,-0.0112378 -0.058951,-0.0311953 -0.13633255,-0.0219223 -0.21566002,0.0256742 -0.005527,0.002045 -0.009514,-0.001072 -0.009514,-0.001072 -0.006808,-0.006247 -0.0141818,-0.0116178 -0.0221777,-0.0158694 -0.0894404,-0.0475445 -0.22775579,0.037691 -0.30894425,0.19038259 -0.081187,0.15269168 -0.074505,0.3150234 0.014925,0.3625863 0.00827,0.004358 0.0171014,0.007643 0.0264171,0.009788 0.002355,6.8314e-4 0.004612,0.002403 0.00527,0.006789 0.00488,0.09248473 0.0404957,0.16189182 0.0993919,0.19330623 0.00649,0.0033012 0.013203,0.0061141 0.0201519,0.0084498 0.004565,0.0019789 0.006242,0.0051309 0.006545,0.0087353 0.0117658,0.34161179 0.23091323,0.66288599 0.58143494,0.8492617 0.37965763,0.20395143 0.88515879,0.20217103 1.18164217,-0.12610285 -0.0246999,-0.0306201 -0.0499685,-0.0602559 -0.0756804,-0.0891398 -0.002827,-0.002862 -0.005546,-0.005758 6.1879e-4,-0.0115584 z"
           style="fill-opacity:0.6;stroke:none"
           pcbmode:style="fill"
           transform="translate(0.80650099,-1.8363159)"
           id="path7147"
           inkscape:connector-curvature="0" />
      </g>
      <g
         style="fill:#a60000;fill-opacity:0.6;stroke:none;stroke-opacity:0.6"
         transform="translate(12.773665,22.373667)"
         pcbmode:type="component"
         pcbmode:refdef="R1"
         id="g7149">
        <g
           style="font-style:normal;font-variant:normal;font-weight:bold;font-stretch:normal;font-size:0.1px;line-height:100%;font-family:'Sans serif';text-align:center;letter-spacing:0;word-spacing:0;writing-mode:lr-tb;text-anchor:middle;fill:#f3ff00;fill-opacity:1;stroke:none"
           id="g7151">
          <text
             x="1.4004819"
             y="-1.4356707"
             id="text7153">1</text>
          <text
             x="-1.1706686"
             y="1.628507"
             id="text7155">2</text>
        </g>
        <path
           d="m -0.677264,-0.825138 c -0.0544165,0.0384909 -0.10354445,0.083436 -0.14642672,0.13396863 -0.0417528,0.0502867 -0.0770949,0.10561832 -0.1053759,0.16493569 -0.002447,0.005779 -0.005897,0.009641 -0.0130168,0.006925 -0.0359606,-0.0128387 -0.0724521,-0.024995 -0.10961548,-0.0362845 -0.1933062,0.39786879 -0.00558,0.86721232 0.32573035,1.14283849 0.30391618,0.25501596 0.68360048,0.33792756 1.00461457,0.22119996 0.008004,-0.001325 0.00717,1.6773e-4 0.0115878,0.003353 0.004663,0.00527 0.009647,0.0101836 0.0150033,0.0146779 0.051177,0.0427702 0.12879545,0.0497884 0.21628529,0.0197251 0.005831,-8.5087e-4 0.009083,0.003027 0.009083,0.003027 0.00536,0.007526 0.0114564,0.0143125 0.0183937,0.0201336 0.0776009,0.0651013 0.23061517,0.0104858 0.34177588,-0.12198914 0.11115901,-0.13247534 0.13837411,-0.2926489 0.0607866,-0.35776611 -0.007188,-0.005983 -0.0151386,-0.0110319 -0.0238048,-0.0150663 -0.002161,-0.001158 -0.004011,-0.003309 -0.003743,-0.007736 0.014455,-0.0914784 -0.005952,-0.16677363 -0.0570293,-0.20974676 -0.005662,-0.004578 -0.0116433,-0.008726 -0.0179547,-0.012455 -0.004054,-0.002885 -0.005039,-0.006317 -0.004586,-0.009905 0.0595164,-0.336593 -0.0880455,-0.69640991 -0.39215776,-0.95159042 -0.3289573,-0.27842994 -0.82378221,-0.38178804 -1.1820387,-0.12233002 0.0177939,0.0350864 0.0363487,0.0693282 0.0554934,0.10292672 0.00217,0.003388 0.004228,0.006785 -0.003008,0.0111772 z"
           style="fill-opacity:0.6;stroke:none"
           pcbmode:style="fill"
           transform="translate(1.4004819,-1.4356707)"
           id="path7157"
           inkscape:connector-curvature="0" />
        <path
           d="m -0.677264,-0.825138 c -0.0544165,0.0384909 -0.10354445,0.083436 -0.14642672,0.13396863 -0.0417528,0.0502867 -0.0770949,0.10561832 -0.1053759,0.16493569 -0.002447,0.005779 -0.005897,0.009641 -0.0130168,0.006925 -0.0359606,-0.0128387 -0.0724521,-0.024995 -0.10961548,-0.0362845 -0.1933062,0.39786879 -0.00558,0.86721232 0.32573035,1.14283849 0.30391618,0.25501596 0.68360048,0.33792756 1.00461457,0.22119996 0.008004,-0.001325 0.00717,1.6773e-4 0.0115878,0.003353 0.004663,0.00527 0.009647,0.0101836 0.0150033,0.0146779 0.051177,0.0427702 0.12879545,0.0497884 0.21628529,0.0197251 0.005831,-8.5087e-4 0.009083,0.003027 0.009083,0.003027 0.00536,0.007526 0.0114564,0.0143125 0.0183937,0.0201336 0.0776009,0.0651013 0.23061517,0.0104858 0.34177588,-0.12198914 0.11115901,-0.13247534 0.13837411,-0.2926489 0.0607866,-0.35776611 -0.007188,-0.005983 -0.0151386,-0.0110319 -0.0238048,-0.0150663 -0.002161,-0.001158 -0.004011,-0.003309 -0.003743,-0.007736 0.014455,-0.0914784 -0.005952,-0.16677363 -0.0570293,-0.20974676 -0.005662,-0.004578 -0.0116433,-0.008726 -0.0179547,-0.012455 -0.004054,-0.002885 -0.005039,-0.006317 -0.004586,-0.009905 0.0595164,-0.336593 -0.0880455,-0.69640991 -0.39215776,-0.95159042 -0.3289573,-0.27842994 -0.82378221,-0.38178804 -1.1820387,-0.12233002 0.0177939,0.0350864 0.0363487,0.0693282 0.0554934,0.10292672 0.00217,0.003388 0.004228,0.006785 -0.003008,0.0111772 z"
           style="fill-opacity:0.6;stroke:none"
           pcbmode:style="fill"
           transform="translate(-1.1706685,1.628507)"
           id="path7159"
           inkscape:connector-curvature="0" />
      </g>
      <g
         style="fill:#a60000;fill-opacity:0.6;stroke:none;stroke-opacity:0.6"
         transform="translate(13.992834,-11.370666)"
         pcbmode:type="component"
         pcbmode:refdef="R5"
         id="g7161">
        <g
           style="font-style:normal;font-variant:normal;font-weight:bold;font-stretch:normal;font-size:0.1px;line-height:100%;font-family:'Sans serif';text-align:center;letter-spacing:0;word-spacing:0;writing-mode:lr-tb;text-anchor:middle;fill:#f3ff00;fill-opacity:1;stroke:none"
           id="g7163">
          <text
             x="-0.80650097"
             y="-1.8363159"
             id="text7165">1</text>
          <text
             x="1.0713853"
             y="1.6954745"
             id="text7167">2</text>
        </g>
        <path
           d="m -1.018762,0.318846 c 0.015303,0.0648731 0.0385721,0.12726043 0.0693611,0.18595002 0.0309842,0.0575502 0.0690473,0.1110465 0.11345121,0.15948883 0.004441,0.004434 0.00673,0.009079 0.001545,0.0146631 -0.0253749,0.0285326 -0.050316,0.0578131 -0.0747051,0.0880414 C -0.61262625,1.095264 -0.10713486,1.097026 0.27253216,0.89309222 0.62282784,0.7068367 0.84193438,0.38585877 0.85396043,0.04449277 c 0.00177,-0.0079178 0.002841,-0.0065847 0.00745,-0.009488 0.006634,-0.0023492 0.0130559,-0.0051298 0.0192295,-0.0084124 0.0588271,-0.03142842 0.0944106,-0.100766 0.0993107,-0.19314708 0.001395,-0.005725 0.006209,-0.007288 0.006209,-0.007288 0.008986,-0.002151 0.017562,-0.005261 0.0255579,-0.009512 0.089431,-0.0475629 0.096112,-0.20989462 0.014925,-0.36258701 -0.0811882,-0.15269093 -0.21950204,-0.23792641 -0.30894245,-0.19038188 -0.00824,0.004423 -0.0158996,0.009904 -0.0228867,0.0164275 -0.001883,0.00157 -0.004571,0.002479 -0.008575,5.7268e-4 -0.0794023,-0.0476708 -0.15685932,-0.0569563 -0.21583736,-0.0256959 -0.006366,0.003534 -0.0124519,0.007527 -0.018274,0.0119816 -0.004193,0.002678 -0.007744,0.002305 -0.0109019,5.415e-4 -0.28978835,-0.1812726 -0.67868243,-0.1792454 -1.02920415,0.00713 -0.38138528,0.20070222 -0.66258344,0.62077725 -0.55622344,1.05014157 0.039197,-0.003355 0.077897,-0.007731 0.1162202,-0.0128955 0.00395,-7.4323e-4 0.00787,-0.001378 0.00924,0.006976 z"
           style="fill-opacity:0.6;stroke:none"
           pcbmode:style="fill"
           transform="translate(-0.80650099,-1.8363159)"
           id="path7169"
           inkscape:connector-curvature="0" />
        <path
           d="m -1.018762,0.318846 c 0.015303,0.0648731 0.0385721,0.12726043 0.0693611,0.18595002 0.0309842,0.0575502 0.0690473,0.1110465 0.11345121,0.15948883 0.004441,0.004434 0.00673,0.009079 0.001545,0.0146631 -0.0253749,0.0285326 -0.050316,0.0578131 -0.0747051,0.0880414 C -0.61262625,1.095264 -0.10713486,1.097026 0.27253216,0.89309222 0.62282784,0.7068367 0.84193438,0.38585877 0.85396043,0.04449277 c 0.00177,-0.0079178 0.002841,-0.0065847 0.00745,-0.009488 0.006634,-0.0023492 0.0130559,-0.0051298 0.0192295,-0.0084124 0.0588271,-0.03142842 0.0944106,-0.100766 0.0993107,-0.19314708 0.001395,-0.005725 0.006209,-0.007288 0.006209,-0.007288 0.008986,-0.002151 0.017562,-0.005261 0.0255579,-0.009512 0.089431,-0.0475629 0.096112,-0.20989462 0.014925,-0.36258701 -0.0811882,-0.15269093 -0.21950204,-0.23792641 -0.30894245,-0.19038188 -0.00824,0.004423 -0.0158996,0.009904 -0.0228867,0.0164275 -0.001883,0.00157 -0.004571,0.002479 -0.008575,5.7268e-4 -0.0794023,-0.0476708 -0.15685932,-0.0569563 -0.21583736,-0.0256959 -0.006366,0.003534 -0.0124519,0.007527 -0.018274,0.0119816 -0.004193,0.002678 -0.007744,0.002305 -0.0109019,5.415e-4 -0.28978835,-0.1812726 -0.67868243,-0.1792454 -1.02920415,0.00713 -0.38138528,0.20070222 -0.66258344,0.62077725 -0.55622344,1.05014157 0.039197,-0.003355 0.077897,-0.007731 0.1162202,-0.0128955 0.00395,-7.4323e-4 0.00787,-0.001378 0.00924,0.006976 z"
           style="fill-opacity:0.6;stroke:none"
           pcbmode:style="fill"
           transform="translate(1.0713853,1.6954744)"
           id="path7171"
           inkscape:connector-curvature="0" />
      </g>
      <g
         pcbmode:type="module-shapes"
         id="g7173">
        <path
           d="m -4.464645,27.541222 c 1.46276,0.444819 2.96067,0.674375 4.46457,0.684033 1.48314,-0.0089 2.96049,-0.231783 4.4041,-0.664044 0.1356,-0.04814 0.25359,-0.04343 0.31032,0.145046 0.30128,0.939718 0.62222,1.878598 0.96806,2.816465 9.73575,-2.826176 15.15617,-14.520399 15.11487,-25.833258 0,-10.414261 -4.09687,-19.448174 -10.80829,-23.933748 -0.13986,-0.13783 -0.10152,-0.147983 -0.1105,-0.28971 0.0233,-0.182644 0.0355,-0.365884 0.0367,-0.549261 -0.003,-1.750705 -1.01308,-3.429985 -2.81188,-4.682038 -0.10072,-0.102124 -0.08,-0.233646 -0.08,-0.233646 0.0532,-0.234719 0.0808,-0.471855 0.0824,-0.709468 -2.5e-4,-2.658907 -3.1815,-4.814293 -7.10572,-4.814315 -3.92421,2.1e-5 -7.10547,2.155408 -7.10571,4.814315 8.5e-4,0.245475 0.0291,0.490489 0.085,0.732902 0.0114,0.06207 9.9e-4,0.136982 -0.0803,0.206368 -1.80109,1.252806 -2.81223,2.933692 -2.81421,4.685882 0.003,0.190801 0.0182,0.3814 0.0452,0.571281 0.009,0.131013 -0.0359,0.207531 -0.10576,0.259359 -6.71912,4.482592 -10.82148,13.521104 -10.82148,23.942079 -0.0413,11.312859 5.37914,23.007082 15.11487,25.833258 0.35027,-0.94989 0.67503,-1.900809 0.97966,-2.852592 0.027,-0.100616 0.056,-0.199103 0.23825,-0.128908 z"
           style="fill:none;stroke-width:0.05"
           pcbmode:style="stroke"
           id="path7175"
           inkscape:connector-curvature="0" />
      </g>
    </g>
    <path
       style="opacity:1;fill:none;fill-opacity:1;stroke:#000000;stroke-width:0.35433072;stroke-linejoin:round;stroke-miterlimit:4;stroke-dasharray:none;stroke-opacity:1"
       d="m 531.49555,382.40643 -52.70324,30.42824 c -3.4,1.96299 -4.55733,6.28224 -2.59434,9.68224 l 5.50098,9.52797 c 1.96299,3.4 6.28125,4.55566 9.68125,2.59265 l 9.39125,-5.42208 -3.82502,-6.62577 c -0.98149,-1.69999 -0.40307,-3.85875 1.29693,-4.84024 l 7.85829,-4.53699 c 1.70001,-0.9815 3.85876,-0.40305 4.84025,1.29694 l 0,0 20.06387,34.75165 c 0.9815,1.7 0.40307,3.85875 -1.29694,4.84025 l -7.85829,4.53698 c -1.7,0.9815 -3.85867,0.40301 -4.84024,-1.29694 l -3.82663,-6.62726 -9.39136,5.42187 0,0 c -3.4,1.963 -4.55733,6.28224 -2.59434,9.68224 l 5.50098,9.52797 c 1.96299,3.4 6.28223,4.55735 9.68223,2.59435 l 15.11522,-8.72679"
       id="path7273"
       inkscape:connector-curvature="0" />
    <path
       style="opacity:1;fill:none;fill-opacity:1;stroke:#000000;stroke-width:0.35433072;stroke-linejoin:round;stroke-miterlimit:4;stroke-dasharray:none;stroke-opacity:1"
       d="m 531.49545,649.17131 -10.27381,-8.62075 c -3.00749,-2.52356 -7.46208,-2.13382 -9.98564,0.87366 l -7.07192,8.42797 c -2.52359,3.00749 -2.13263,7.46059 0.87489,9.98416 l 8.30707,6.97041 4.91795,-5.86046 c 1.26178,-1.50373 3.4882,-1.69855 4.99192,-0.43676 l 6.95106,5.83263 c 1.50375,1.26182 1.69854,3.4882 0.43676,4.99193 l 0,0 -25.79364,30.73963 c -1.26177,1.50375 -3.48819,1.69853 -4.99192,0.43673 l -6.95105,-5.83262 c -1.50376,-1.26178 -1.69848,-3.48813 -0.43675,-4.99193 l 4.91879,-5.86252 -8.30692,-6.9706 0,0 c -3.00748,-2.52354 -7.46206,-2.13383 -9.98562,0.87365 l -7.07192,8.42797 c -2.52358,3.0075 -2.13387,7.46209 0.8736,9.98566 l 6.20517,5.20676"
       id="path7267"
       inkscape:connector-curvature="0" />
    <path
       style="opacity:1;fill:none;fill-opacity:1;stroke:#000000;stroke-width:0.35433072;stroke-linejoin:round;stroke-miterlimit:4;stroke-dasharray:none;stroke-opacity:1"
       d="m 212.59943,382.40643 52.70325,30.42824 c 3.4,1.96299 4.55733,6.28224 2.59434,9.68224 l -5.50098,9.52797 c -1.96299,3.4 -6.28125,4.55566 -9.68125,2.59265 l -9.39125,-5.42208 3.82502,-6.62577 c 0.98149,-1.69999 0.40307,-3.85875 -1.29693,-4.84024 l -7.85829,-4.53699 c -1.70001,-0.9815 -3.85876,-0.40305 -4.84025,1.29694 l 0,0 -20.06387,34.75165 c -0.9815,1.7 -0.40307,3.85875 1.29694,4.84025 l 7.85829,4.53698 c 1.7,0.9815 3.85867,0.40301 4.84024,-1.29694 l 3.82663,-6.62726 9.39136,5.42187 0,0 c 3.4,1.963 4.55733,6.28224 2.59434,9.68224 l -5.50098,9.52797 c -1.96299,3.4 -6.28223,4.55735 -9.68223,2.59435 l -15.11523,-8.72679"
       id="path7261"
       inkscape:connector-curvature="0" />
    <path
       style="opacity:1;fill:none;fill-opacity:1;stroke:#000000;stroke-width:0.35433072;stroke-linejoin:round;stroke-miterlimit:4;stroke-dasharray:none;stroke-opacity:1"
       d="m 212.59945,649.15266 10.25158,-8.6021 c 3.00749,-2.52356 7.46208,-2.13382 9.98564,0.87366 l 7.07192,8.42797 c 2.52359,3.00749 2.13263,7.46059 -0.87489,9.98416 l -8.30707,6.97041 -4.91795,-5.86046 c -1.26178,-1.50373 -3.4882,-1.69855 -4.99192,-0.43676 l -6.95106,5.83263 c -1.50375,1.26182 -1.69854,3.4882 -0.43676,4.99193 l 0,0 25.79364,30.73963 c 1.26177,1.50375 3.48819,1.69853 4.99192,0.43673 l 6.95105,-5.83262 c 1.50376,-1.26178 1.69848,-3.48813 0.43675,-4.99193 l -4.91879,-5.86252 8.30692,-6.9706 0,0 c 3.00748,-2.52354 7.46206,-2.13383 9.98562,0.87365 l 7.07192,8.42797 c 2.52358,3.0075 2.13387,7.46209 -0.8736,9.98566 l -6.20518,5.20676"
       id="path7255"
       inkscape:connector-curvature="0" />
  </g>
</svg>
